<svg width="18" height="18" viewBox="0 0 18 18" fill="none" xmlns="http://www.w3.org/2000/svg">
<path d="M9 18C13.9706 18 18 13.9706 18 9C18 4.02944 13.9706 0 9 0C4.02944 0 0 4.02944 0 9C0 13.9706 4.02944 18 9 18Z" fill="#0088CC"/>
<path d="M8.9883 5.47366C9.98513 5.47366 10.9819 5.47195 11.9788 5.47423C12.4104 5.47537 12.7821 5.61293 13.0407 5.97878C13.3804 6.45992 13.3912 6.97018 13.1052 7.46616C11.9982 9.38618 10.8775 11.2982 9.7619 13.2137C9.64486 13.4146 9.52896 13.6166 9.41021 13.8169C9.19041 14.1874 8.77877 14.1851 8.56354 13.8095C7.88529 12.6286 7.20989 11.4466 6.53278 10.2651C5.97899 9.29886 5.42748 8.33086 4.86969 7.36628C4.37185 6.50616 4.93363 5.49021 5.92989 5.47595C6.75087 5.46396 7.57185 5.47309 8.39283 5.47252C8.59151 5.47252 8.79019 5.47252 8.98887 5.47252L8.9883 5.47366ZM9.44618 11.8878L9.46673 11.8964C9.60603 11.6572 9.74534 11.4181 9.88464 11.1789C10.6885 9.79826 11.4929 8.41818 12.2956 7.03696C12.5017 6.68138 12.3367 6.39086 11.9325 6.39086C11.1424 6.39086 10.3517 6.39258 9.5615 6.38801C9.46616 6.38801 9.44332 6.41027 9.44332 6.50558C9.44675 7.97528 9.44561 9.4444 9.44561 10.9141C9.44561 11.2383 9.44561 11.563 9.44561 11.8872L9.44618 11.8878ZM8.5093 11.873L8.52928 11.8701C8.52928 11.849 8.52928 11.8279 8.52928 11.8067C8.52928 10.0323 8.52871 8.25723 8.53157 6.48276C8.53157 6.39201 8.49503 6.38915 8.4248 6.38972C7.62323 6.39143 6.82166 6.39086 6.01952 6.39086C5.95101 6.39086 5.8825 6.39086 5.81513 6.41198C5.67469 6.45593 5.56793 6.61974 5.5999 6.76071C5.6136 6.82235 5.64843 6.88057 5.6804 6.9365C6.4243 8.23668 7.16935 9.53629 7.9144 10.8365C8.11251 11.1823 8.31062 11.5276 8.50873 11.8735L8.5093 11.873Z" fill="white"/>
</svg>
