<svg width="157" height="107" viewBox="0 0 157 107" fill="none" xmlns="http://www.w3.org/2000/svg">
<path d="M151.622 45.4842V40.4255H146.563V35.3742H141.512V30.3228H136.46V25.2641H131.402V20.2127H126.35V15.1614H121.291V20.2127H116.24V25.2641H111.189V30.3228H106.13V35.3742H101.079V40.4255H96.0273V65.697H106.13V60.6457H111.189V65.697H116.24V70.7557H121.291V75.8071H126.35V80.8584H136.46V85.9172H141.512H146.563V80.8584H151.622V75.8071V70.7557H146.563V65.697H141.512V70.7557H136.46V65.697H131.402V60.6457H126.35V55.5943H121.291V50.5356H116.24V45.4842H121.291V40.4255H126.35V35.3742H131.402V40.4255H136.46V45.4842H141.512V50.5356H146.563V55.5943H151.622V50.5356H156.673V45.4842H151.622Z" fill="#9B3A38"/>
<path d="M101.079 45.4842V40.4255H106.13V35.3741H111.189V30.3228H116.24V35.3741H121.291V40.4255H116.24H111.189V45.4842V50.5355V55.5943H116.24V65.697H111.189V60.6456H106.13V65.697H101.079V45.4842Z" fill="#722626"/>
<path d="M20.2126 20.2128V15.1614H25.2714V10.1027H30.3227V5.05136H35.3741V0H45.4842H50.5355V5.05136H55.5942V10.1027H60.6456V15.1614H70.7557V20.2128H75.807H80.8657V25.2641H85.9171V30.3229H20.2126V20.2128Z" fill="#9B3A38"/>
<path d="M30.3228 15.1616V10.1029H35.3741H40.4328V5.05151H45.4842V10.1029H50.5355V15.1616H55.5942V20.213H70.7557V25.2643H30.3228V15.1616Z" fill="#722626"/>
<path d="M55.5942 80.8586V90.9687H60.6456V96.0201H70.7557V101.079H80.8657V90.9687H85.9171V85.9174H80.8657V80.8586H55.5942Z" fill="#9B3A38"/>
<path d="M75.807 80.8586V85.9174H70.7557V90.9687H65.697V96.0201H60.6456V90.9687H55.5942V80.8586H75.807Z" fill="#722626"/>
<path d="M96.0273 45.4842V40.4255H90.9686V35.3742H85.9172V30.3228H80.8658H75.8071V25.2641H70.7558H65.6971V20.2127H60.6457H55.5943H50.5356V15.1614H35.3742H30.3229H25.2715V20.2127H20.2128V25.2641H15.1614V30.3228H10.1027V35.3742H5.05134V40.4255H0V65.697H5.05134V70.7557H10.1027V75.8071H15.1614V80.8584H20.2128V85.9172H25.2715V90.9685H30.3229H35.3742H50.5356V85.9172H55.5943H60.6457H65.6971V80.8584H70.7558H75.8071V75.8071H80.8658H85.9172V70.7557H90.9686V65.697H96.0273V60.6457H101.079V45.4842H96.0273Z" fill="#F0923D"/>
<path d="M30.3228 70.7559V75.8072H25.2714V80.8586H20.2127V85.9173H15.1614V96.02H20.2127V101.079H25.2714V106.13H40.4329V101.079V90.9687H35.3742V85.9173H30.3228V80.8586H35.3742V70.7559H30.3228Z" fill="#9B3A38"/>
<path d="M30.3227 40.4255H20.2126V50.5356H30.3227V40.4255Z" fill="white"/>
<path d="M25.264 40.4255H20.2126V45.4769H25.264V40.4255Z" fill="#28211C"/>
<path d="M40.4256 25.2642H35.3743V30.3155H40.4256V25.2642Z" fill="#EB6C28"/>
<path d="M45.4842 30.323H40.4329V35.3744H45.4842V30.323Z" fill="#EB6C28"/>
<path d="M50.5357 35.3743H45.4844V40.4256H50.5357V35.3743Z" fill="#EB6C28"/>
<path d="M50.5357 40.4258H45.4844V45.4771H50.5357V40.4258Z" fill="#EB6C28"/>
<path d="M50.5357 45.4844H45.4844V50.5357H50.5357V45.4844Z" fill="#EB6C28"/>
<path d="M45.4842 50.5356H40.4329V55.587H45.4842V50.5356Z" fill="#EB6C28"/>
<path d="M60.6456 55.5942H55.5942V60.6456H60.6456V55.5942Z" fill="#EB6C28"/>
<path d="M65.6971 60.6458H60.6458V65.6971H65.6971V60.6458Z" fill="#EB6C28"/>
<path d="M60.6456 65.697H55.5942V70.7484H60.6456V65.697Z" fill="#EB6C28"/>
<path d="M70.7484 35.3743H65.697V40.4256H70.7484V35.3743Z" fill="#EB6C28"/>
<path d="M75.8072 40.4258H70.7559V45.4771H75.8072V40.4258Z" fill="#EB6C28"/>
<path d="M70.7484 45.4844H65.697V50.5357H70.7484V45.4844Z" fill="#EB6C28"/>
<path d="M85.9173 45.4844H80.866V50.5357H85.9173V45.4844Z" fill="#EB6C28"/>
<path d="M90.9686 50.5356H85.9172V55.587H90.9686V50.5356Z" fill="#EB6C28"/>
<path d="M85.9173 55.5942H80.866V60.6456H85.9173V55.5942Z" fill="#EB6C28"/>
<path d="M50.5357 70.7559H45.4844V75.8072H50.5357V70.7559Z" fill="#EB6C28"/>
<path d="M55.587 75.8074H50.5356V80.8587H55.587V75.8074Z" fill="#EB6C28"/>
<path d="M50.5357 80.8586H45.4844V85.91H50.5357V80.8586Z" fill="#EB6C28"/>
<path d="M40.4256 55.5942H35.3743V60.6456H40.4256V55.5942Z" fill="#EB6C28"/>
<path d="M10.1026 60.6458H5.05127V65.6971H10.1026V60.6458Z" fill="#EB6C28"/>
<path d="M15.1541 60.6458H10.1028V65.6971H15.1541V60.6458Z" fill="#EB6C28"/>
<path d="M20.2127 65.697H15.1614V70.7484H20.2127V65.697Z" fill="#EB6C28"/>
<path d="M25.264 60.6458H20.2126V65.6971H25.264V60.6458Z" fill="#EB6C28"/>
<path d="M5.05134 55.5942H0V60.6456H5.05134V55.5942Z" fill="#EB6C28"/>
<path d="M65.6971 20.2129H50.5356V25.2642H65.6971V20.2129Z" fill="#FFB031"/>
<path d="M75.8069 25.2642H60.6455V30.3155H75.8069V25.2642Z" fill="#FFB031"/>
<path d="M85.9172 30.323H75.8071V35.3744H85.9172V30.323Z" fill="#FFB031"/>
<path d="M50.5429 15.1614H40.4329V20.2127H50.5429V15.1614Z" fill="#FFB031"/>
<path d="M90.9758 35.3743H80.8657V40.4256H90.9758V35.3743Z" fill="#FFB031"/>
<path d="M96.0199 40.4258H90.9685V45.4771H96.0199V40.4258Z" fill="#FFB031"/>
<path d="M101.079 45.4844H96.0273V50.5357H101.079V45.4844Z" fill="#FFB031"/>
</svg>
