<svg width="167" height="97" viewBox="0 0 167 97" fill="none" xmlns="http://www.w3.org/2000/svg">
<path d="M139.452 53.6399V48.2791H144.821V42.9104H150.182V37.5496H155.551V32.1887H166.272V37.5496H160.911V42.9104H155.551V48.2791V59.0008V64.3695H160.911V69.7303H166.272V75.099H155.551V69.7303H150.182V64.3695H144.821V59.0008H139.452V53.6399Z" fill="#382210"/>
<path d="M101.911 16.0982H85.8207V10.7295H75.0911V5.36866H69.7303H64.3616V0H53.6399V5.36866H48.2713V10.7295H42.9104V16.0982H37.5496V21.459H42.9104H101.911V26.8199H107.272V21.459V16.0982H101.911Z" fill="#382210"/>
<path d="M128.731 75.0989V69.7302H107.272V75.0989H112.64V80.4597H118.001V75.0989H128.731Z" fill="#382210"/>
<path d="M123.362 80.4595H118.001V85.8203H123.362V80.4595Z" fill="#382210"/>
<path d="M144.821 48.2789V42.9102H139.452V37.5494H134.092V32.1885H118.001V26.8199H107.272H101.911V21.459H85.8205V16.0982H69.7301V10.7295H53.6398V16.0982H42.9102V21.459H32.1807V26.8199H21.4512V32.1885H16.0904V37.5494H10.7295V42.9102H0V53.6397H5.36085V59.0006H10.7295V64.3692H16.0904V69.7301H21.4512V75.0988H32.1807V80.4596H85.8205V75.0988H112.64V69.7301H123.362V64.3692H139.452V59.0006H150.182V48.2789H144.821Z" fill="#754F26"/>
<path d="M59.0003 85.8203H53.6394V80.4595H42.9099V85.8203H48.2708V91.189H53.6394V96.5498H64.3611V91.189H59.0003V85.8203Z" fill="#382210"/>
<path d="M64.3616 80.4595H59.0007V85.8203H64.3616V91.189H69.7303V85.8203V80.4595H64.3616Z" fill="#382210"/>
<path d="M42.9102 37.5496H32.1807V48.2791H42.9102V37.5496Z" fill="white"/>
<path d="M37.5415 37.5496H32.1807V42.9104H37.5415V37.5496Z" fill="#28211C"/>
<path d="M59.001 26.8198H53.6401V32.1807H59.001V26.8198Z" fill="#513418"/>
<path d="M64.3616 32.1887H59.0007V37.5496H64.3616V32.1887Z" fill="#513418"/>
<path d="M69.7222 37.5496H64.3613V42.9104H69.7222V37.5496Z" fill="#513418"/>
<path d="M64.3616 42.9104H59.0007V48.2713H64.3616V42.9104Z" fill="#513418"/>
<path d="M59.001 48.2788H53.6401V53.6397H59.001V48.2788Z" fill="#513418"/>
<path d="M59.001 53.6401H53.6401V59.001H59.001V53.6401Z" fill="#513418"/>
<path d="M53.6321 59.0007H48.2712V64.3616H53.6321V59.0007Z" fill="#513418"/>
<path d="M10.7217 53.6401H5.36084V59.001H10.7217V53.6401Z" fill="#513418"/>
<path d="M16.0903 59.0007H10.7295V64.3616H16.0903V59.0007Z" fill="#513418"/>
<path d="M21.4512 59.0007H16.0903V64.3616H21.4512V59.0007Z" fill="#513418"/>
<path d="M26.8123 53.6401H21.4514V59.001H26.8123V53.6401Z" fill="#513418"/>
<path d="M85.8125 16.0981H80.4517V21.459H85.8125V16.0981Z" fill="#AA7A41"/>
<path d="M134.092 37.5498V32.189H118.001V26.8203H101.911V21.4595H85.8206V26.8203H96.5501V32.189H112.64V37.5498H128.731V42.9107H139.452V37.5498H134.092Z" fill="#AA7A41"/>
<path d="M69.73 59.0007H64.3613V69.7303H69.73V64.3694H75.0908V59.0007H69.73Z" fill="#382210"/>
<path d="M64.3616 53.6399H59.0007V59.0007H64.3616V53.6399Z" fill="#382210"/>
</svg>
