<svg width="105" height="105" viewBox="0 0 105 105" fill="none" xmlns="http://www.w3.org/2000/svg">
<path d="M92.7749 34.7924V28.9913H69.5776V17.3962H63.7837V5.79395H57.9826V0H52.1886H46.3875V5.79395H40.5863V17.3962H34.7924V28.9913H17.3962H11.5951V34.7924H0V46.3875H5.79395V52.1886H11.5951V57.9825H17.3962V63.7837H23.1901V69.5776H17.3962V86.9738H11.5951V92.7749V98.5761H17.3962V104.37H23.1901V98.5761H28.9913H40.5863V92.7749H46.3875V86.9738H52.1886H57.9826V92.7749H63.7837V98.5761H75.3787H81.1799V104.37H86.9738V98.5761H92.7749V92.7749V86.9738H86.9738V69.5776H81.1799V63.7837H86.9738V57.9825H92.7749V52.1886H98.5761V46.3875H104.37V34.7924H92.7749Z" fill="#FFB031"/>
<path d="M69.5846 34.7925H63.7834V40.5936H69.5846V34.7925Z" fill="#28211C"/>
<path d="M40.5936 34.7925H34.7925V40.5936H40.5936V34.7925Z" fill="#28211C"/>
<path d="M104.37 40.5864H98.5762V46.3876H92.7751V52.1887H86.974V57.9826H81.18V63.7838H75.3789V69.5777H81.18V75.3788V86.9739H86.974V92.775H92.7751V86.9739H86.974V69.5777H81.18V63.7838H86.974V57.9826H92.7751V52.1887H98.5762V46.3876H104.37V40.5864Z" fill="#F0923D"/>
<path d="M57.9826 86.9739V81.1799H46.3875V86.9739H40.5864V92.775H34.7924H23.1902V98.5761H17.3962V104.37H23.1902V98.5761H40.5864V92.775H46.3875V86.9739H57.9826Z" fill="#F0923D"/>
<path d="M5.79419 46.3875H11.5953V52.1886H17.3964V57.9825H23.1904V63.7836H28.9915V69.5776H23.1904V63.7836H17.3964V57.9825H11.5953V52.1886H5.79419V46.3875Z" fill="#F0923D"/>
<path d="M11.595 34.7924H28.9912V28.9913H34.7923H40.5862V23.1901V17.3962H46.3874V11.5951V5.79395H52.1885V0H46.3874V5.79395H40.5862V17.3962H34.7923V28.9913H11.595V34.7924Z" fill="#FFD54D"/>
<path d="M92.7751 28.9912H75.3789V34.7923H92.7751V28.9912Z" fill="#FFD54D"/>
<path d="M69.5846 63.7834H63.7834V69.5846H69.5846V63.7834Z" fill="#F0923D"/>
<path d="M63.7835 69.5776H57.9824V75.3788H63.7835V69.5776Z" fill="#F0923D"/>
<path d="M46.3875 52.1885H40.5864V57.9896H46.3875V52.1885Z" fill="#F0923D"/>
<path d="M40.5936 57.9827H34.7925V63.7838H40.5936V57.9827Z" fill="#F0923D"/>
<path d="M34.7923 75.3787H28.9912V81.1798H34.7923V75.3787Z" fill="#F0923D"/>
<path d="M28.9911 81.1799H23.1899V86.9811H28.9911V81.1799Z" fill="#F0923D"/>
<path d="M63.7835 17.3962H57.9824V23.1974H63.7835V17.3962Z" fill="#F0923D"/>
<path d="M57.9896 23.1902H52.1885V28.9913H57.9896V23.1902Z" fill="#F0923D"/>
<path d="M81.18 40.5864H75.3789V46.3876H81.18V40.5864Z" fill="#F0923D"/>
<path d="M75.3788 46.3875H69.5776V52.1886H75.3788V46.3875Z" fill="#F0923D"/>
</svg>
