<svg width="134" height="106" viewBox="0 0 134 106" fill="none" xmlns="http://www.w3.org/2000/svg">
<path d="M111.003 55.4977V49.952H105.45V38.8469H99.8977H94.352H88.7995V33.3013H66.6031H44.3998V38.8469H38.8473H33.3016H27.7491V49.952H22.2034V55.4977H16.6509V66.6027H22.2034V77.7009H27.7491V83.2534V88.7991H33.3016V94.3516H44.3998V99.9042H55.498V105.45H66.6031H77.7013V99.9042H88.7995V94.3516H99.8977V88.7991H105.45V83.2534V77.7009H111.003V66.6027H116.548V55.4977H111.003Z" fill="#9B3A38"/>
<path d="M49.9523 11.0982H55.498V5.55253H44.3998V0H38.8473H33.3016V5.55253H27.7491V11.0982H22.2034V16.6507H16.6509V27.7489V33.3015H22.2034V38.8471H27.7491V44.3997H33.3016V38.8471V33.3015H27.7491V27.7489H22.2034V22.2033H27.7491V16.6507H33.3016V22.2033H38.8473V27.7489H49.9523V22.2033H55.498V16.6507H44.3998V11.0982H49.9523Z" fill="#722626"/>
<path d="M83.2537 11.0982H77.7012V5.55253H88.7994V0H94.3519H99.8976V5.55253H105.45V11.0982H111.003V16.6507H116.548V27.7489V33.3015H111.003V38.8471H105.45V44.3997H99.8976V38.8471V33.3015H105.45V27.7489H111.003V22.2033H105.45V16.6507H99.8976V22.2033H94.3519V27.7489H83.2537V22.2033H77.7012V16.6507H88.7994V11.0982H83.2537Z" fill="#722626"/>
<path d="M22.2032 49.952V44.3995H16.6507V38.8469H11.0982V33.3013H5.55249V38.8469H11.0982V44.3995H16.6507V49.952H22.2032Z" fill="#722626"/>
<path d="M16.6507 66.6029V61.0503H11.0982V55.4978H5.55253V49.9521H0V55.4978H5.55253V61.0503H11.0982V66.6029H16.6507Z" fill="#722626"/>
<path d="M22.2032 72.1487V77.7012H16.6507V83.2538H11.0982V88.7994H5.55249V83.2538H11.0982V77.7012H16.6507V72.1487H22.2032Z" fill="#722626"/>
<path d="M27.7489 88.7991V94.3516H22.2032V99.9041H16.6507V105.45H11.0981V99.9041H16.6507V94.3516H22.2032V88.7991H27.7489Z" fill="#722626"/>
<path d="M111.002 49.952V44.3995H116.548V38.8469H122.101V33.3013H127.653V38.8469H122.101V44.3995H116.548V49.952H111.002Z" fill="#722626"/>
<path d="M116.548 66.6029V61.0503H122.101V55.4978H127.653V49.9521H133.199V55.4978H127.653V61.0503H122.101V66.6029H116.548Z" fill="#722626"/>
<path d="M111.002 72.1487V77.7012H116.548V83.2538H122.101V88.7994H127.653V83.2538H122.101V77.7012H116.548V72.1487H111.002Z" fill="#722626"/>
<path d="M105.45 88.7991V94.3516H111.002V99.9041H116.548V105.45H122.101V99.9041H116.548V94.3516H111.002V88.7991H105.45Z" fill="#722626"/>
<path d="M61.0503 33.3013H55.4978V38.8538H61.0503V33.3013Z" fill="#28211C"/>
<path d="M77.7012 33.3013H72.1487V38.8538H77.7012V33.3013Z" fill="#28211C"/>
<path d="M66.6028 105.45V99.9043H72.1484V94.3518H77.701V88.7992H88.7992V83.2536H94.3517V77.701H99.8974V72.1485H105.45V66.6028H111.002V61.0503H116.548V66.6028H111.002V77.701H105.45V88.7992H99.8974V94.3518H88.7992V99.9043H77.701V105.45H66.6028Z" fill="#873331"/>
<path d="M49.9523 33.3013V38.8469H44.3998V44.3995H33.3016V49.952H27.7491V55.4977H22.2034V61.0502H27.7491V72.1484H22.2034V66.6027H16.6509V55.4977H22.2034V49.952H27.7491V44.3995H33.3016V38.8469H44.3998V33.3013H49.9523Z" fill="#AB403E"/>
</svg>
