<svg width="120" height="100" viewBox="0 0 120 100" fill="none" xmlns="http://www.w3.org/2000/svg">
<path d="M21.1382 17.1534V13.0419H25.2496V8.93051H29.361V4.81309H33.4785V0.70166H49.9302V4.81309H58.159V8.93051H66.3878V13.0419H74.6107V17.1534H82.8396V21.2708H86.951V25.3822H91.0684V29.4996H95.1798V37.7225H21.1382V17.1534Z" fill="#722626"/>
<path d="M99.291 41.8398H103.408V37.7224H107.52V33.6109H111.637V29.4995H119.86V45.9512H115.749V62.4029H119.86V74.7492H111.637V70.6318H107.52V66.5203H103.408V62.4029H99.291" fill="#722626"/>
<path d="M95.18 70.6316V78.8604H91.0686V82.9719H86.9511V87.0893H78.7283V91.2007H70.4995H66.388V95.3121H58.1592V70.6316H95.18Z" fill="#722626"/>
<path d="M25.2498 82.9722V91.201H29.3612V95.3124H33.4786V99.4299H41.7014V91.201H37.59V82.9722H25.2498Z" fill="#722626"/>
<path d="M99.2913 45.9511V41.8397H95.1798V37.7223H91.0684V33.6109H86.951V29.4994H82.8396V25.382H78.7282V21.2706H70.4993V17.1532H66.3879H62.2705H58.159V13.0417H45.8188H33.4785V17.1532H21.1382V21.2706H17.0208V25.382H12.9094V29.4994H8.79195V37.7223H4.68052V41.8397H0.569092V45.9511V50.0626V54.18V58.2914V62.4028H4.68052V66.5203H8.79195V74.7491H12.9094V78.8605H17.0208V82.972H21.1382V87.0894H25.2496H29.3611V91.2008H58.159V87.0894H62.2705H66.3879H70.4993V82.972H78.7282V78.8605H82.8396V74.7491H86.951H91.0684V70.6317H95.1798V66.5203V62.4028H99.2913V58.2914H103.409V45.9511H99.2913Z" fill="#9B3A38"/>
<path d="M37.5897 62.4028H41.7011V66.5203H49.93V70.6317H54.0414V82.972H49.93V87.0894H45.8185V82.972H37.5897V74.7491H33.4783V62.4028H37.5897Z" fill="#722626"/>
<path d="M25.2494 37.7223H17.0205V45.9511H25.2494V37.7223Z" fill="white"/>
<path d="M21.1319 37.7223H17.0205V41.8337H21.1319V37.7223Z" fill="#28211C"/>
<path d="M41.7013 33.6107H37.5898V37.7221H41.7013V33.6107Z" fill="#873331"/>
<path d="M45.8124 37.7222H41.7009V41.8336H45.8124V37.7222Z" fill="#873331"/>
<path d="M49.9303 41.8397H45.8188V45.9511H49.9303V41.8397Z" fill="#873331"/>
<path d="M49.9303 45.951H45.8188V50.0625H49.9303V45.951Z" fill="#873331"/>
<path d="M45.8124 50.0625H41.7009V54.1739H45.8124V50.0625Z" fill="#873331"/>
<path d="M41.7013 54.1801H37.5898V58.2915H41.7013V54.1801Z" fill="#873331"/>
<path d="M37.5897 58.2914H33.4783V62.4028H37.5897V58.2914Z" fill="#873331"/>
<path d="M4.68052 54.1801H0.569092V58.2915H4.68052V54.1801Z" fill="#873331"/>
<path d="M8.79209 58.2914H4.68066V62.4028H8.79209V58.2914Z" fill="#873331"/>
<path d="M12.9032 58.2914H8.79175V62.4028H12.9032V58.2914Z" fill="#873331"/>
<path d="M17.0208 62.4028H12.9094V66.5143H17.0208V62.4028Z" fill="#873331"/>
<path d="M21.1319 58.2914H17.0205V62.4028H21.1319V58.2914Z" fill="#873331"/>
<path d="M70.4995 17.1532H58.1592V21.2646H70.4995V17.1532Z" fill="#AB403E"/>
<path d="M78.7282 21.2706H66.3879V25.3821H78.7282V21.2706Z" fill="#AB403E"/>
<path d="M82.8397 25.382H74.6108V29.4934H82.8397V25.382Z" fill="#AB403E"/>
<path d="M86.9569 29.4994H78.728V33.6108H86.9569V29.4994Z" fill="#AB403E"/>
<path d="M91.0624 33.6107H86.9509V37.7221H91.0624V33.6107Z" fill="#AB403E"/>
<path d="M95.1798 37.7222H91.0684V41.8336H95.1798V37.7222Z" fill="#AB403E"/>
<path d="M99.2914 41.8397H95.1799V45.9511H99.2914V41.8397Z" fill="#AB403E"/>
<path d="M103.402 45.951H99.291V50.0625H103.402V45.951Z" fill="#AB403E"/>
</svg>
