<svg width="103" height="113" viewBox="0 0 103 113" fill="none" xmlns="http://www.w3.org/2000/svg">
<path d="M39.2195 88.2426H44.1242V83.3439H49.0229V78.4392H53.9276H58.8323V83.3439H53.9276V88.2426H49.0229V93.1473H44.1242V98.052H49.0229V102.951H53.9276V107.855H58.8323V112.76H49.0229V107.855H44.1242V102.951H39.2195V88.2426Z" fill="#F0923D"/>
<path d="M83.3439 19.6129V14.7082H78.4392V9.80343H68.6358V4.90479H39.2196V9.80343H34.3149H29.4162V14.7082H24.5115V19.6129H19.6128V24.5115H14.7081V29.4163H9.80338V34.3149V44.1244H4.90472V53.9277H0V68.6358H4.90472V83.3439H9.80338V88.2426H14.7081V93.1473H24.5115V98.052H29.4162V102.951H39.2196V98.052H44.1243V93.1473H39.2196V88.2426H34.3149V83.3439H29.4162V73.5406H34.3149V63.7311H39.2196H44.1243V58.8325H49.023H58.8324V53.9277H68.6358V49.023H73.5405H78.4392V44.1244H83.3439V39.2196H88.2486V19.6129H83.3439Z" fill="#FFB031"/>
<path d="M4.90454 53.9276H9.80319V49.0229V44.1243H4.90454V53.9276Z" fill="#FFD54D"/>
<path d="M14.7079 29.4164H9.80322V44.1245H14.7079V34.3151H19.6127V24.5117H14.7079V29.4164Z" fill="#FFD54D"/>
<path d="M4.90472 53.9277H0V58.8324H4.90472V53.9277Z" fill="#FFD54D"/>
<path d="M29.4164 14.7083H24.5117V19.613H29.4164V14.7083Z" fill="#FFD54D"/>
<path d="M49.0229 4.90479H39.2195V9.8095H49.0229V4.90479Z" fill="#FFD54D"/>
<path d="M24.5178 19.613H19.613V24.5178H24.5178V19.613Z" fill="#FFD54D"/>
<path d="M39.2196 9.80347H29.4163V14.7082H39.2196V9.80347Z" fill="#FFD54D"/>
<path d="M29.4164 73.5405H24.5117V78.4452H29.4164V73.5405Z" fill="#F0923D"/>
<path d="M44.1242 58.8325H39.2195V63.7373H44.1242V58.8325Z" fill="#F0923D"/>
<path d="M58.8322 49.0232H53.9275V53.9279H58.8322V49.0232Z" fill="#F0923D"/>
<path d="M53.9274 44.1243H49.0227V49.029H53.9274V44.1243Z" fill="#F0923D"/>
<path d="M44.1242 4.90479H39.2195V9.8095H44.1242V4.90479Z" fill="#F0923D"/>
<path d="M49.0287 9.80347H44.124V14.7082H49.0287V9.80347Z" fill="#F0923D"/>
<path d="M29.4164 14.7083H24.5117V19.613H29.4164V14.7083Z" fill="#F0923D"/>
<path d="M34.321 19.613H29.4163V24.5178H34.321V19.613Z" fill="#F0923D"/>
<path d="M19.6127 24.5117H14.708V29.4164H19.6127V24.5117Z" fill="#F0923D"/>
<path d="M24.5178 29.4165H19.613V34.3212H24.5178V29.4165Z" fill="#F0923D"/>
<path d="M39.2197 53.9277H34.3149V58.8324H39.2197V53.9277Z" fill="#F0923D"/>
<path d="M24.5178 68.636H19.613V73.5407H24.5178V68.636Z" fill="#F0923D"/>
<path d="M58.8322 19.613H53.9275V24.5178H58.8322V19.613Z" fill="#28211C"/>
<path d="M88.2482 29.4162V24.5115H93.1469V19.6128H98.0516V14.7081H93.1469V9.80337H88.2482V4.90473H83.3435V0H88.2482V4.90473H93.1469V9.80337H98.0516V14.7081H102.95V19.6128H98.0516V24.5115H93.1469V29.4162H88.2482Z" fill="#F0923D"/>
<path d="M88.2482 24.5117V29.4164H93.1469V34.3151H98.0516V39.2198H93.1469V44.1245H88.2482V49.0232H83.3435V53.9279H88.2482V49.0232H93.1469V44.1245H98.0516V39.2198H102.95V34.3151H98.0516V29.4164H93.1469V24.5117H88.2482Z" fill="#F0923D"/>
</svg>
