<svg width="150" height="141" viewBox="0 0 150 141" fill="none" xmlns="http://www.w3.org/2000/svg">
<path d="M55.2181 30.5503L50.6679 27.469L47.5828 32.0248L43.027 28.9397L39.9457 33.4899L35.3899 30.4047L32.3047 34.9605L27.7546 31.8792L24.6694 36.4351L21.5881 40.9852L26.1383 44.0665L23.0532 48.6224L27.609 51.7075L24.5239 56.2633L29.0797 59.3484L25.9984 63.8986L30.5486 66.9799L27.4635 71.5357L32.0193 74.6208L35.1044 70.065L39.6546 73.1463L51.9874 54.9343L64.3241 36.7167L59.7739 33.6354L62.859 29.0796L58.3032 25.9945L55.2181 30.5503Z" fill="#722626"/>
<path d="M105.024 104.132L91.3624 94.88L82.1108 108.542L86.6667 111.627L89.7518 107.071L94.302 110.152L91.2168 114.708L95.7727 117.793L92.6914 122.344L97.2415 125.425L100.323 120.875L109.434 127.045L112.52 122.489L107.964 119.404L103.408 116.319L106.489 111.769L101.939 108.687L105.024 104.132Z" fill="#722626"/>
<path d="M98.7121 133.066L95.627 137.622L100.183 140.707L103.268 136.151L98.7121 133.066Z" fill="#722626"/>
<path d="M97.2416 125.425L94.1565 129.981L98.7123 133.066L101.797 128.51L97.2416 125.425Z" fill="#722626"/>
<path d="M137.329 66.2274L134.244 70.7832L138.8 73.8683L141.885 69.3125L137.329 66.2274Z" fill="#722626"/>
<path d="M126.612 72.2523L122.057 69.1672L118.971 73.723L114.421 70.6417L117.506 66.0859L112.951 63.0008L103.699 76.6626L117.361 85.9141L120.442 81.364L124.992 84.4453L128.077 79.8894L132.633 82.9746L137.189 86.0597L140.274 81.5039L131.163 75.3336L134.244 70.7834L129.694 67.7021L126.612 72.2523Z" fill="#722626"/>
<path d="M144.97 64.7569L141.885 69.3127L146.441 72.3979L149.526 67.842L144.97 64.7569Z" fill="#722626"/>
<path d="M117.215 105.742L114.13 110.298L118.686 113.383L121.771 108.827L117.215 105.742Z" fill="#722626"/>
<path d="M109.574 107.213L106.489 111.769L111.045 114.854L114.13 110.298L109.574 107.213Z" fill="#722626"/>
<path d="M108.109 99.5758L105.024 104.132L109.58 107.217L112.665 102.661L108.109 99.5758Z" fill="#722626"/>
<path d="M126.467 92.0804L123.382 96.6362L127.937 99.7214L131.023 95.1655L126.467 92.0804Z" fill="#722626"/>
<path d="M117.361 85.9142L114.276 90.47L118.831 93.5551L121.917 88.9993L117.361 85.9142Z" fill="#722626"/>
<path d="M124.996 84.4395L121.911 88.9954L126.467 92.0805L129.552 87.5247L124.996 84.4395Z" fill="#722626"/>
<path d="M77.9859 45.9683L73.4357 42.887L64.3241 36.7168L61.2389 41.2726L56.6888 38.1913L52.1329 35.1062L49.0516 39.6564L44.5015 36.5751L41.4163 41.1309L36.8605 38.0457L33.7754 42.6016L30.6941 47.1517L35.2499 50.2369L32.1648 54.7927L36.715 57.874L33.6298 62.4298L38.1857 65.5149L42.7358 68.5962L39.6545 73.1464L48.7662 79.3167L53.3164 82.398L50.2312 86.9538L82.1107 108.542L85.1958 103.986L89.7516 107.071L94.3018 110.153L97.3831 105.602L100.468 101.047L105.024 104.132L111.19 95.0257L117.361 85.9141L112.805 82.829L115.886 78.2788L118.971 73.723L114.421 70.6417L109.865 67.5565L112.95 63.0007L81.071 41.4125L77.9859 45.9683Z" fill="#9B3A38"/>
<path d="M95.9181 97.9652L92.833 102.521L97.3888 105.606L100.474 101.05L95.9181 97.9652Z" fill="#28211C"/>
<path d="M111.34 75.1917L108.255 79.7476L112.81 82.8327L115.896 78.2769L111.34 75.1917Z" fill="#28211C"/>
<path d="M36.8605 38.0457L33.7754 42.6016L38.3312 45.6867L41.4163 41.1309L36.8605 38.0457Z" fill="#AB403E"/>
<path d="M44.5016 36.575L41.4165 41.1309L45.9723 44.216L49.0574 39.6602L44.5016 36.575Z" fill="#AB403E"/>
<path d="M61.2393 41.2725L65.7951 44.3576L74.9011 50.524L77.9862 45.9682L64.3244 36.7166L61.2393 41.2725Z" fill="#AB403E"/>
<path d="M52.1369 35.1004L49.0518 39.6562L58.1578 45.8227L61.2429 41.2669L52.1369 35.1004Z" fill="#AB403E"/>
<path d="M81.071 41.4124L77.9858 45.9683L82.5417 49.0534L85.6268 44.4976L81.071 41.4124Z" fill="#AB403E"/>
</svg>
