<svg width="66" height="118" viewBox="0 0 66 118" fill="none" xmlns="http://www.w3.org/2000/svg">
<path d="M32.9229 4.70494V0H28.218V4.70494H23.513V9.40405H18.8139V14.109H14.109V18.8139H9.40406V23.513H4.70494V28.218V37.622H9.40406V42.327V51.731H14.109V56.4359V70.5449H9.40406V75.244H4.70494V79.949V84.6539H0V94.058V98.7571H4.70494V103.462H9.40406V108.167H14.109V112.866H18.8139V32.9171H32.9229V4.70494Z" fill="#513418"/>
<path d="M56.4358 18.8141V14.1091H51.7309V9.40419H47.0318V4.70508H42.3269H32.9228V9.40419H23.5129V14.1091H18.8138V18.8141H14.1089V23.5132H9.40395V32.9172V37.6222H14.1089V47.0262V51.7311H18.8138V70.5451H14.1089V79.9491H9.40395V89.3532H4.70483V98.7572H9.40395V103.462H14.1089V108.167H18.8138V112.866H23.5129V117.571H37.6219V112.866H47.0318V108.167H51.7309V103.462H42.3269V108.167H37.6219V103.462H32.9228V98.7572V94.0581H37.6219V89.3532H42.3269H47.0318H51.7309V84.6541V79.9491H56.4358V65.8401V61.1352H51.7309V51.7311H47.0318V47.0262V37.6222V32.9172H51.7309V28.2181H56.4358V23.5132H61.135V18.8141H56.4358Z" fill="#754F26"/>
<path d="M65.8402 14.1089H61.1353V18.8138H65.8402V14.1089Z" fill="#754F26"/>
<path d="M65.8402 23.5129H61.1353V28.2179H65.8402V23.5129Z" fill="#754F26"/>
<path d="M47.0319 37.6219H42.327V32.917H37.6221V37.6219H42.327V42.3269H47.0319V37.6219Z" fill="#AA7A41"/>
<path d="M47.0319 51.7311H42.327V47.0261H37.6221V51.7311H42.327V56.436H47.0319V51.7311Z" fill="#AA7A41"/>
<path d="M56.4358 65.8402H51.7309V61.1353H47.0317V65.8402H51.7309V70.5451H56.4358V65.8402Z" fill="#AA7A41"/>
<path d="M51.731 75.244H47.0318V70.5449H42.3269V75.244H47.0318V79.949H51.731V75.244Z" fill="#AA7A41"/>
<path d="M47.0319 84.6542H42.327V79.9492H37.6221V84.6542H42.327V89.3533H47.0319V84.6542Z" fill="#AA7A41"/>
<path d="M32.9228 89.3532H28.2179V84.6541H23.5129V89.3532H28.2179V94.0581H32.9228V89.3532Z" fill="#AA7A41"/>
<path d="M42.327 14.1089H37.6221V18.8138H42.327V14.1089Z" fill="#28211C"/>
</svg>
