<svg width="150" height="80" viewBox="0 0 150 80" fill="none" xmlns="http://www.w3.org/2000/svg">
<path d="M138.59 31.98H127.928V47.97H138.59V31.98Z" fill="#F0923D"/>
<path d="M122.593 26.6526H127.928V21.3174H133.255V15.99H138.583V10.6626H149.245V15.99H143.918V21.3174H138.583V31.98H133.255V37.3152H127.928V42.6426H133.255V47.97H138.583V58.6326H143.918V63.96H149.245V69.2952H138.583V63.96H133.255V58.6326H127.928V53.3052H122.593V26.6526Z" fill="#FFB031"/>
<path d="M69.2952 5.32739H53.3052V10.6548H69.2952V5.32739Z" fill="#F0923D"/>
<path d="M53.3052 0H47.97H42.6426V5.32741H37.3152V10.6626H31.98V15.99H58.6326V10.6626V5.32741H53.3052V0Z" fill="#FFB031"/>
<path d="M79.95 0H74.6226V5.32741H69.2952V10.6626H74.6226H79.95V5.32741V0Z" fill="#FFB031"/>
<path d="M85.2774 10.6626H79.95V15.99H85.2774V10.6626Z" fill="#FFB031"/>
<path d="M122.593 31.98V26.6526H111.938V21.3174H101.275V15.99H85.2852H79.95V10.6626H58.6326H53.3052V5.32739H42.6426V10.6626H37.3152V15.99H15.99V21.3174H10.6626V26.6526H5.32741V31.98H0V47.97H5.32741V58.6326H10.6626V63.96H21.3174H26.6526V69.2952H79.95V63.96H95.9478V58.6326H111.938V53.3052H122.593V47.97H127.928V31.98H122.593Z" fill="#949AAF"/>
<path d="M42.6426 21.3174H37.3152V26.6448H42.6426V21.3174Z" fill="#81879C"/>
<path d="M47.9702 26.6526H42.6428V31.98H47.9702V26.6526Z" fill="#81879C"/>
<path d="M47.97 37.3152V42.6426H53.3051V37.3152V31.98H47.97V37.3152Z" fill="#81879C"/>
<path d="M47.9702 42.6426H42.6428V47.97H47.9702V42.6426Z" fill="#81879C"/>
<path d="M10.6548 47.97H5.32739V53.2974H10.6548V47.97Z" fill="#81879C"/>
<path d="M10.6628 53.3052V58.6326H15.9903H21.3177V53.3052H15.9903H10.6628Z" fill="#81879C"/>
<path d="M26.645 47.97H21.3176V53.2974H26.645V47.97Z" fill="#81879C"/>
<path d="M74.6225 42.6426H63.96V47.97H74.6225V42.6426Z" fill="#81879C"/>
<path d="M79.95 47.97H74.6226V53.2974H79.95V47.97Z" fill="#81879C"/>
<path d="M79.9502 53.3052V58.6326H85.2854H90.6128V53.3052H85.2854H79.9502Z" fill="#81879C"/>
<path d="M95.9402 47.97H90.6128V53.2974H95.9402V47.97Z" fill="#81879C"/>
<path d="M101.275 42.6426H95.9478V47.97H101.275V42.6426Z" fill="#81879C"/>
<path d="M106.603 37.3152H101.275V42.6426H106.603V37.3152Z" fill="#81879C"/>
<path d="M63.9678 69.2952H53.3052V74.6226H63.9678V69.2952Z" fill="#F0923D"/>
<path d="M47.97 69.2952V74.6226H53.3051V79.95H58.6326V74.6226V69.2952H47.97Z" fill="#FFB031"/>
<path d="M37.3152 47.97V63.96H42.6426V58.6326H47.97V53.3051H53.3052V47.97H37.3152Z" fill="#FFB031"/>
<path d="M31.98 31.98H21.3174V42.6426H31.98V31.98Z" fill="white"/>
<path d="M26.6448 31.98H21.3174V37.3074H26.6448V31.98Z" fill="#28211C"/>
<path d="M79.95 10.6626H63.96V15.99H79.95V10.6626Z" fill="#CACEE0"/>
<path d="M101.268 15.99H79.9502V21.3174H101.268V15.99Z" fill="#CACEE0"/>
<path d="M111.938 21.3174H101.275V26.6448H111.938V21.3174Z" fill="#CACEE0"/>
<path d="M122.6 26.6526H111.938V31.98H122.6V26.6526Z" fill="#CACEE0"/>
<path d="M127.92 31.98H122.593V37.3074H127.92V31.98Z" fill="#CACEE0"/>
</svg>
