<svg width="110" height="101" viewBox="0 0 110 101" fill="none" xmlns="http://www.w3.org/2000/svg">
<path d="M85.8108 47.6604H90.5761V42.8881H95.3484V38.1228H100.114V33.3574H109.651V38.1228H104.879V47.6604H100.114V57.198H95.3484V66.7287H100.114V76.2664H104.879V85.804H109.651V90.5693H100.114V85.804H95.3484V81.0317H90.5761V76.2664H85.8108V47.6604Z" fill="#FFB031"/>
<path d="M90.5761 47.6604H85.8108V76.2664H90.5761V47.6604Z" fill="#F0923D"/>
<path d="M95.3415 52.4258H90.5762V71.4941H95.3415V52.4258Z" fill="#F0923D"/>
<path d="M85.8109 52.4257V42.8881H81.0456V38.1228H76.2802V33.3574H71.5149V28.5921H66.7495V23.8267H57.2119V19.0614H52.4466V14.296H57.2119V9.53069H61.9773V4.76534H66.7426V0H57.205V4.76534H47.6673V9.53069H38.1297V14.296H33.3644V19.0614H28.599V23.8267H19.0614V28.5921H14.296V33.3574H9.53069V42.895H4.76533V57.198H0V66.7357H4.76533V71.501H9.53069V85.804H14.296V90.5693H19.0614V95.3346H23.8267V100.1H52.4327V95.3346H66.7357V90.5693H71.501V85.804H76.2663V81.0386H85.804V71.501H90.5693V52.4327H85.804L85.8109 52.4257Z" fill="#919AC4"/>
<path d="M38.1295 66.7288H33.3642V71.501H28.5989V76.2664V85.804H33.3642V90.5694H47.6672V85.804H52.4325V81.0317H47.6672V76.2664H42.9019V71.501H38.1295V66.7288Z" fill="#FFB031"/>
<path d="M28.5989 47.6604H19.0613V57.198H28.5989V47.6604Z" fill="white"/>
<path d="M23.8266 47.6604H19.0613V52.4258H23.8266V47.6604Z" fill="#28211C"/>
<path d="M42.8955 57.198H38.1301V61.9633H42.8955V57.198Z" fill="#535F87"/>
<path d="M38.1298 61.9634H33.3645V66.7287H38.1298V61.9634Z" fill="#535F87"/>
<path d="M38.1298 33.3574H33.3645V38.1228H38.1298V33.3574Z" fill="#535F87"/>
<path d="M47.6677 42.8879H42.9023V57.1909H47.6677V42.8879Z" fill="#535F87"/>
<path d="M42.8955 38.1226H38.1301V42.8879H42.8955V38.1226Z" fill="#535F87"/>
<path d="M19.0617 76.2664H14.2964V81.0317H19.0617V76.2664Z" fill="#535F87"/>
<path d="M9.52412 66.7288H4.75879V71.4941H9.52412V66.7288Z" fill="#535F87"/>
<path d="M14.2895 71.501H9.52417V76.2663H14.2895V71.501Z" fill="#535F87"/>
<path d="M66.7353 61.9631H61.97V66.7285H66.7353V61.9631Z" fill="#535F87"/>
<path d="M61.9704 57.198H57.2051V61.9633H61.9704V57.198Z" fill="#535F87"/>
<path d="M66.7353 76.2664H61.97V81.0317H66.7353V76.2664Z" fill="#535F87"/>
<path d="M61.9704 71.501H57.2051V76.2663H61.9704V71.501Z" fill="#535F87"/>
<path d="M81.0388 66.7288H76.2734V71.4941H81.0388V66.7288Z" fill="#535F87"/>
<path d="M76.2736 61.9634H71.5083V66.7287H76.2736V61.9634Z" fill="#535F87"/>
<path d="M71.5083 47.6604H66.7429V52.4258H71.5083V47.6604Z" fill="#535F87"/>
<path d="M66.7358 42.8879H61.9705V47.6533H66.7358V42.8879Z" fill="#535F87"/>
<path d="M57.1984 38.1228H52.4331V42.8881H57.1984V38.1228Z" fill="#535F87"/>
<path d="M52.4331 33.3574H47.6677V38.1228H52.4331V33.3574Z" fill="#535F87"/>
<path d="M57.2054 9.51685H52.4331V14.2822H47.6677V19.0545V23.8198H57.2054V28.5852H66.743V33.3575H71.5083V38.1228H76.2737V42.8881H81.046V47.6604H85.8113V42.8881H81.046V38.1228H76.2737V33.3575H71.5083V28.5852H66.743V23.8198H61.9707H57.2054V19.0545H52.4331V14.2822H57.2054V9.51685Z" fill="white"/>
<path d="M42.8952 71.501H38.1299V76.2663H42.8952V71.501Z" fill="#F0923D"/>
<path d="M47.6674 76.2664H42.9021V81.0317H47.6674V76.2664Z" fill="#F0923D"/>
<path d="M52.4328 81.0317H47.6675V85.7971H52.4328V81.0317Z" fill="#F0923D"/>
</svg>
