<svg width="140" height="88" viewBox="0 0 140 88" fill="none" xmlns="http://www.w3.org/2000/svg">
<path d="M113.457 39.2706V34.9093H117.818V30.5416H122.186V26.1804H126.547V21.8191H139.637V30.5416H135.276V34.9093H130.908V43.6382V52.3607H135.276V56.7284H139.637V65.4509H126.547V61.0896H122.186V56.7284H117.818H113.457V39.2706Z" fill="#9B3A38"/>
<path d="M122.179 39.2705H117.818V43.6318H122.179V39.2705Z" fill="#722626"/>
<path d="M126.547 34.9092H122.186V39.2705H126.547V34.9092Z" fill="#722626"/>
<path d="M130.908 30.5417H126.547V34.903H130.908V30.5417Z" fill="#722626"/>
<path d="M122.179 43.6382H117.818V47.9994H122.179V43.6382Z" fill="#722626"/>
<path d="M122.179 47.9995H117.818V52.3608H122.179V47.9995Z" fill="#722626"/>
<path d="M126.547 52.3608H122.186V56.7221H126.547V52.3608Z" fill="#722626"/>
<path d="M130.908 56.7283H126.547V61.0896H130.908V56.7283Z" fill="#722626"/>
<path d="M39.2769 13.0902V8.7289H43.6381V4.36128H47.9994V0H56.7283V4.36128H65.4572V8.7289H69.8185H74.1861H78.5474V13.0902H82.9087H87.2763H91.6376V17.4515H95.9989V21.8191H39.2769V13.0902Z" fill="#9B3A38"/>
<path d="M47.9995 8.729H43.6382V13.0903H47.9995V8.729Z" fill="#722626"/>
<path d="M52.3608 4.36133H47.9995V8.7226H52.3608V4.36133Z" fill="#722626"/>
<path d="M56.7285 8.729H52.3672V13.0903H56.7285V8.729Z" fill="#722626"/>
<path d="M61.0895 8.729H56.7283V13.0903H61.0895V8.729Z" fill="#722626"/>
<path d="M56.7284 13.0903H34.9093V17.4516H21.8191V21.8192H17.4578V26.1805H8.72891V34.9094H4.36763V39.2707H0V47.9996H4.36763V52.3609H8.72891V65.451H13.0902V69.8187H17.4578V74.18H26.1867V78.5412H65.4573V74.18H69.8185H87.2764V69.8187H95.9989V65.451H104.728V61.0898H109.089V56.7285H113.457V52.3609H117.818V39.2707H113.457V34.9094H109.089V30.5418H104.728V26.1805H100.367V21.8192H87.2764V17.4516H78.5475V13.0903H56.7284Z" fill="#FFB031"/>
<path d="M113.45 34.9094H109.089V39.2707H113.45V34.9094Z" fill="#FFD54D"/>
<path d="M109.089 30.5417H104.728V34.903H109.089V30.5417Z" fill="#FFD54D"/>
<path d="M104.728 26.1804H100.366V30.5417H104.728V26.1804Z" fill="#FFD54D"/>
<path d="M100.36 26.1804H95.999V30.5417H100.36V26.1804Z" fill="#FFD54D"/>
<path d="M100.36 21.8191H95.999V26.1804H100.36V21.8191Z" fill="#FFD54D"/>
<path d="M95.9987 21.8191H91.6375V26.1804H95.9987V21.8191Z" fill="#FFD54D"/>
<path d="M91.6376 21.8191H87.2764V26.1804H91.6376V21.8191Z" fill="#FFD54D"/>
<path d="M82.9086 17.4517H78.5474V21.8129H82.9086V17.4517Z" fill="#FFD54D"/>
<path d="M78.5473 13.0903H74.186V17.4516H78.5473V13.0903Z" fill="#FFD54D"/>
<path d="M87.27 17.4517H82.9087V21.8129H87.27V17.4517Z" fill="#FFD54D"/>
<path d="M30.5481 69.8185V74.1798H34.9094V82.9087H39.277V87.27H52.3672V82.9087H56.7285V78.541H52.3672V74.1798H47.9996V69.8185H43.6383V65.4509H39.277V61.0896H34.9094V65.4509H30.5481V69.8185Z" fill="#9B3A38"/>
<path d="M43.6381 65.4509H39.2769V69.8122H43.6381V65.4509Z" fill="#722626"/>
<path d="M43.6381 69.8184H39.2769V74.1796H43.6381V69.8184Z" fill="#722626"/>
<path d="M47.9995 69.8184H43.6382V74.1796H47.9995V69.8184Z" fill="#722626"/>
<path d="M47.9995 74.1797H43.6382V78.541H47.9995V74.1797Z" fill="#722626"/>
<path d="M52.3608 74.1797H47.9995V78.541H52.3608V74.1797Z" fill="#722626"/>
<path d="M34.9157 34.9092H26.1868V43.6381H34.9157V34.9092Z" fill="white"/>
<path d="M30.548 34.9092H26.1868V39.2705H30.548V34.9092Z" fill="#28211C"/>
<path d="M52.3608 26.1804H47.9995V30.5417H52.3608V26.1804Z" fill="#F0923D"/>
<path d="M56.7282 30.5417H52.3669V34.903H56.7282V30.5417Z" fill="#F0923D"/>
<path d="M56.7282 34.9092H52.3669V39.2705H56.7282V34.9092Z" fill="#F0923D"/>
<path d="M61.0895 39.2705H56.7283V43.6318H61.0895V39.2705Z" fill="#F0923D"/>
<path d="M56.7282 43.6382H52.3669V47.9994H56.7282V43.6382Z" fill="#F0923D"/>
<path d="M52.3608 47.9995H47.9995V52.3608H52.3608V47.9995Z" fill="#F0923D"/>
<path d="M47.9995 52.3606H43.6382V56.7219H47.9995V52.3606Z" fill="#F0923D"/>
<path d="M13.0903 52.3608H8.729V56.7221H13.0903V52.3608Z" fill="#F0923D"/>
<path d="M8.72895 47.9995H4.36768V52.3608H8.72895V47.9995Z" fill="#F0923D"/>
<path d="M8.72895 52.3608H4.36768V56.7221H8.72895V52.3608Z" fill="#FFB031"/>
<path d="M17.4516 56.7283H13.0903V61.0896H17.4516V56.7283Z" fill="#F0923D"/>
<path d="M21.8193 56.7283H17.458V61.0896H21.8193V56.7283Z" fill="#F0923D"/>
<path d="M26.1804 52.3608H21.8191V56.7221H26.1804V52.3608Z" fill="#F0923D"/>
<path d="M65.4572 52.3608H69.8185V56.7285H74.1861V61.0898H78.5474V69.8186H74.1861V65.451H65.4572V61.0898H61.0896V52.3608H65.4572Z" fill="#9B3A38"/>
</svg>
