<svg width="35" height="30" viewBox="0 0 35 30" fill="none" xmlns="http://www.w3.org/2000/svg">
<g clip-path="url(#clip0_321_7464)">
<path d="M17.38 16.02C17.38 11.23 17.38 6.44001 17.38 1.65001C17.38 1.44001 17.35 1.22001 17.3 1.01001C17.12 0.270012 16.5 -0.129988 15.76 0.0300119C15.34 0.120012 15 0.350012 14.7 0.640012C13.26 2.05001 11.83 3.46001 10.39 4.87001C8.89 6.34001 7.4 7.81001 5.9 9.27001C5.85 9.32001 5.77 9.35001 5.7 9.35001C5.29 9.35001 4.88 9.35001 4.48 9.35001C3.39 9.35001 2.3 9.35001 1.22 9.35001C0.74 9.35001 0.33 9.56001 0.08 9.92001C0.03 9.99001 0 10.08 0 10.16V19.32C0 19.4 0.02 19.49 0.07 19.55C0.35 19.96 0.75 20.14 1.25 20.14C2.72 20.14 4.19 20.14 5.66 20.14C5.74 20.14 5.85 20.17 5.91 20.23C7.36 21.65 8.81 23.07 10.26 24.49C11.73 25.94 13.2 27.39 14.69 28.83C14.9 29.04 15.15 29.22 15.42 29.37C16.13 29.76 16.84 29.51 17.18 28.77C17.35 28.4 17.4 28 17.4 27.59C17.4 23.73 17.4 19.86 17.4 16L17.38 16.02Z" fill="#170C4A"/>
<path d="M34.9401 14.93C34.8901 18.48 33.6701 21.75 31.2301 24.54C29.9701 25.98 28.4901 27.12 26.7901 27.99C26.4901 28.15 26.1901 28.26 25.8501 28.22C25.2801 28.16 24.7701 27.7 24.6801 27.15C24.5701 26.52 24.8701 25.93 25.4001 25.67C28.2401 24.28 30.2401 22.09 31.4101 19.16C31.8001 18.19 32.0501 17.18 32.1401 16.14C32.5401 11.9 31.1601 8.35001 27.9701 5.52001C27.2301 4.86001 26.4001 4.33001 25.5001 3.89001C24.9701 3.63001 24.6801 3.10001 24.7401 2.51001C24.8001 1.97001 25.2001 1.50001 25.7501 1.36001C26.0801 1.28001 26.4001 1.33001 26.7101 1.49001C29.1701 2.74001 31.1501 4.53001 32.6301 6.86001C33.6601 8.47001 34.3401 10.23 34.6801 12.11C34.8401 12.99 34.9101 13.88 34.9301 14.93H34.9401Z" fill="#170C4A"/>
<path d="M29.5401 14.59C29.5101 17.41 28.6501 19.75 26.9501 21.77C26.1101 22.77 25.1001 23.58 23.9601 24.22C23.8001 24.31 23.6301 24.41 23.4501 24.46C22.7701 24.64 22.0801 24.29 21.8401 23.65C21.5901 22.98 21.8701 22.27 22.5101 21.95C23.7101 21.34 24.6801 20.46 25.4301 19.35C26.2001 18.22 26.6501 16.97 26.7901 15.6C27.1301 12.31 25.4401 9.15001 22.5301 7.61001C22.0101 7.34001 21.7401 6.90001 21.7801 6.32001C21.8201 5.74001 22.1301 5.32001 22.6901 5.12001C23.0301 5.00001 23.3901 5.02001 23.7101 5.19001C25.8101 6.30001 27.4001 7.92001 28.4501 10.04C28.9901 11.13 29.3301 12.28 29.4601 13.49C29.5001 13.91 29.5301 14.33 29.5501 14.57L29.5401 14.59Z" fill="#170C4A"/>
<path d="M24.14 14.99C24.05 16.88 23.12 18.48 21.28 19.53C20.86 19.77 20.41 19.95 19.93 20.03C19.21 20.15 18.55 19.66 18.4 18.93C18.27 18.28 18.71 17.58 19.38 17.4C20.39 17.12 21.07 16.47 21.34 15.45C21.71 14.04 20.91 12.7 19.65 12.24C19.43 12.16 19.21 12.11 19 12.01C18.48 11.74 18.21 11.11 18.34 10.55C18.48 9.94999 18.98 9.52999 19.59 9.49999C20.04 9.47999 20.46 9.63999 20.86 9.81999C22.36 10.49 23.37 11.62 23.89 13.19C24.06 13.71 24.13 14.25 24.14 15.01V14.99Z" fill="#170C4A"/>
</g>
<defs>
<clipPath id="clip0_321_7464">
<rect width="34.94" height="29.57" fill="white"/>
</clipPath>
</defs>
</svg>
