<svg width="117" height="107" viewBox="0 0 117 107" fill="none" xmlns="http://www.w3.org/2000/svg">
<g filter="url(#filter0_d_1063_490)">
<path d="M96.3299 37.0639L97.338 33.8506L94.1247 32.8425L95.1328 29.6292L91.9195 28.6211L92.9291 25.4031L89.7111 24.3935L90.7192 21.1802L77.8613 17.1464L76.8532 20.3597L70.422 18.342L69.4124 21.56L62.9811 19.5423L61.973 22.7556L55.5464 20.7394L54.5383 23.9527L48.1071 21.9351L47.0975 25.1531L43.8842 24.145L42.8761 27.3583L39.6581 26.3487L38.6486 29.5667L35.4353 28.5586L33.4191 34.9852L91.2865 53.1397L96.3299 37.0639Z" fill="#722626"/>
<path d="M29.1967 37.1952L25.9787 36.1856L26.9882 32.9677L23.775 31.9596L24.7831 28.7463L21.5651 27.7367L22.5732 24.5234L16.1466 22.5072L12.1127 35.3651L15.326 36.3732L11.2922 49.231L8.07888 48.2229L5.05165 57.8722L11.4782 59.8884L12.4878 56.6704L15.7058 57.68L16.7139 54.4667L19.9272 55.4748L20.9367 52.2568L24.1547 53.2664" fill="#722626"/>
<path d="M25.35 60.7054L23.3323 67.1367L26.5456 68.1448L25.5375 71.3581L28.7555 72.3676L27.7459 75.5856L34.1725 77.6018L33.1644 80.8151L39.5957 82.8328L42.809 83.8409L41.8009 87.0541L48.2322 89.0718L54.2837 69.7827L25.35 60.7054Z" fill="#722626"/>
<path d="M76.9783 87.4965L74.9606 93.9278L71.7473 92.9197L70.7392 96.133L67.5212 95.1234L66.5117 98.3414L60.0851 96.3252L62.1028 89.8939L65.316 90.902L67.3337 84.4707L76.9783 87.4965Z" fill="#722626"/>
<path d="M28.1881 40.4083L29.1962 37.195L32.4095 38.2031L33.4191 34.9851L36.6323 35.9932L37.6404 32.7799L40.8584 33.7895L41.8665 30.5762L45.0798 31.5842L46.0894 28.3663L49.3027 29.3744L50.3108 26.1611L56.742 28.1787L57.7516 24.9608L60.9649 25.9689L64.1829 26.9784L67.3962 27.9865L68.4043 24.7732L78.0488 27.799L87.6934 30.8247L86.6853 34.038L96.3299 37.0638L95.3203 40.2818L98.5383 41.2913L97.5302 44.5046L100.743 45.5127L99.7339 48.7307L102.952 49.7403L100.936 56.1669L104.149 57.1749L103.139 60.3929L106.353 61.401L105.345 64.6143L104.337 67.8276L103.327 71.0456L102.319 74.2589L101.311 77.4722L98.0975 76.4641L97.0879 79.6821L93.8746 78.674L91.857 85.1052L88.639 84.0957L87.6309 87.309L84.4176 86.3009L83.4095 89.5142L80.1915 88.5046L79.182 91.7226L75.9687 90.7145L72.7554 89.7064L71.7473 92.9197L49.2402 85.8586L50.2483 82.6453L47.035 81.6372L43.817 80.6277L40.6037 79.6196L41.6133 76.4016L35.182 74.3839L36.1901 71.1706L32.9768 70.1625L33.9849 66.9492L30.7716 65.9411L27.5536 64.9316L28.5632 61.7136L25.3499 60.7055L26.358 57.4922L27.3675 54.2742L24.1542 53.2661L25.1623 50.0528L21.9444 49.0433L24.9701 39.3987L28.1881 40.4083Z" fill="#9B3A38"/>
<path d="M72.3773 68.3948L69.164 67.3867L68.1544 70.6047L61.7232 68.587L60.7151 71.8003L57.5018 70.7922L54.476 80.4368L57.6893 81.4449L56.6797 84.6629L59.893 85.671L60.9026 82.453L67.3339 84.4707L69.3501 78.0441L72.5633 79.0522L75.5906 69.4029L72.3773 68.3948Z" fill="#722626"/>
<path d="M88.0731 52.1316L94.5044 54.1492L92.4867 60.5805L86.0555 58.5628L88.0731 52.1316Z" fill="white"/>
<path d="M91.2911 53.1411L94.5044 54.1492L93.4963 57.3625L90.283 56.3544L91.2911 53.1411Z" fill="#28211C"/>
<path d="M76.223 44.8844L79.4363 45.8925L78.4282 49.1058L75.2149 48.0977L76.223 44.8844Z" fill="#873331"/>
<path d="M72.0018 47.0897L75.2151 48.0978L74.207 51.3111L70.9937 50.303L72.0018 47.0897Z" fill="#873331"/>
<path d="M67.7745 49.2978L70.9878 50.3059L69.9797 53.5192L66.7664 52.5111L67.7745 49.2978Z" fill="#873331"/>
<path d="M66.766 52.5112L69.9792 53.5193L68.9712 56.7326L65.7579 55.7245L66.766 52.5112Z" fill="#873331"/>
<path d="M68.9764 56.734L72.1897 57.7421L71.1816 60.9554L67.9683 59.9473L68.9764 56.734Z" fill="#873331"/>
<path d="M71.1795 60.9603L74.3928 61.9684L73.3847 65.1817L70.1714 64.1736L71.1795 60.9603Z" fill="#873331"/>
<path d="M73.3846 65.1816L76.5979 66.1897L75.5898 69.403L72.3765 68.3949L73.3846 65.1816Z" fill="#873331"/>
<path d="M100.114 70.0376L103.327 71.0457L102.319 74.259L99.1055 73.2509L100.114 70.0376Z" fill="#873331"/>
<path d="M95.8919 72.2425L99.1052 73.2506L98.0971 76.4639L94.8838 75.4558L95.8919 72.2425Z" fill="#873331"/>
<path d="M92.6793 71.2347L95.8926 72.2428L94.8845 75.4561L91.6712 74.448L92.6793 71.2347Z" fill="#873331"/>
<path d="M88.4525 73.4381L91.6658 74.4462L90.6577 77.6595L87.4444 76.6514L88.4525 73.4381Z" fill="#873331"/>
<path d="M86.2474 69.2168L89.4607 70.2249L88.4526 73.4382L85.2393 72.4301L86.2474 69.2168Z" fill="#873331"/>
<path d="M57.7512 24.9605L67.3958 27.9863L66.3877 31.1996L56.7431 28.1738L57.7512 24.9605Z" fill="#AB403E"/>
<path d="M50.3103 26.1609L59.9548 29.1866L58.9467 32.3999L49.3022 29.3742L50.3103 26.1609Z" fill="#AB403E"/>
<path d="M46.0887 28.3661L52.52 30.3837L51.5119 33.597L45.0806 31.5794L46.0887 28.3661Z" fill="#AB403E"/>
<path d="M41.8617 30.5747L48.293 32.5923L47.2849 35.8056L40.8536 33.788L41.8617 30.5747Z" fill="#AB403E"/>
<path d="M37.6449 32.7813L40.8582 33.7894L39.8501 37.0027L36.6368 35.9946L37.6449 32.7813Z" fill="#AB403E"/>
<path d="M33.4185 34.985L36.6318 35.9931L35.6237 39.2064L32.4105 38.1983L33.4185 34.985Z" fill="#AB403E"/>
<path d="M29.1959 37.195L32.4092 38.2031L31.4011 41.4164L28.1878 40.4083L29.1959 37.195Z" fill="#AB403E"/>
<path d="M24.9749 39.4001L28.1882 40.4082L27.1801 43.6215L23.9668 42.6134L24.9749 39.4001Z" fill="#AB403E"/>
</g>
<defs>
<filter id="filter0_d_1063_490" x="1.05176" y="17.1464" width="109.301" height="89.195" filterUnits="userSpaceOnUse" color-interpolation-filters="sRGB">
<feFlood flood-opacity="0" result="BackgroundImageFix"/>
<feColorMatrix in="SourceAlpha" type="matrix" values="0 0 0 0 0 0 0 0 0 0 0 0 0 0 0 0 0 0 127 0" result="hardAlpha"/>
<feOffset dy="4"/>
<feGaussianBlur stdDeviation="2"/>
<feComposite in2="hardAlpha" operator="out"/>
<feColorMatrix type="matrix" values="0 0 0 0 0 0 0 0 0 0 0 0 0 0 0 0 0 0 0.37 0"/>
<feBlend mode="normal" in2="BackgroundImageFix" result="effect1_dropShadow_1063_490"/>
<feBlend mode="normal" in="SourceGraphic" in2="effect1_dropShadow_1063_490" result="shape"/>
</filter>
</defs>
</svg>
