<svg width="74" height="66" viewBox="0 0 74 66" fill="none" xmlns="http://www.w3.org/2000/svg">
    <path
        d="M64.2499 34.5956L61.0441 45.7359L57.3307 44.6673L55.1935 52.0941L51.4801 51.0255L50.4115 54.7389L42.9847 52.6018L41.9161 56.3152L19.6356 49.9037L20.7042 46.1903L13.2774 44.0531L14.346 40.3397L10.6325 39.2711L12.7697 31.8443L9.05629 30.7757L12.262 19.6354L15.9755 20.704L18.1126 13.2772L21.826 14.3458L22.8946 10.6323L30.3215 12.7695L31.39 9.0561L53.6705 15.4676L52.602 19.181L60.0288 21.3182L58.9602 25.0316L62.6736 26.1002L60.5365 33.527L64.2499 34.5956Z"
        fill="#F8FFAF" />
    <path d="M15.4143 36.6263L11.7009 35.5577L10.6323 39.2712L14.3458 40.3397L15.4143 36.6263Z"
        fill="#448700" />
    <path d="M56.2615 48.3805L52.5481 47.3119L51.4795 51.0253L55.1929 52.0939L56.2615 48.3805Z"
        fill="#448700" />
    <path d="M21.7728 42.4767L14.3459 40.3395L13.2774 44.0529L20.7042 46.1901L21.7728 42.4767Z"
        fill="#448700" />
    <path d="M51.4801 51.0254L44.0532 48.8883L42.9846 52.6017L50.4115 54.7389L51.4801 51.0254Z"
        fill="#448700" />
    <path d="M42.9848 52.6018L20.7043 46.1903L19.6358 49.9038L41.9163 56.3153L42.9848 52.6018Z"
        fill="#448700" />
    <path d="M30.3214 12.7696L22.8945 10.6324L21.8259 14.3458L29.2528 16.483L30.3214 12.7696Z"
        fill="white" />
    <path d="M17.0088 16.9807L20.7576 18.0594L21.8262 14.346L18.0774 13.2672L17.0088 16.9807Z"
        fill="white" />
    <path d="M30.2856 12.7592L34.0344 13.838L35.103 10.1246L31.3542 9.04582L30.2856 12.7592Z"
        fill="white" />
    <path d="M32.4051 33.4738L28.6917 32.4052L27.6231 36.1186L31.3365 37.1872L32.4051 33.4738Z"
        fill="#304C0F" />
    <path d="M43.5452 36.6798L39.8318 35.6112L38.7632 39.3246L42.4766 40.3932L43.5452 36.6798Z"
        fill="#304C0F" />
    <path d="M38.7635 39.3245L31.3367 37.1874L30.2681 40.9008L37.6949 43.0379L38.7635 39.3245Z"
        fill="#304C0F" />
    <path d="M45.7122 29.2544L44.6294 32.9349L48.3364 34.0255L49.4192 30.345L45.7122 29.2544Z"
        fill="#304C0F" />
    <path d="M54.1778 27.6766L50.4644 26.608L49.3958 30.3214L53.1092 31.39L54.1778 27.6766Z"
        fill="#304C0F" />
    <path d="M55.7537 36.172L48.3269 34.0348L47.2583 37.7482L54.6852 39.8854L55.7537 36.172Z"
        fill="#662014" />
    <path d="M30.8042 24.9692L27.0845 23.9227L26.0454 27.6158L29.7651 28.6623L30.8042 24.9692Z"
        fill="#304C0F" />
    <path d="M28.1927 20.199L24.4792 19.1304L23.4107 22.8438L27.1241 23.9124L28.1927 20.199Z"
        fill="#304C0F" />
    <path d="M26.0555 27.6257L18.6287 25.4885L17.5601 29.2019L24.9869 31.3391L26.0555 27.6257Z"
        fill="#662014" />
    <path d="M22.8946 10.6323L19.1812 9.5637L18.1126 13.2771L21.826 14.3457L22.8946 10.6323Z"
        fill="#304C0F" />
    <path d="M14.3455 40.3397L10.6321 39.2712L9.5635 42.9846L13.2769 44.0532L14.3455 40.3397Z"
        fill="#304C0F" />
    <path d="M20.7042 46.1903L13.2773 44.0531L12.2088 47.7665L19.6356 49.9037L20.7042 46.1903Z"
        fill="#304C0F" />
    <path d="M50.411 54.7389L42.9841 52.6017L41.9155 56.3151L49.3424 58.4523L50.411 54.7389Z"
        fill="#304C0F" />
    <path d="M61.0975 17.6048L53.6707 15.4676L52.6021 19.181L60.0289 21.3182L61.0975 17.6048Z"
        fill="#304C0F" />
    <path d="M31.3905 9.05598L23.9636 6.91882L22.895 10.6322L30.3219 12.7694L31.3905 9.05598Z"
        fill="#304C0F" />
    <path d="M41.9158 56.3151L19.6353 49.9036L18.5667 53.617L40.8472 60.0285L41.9158 56.3151Z"
        fill="#304C0F" />
    <path d="M54.739 11.7543L32.4585 5.34284L31.3899 9.05625L53.6704 15.4678L54.739 11.7543Z"
        fill="#304C0F" />
    <path d="M18.1128 13.2772L14.3994 12.2086L12.2622 19.6354L15.9757 20.704L18.1128 13.2772Z"
        fill="#304C0F" />
    <path d="M12.7701 31.8444L9.05664 30.7758L6.91947 38.2027L10.6329 39.2712L12.7701 31.8444Z"
        fill="#304C0F" />
    <path d="M12.262 19.6356L8.54858 18.5671L5.34283 29.7073L9.05625 30.7759L12.262 19.6356Z"
        fill="#304C0F" />
    <path d="M67.9627 35.6641L64.2493 34.5955L61.0435 45.7358L64.7569 46.8044L67.9627 35.6641Z"
        fill="#304C0F" />
    <path d="M58.9594 25.0314L62.6729 26.1L63.7414 22.3866L60.028 21.318L58.9594 25.0314Z"
        fill="#304C0F" />
    <path d="M50.4109 54.7387L54.1243 55.8073L55.1929 52.0939L51.4794 51.0253L50.4109 54.7387Z"
        fill="#304C0F" />
    <path d="M60.5359 33.5269L64.2493 34.5955L66.3864 27.1687L62.673 26.1001L60.5359 33.5269Z"
        fill="#304C0F" />
    <path d="M55.1936 52.094L58.907 53.1626L61.0442 45.7357L57.3307 44.6671L55.1936 52.094Z"
        fill="#304C0F" />
    <path
        d="M64.2499 34.5956L61.0441 45.7359L57.3307 44.6673L55.1935 52.0941L51.4801 51.0255L50.4115 54.7389L42.9847 52.6018L41.9161 56.3152L19.6356 49.9037L20.7042 46.1903L13.2774 44.0531L14.346 40.3397L10.6325 39.2711L12.7697 31.8443L9.05629 30.7757L12.262 19.6354L15.9755 20.704L18.1126 13.2772L21.826 14.3458L22.8946 10.6323L30.3215 12.7695L31.39 9.0561L53.6705 15.4676L52.602 19.181L60.0288 21.3182L58.9602 25.0316L62.6736 26.1002L60.5365 33.527L64.2499 34.5956Z"
        fill="#FFE617" />
    <path d="M15.4143 36.6263L11.7009 35.5577L10.6323 39.2712L14.3458 40.3397L15.4143 36.6263Z"
        fill="#AF7923" />
    <path d="M56.2615 48.3805L52.5481 47.3119L51.4795 51.0253L55.1929 52.0939L56.2615 48.3805Z"
        fill="#AF7923" />
    <path d="M21.7728 42.4767L14.3459 40.3395L13.2774 44.0529L20.7042 46.1901L21.7728 42.4767Z"
        fill="#AF7923" />
    <path d="M51.4801 51.0254L44.0532 48.8883L42.9846 52.6017L50.4115 54.7389L51.4801 51.0254Z"
        fill="#AF7923" />
    <path d="M42.9848 52.6018L20.7043 46.1903L19.6358 49.9038L41.9163 56.3153L42.9848 52.6018Z"
        fill="#AF7923" />
    <path d="M30.3214 12.7696L22.8945 10.6324L21.8259 14.3458L29.2528 16.483L30.3214 12.7696Z"
        fill="#F8FFAF" />
    <path d="M17.0088 16.9807L20.7576 18.0594L21.8262 14.346L18.0774 13.2672L17.0088 16.9807Z"
        fill="#F8FFAF" />
    <path d="M30.2856 12.7592L34.0344 13.838L35.103 10.1246L31.3542 9.04582L30.2856 12.7592Z"
        fill="#F8FFAF" />
    <path d="M22.8946 10.6323L19.1812 9.5637L18.1126 13.2771L21.826 14.3457L22.8946 10.6323Z"
        fill="#FF6417" />
    <path d="M14.3455 40.3397L10.6321 39.2712L9.5635 42.9846L13.2769 44.0532L14.3455 40.3397Z"
        fill="#991900" />
    <path d="M20.7042 46.1903L13.2773 44.0531L12.2088 47.7665L19.6356 49.9037L20.7042 46.1903Z"
        fill="#991900" />
    <path d="M50.411 54.7389L42.9841 52.6017L41.9155 56.3151L49.3424 58.4523L50.411 54.7389Z"
        fill="#662014" />
    <path d="M61.0975 17.6048L53.6707 15.4676L52.6021 19.181L60.0289 21.3182L61.0975 17.6048Z"
        fill="#991900" />
    <path d="M31.3905 9.05598L23.9636 6.91882L22.895 10.6322L30.3219 12.7694L31.3905 9.05598Z"
        fill="#FF6417" />
    <path d="M41.9158 56.3151L19.6353 49.9036L18.5667 53.617L40.8472 60.0285L41.9158 56.3151Z"
        fill="#991900" />
    <path d="M54.739 11.7543L32.4585 5.34284L31.3899 9.05625L53.6704 15.4678L54.739 11.7543Z"
        fill="#991900" />
    <path d="M18.1128 13.2772L14.3994 12.2086L12.2622 19.6354L15.9757 20.704L18.1128 13.2772Z"
        fill="#FF6417" />
    <path d="M12.7701 31.8444L9.05664 30.7758L6.91947 38.2027L10.6329 39.2712L12.7701 31.8444Z"
        fill="#991900" />
    <path d="M12.262 19.6356L8.54858 18.5671L5.34283 29.7073L9.05625 30.7759L12.262 19.6356Z"
        fill="#FF6417" />
    <path d="M58.9594 25.0314L62.6729 26.1L63.7414 22.3866L60.028 21.318L58.9594 25.0314Z"
        fill="#991900" />
    <path d="M50.4109 54.7387L54.1243 55.8073L55.1929 52.0939L51.4794 51.0253L50.4109 54.7387Z"
        fill="#662014" />
    <path d="M60.5359 33.5269L64.2493 34.5955L66.3864 27.1687L62.673 26.1001L60.5359 33.5269Z"
        fill="#991900" />
    <path d="M55.1936 52.094L58.907 53.1626L61.0442 45.7357L57.3307 44.6671L55.1936 52.094Z"
        fill="#662014" />
    <path d="M61.0439 45.7361L64.7573 46.8047L67.9631 35.6644L64.2497 34.5958L61.0439 45.7361Z"
        fill="#991900" />
    <path d="M45.6827 29.253L41.9692 28.1844L38.7635 39.3246L42.4769 40.3932L45.6827 29.253Z"
        fill="#662014" />
    <path d="M34.542 26.0472L30.8286 24.9786L27.6229 36.1188L31.3363 37.1874L34.542 26.0472Z"
        fill="#AF7923" />
    <path d="M38.7635 39.3245L31.3367 37.1874L30.2681 40.9008L37.6949 43.0379L38.7635 39.3245Z"
        fill="#AF7923" />
    <path d="M59.4676 37.2405L55.7542 36.1719L54.6856 39.8853L58.399 40.9539L59.4676 37.2405Z"
        fill="#662014" />
    <path d="M52.0403 35.1034L48.3269 34.0348L47.2583 37.7482L50.9717 38.8168L52.0403 35.1034Z"
        fill="#AF7923" />
    <path d="M56.8221 32.4587L53.1086 31.3901L52.0401 35.1036L55.7535 36.1721L56.8221 32.4587Z"
        fill="#AF7923" />
    <path d="M26.0462 27.6233L22.3328 26.5548L21.2642 30.2682L24.9776 31.3368L26.0462 27.6233Z"
        fill="#662014" />
    <path d="M18.6202 25.4861L14.9067 24.4175L13.8382 28.1309L17.5516 29.1995L18.6202 25.4861Z"
        fill="#AF7923" />
    <path d="M23.4026 22.8416L19.6892 21.773L18.6206 25.4864L22.334 26.555L23.4026 22.8416Z"
        fill="#AF7923" />
</svg>