<svg xmlns="http://www.w3.org/2000/svg" width="31" height="30" fill="none"><path fill="url(#a)" d="m27.28 19.33 1.54 2.2-.52.2-2.6.55-.08.02-.42.09h-.03l.11.35.77 2.47.05.15-.53.2-.78-.08-1.92-.21-.4-.04-.07-.01v.06l-.03 1.06-.05 1.81-.52.21-2.59-1.16-.32-.14-1.02 2.59-.52.21-2.22-2-.15-.14-1.81 1.97-.52.21-1.57-2.73-.02-.04-2.37 1.16-.52.21-.66-3.13-3.1.39-.07.01.33-3.06.01-.11-3.14-.6.04-.08 1.27-2.84-.05-.02-2.75-1.51 2.14-2.37-.07-.08L0 12.85l.08-.05 2.69-1.54-.05-.12-1.31-2.77.52-.21 1.93-.33.67-.12-.01-.09-.35-2.76-.04-.32.52-.2.67.13 1.99.41.05-.26.01-.06.54-2.82.52-.21 2.39 1.51.19-.35L12.36.24l.52-.2 1.85 2.35.37-.35L17.05.2l.53-.21 1.04 2.91.03.07.09-.04.42-.19.62-.27 1.73-.76.59 2.61.1.41.46-.06 2.7-.34-.26 2.5-.07.67.71.14 2.42.46-.96 2.16-.34.76.74.41 2.06 1.13-1.58 1.74-.56.62.56.61 1.62 1.72-2.13 1.23-.63.36.34.49Z"/><path fill="#F3F3F3" d="m7.35 22.21-2.12 3.07-.83.48h-.06l.32-3.05.96-.54-3.22-.6-.83.35 1.27-2.84-.05-.03.9-.28-2.7-1.54-.94.31 2.14-2.37-.07-.08.93-.26.19-.84-2.32-1.43-.83.23 2.69-1.55-.05-.11.75-.23s1.55 2.74 1.47 2.84c-.08.11 2.41 8.46 2.41 8.46l-.01.01Z" style="mix-blend-mode:soft-light"/><path fill="url(#b)" d="m25.69 22.2.01.08.09.7.29 2.26.02.12-1.61-.18-1.57-.17-.05.26-.25 1.32-.3 1.56-2.91-1.3-.2.35-1.34 2.45-2.37-2.14-.37.35-1.96 1.83-1.59-2.76-.5.24-2.39 1.12-.65-3.13-3.18.41.01-.08.33-3.08v-.02l-3.13-.6.04-.1 1.24-2.77.02-.04-.04-.03-2.72-1.49-.04-.02 2.08-2.31.06-.06-.02-.03-.04-.03-2.1-2.23-.03-.04 2.67-1.53.1-.06-.03-.07-.02-.04-1.08-2.29-.04-.09-.19-.4 1.87-.39.72-.15.37-.08.16-.04-.02-.17-.01-.11-.22-1.73-.1-.78-.05-.37.59.06 1.23.13.89.09.08.01.25.03.14.01.02-.12.58-3.02 2.58 1.16.33.15 1.54-2.8 2.22 2 .15.14 2.33-2.19 1.58 2.75.01.02.61-.29 2.28-1.07.66 3.13 3.17-.4-.34 3.17 3.13.6-1.28 2.88-.02.03.03.02 2.77 1.52-2.09 2.31-.05.06.06.06 2.13 2.26-2.7 1.56-.07.04.03.08 1.33 2.81-3.11.65-.02.01v.01Z"/><path fill="url(#c)" d="M26.96 14.92c0 2.02-.43 3.9-1.2 5.54a10.106 10.106 0 0 1-.45.85c0 .01-.01.02-.02.04-.07.13-.15.25-.23.38-.07.12-.15.24-.23.35-.17.25-.35.49-.54.72-.07.09-.14.18-.22.26-.54.63-1.15 1.19-1.81 1.68-.08.07-.17.12-.26.19-1.88 1.31-4.21 2.06-6.8 2.06-1.23 0-2.42-.17-3.54-.49-.02 0-.04-.01-.06-.02-3.81-1.09-6.91-3.87-8.24-7.55 0-.02-.02-.05-.03-.07-.42-1.19-.66-2.47-.67-3.82v-.15c0-1.32.19-2.59.54-3.78.01-.06.03-.11.05-.17.13-.43.28-.84.46-1.24.03-.07.06-.13.09-.2.02-.05.04-.1.07-.15.09-.2.19-.4.29-.59.22-.42.47-.83.75-1.22.05-.07.09-.14.14-.21 0 0 0-.01.01-.01.02-.02.04-.05.06-.07.2-.28.41-.54.63-.8l.29-.32s.09-.09.13-.14c.14-.15.29-.29.44-.43l.33-.3c.24-.21.49-.41.75-.59l.01-.01c.05-.04.11-.08.16-.11a11.43 11.43 0 0 1 4.53-1.89s2.15-.34 4.12-.04c.68.1 1.33.28 1.87.57.2.11.38.09.53.03 2.06.77 3.86 2.08 5.24 3.76 0 .01.01.02.02.03l.15.18v.01c.73.94 1.32 1.98 1.77 3.1.56 1.44.87 2.99.87 4.63v-.01Z"/><path fill="url(#d)" d="M28.09 14.66c0-.12 0-.24-.01-.36-.04-.99-.21-1.96-.48-2.87-.06-.2-.12-.4-.19-.59 0-.02 0-.04-.02-.05-.06-.17-.13-.35-.2-.52a12.2 12.2 0 0 0-2.1-3.42c-.71-.82-1.53-1.55-2.43-2.16-.18-.12-.37-.24-.56-.35a12.48 12.48 0 0 0-3.37-1.39l-.11-.03c-.07-.02-.13-.03-.2-.05-.7-.13-1.34-.21-1.93-.25-1.92-.13-3.2.17-3.68.31v.02c-1.7.42-3.25 1.19-4.59 2.23-.05.04-.09.07-.14.12-.32.25-.63.52-.92.8l-.12.12c-.26.25-.49.52-.72.78 0 0 0 .01-.02.02-.5.6-.95 1.25-1.33 1.95-.07.12-.14.25-.2.38-.38.74-.67 1.52-.9 2.33-.02.11-.05.21-.08.32-.23.93-.34 1.9-.34 2.9 0 3.19 1.21 6.1 3.21 8.29 1.33 1.46 3.01 2.61 4.91 3.3.01 0 .02 0 .03.01.01 0 .02 0 .03.01 1.29.45 2.69.71 4.13.71 2.15 0 4.17-.55 5.93-1.53.23-.12.45-.26.68-.4 0 0 .05-.03.07-.05.42-.27.82-.56 1.2-.88.28-.23.54-.47.8-.73.04-.03.07-.07.11-.11.25-.25.48-.51.7-.78l.12-.15c.08-.09.15-.19.23-.29.02-.03.05-.06.07-.09 0 0 0-.01.01-.02.18-.23.35-.48.5-.73.43-.67.78-1.38 1.07-2.12.08-.2.15-.4.22-.61.01-.04.02-.08.04-.12l.03-.12c.29-.94.47-1.93.52-2.96.01-.21.02-.42.02-.64V14.66h.01Z"/><path fill="url(#e)" d="M15.78 26.38c-6.34 0-11.49-5.16-11.49-11.49S9.45 3.4 15.78 3.4s11.49 5.16 11.49 11.49-5.16 11.49-11.49 11.49Z"/><path fill="#8B8B8B" d="M20.22 16.91c0 .69-.05 1.46-.12 2.11-.05 0-.3.46-.4.5h-.01c-.84 0-4.48-.02-5.79-.02h-2.26c-.18-.48-.35-1.05-.48-1.55-.01-.06.43-.45.41-.51 1.21-.89 1.88-1.42 2.65-2.13.55-.49 1.07-.98 1.5-1.48.51-.69.84-1.41.84-2.2 0-.6-.14-1-.41-1.37-.23-.3-.64-.5-1.08-.5-.37 0-.68.07-.91.16l-.36 1.59c-.05 0-.36.51-.41.51h-.02c-.62 0-1.25-.16-1.81-.19.05-1.07.12-2.13.19-3.18 0-.07.41-.44.41-.51.84-.35 2.28-.6 3.46-.6 1.64 0 2.61.32 3.34.96.71.6 1.1 1.53 1.1 2.45 0 1.2-.61 2.25-1.38 3.12-.76 1.03-1.81 1.85-2.53 2.41-.26.21-.48.38-.7.54 1.3-.03 3.68-.14 4.72-.16h.02l.04.04-.01.01Z"/><path fill="#424242" d="M20.18 16.88h-.02c-1.04 0-3.42.12-4.72.14h-.22v-.07c.46-.32.83-.57 1.33-.98.6-.47 1.43-1.11 2.12-1.91.77-.87 1.38-1.92 1.38-3.12 0-.92-.39-1.85-1.1-2.45-.73-.64-1.71-.96-3.34-.96-1.19 0-2.63.25-3.46.6 0 .07-.41.44-.41.51-.07.98.27 1.68.22 2.67.35.02.62.33.93.53.14.09.29.16.47.17h.02c.05 0 .36-.51.41-.51l.36-1.59.04-.19s.01-.05.02-.07c.01-.04.03-.07.07-.1.25-.16.66-.3 1.19-.3.44 0 .85.2 1.08.5.27.37.41.76.41 1.37 0 .99-.51 1.86-1.25 2.71-.44.5-.96.99-1.5 1.48-.76.71-1.44 1.24-2.65 2.13.02.06-.43.45-.41.51.12.46.73.61.89 1.04h2.26c1.23 0 4.27.52 5.38.53h.01c.09-.05.34-.5.4-.5.07-.66.12-1.42.12-2.11l-.04-.03h.01Z"/><path fill="#7E7E7E" d="M14.21 9.67s-.01.04-.02.07l-.04.19-.36 1.59c-.05 0-.36.51-.41.51h-.02a.954.954 0 0 1-.47-.17c0-.19.03-.35.04-.42.09-.47.33-.92.62-1.29.08-.11.43-.58.62-.5.02 0 .03.02.04.03v-.01ZM20.22 16.91c0 .69-.05 1.46-.12 2.11-.05 0-.3.46-.4.5h-.01l-.1-.05.12-1.98.08-.1.41-.51.04.03h-.02Z" opacity=".2" style="mix-blend-mode:color-burn"/><path fill="#6C6C6C" d="M19.78 17.39h-.02c-1.1 0-3.71.13-4.94.15v-.07c.22-.16.43-.29.63-.44.22-.16.44-.33.7-.54.73-.56 1.77-1.38 2.53-2.41.56-.76.97-1.64.97-2.61s-.39-1.85-1.1-2.45c-.73-.64-1.71-.96-3.34-.96-1.19 0-2.63.25-3.47.6-.07 1.05-.14 2.11-.19 3.18.56.03 1.19.19 1.81.19h.02l.41-1.78c.02-.09.04-.12.09-.18.08-.05.17-.1.28-.14.24-.09.54-.16.91-.16.44 0 .85.2 1.08.5.27.37.41.76.41 1.37 0 .79-.33 1.51-.84 2.2-.5.68-1.18 1.33-1.91 1.99-.76.71-1.44 1.24-2.65 2.13.13.5.3 1.07.48 1.55h2.26c1.31 0 4.96.02 5.79.02.07-.66.12-1.41.12-2.11l-.03-.02v-.01Z"/><path fill="url(#f)" d="M15.78 26.38c-6.34 0-11.49-5.16-11.49-11.49S9.45 3.4 15.78 3.4s11.49 5.16 11.49 11.49-5.16 11.49-11.49 11.49Z" opacity=".3" style="mix-blend-mode:multiply"/><path fill="url(#g)" d="M27.28 14.89c0 6.34-5.16 11.49-11.49 11.49-4.72 0-8.78-2.86-10.55-6.94-.61-1.4-.94-2.94-.94-4.56 0-6.34 5.16-11.49 11.49-11.49 1.86 0 3.61.44 5.16 1.23 3.75 1.89 6.33 5.78 6.33 10.27Z" opacity=".3" style="mix-blend-mode:multiply"/><path fill="#797979" d="M27.28 14.89c0 6.17-4.9 11.23-11.01 11.48 5.87-.51 10.24-5.45 10.24-11.45 0-6.34-4.9-11.49-11.24-11.49-.18 0-.35 0-.52.01.34-.03.69-.05 1.04-.05 6.34 0 11.49 5.16 11.49 11.49v.01Z" opacity=".6" style="mix-blend-mode:color-burn"/><path fill="#424242" d="M25.14 19.87s-.33.81-.77 1.03c-.21.1-.42.15-.6.13-.19-.02-.34-.12-.4-.27-.11-.3.16-.73.6-.95.1-.05.22-.07.33-.08.4-.03.84.14.84.14ZM22.76 20.55c-.08.07-.18.08-.29.06-.21-.05-.45-.25-.63-.54-.24-.39-.21-1.09-.2-1.29v-.06s.75.2 1.03.66.32.99.09 1.18v-.01ZM23.93 22s-.44.73-.91.86c-.14.04-.28.05-.41.04-.29-.02-.52-.17-.56-.39-.07-.32.27-.68.74-.81.04-.01.07-.02.11-.02.46-.05 1.04.32 1.04.32h-.01ZM21.29 22.28a.43.43 0 0 1-.16 0c-.23-.07-.45-.41-.54-.85-.08-.42.11-.98.21-1.22l.05-.12s.63.51.74 1.06c.11.55-.02 1.05-.3 1.13ZM26.03 17.1s-.2.86-.6 1.18c-.25.19-.52.28-.73.25a.39.39 0 0 1-.29-.18c-.15-.28.05-.75.45-1.06.19-.15.46-.19.7-.2.26-.01.46.02.46.02l.01-.01ZM23.94 18.32c-.08.14-.25.19-.44.16-.18-.02-.39-.12-.57-.28-.39-.33-.56-1.2-.56-1.2s.06 0 .15-.01h.03c.25 0 .7.01.98.25.39.33.58.81.41 1.08ZM25.04 12.54c-.18.49-.51.8-.77.72 0 0-.03 0-.04-.02-.26-.13-.32-.65-.13-1.17.13-.37.52-.66.73-.81.09-.06.15-.09.15-.09s.25.85.06 1.37ZM23.87 13.48c-.07.2-.3.3-.58.27-.14-.01-.28-.05-.43-.12-.44-.22-.77-1.03-.77-1.03s.32-.13.67-.15c.17-.01.35 0 .5.08.45.22.72.64.61.95ZM25.6 15.45c-.25.35-.58.54-.81.49a.285.285 0 0 1-.14-.08c-.22-.21-.15-.73.16-1.17.21-.31.65-.47.89-.54.1-.03.17-.04.17-.04s.03.89-.27 1.33v.01ZM24.02 15.85c-.08.17-.28.24-.51.22-.16-.02-.33-.08-.5-.19-.42-.27-.68-1.12-.68-1.12s.2-.05.45-.07h.01c.23 0 .5.01.7.14.42.27.66.73.52 1.02h.01ZM24.01 9.86c-.09.48-.37.82-.61.76h-.02c-.22-.09-.33-.51-.24-.98.07-.33.35-.65.51-.82.08-.07.13-.12.13-.12s.33.68.23 1.17v-.01ZM23.24 11.25c-.05.24-.33.37-.66.35-.06 0-.12-.02-.19-.03-.41-.11-.8-.75-.8-.75s.39-.25.75-.28c.09-.01.17 0 .25.01.41.11.7.42.65.7ZM22.69 7.98c-.02.43-.22.76-.43.75-.02 0-.05 0-.07-.02-.18-.08-.29-.41-.27-.78.02-.29.21-.61.34-.78.06-.08.1-.13.1-.13s.36.54.34.96h-.01ZM22.28 9.41c-.01.25-.32.43-.69.4h-.02c-.36-.04-.76-.51-.76-.51s.36-.33.7-.39h.12c.37.03.65.25.64.5h.01ZM21.55 8.11c-.07.13-.22.18-.39.15a.853.853 0 0 1-.37-.16c-.32-.22-.49-.87-.49-.87s.12-.03.28-.03c.19-.01.44 0 .61.12.32.22.48.57.37.79h-.01Z"/><path fill="#6C6C6C" d="M24.96 19.87s-.33.81-.77 1.03c-.14.07-.29.12-.43.13-.19-.02-.34-.12-.4-.27-.11-.3.16-.73.6-.95.1-.05.22-.07.33-.08.34.02.66.14.66.14h.01ZM22.58 20.55s-.07.05-.11.06c-.21-.05-.45-.25-.63-.54-.24-.39-.21-1.09-.2-1.29.24.09.66.28.86.6.28.46.32.99.09 1.18l-.01-.01ZM23.76 22s-.44.73-.91.86c-.08.02-.16.03-.23.04-.29-.02-.52-.17-.56-.39-.07-.32.27-.68.74-.81.04-.01.07-.02.11-.02.42.04.86.32.86.32h-.01ZM21.13 22.28c-.23-.07-.45-.41-.54-.85-.08-.42.11-.98.21-1.22.19.18.53.56.61.95.11.54-.02 1.03-.28 1.12ZM25.86 17.1s-.2.86-.6 1.18c-.19.14-.38.22-.55.25a.39.39 0 0 1-.29-.18c-.15-.28.05-.75.45-1.06.19-.15.46-.19.7-.2.17 0 .29.02.29.02v-.01ZM23.76 18.32c-.06.09-.15.15-.26.16-.18-.02-.39-.12-.57-.28-.39-.33-.56-1.2-.56-1.2s.06 0 .15-.01h.03c.25.01.58.06.8.25.39.33.58.81.41 1.08ZM24.87 12.54c-.14.39-.38.66-.6.72 0 0-.03 0-.04-.02-.26-.13-.32-.65-.13-1.17.13-.37.52-.66.73-.81.06.23.18.86.03 1.27l.01.01ZM23.69 13.48c-.06.16-.21.25-.4.27-.14-.01-.28-.05-.43-.12-.44-.22-.77-1.03-.77-1.03s.32-.13.67-.15c.12 0 .23.03.33.08.45.22.72.64.61.95h-.01ZM25.43 15.45c-.19.27-.43.45-.63.49a.285.285 0 0 1-.14-.08c-.22-.21-.15-.73.16-1.17.21-.31.65-.47.89-.54 0 .18 0 .91-.27 1.29l-.01.01ZM23.84 15.85c-.06.12-.18.2-.33.22-.16-.02-.33-.08-.5-.19-.42-.27-.68-1.12-.68-1.12s.2-.05.45-.07h.01c.18 0 .37.05.53.14.42.27.66.73.52 1.02ZM23.83 9.86c-.07.38-.26.68-.46.75-.22-.09-.33-.51-.24-.98.07-.33.35-.65.51-.82.09.22.25.69.18 1.05h.01ZM23.06 11.25c-.04.19-.23.32-.48.35-.06 0-.12-.02-.19-.03-.41-.11-.8-.75-.8-.75s.39-.25.75-.28c.02 0 .05 0 .07.01.41.11.7.42.65.7ZM22.51 7.98c-.02.36-.16.65-.33.73-.18-.08-.29-.41-.27-.78.02-.29.21-.61.34-.78.1.18.27.54.26.84v-.01ZM22.1 9.41c-.01.21-.24.37-.53.4-.36-.04-.76-.51-.76-.51s.36-.33.7-.39c.34.05.6.26.58.5h.01ZM21.38 8.11c-.04.08-.12.13-.22.15a.853.853 0 0 1-.37-.16c-.32-.22-.49-.87-.49-.87s.12-.03.28-.03c.15 0 .31.04.43.12.32.22.48.57.37.79Z"/><path fill="#424242" d="M8.15 20.6c-.11.32-.56.39-1.01.15-.02 0-.03-.02-.05-.03-.42-.26-.72-1.05-.72-1.05s.65-.27 1.1-.1c.03 0 .05.02.08.03.45.23.72.68.61.99l-.01.01ZM9.68 19.88c-.28.48-.7.71-.93.51l-.02-.02c-.21-.22-.17-.75.11-1.22.2-.34.63-.54.87-.63.1-.04.16-.06.16-.06s.08.93-.2 1.41l.01.01ZM9.46 22.44c-.06.34-.5.5-.97.37-.07-.02-.14-.06-.21-.1-.39-.25-.7-.8-.7-.8s.68-.45 1.15-.32c.05.01.09.03.14.05.4.16.66.5.6.8h-.01ZM10.92 21.3c-.11.58-.42.98-.7.9a.258.258 0 0 1-.13-.08c-.19-.18-.27-.63-.17-1.11.08-.43.46-.84.64-1.02l.1-.1s.37.82.26 1.4v.01ZM7.09 18.06c-.13.25-.5.26-.85.04-.05-.03-.1-.07-.15-.11-.4-.33-.6-1.23-.6-1.23s.52-.09.93.06c.08.03.16.07.23.13.4.33.61.82.45 1.11h-.01ZM9.14 16.66s-.17.92-.56 1.26c-.35.3-.74.38-.94.2-.03-.02-.05-.05-.07-.08-.16-.28.02-.79.41-1.14.27-.24.72-.26.97-.25.12 0 .19.01.19.01ZM7.28 12.73c-.11.06-.25.03-.37-.07-.17-.13-.33-.37-.44-.67-.17-.5.02-1.28.05-1.41v-.02s.7.4.89.94c.19.54.13 1.09-.13 1.23ZM9.43 12.05s-.33.85-.78 1.08c-.34.18-.69.18-.88.02a.4.4 0 0 1-.13-.18c-.11-.32.16-.76.61-.99.31-.16.74-.07.99.01.11.03.18.06.18.06h.01ZM6.86 15.47c-.13.13-.34.11-.55-.02a1.59 1.59 0 0 1-.41-.41c-.31-.46-.27-1.4-.27-1.4s.23.04.49.16c.21.09.44.24.58.44.31.46.38 1.01.16 1.22v.01ZM9.19 14.31s-.25.88-.68 1.17c-.35.23-.71.27-.91.11a.256.256 0 0 1-.1-.13c-.14-.3.1-.78.52-1.06.29-.2.74-.16.99-.12.11.02.18.04.18.04v-.01ZM8.11 9.97c-.09.02-.18 0-.26-.08-.15-.13-.29-.39-.34-.71-.08-.42.13-.98.21-1.16.01-.04.02-.06.02-.06s.55.48.64.98c.09.5-.03.97-.27 1.04v-.01ZM9.93 10.18s-.39.67-.81.78c-.27.07-.53.04-.69-.08a.393.393 0 0 1-.16-.25c-.06-.29.23-.62.65-.74.22-.06.48.02.68.11.18.08.32.17.32.17l.01.01ZM9.25 7.99c-.07 0-.13-.03-.19-.09-.13-.13-.22-.39-.24-.7-.02-.34.19-.75.29-.93.03-.05.05-.08.05-.08s.42.5.44.95c.02.45-.13.83-.35.84v.01ZM10.7 8.58s-.41.51-.78.54c-.2.02-.38-.03-.51-.13a.403.403 0 0 1-.18-.3c-.01-.26.27-.5.64-.53.09 0 .19.02.29.05.28.11.54.36.54.36v.01ZM11.22 6.42s-.18.68-.49.91c-.27.2-.57.23-.72.08a.303.303 0 0 1-.05-.07c-.11-.22.06-.59.37-.82.2-.15.5-.15.7-.13.11.01.19.03.19.03Z"/><path fill="#6C6C6C" d="M7.98 20.52c-.1.29-.48.37-.89.21-.42-.26-.72-1.05-.72-1.05s.65-.27 1.1-.1c.39.24.61.65.51.94ZM9.51 19.79c-.23.39-.54.61-.77.58-.21-.22-.17-.75.11-1.22.2-.34.63-.54.87-.63.01.28 0 .91-.2 1.27h-.01ZM9.29 22.36c-.06.34-.5.5-.97.37-.01 0-.03 0-.04-.01-.39-.25-.7-.8-.7-.8s.68-.45 1.15-.32c.05.01.09.03.14.05.3.18.48.46.43.72l-.01-.01ZM10.75 21.22c-.1.54-.39.93-.65.91-.19-.18-.27-.63-.17-1.11.08-.43.46-.84.64-1.02.1.27.27.81.19 1.22h-.01ZM6.92 17.98c-.11.21-.39.25-.68.13-.05-.03-.1-.07-.15-.11-.4-.33-.6-1.23-.6-1.23s.52-.09.93.06c.02.01.04.03.06.04.41.33.61.82.45 1.11h-.01ZM8.95 16.65c-.05.23-.22.9-.54 1.19-.26.23-.55.33-.77.29a.27.27 0 0 1-.07-.08c-.16-.28.02-.79.41-1.14.27-.24.72-.26.97-.25v-.01ZM7.11 12.64c-.06.03-.13.04-.2.02-.17-.13-.33-.37-.44-.67-.17-.5.02-1.28.05-1.41.22.16.59.46.72.84.19.55.13 1.09-.13 1.23v-.01ZM9.24 11.99c-.06.14-.36.85-.76 1.06-.26.13-.51.16-.71.11a.4.4 0 0 1-.13-.18c-.11-.32.16-.76.61-.99.31-.16.74-.07.99.01v-.01ZM6.68 15.39c-.1.09-.23.11-.37.06a1.59 1.59 0 0 1-.41-.41c-.31-.46-.27-1.4-.27-1.4s.23.04.49.16c.16.09.31.21.41.36.31.46.38 1.01.16 1.23h-.01ZM9 14.27c-.06.19-.3.88-.67 1.13-.26.18-.53.24-.74.19a.256.256 0 0 1-.1-.13c-.14-.3.1-.78.52-1.06.29-.2.74-.16.99-.12v-.01ZM7.94 9.88s-.06.01-.09 0c-.15-.13-.29-.39-.34-.71-.08-.42.13-.98.21-1.16.17.18.43.5.49.84.09.51-.03.97-.27 1.04v-.01ZM9.76 10.09s-.39.67-.8.78c-.19.05-.37.05-.52 0a.393.393 0 0 1-.16-.25c-.06-.29.23-.62.65-.74.22-.06.48.02.68.11.09.05.15.09.15.09v.01ZM9.08 7.9h-.02c-.13-.13-.22-.39-.24-.7-.02-.34.19-.75.29-.93.13.18.3.49.32.78.02.45-.13.83-.34.84l-.01.01ZM10.53 8.5s-.41.51-.78.54c-.12 0-.24 0-.34-.04a.403.403 0 0 1-.18-.3c-.01-.26.27-.5.64-.53.09 0 .19.02.29.05.21.12.37.27.37.27v.01ZM11.03 6.39c-.05.17-.21.66-.47.85-.19.14-.39.2-.55.17a.303.303 0 0 1-.05-.07c-.11-.22.06-.59.37-.82.2-.15.5-.15.7-.13Z"/><path fill="#A4A4A4" d="M27.28 14.89c0 6.34-5.16 11.49-11.49 11.49-.31 0-.62-.01-.93-.04-4.32-.35-7.97-3.09-9.62-6.9C22.29 23.42 21.31 7.77 21 4.99c0 0 .08-.25.07-.31 2.09 1.06 3.7 2.67 4.82 4.73.89 1.63 1.39 3.49 1.39 5.47v.01Z" opacity=".2" style="mix-blend-mode:color-burn"/><path fill="#797979" d="M27.28 14.89c0 6.34-5.16 11.49-11.49 11.49-.31 0-.62-.01-.93-.04 7.8-2.7 10.16-11.01 10.87-15.7l.53-.5c.64 1.46 1.03 2.76 1.03 4.75h-.01Z" opacity=".2" style="mix-blend-mode:color-burn"/><path fill="#F3F3F3" d="m24.79 25.48-1.92-.21-.25 1.32-.25-.25-.66-.66-.35-.35-.26-.26-.17-.18-1.35-1.34-2.15-2.15-2.25-2.25-1.22-1.22-5.03-5.03-.13-.13-.7-.7-.8-.8-.61-.61L5.6 9.57l-.61-.61-.62-.62-.51-.51-.06-.06.72-.15-.35-2.76 1.57 1.57.58.58.58.58.71.71.6.6.98.98.43.43.13.13 4.21 4.21 3.25 3.24v.01l4.14 4.14.11.11 1.35 1.35.26.26.01.01 1.41 1.41.3.3ZM26.08 25.24l-.03-.03-1.59-1.59-1.01-1.02-.09-.09-.75-.74-.77-.77-3.85-3.85-.23-.24-.55-.54-3.25-3.26-4-3.99-2.91-2.91-.55-.56-1.18-1.18-.08-.07 1.23.13.89.09.01-.06.19.19.53.53.58.59.43.42.06.06.29.29v.01l.48.47 4.03 4.03 3.25 3.25.55.55 1.1 1.1 2.77 2.77.99.99.29.29.44.44.48.48.01.01.6.6.37.37.04.04.35.35.2.2.39.39.29 2.26Z" opacity=".4" style="mix-blend-mode:soft-light"/><defs><linearGradient id="a" x1="0" x2="29.7" y1="14.95" y2="14.95" gradientUnits="userSpaceOnUse"><stop stop-color="#A0A0A0"/><stop offset="1" stop-color="#858585"/></linearGradient><linearGradient id="c" x1="2.65" x2="26.96" y1="14.73" y2="14.73" gradientUnits="userSpaceOnUse"><stop stop-color="#A0A0A0"/><stop offset="1" stop-color="#858585"/></linearGradient><linearGradient id="d" x1="3.47" x2="28.1" y1="14.89" y2="14.89" gradientUnits="userSpaceOnUse"><stop stop-color="#858585"/><stop offset="1" stop-color="#B5B5B5"/></linearGradient><linearGradient id="f" x1="6.88" x2="24.59" y1="22.12" y2="7.74" gradientUnits="userSpaceOnUse"><stop stop-color="#F3F3F3"/><stop offset=".43" stop-color="#F3F3F3"/><stop offset=".5" stop-color="#F3F3F3"/><stop offset=".55" stop-color="#F3F3F3"/><stop offset="1" stop-color="#F3F3F3"/></linearGradient><linearGradient id="g" x1="16.9" x2="14.67" y1="3.45" y2="26.37" gradientUnits="userSpaceOnUse"><stop stop-color="#F3F3F3"/><stop offset=".5" stop-color="#F3F3F3"/><stop offset=".55" stop-color="#F3F3F3"/><stop offset="1" stop-color="#F3F3F3"/></linearGradient><radialGradient id="b" cx="0" cy="0" r="1" gradientTransform="translate(15.32 14) scale(19.55)" gradientUnits="userSpaceOnUse"><stop stop-color="#A0A0A0"/><stop offset="1" stop-color="#858585"/></radialGradient><radialGradient id="e" cx="0" cy="0" r="1" gradientTransform="translate(15.78 14.89) scale(11.49)" gradientUnits="userSpaceOnUse"><stop stop-color="#898989"/><stop offset="1" stop-color="#9E9E9E"/></radialGradient></defs></svg>