<svg width="31" height="30" fill="none" xmlns="http://www.w3.org/2000/svg"><path d="m27.28 19.33 1.54 2.2-.52.2-2.6.55-.08.02-.45.09.09.29.02.06.82 2.62-.09.03-.44.17-1.03-.11-1.67-.18-.4-.04-.07-.01v.06l-.03 1.28-.05 1.59-.52.21-2.59-1.16-.32-.15-1.02 2.6-.52.21-2.22-2-.15-.14-1.8 1.98-.53.2-1.57-2.73-.02-.04-2.37 1.16-.52.2-.66-3.12-3.1.39-.07.01.33-3.06.01-.11-3.14-.6.04-.08 1.27-2.84-.05-.02-2.75-1.51 2.14-2.37-.07-.08L0 12.85l.07-.05 2.7-1.54-.06-.12-1.3-2.77.52-.21 1.73-.3.87-.15-.01-.1-.31-2.48-.08-.59.52-.2.38.07 2.28.47.02-.12.03-.14.55-2.88.52-.2 2.39 1.5.19-.35L12.36.24l.52-.2 1.85 2.35.37-.35L17.05.2l.53-.21 1.04 2.91.03.07.08-.04.43-.19.62-.27 1.73-.76.59 2.61.1.41.46-.06 2.7-.34-.26 2.51-.07.66.71.14 2.42.46-.96 2.16-.34.76.74.41 2.06 1.13-1.58 1.74-.56.62.56.61 1.62 1.72-2.13 1.23-.63.36.34.49Z" fill="#935737"/><path d="m7.35 22.21-2.11 3.07-.83.48h-.06l.32-3.05.96-.54-3.22-.6-.83.35 1.27-2.84-.05-.03.9-.28-2.71-1.54-.94.31 2.14-2.37-.07-.08.93-.26.19-.84-2.33-1.43-.83.23 2.69-1.55-.05-.11.75-.23s1.55 2.74 1.47 2.84c-.08.11 2.41 8.46 2.41 8.46v.01Z" fill="#FAFAFA" style="mix-blend-mode:soft-light"/><path d="m25.69 22.2.01.08.13.96.27 2.12-.15-.02-1.71-.19-1.32-.14-.05.26-.29 1.51-.26 1.37-2.91-1.3-.2.35-1.34 2.45-2.37-2.14-.37.35-1.95 1.84-1.6-2.77-.5.24-2.39 1.12-.65-3.13-3.18.41.01-.08.33-3.07v-.03l-3.13-.6.04-.1 1.24-2.77.02-.04-.04-.03-2.72-1.49-.04-.02 2.08-2.31.06-.06-.02-.03-.04-.03-2.1-2.23-.03-.04 2.67-1.53.1-.06-.03-.07-.02-.04-1.08-2.29-.04-.09-.19-.4 1.68-.35.91-.2.37-.07.16-.04-.02-.17-.01-.11-.19-1.46-.13-1.05-.05-.37.34.03 1.49.16.7.07.18.02.33.04.14.01.02-.12.58-3.01 2.58 1.15.33.15 1.54-2.8 2.22 2 .15.14 2.33-2.19 1.58 2.75.01.02.61-.29 2.28-1.07.66 3.13 3.17-.4-.34 3.17 3.13.6-1.28 2.88-.02.03.03.02 2.77 1.52-2.09 2.31-.05.06.06.06 2.13 2.26-2.7 1.56-.07.04.03.08 1.33 2.81-3.11.65-.02.01v.01Z" fill="url(#a)"/><path d="M26.96 14.92c0 2.02-.43 3.9-1.2 5.54a10.106 10.106 0 0 1-.45.85c0 .01-.01.02-.02.04-.07.13-.15.25-.23.38-.07.12-.15.24-.23.35-.17.25-.35.49-.54.72-.07.09-.14.18-.22.26-.54.63-1.15 1.19-1.81 1.68-.08.07-.17.12-.26.19-1.89 1.31-4.21 2.06-6.8 2.06-1.23 0-2.42-.17-3.54-.49-.02 0-.04-.01-.06-.02-3.81-1.09-6.91-3.87-8.24-7.55 0-.02-.02-.05-.03-.07-.42-1.19-.66-2.47-.67-3.82v-.15c0-1.32.19-2.58.54-3.77.01-.06.03-.11.05-.17.13-.43.28-.84.46-1.25.03-.07.06-.13.09-.2.02-.05.04-.1.07-.15.09-.2.19-.4.29-.59.22-.42.47-.83.75-1.22.05-.07.09-.14.14-.21v-.01c.02-.02.04-.05.06-.07.2-.28.41-.54.63-.8l.29-.32s.09-.09.13-.14c.14-.15.29-.29.44-.43.11-.1.22-.2.34-.3.24-.21.49-.41.75-.59h.01c.05-.04.11-.08.16-.11 1.32-.93 2.85-1.58 4.53-1.9 0 0 2.15-.34 4.12-.04.68.1 1.33.28 1.87.57.2.11.38.09.53.03 2.06.77 3.86 2.08 5.24 3.76 0 .01.01.02.02.03l.15.18v.01c.73.94 1.32 1.98 1.77 3.1.56 1.44.87 2.99.87 4.63v-.01Z" fill="#935737"/><path d="M28.09 14.66c0-.12 0-.24-.01-.36-.04-.99-.21-1.95-.48-2.87-.06-.2-.12-.4-.19-.59 0-.02 0-.04-.02-.05-.06-.17-.13-.35-.2-.52a12.2 12.2 0 0 0-2.1-3.42c-.71-.82-1.53-1.55-2.44-2.16-.18-.12-.37-.24-.56-.36-1.03-.62-2.16-1.09-3.37-1.39l-.11-.03c-.07-.02-.13-.03-.2-.05-.7-.13-1.34-.21-1.93-.25-1.92-.13-3.2.17-3.68.31v.02c-1.7.42-3.25 1.19-4.59 2.23-.09.07-.18.14-.27.22-.27.22-.54.45-.79.7-.08.08-.16.16-.23.24-.21.21-.41.44-.6.67-.04.05-.08.09-.12.14-.5.61-.94 1.27-1.31 1.98a13.375 13.375 0 0 0-1.02 2.56c-.02.11-.05.21-.08.32-.22.93-.34 1.9-.34 2.9 0 3.2 1.22 6.1 3.21 8.29 1.33 1.46 3.01 2.6 4.91 3.29.02.01.04.02.06.02 1.3.45 2.69.71 4.13.71 2.09 0 4.06-.52 5.78-1.44.28-.14.56-.31.83-.48.03-.02.05-.03.07-.05.38-.24.73-.5 1.07-.78.28-.23.55-.47.8-.73.08-.07.15-.14.23-.22.25-.25.48-.51.7-.78 0 0 .01-.02.02-.02.04-.04.07-.08.1-.12.08-.09.15-.19.23-.29.02-.03.05-.06.07-.1 0 0 0-.01.01-.02.18-.23.35-.48.5-.73a12.771 12.771 0 0 0 1.29-2.73c.01-.04.03-.08.04-.12.01-.04.03-.08.03-.12.29-.94.47-1.93.52-2.96.01-.21.02-.42.02-.64V14.65l.02.01Z" fill="#CC804D"/><path d="M15.78 26.38c-6.34 0-11.49-5.16-11.49-11.49S9.45 3.4 15.78 3.4s11.49 5.16 11.49 11.49-5.16 11.49-11.49 11.49Z" fill="#A8633F"/><path style="mix-blend-mode:multiply" opacity=".3" d="M15.78 26.38c-6.34 0-11.49-5.16-11.49-11.49S9.45 3.4 15.78 3.4s11.49 5.16 11.49 11.49-5.16 11.49-11.49 11.49Z" fill="url(#b)"/><path d="M27.28 14.89c0 6.34-5.16 11.49-11.49 11.49-4.72 0-8.78-2.86-10.55-6.94-.61-1.4-.94-2.94-.94-4.56 0-6.34 5.16-11.49 11.49-11.49 1.85 0 3.61.44 5.16 1.23 3.75 1.89 6.33 5.78 6.33 10.27Z" fill="url(#c)"/><path d="M19.78 14.4c-.38-.38-.9-.68-1.57-.86-.14-.04-.28-.07-.42-.09v-.11c.32-.09.62-.2.89-.34.32-.17.61-.36.85-.59.49-.47.78-1.08.78-1.81 0-.91-.57-1.65-1.2-2.07-.78-.52-1.8-.69-3.19-.69s-2.77.24-3.66.59c0 .09-.42.43-.43.53V9.25c.02.74.31 1.36.28 2.15.27.04.49.22.72.39.21.17.44.32.71.34.07 0 .36-.53.43-.53l.04-.18.29-1.26.05-.23c.02-.07.04-.11.09-.14.01-.01.03-.02.04-.03.24-.17.61-.25 1-.25.54 0 .98.06 1.33.45.26.26.35.65.35.98 0 .53-.15.99-.59 1.33-.28.22-.67.4-1.22.51-.46.1-1.03.15-1.72.16 0 .01-.01.03-.03.06-.09.13-.4.4-.4.47 0 .46.42.7.48 1.14v.05h1.04c.2 0 .4.01.58.04 1.17.15 1.97.77 1.97 1.85v.12a1.9 1.9 0 0 1-.22.79c-.06.11-.13.21-.22.3l-.09.09c-.03.02-.05.04-.07.06-.35.28-.88.42-1.57.42-.26 0-.61-.07-.8-.17-.06-.04-.11-.07-.13-.16l-.42-1.74h-.06c-.47.07-.95.14-1.4.22-.16.03-.31.05-.46.08 0 .09-.44.44-.43.53.1.96.68 1.69.82 2.67.21.05.43.08.67.1.63.08 1.33.1 1.84.1.35 0 .69-.01 1.01-.03 1.1-.07 2.03-.27 2.71-.58.23-.1.43-.22.6-.35.11-.08.22-.17.33-.26.02-.02.04-.03.05-.05.1-.08.18-.16.27-.26.23-.23.42-.48.56-.77.22-.4.34-.87.34-1.43 0-.65-.26-1.31-.8-1.84l-.02.01Z" fill="#5D2A14"/><path d="M19.47 15.05c-.46-.51-1.16-.9-2.11-1.08v-.11c.3-.09.59-.19.85-.32.57-.28 1.02-.66 1.31-1.13.23-.37.35-.8.35-1.28 0-.91-.57-1.65-1.2-2.07-.78-.52-1.79-.68-3.18-.68-1.39 0-2.78.24-3.66.59v.27c-.04.61-.07 1.24-.1 1.87-.01.28-.03.55-.03.82.31.05.64.09.97.12.29.03.59.06.87.08l.22-.95.17-.71c.02-.07.04-.11.09-.15.08-.06.17-.11.28-.15.22-.08.48-.12.76-.12.54 0 .98.05 1.33.44.26.26.35.65.35.98 0 .29-.05.57-.16.8-.16.33-.45.61-.91.81-.4.17-.93.29-1.62.35-.26.02-.54.03-.84.03v.67c0 .35.03.71.05 1.05h1.04c1.48 0 2.55.63 2.55 1.89 0 .21-.03.41-.09.6-.02.08-.05.15-.09.22-.09.18-.2.33-.35.47-.35.31-.91.48-1.65.48h-.02c-.26 0-.59-.07-.77-.16-.06-.04-.11-.07-.13-.16l-.19-.76-.24-.98h-.03l-.62.09c-.44.07-.88.15-1.28.22.1.96.22 1.95.35 2.93 0 .09.02.18.03.26.76.17 1.82.21 2.52.21s1.31-.04 1.88-.12c1.05-.15 1.89-.43 2.43-.84.29-.22.56-.45.8-.73.09-.11.19-.23.27-.36.18-.28.32-.59.4-.94.05-.22.08-.47.08-.73 0-.6-.22-1.21-.68-1.72Z" fill="#843C1D"/><path d="M27.28 14.89c0 6.17-4.9 11.23-11.01 11.48 5.87-.51 10.24-5.45 10.24-11.45 0-6.34-4.91-11.49-11.24-11.49-.18 0-.35 0-.52.01.34-.03.69-.05 1.04-.05 6.34 0 11.49 5.15 11.49 11.49v.01Z" fill="#747474" style="mix-blend-mode:color-burn" opacity=".6"/><path d="M25.14 19.87s-.33.81-.77 1.03c-.21.1-.42.15-.6.13-.19-.02-.34-.12-.4-.27-.11-.3.16-.73.6-.95.1-.05.22-.07.33-.08.4-.03.84.14.84.14ZM22.76 20.55c-.08.07-.18.08-.29.06-.21-.05-.45-.25-.63-.55-.24-.39-.21-1.09-.2-1.29v-.06s.75.2 1.03.66.32.99.09 1.18ZM23.93 22s-.44.73-.91.86c-.14.04-.28.05-.41.04-.29-.02-.52-.17-.56-.39-.07-.32.27-.68.74-.81.04-.01.07-.02.11-.02.46-.05 1.04.32 1.04.32h-.01ZM21.29 22.28a.43.43 0 0 1-.16 0c-.23-.07-.45-.41-.54-.85-.08-.42.11-.98.21-1.22l.05-.12s.63.51.74 1.06c.11.55-.02 1.05-.3 1.13ZM26.03 17.1s-.2.87-.6 1.18c-.25.19-.52.28-.73.25a.39.39 0 0 1-.29-.18c-.15-.28.05-.75.45-1.06.19-.15.46-.19.7-.2.26-.01.47.02.47.02v-.01ZM23.94 18.32c-.08.14-.25.19-.44.16-.18-.02-.39-.12-.58-.28-.39-.33-.56-1.2-.56-1.2s.06 0 .15-.01h.03c.25 0 .7.01.98.25.39.33.58.81.41 1.08h.01ZM25.04 12.54c-.18.49-.51.8-.77.72 0 0-.03 0-.04-.02-.26-.13-.32-.65-.13-1.17.13-.37.52-.66.73-.81.09-.06.15-.09.15-.09s.25.85.06 1.37ZM23.87 13.48c-.07.2-.3.3-.58.27-.14-.01-.28-.05-.43-.12-.44-.22-.77-1.03-.77-1.03s.32-.13.67-.15c.17-.01.35 0 .5.08.44.22.72.64.61.95ZM25.6 15.45c-.25.35-.58.54-.81.49-.06-.01-.1-.04-.14-.07-.22-.21-.15-.73.16-1.17.21-.31.65-.47.89-.54.1-.03.17-.04.17-.04s.03.89-.27 1.33ZM24.02 15.85c-.08.17-.28.25-.51.22-.16-.02-.33-.08-.51-.19-.42-.27-.68-1.12-.68-1.12s.2-.05.45-.07h.01c.23-.01.5.01.7.14.42.27.66.73.52 1.02h.02ZM24.01 9.86c-.09.48-.36.82-.61.76h-.02c-.22-.09-.33-.51-.24-.98.07-.33.35-.65.52-.82.07-.07.13-.12.13-.12s.33.68.23 1.17l-.01-.01ZM23.24 11.25c-.05.24-.33.37-.66.35-.06 0-.12-.02-.19-.03-.41-.11-.8-.75-.8-.75s.39-.25.75-.28c.09 0 .17 0 .25.01.41.11.7.42.65.7ZM22.69 7.98c-.03.43-.22.76-.43.75-.02 0-.05 0-.07-.02-.18-.08-.29-.41-.27-.78.02-.29.21-.61.34-.78.06-.08.1-.13.1-.13s.36.54.34.96h-.01ZM22.28 9.41c-.01.25-.32.43-.69.4h-.02c-.36-.04-.76-.51-.76-.51s.36-.33.7-.39h.12c.37.03.66.25.64.5h.01ZM21.55 8.11c-.07.13-.22.18-.39.15a.942.942 0 0 1-.38-.16c-.32-.22-.49-.87-.49-.87s.12-.03.28-.03c.19-.01.44 0 .61.12.32.22.48.57.37.79Z" fill="#5D2A14"/><path d="M24.96 19.87s-.33.81-.77 1.03c-.14.07-.29.12-.43.13-.19-.02-.34-.12-.4-.27-.11-.3.16-.73.6-.95.1-.05.22-.07.33-.08.34.02.66.14.66.14h.01ZM22.59 20.55s-.07.05-.12.06c-.21-.05-.45-.25-.63-.55-.24-.39-.21-1.09-.2-1.29.24.09.66.28.86.6.28.46.32.99.09 1.18ZM23.76 22s-.44.73-.91.86c-.08.02-.16.03-.23.04-.29-.02-.52-.17-.56-.39-.07-.32.27-.68.74-.81.04-.01.07-.02.11-.02.42.04.86.32.86.32h-.01ZM21.13 22.28c-.23-.07-.45-.41-.54-.85-.08-.42.11-.98.21-1.22.19.18.53.56.61.95.11.54-.02 1.03-.28 1.12ZM25.86 17.1s-.2.87-.6 1.18c-.19.14-.38.22-.55.25a.39.39 0 0 1-.29-.18c-.15-.28.05-.75.45-1.06.19-.15.46-.19.7-.2.17 0 .29.02.29.02v-.01ZM23.76 18.32c-.06.09-.15.15-.26.16-.18-.02-.39-.12-.58-.28-.39-.33-.56-1.2-.56-1.2s.06 0 .15-.01h.03c.25.01.59.06.8.25.39.33.58.81.41 1.08h.01ZM24.87 12.54c-.14.39-.38.66-.6.72 0 0-.03 0-.04-.02-.26-.13-.32-.65-.13-1.17.13-.37.52-.66.73-.81.06.23.18.86.03 1.27l.01.01ZM23.69 13.48c-.06.16-.21.25-.4.27-.14-.01-.28-.05-.43-.12-.44-.22-.77-1.03-.77-1.03s.32-.13.67-.15c.12 0 .23.03.33.08.45.22.72.64.61.95h-.01ZM25.43 15.45c-.19.27-.43.45-.63.49a.309.309 0 0 1-.14-.07c-.22-.21-.15-.73.16-1.17.21-.31.65-.47.89-.54 0 .18 0 .91-.27 1.29h-.01ZM23.84 15.85c-.06.13-.18.2-.33.22-.16-.02-.33-.08-.51-.19-.42-.27-.68-1.12-.68-1.12s.2-.05.45-.07h.01c.18 0 .37.05.53.14.42.27.66.73.52 1.02h.01ZM23.83 9.86c-.07.38-.26.68-.45.75-.22-.09-.33-.51-.24-.98.07-.33.35-.65.52-.82.09.22.25.69.18 1.05h-.01ZM23.06 11.25c-.04.19-.23.32-.48.35-.06 0-.12-.02-.19-.03-.41-.11-.8-.75-.8-.75s.39-.25.75-.28c.02 0 .05 0 .07.01.41.11.7.42.65.7ZM22.51 7.98c-.02.36-.16.65-.33.72-.18-.08-.29-.41-.27-.78.02-.29.21-.61.34-.78.1.18.27.54.26.84ZM22.1 9.41c-.01.21-.24.37-.53.4-.36-.04-.76-.51-.76-.51s.36-.33.7-.39c.34.05.6.26.58.5h.01ZM21.38 8.11c-.04.08-.12.13-.22.15a.942.942 0 0 1-.38-.16c-.32-.22-.49-.87-.49-.87s.12-.03.28-.03c.15 0 .31.04.44.12.32.22.48.57.37.79Z" fill="#843C1D"/><path d="M8.15 20.6c-.11.32-.56.39-1.01.15-.02 0-.03-.02-.05-.03-.42-.27-.72-1.05-.72-1.05s.65-.27 1.1-.1c.03 0 .05.02.08.03.45.23.72.68.61.99l-.01.01ZM9.68 19.88c-.28.48-.7.71-.93.51l-.02-.02c-.21-.22-.16-.75.11-1.22.2-.34.63-.54.87-.63.1-.04.16-.06.16-.06s.08.93-.2 1.42h.01ZM9.46 22.44c-.06.34-.5.5-.97.37-.07-.02-.14-.06-.21-.1-.38-.25-.7-.8-.7-.8s.68-.45 1.15-.32c.05.01.09.03.14.05.4.16.66.5.6.8h-.01ZM10.92 21.3c-.11.58-.42.98-.7.9a.258.258 0 0 1-.13-.08c-.19-.18-.26-.63-.17-1.11.08-.43.46-.84.64-1.02l.1-.1s.37.83.26 1.4v.01ZM7.09 18.06c-.13.25-.49.26-.86.04-.05-.03-.1-.07-.15-.11-.4-.33-.6-1.23-.6-1.23s.52-.09.93.06c.08.03.16.07.23.13.4.33.61.82.45 1.11ZM9.14 16.66s-.17.92-.56 1.26c-.35.3-.74.38-.94.2a.27.27 0 0 1-.07-.08c-.17-.28.02-.79.41-1.14.27-.24.72-.26.97-.25h.19v.01ZM7.28 12.73c-.11.06-.24.03-.37-.07-.17-.13-.33-.37-.44-.67-.17-.5.02-1.28.05-1.41v-.02s.7.4.89.95c.19.54.13 1.09-.13 1.23v-.01ZM9.43 12.05s-.33.85-.78 1.08c-.34.18-.69.18-.88.02a.4.4 0 0 1-.13-.18c-.11-.32.16-.76.61-.99.31-.16.74-.07.99.01.11.03.18.06.18.06h.01ZM6.86 15.47c-.13.13-.34.11-.55-.02a1.59 1.59 0 0 1-.41-.41c-.31-.46-.27-1.4-.27-1.4s.23.04.49.16c.21.1.44.24.58.45.31.46.38 1.01.16 1.22ZM9.19 14.31s-.25.88-.68 1.17c-.35.23-.71.27-.91.11a.256.256 0 0 1-.1-.13c-.14-.3.09-.78.52-1.06.29-.2.74-.16.99-.12.11.02.19.04.19.04l-.01-.01ZM8.11 9.97c-.09.02-.18 0-.27-.08-.15-.13-.28-.39-.34-.71-.08-.42.13-.98.21-1.16.01-.04.02-.06.02-.06s.55.48.64.98c.1.5-.03.97-.27 1.04l.01-.01ZM9.93 10.18s-.39.67-.81.78c-.27.07-.53.04-.69-.08a.393.393 0 0 1-.16-.25c-.06-.29.23-.62.65-.74.22-.06.48.02.68.11.18.08.32.17.32.17l.01.01ZM9.26 7.99c-.07 0-.13-.03-.19-.09-.13-.13-.22-.39-.24-.7-.02-.34.19-.75.29-.93.03-.05.05-.08.05-.08s.42.5.44.95c.03.45-.13.83-.35.84v.01ZM10.7 8.58s-.41.51-.78.54c-.2.02-.38-.03-.51-.13a.416.416 0 0 1-.18-.3c-.01-.26.27-.5.64-.53.09 0 .19.02.29.05.28.11.54.36.54.36v.01ZM11.22 6.42s-.18.68-.49.91c-.27.2-.57.23-.72.08a.303.303 0 0 1-.05-.07c-.11-.22.06-.59.37-.82.2-.15.5-.15.7-.13.11.01.19.03.19.03Z" fill="#5D2A14"/><path d="M7.98 20.52c-.1.29-.48.37-.88.21-.42-.27-.72-1.05-.72-1.05s.65-.27 1.1-.1c.39.24.61.65.51.94h-.01ZM9.51 19.79c-.23.39-.54.61-.77.58-.21-.22-.16-.75.11-1.22.2-.34.63-.54.87-.63.01.28 0 .91-.2 1.27h-.01ZM9.29 22.36c-.06.34-.5.5-.97.37-.01 0-.03 0-.04-.01-.38-.25-.7-.8-.7-.8s.68-.45 1.15-.32c.05.01.09.03.14.05.3.18.48.46.43.72l-.01-.01ZM10.75 21.22c-.1.54-.39.93-.65.91-.19-.18-.26-.63-.17-1.11.08-.43.46-.84.64-1.02.1.27.27.81.19 1.22h-.01ZM6.92 17.98c-.11.21-.39.25-.68.13-.05-.03-.1-.07-.15-.11-.4-.33-.6-1.23-.6-1.23s.52-.09.93.06c.02.01.04.03.06.04.41.33.61.82.45 1.11h-.01ZM8.95 16.65c-.05.23-.22.9-.54 1.19-.26.23-.55.33-.77.29a.27.27 0 0 1-.07-.08c-.17-.28.02-.79.41-1.14.27-.24.72-.26.97-.25v-.01ZM7.11 12.64c-.06.03-.13.04-.2.02-.17-.13-.33-.37-.44-.67-.17-.5.02-1.28.05-1.41.22.16.59.46.72.84.19.55.13 1.1-.13 1.23v-.01ZM9.25 11.99c-.06.14-.36.85-.76 1.06-.25.13-.51.16-.71.11a.4.4 0 0 1-.13-.18c-.11-.32.16-.76.61-.99.31-.16.74-.07.99.01v-.01ZM6.68 15.39c-.09.09-.23.11-.37.06a1.59 1.59 0 0 1-.41-.41c-.31-.46-.27-1.4-.27-1.4s.23.04.49.16c.16.09.31.21.41.36.31.46.38 1.01.16 1.22l-.01.01ZM9 14.27c-.06.19-.3.88-.66 1.13-.26.18-.53.24-.74.19a.256.256 0 0 1-.1-.13c-.14-.3.09-.78.52-1.06.29-.2.74-.16.99-.12L9 14.27ZM7.94 9.88s-.06.01-.09 0c-.15-.13-.28-.39-.34-.71-.08-.42.13-.98.21-1.16.17.18.43.5.49.83.09.5-.03.97-.27 1.04ZM9.76 10.1s-.39.67-.81.78c-.19.05-.37.05-.52 0a.393.393 0 0 1-.16-.25c-.06-.29.23-.62.65-.74.22-.06.48.02.68.11.09.05.15.09.15.09l.01.01ZM9.08 7.9h-.02c-.13-.13-.22-.39-.24-.7-.02-.34.19-.75.29-.93.12.19.3.49.31.78.02.45-.13.83-.34.84v.01ZM10.53 8.5s-.41.51-.78.54A.76.76 0 0 1 9.41 9a.416.416 0 0 1-.18-.3c-.01-.26.27-.5.64-.53.09 0 .19.02.29.05.21.12.37.27.37.27v.01ZM11.03 6.39c-.05.17-.21.66-.47.85-.19.14-.39.2-.55.17a.303.303 0 0 1-.05-.07c-.11-.22.06-.59.37-.82.2-.15.5-.15.7-.13Z" fill="#843C1D"/><path d="M27.28 14.89c0 6.34-5.16 11.49-11.49 11.49-.31 0-.62-.01-.93-.04-4.32-.35-7.97-3.09-9.62-6.9C22.29 23.42 21.31 7.77 21 4.99c0 0 .08-.25.07-.31 2.09 1.06 3.7 2.67 4.82 4.73.89 1.63 1.39 3.49 1.39 5.47v.01Z" fill="#A3A3A3" style="mix-blend-mode:color-burn" opacity=".2"/><path d="M27.28 14.89c0 6.34-5.16 11.49-11.49 11.49-.31 0-.62-.01-.93-.04 7.8-2.7 10.16-11.01 10.87-15.7l.53-.5c.64 1.46 1.03 2.77 1.03 4.75h-.01Z" fill="#747474" style="mix-blend-mode:color-burn" opacity=".2"/><path d="m24.54 25.45-1.67-.18-.29 1.51-1.01-1.02-.36-.34-.26-.27-5.93-5.93-.38-.38-1.09-1.09-1.28-1.28-3.46-3.45-.12-.13-.72-.72-.51-.51-.21-.21-.76-.75v-.01l-.97-.97-.61-.61-.62-.62-.63-.63-.05-.05.91-.2-.31-2.48.62.63.8.8 1.93 1.92.68.67.17.18.56.56.55.55.13.13 3.56 3.56.52.52.53.53 2.56 2.56.26.26 1.35 1.35.18.17 2.01 2.02.46.45.18.19.08.08 3.2 3.19ZM26.1 25.36l-.09.03-.06-.05-1.61-1.61-.46-.47-.56-.55-.08-.08-.78-.79-.71-.71-.26-.25-.68-.69-1.4-1.39-.06-.06-1.47-1.47-.61-.62L4.99 4.37l1.49.16.7.07.15.16.1.09.53.53 1.06 1.07.36.34.21.21 2.22 2.23.02.02 1.92 1.92.25.25 1.35 1.35 4.73 4.72.16.18 1.39 1.37.9.91.85.85.15.15.01.01.8.8.42.42.5.5.03.03.54.53.27 2.12Z" fill="#FAFAFA" style="mix-blend-mode:soft-light" opacity=".4"/><defs><linearGradient id="a" x1=".52" y1="14.84" x2="30.23" y2="14.84" gradientUnits="userSpaceOnUse"><stop stop-color="#A8633F"/><stop offset=".47" stop-color="#A5613E"/><stop offset=".7" stop-color="#9E5D3B"/><stop offset=".88" stop-color="#915536"/><stop offset="1" stop-color="#834D31"/></linearGradient><linearGradient id="b" x1="6.88" y1="22.12" x2="24.59" y2="7.74" gradientUnits="userSpaceOnUse"><stop stop-color="#FAFAFA"/><stop offset=".43" stop-color="#FAFAFA"/><stop offset=".5" stop-color="#FAFAFA"/><stop offset=".55" stop-color="#FAFAFA"/><stop offset="1" stop-color="#FAFAFA"/></linearGradient><linearGradient id="c" x1="16.9" y1="3.45" x2="14.67" y2="26.37" gradientUnits="userSpaceOnUse"><stop stop-color="#A8633F"/><stop offset=".47" stop-color="#A5613E"/><stop offset=".7" stop-color="#9E5D3B"/><stop offset=".88" stop-color="#915536"/><stop offset="1" stop-color="#834D31"/></linearGradient></defs></svg>