<svg xmlns="http://www.w3.org/2000/svg" width="29" height="33" fill="none"><path fill="url(#a)" fill-rule="evenodd" d="M1.05 13.26C7.49 6.81 14.51 1.86 23.31.37c1.69-.78 4.27 1.26 4.68 3.39 1.25 8.19 1.25 15.75 0 23.92-.4 2.13-2.98 4.17-4.68 3.39-8.9-2.06-16.08-5.75-22.26-11.62-1.45-.92-1.35-4.74 0-6.19Z" clip-rule="evenodd"/><path fill="url(#b)" fill-rule="evenodd" d="M.03 18.02c.1.72.43 1.35 1.02 1.72 1.85 1.76 3.8 3.44 5.85 4.98 2.58 1.94 5.34 3.67 8.3 5.07h.01c2.54 1.2 5.23 2.17 8.1 2.83 1.69.78 4.27-1.26 4.67-3.39.04-.29.09-.57.13-.85.6-4.14.86-8.14.81-12.14-.03-2.54-.2-5.08-.5-7.68-.12-1.07-.27-2.15-.43-3.25-.4-2.13-2.98-4.17-4.67-3.39-8.81 1.5-15.83 6.45-22.27 12.9-.81.87-1.17 2.13-1.02 3.2Z" clip-rule="evenodd"/><path fill="#6FE4FF" fill-rule="evenodd" d="M27.34 13.37c.07.49.45.96.81 1.31.4.39.68.88.75 1.43 0 .04.01.09.02.13-.03-2.54-.2-5.08-.5-7.68v.24c0 .46.08.98-.03 1.43-.07.29-.15.57-.24.86-.13.45-.38.88-.54 1.32-.11.3-.32.63-.27.96ZM15.21 29.8c2.54 1.2 5.23 2.17 8.1 2.83 1.69.78 4.27-1.26 4.67-3.39.04-.29.09-.57.13-.85-.09.32-.14.71-.4.95-.35.32-.87.6-1.32.74-.5.15-.99.49-1.43.78-.64.41-1.38.6-2.09.79-.72.19-1.25.01-1.94-.22-.91-.31-1.66-.9-2.63-1.08-.35-.07-.71.02-1.07-.02-.22-.02-.41-.11-.63-.13-.25-.02-.46-.06-.69-.15-.23-.09-.47-.17-.7-.25ZM.03 18.02c.1.72.43 1.35 1.02 1.72 1.85 1.76 3.8 3.44 5.85 4.98.29.01.5.01.4-.01-.79-.59-1.58-1.2-2.32-1.85-.13-.12-.21-.27-.33-.39-.13-.13-.28-.21-.4-.34-.22-.25-.44-.58-.51-.91a7.36 7.36 0 0 1-.14-1.05c-.03-.51-.1-.78-.44-1.2-.57-.7-1.34-.9-2.18-1.05-.31-.06-.66-.03-.93.1H.03Z" clip-rule="evenodd"/><path fill="#6BACFE" fill-rule="evenodd" d="M3.95 21.6c-.22-.31-.47-.61-.66-.94-.08-.15-.12-.32-.2-.46-.14-.25-.36-.54-.58-.72-.2-.16-.37-.15-.59-.2-.23-.06-.46-.06-.72-.06-.5 0-.89-.18-1.05-.72-.05-.16-.09-.54 0-.69.16-.26.34-.08.52-.04.11.03.19.03.29.07.08.03.19.13.26.15.23.07.45.06.69.15.41.15.86.32 1.16.63.29.29.43.77.51 1.17.1.48.23 1.01.36 1.67l.01-.01ZM25.67 32.35c-.19-.24-.36-.48-.53-.73-.06 0-.13 0-.19.02-.11-.05-.17-.1-.29-.13-.24-.06-.61 0-.86.01.24-.2.4-.35.67-.48.17-.09.36-.13.53-.24.14-.09.27-.23.43-.3.33-.16.71-.25 1.01-.47.27-.2.58-.33.89-.45.31-.12.79-.37.48.15-.21.35-.4.77-.69 1.08-.29.32-.56.67-.86 1-.19.21-.63.55-.93.57 0 .03-.02.06-.02.1l.36-.12v-.01ZM28.9 13.97c-.09-.31-.26-.57-.5-.78-.21.18-.52.78-.85.45-.27-.28-.03-.93.04-1.23.09-.42.26-.73.45-1.11.09-.18.31-.88.48-.92.05.15.02.29.05.44.02.09.08.14.1.26.03.27 0 .57 0 .84v.36c.01.19.1.3.13.48.05.26 0 .57 0 .84l.12.36-.02.01Z" clip-rule="evenodd" opacity=".6" style="mix-blend-mode:multiply"/><path fill="#6FE4FF" fill-rule="evenodd" d="M27.34 13.37c-.47-2.93-7.96-9.9-9.02-10.17-1.06-.27-1.36-1.06-1.36-1.06l1.08-.47s-.3.71-.08 1.1c.22.39.74.3.74.3s4.79 3.89 6.56 6.14c1.77 2.25 2.17 3.66 2.17 3.66l-.08.5h-.01Z" clip-rule="evenodd"/><path fill="#607CDB" fill-rule="evenodd" d="M13.98 28.53c.31.25.73.65 1.11.86.39.22.84.38 1.26.56.72.32 1.5.6 2.26.84.42.13.85.25 1.29.25 1.19.02 2.5-.06 3.38-.93.52-.51.69-.71.56-1.47-.24-1.37-.45-2.73-.99-4.03-1.75-4.19-6.04-6.35-9.83-8.38-1.9-1.02-3.94-1.98-6.06-2.44-.59-.13-1.3-.32-1.9-.14-.39.12-.88.43-1.21.67-.44.32-.81.77-.92 1.31-.12.6.12 1.36.34 1.91.19.48.22 1.05.35 1.55.08.28.1.56.15.84.07.38.23.72.33 1.08.14.48.31 1.06.61 1.46.41.53 1.01.98 1.56 1.37.78.55 1.53 1.14 2.3 1.69.32.22.63.54.98.71.27.13.53.22.78.39.67.43 1.46.58 2.14.98.34.2.69.39 1.04.57.33.16.72.3.48.36l-.01-.01Z" clip-rule="evenodd" opacity=".2" style="mix-blend-mode:multiply"/><path fill="#C7E8F4" fill-rule="evenodd" d="M11.95 6.8c.67-.62 1.29-1.34 2.03-1.89.61-.45 1.52-.78 2.24-1.01.45-.15.87-.2 1.34-.2.46 0 .99-.07 1.43.02.49.11.81.44 1.19.72.5.35.78.92 1.07 1.44.25.45.51.87.81 1.28.38.52.78.96 1.19 1.45.17.2.25.46.39.69.14.22.3.41.48.6.31.35.67.67.94 1.05.26.37.64.72.87 1.1.26.44.45.9.74 1.32.31.46.48.95.68 1.46.16.39.32.74.39 1.15.1.56.11 1.12.09 1.68-.01.53-.27.98-.48 1.46-.21.48-.56.87-.87 1.28-.27.37-.53.68-.9.96-.39.31-.89.67-1.41.72-.56.05-1.15-.17-1.59-.5-.78-.58-1.62-1.08-2.4-1.66-.59-.44-1.16-.9-1.74-1.35-.55-.43-1.08-.93-1.7-1.25-.3-.15-.49-.29-.75-.48-.36-.26-.77-.38-1.14-.62-.29-.18-.53-.38-.83-.54-.47-.25-.97-.46-1.46-.68-1.22-.54-2.11-1.61-2.54-2.87-.17-.49-.14-1.08-.1-1.59.04-.54.12-1.23.35-1.73.33-.72.76-1.23 1.67-2.02l.01.01Z" clip-rule="evenodd" opacity=".2" style="mix-blend-mode:soft-light"/><path fill="#C7E8F4" fill-rule="evenodd" d="M8.85 8.47c.3-.02.55.06.77.24-.1.19.05.39.07.59.04.31-.06.58-.1.87-.07.56-.18 1.09-.26 1.65-.07.44-.19.69-.62.8-.5.12-1.02.09-1.51.21-.26.06-.46.09-.73.03-.21-.04-.53-.04-.72-.11-.39-.15-.54-.61-.47-.99.13-.71.73-1.11 1.16-1.61.39-.46 1.01-1.3 2.42-1.68h-.01Z" clip-rule="evenodd" opacity=".5" style="mix-blend-mode:soft-light"/><path fill="#607CDB" fill-rule="evenodd" d="M28.9 19.22s.02-1.47-.31-1.55c-.2-.05-.67.34-.76.49-.57.84-1.18 1.79-1.93 2.5-.19.18-.46.21-.67.35-.18.12-.33.29-.5.42-.38.28-.68.57-.96.96-.21.3-.41.67-.48 1.04-.09.51.01 1.13 0 1.65 0 .64.17 1.29.3 1.91.06.29.08.58.18.86.12.36.11.74.23 1.09.16.48.54.8.96 1.03.3.16.81.18 1.16.12.58-.09 1.15-.24 1.4-.84.17-.4.33-.8.42-1.23.04-.21.09-.41.13-.61.07-.29.07-.49.1-.79.05-.56.26-1.11.25-1.68 0-.38.1-.69.13-1.06.02-.31-.03-.61.02-.92.25-1.51.21-3.03.33-3.73v-.01Z" clip-rule="evenodd" opacity=".2" style="mix-blend-mode:multiply"/><path fill="#C7E8F4" fill-rule="evenodd" d="M26.15 10.62c.21.18.79.92 1.2.84.36-.06.58-.36.71-.69.41-1.02.14-2.11 0-3.16-.04-.31-.09-.62-.15-.93-.06-.32-.05-.64-.11-.96-.13-.69-.31-1.41-.69-2.01-.29-.47-.7-.95-1.23-1.13-.59-.21-1.27-.31-1.89-.33-1.09-.03-2.22.08-3.22.51-.23.1-.69.4-.72.68-.03.25.44.7.6.83.51.41.97.87 1.41 1.36.3.33.65.57.97.89.28.28.49.61.76.89.29.3.51.66.78.97.23.26.32.59.53.86.38.51.77 1.03 1.05 1.37v.01Z" clip-rule="evenodd" opacity=".2" style="mix-blend-mode:soft-light"/><path fill="#C9F9FF" fill-rule="evenodd" d="M23.65 8c.02.08.08.18.12.25.05.1.1.2.16.3.08.14.14.27.23.41.14.22.27.46.43.66.28.37.59.7.92 1.03.34.34.72.65 1.01 1.05-.4-.75-.91-1.43-1.43-2.1-.06-.08-.14-.14-.2-.22-.09-.12-.17-.24-.27-.34-.15-.16-.28-.33-.44-.49-.12-.13-.21-.27-.34-.4-.1-.1-.11-.04-.19-.15ZM3.87 20.37l.6.93c.16.25.29.52.44.78.1.17.19.34.27.52.02.05.03.12.05.18.01.05.05.13.03.18-.18-.08-.34-.24-.47-.39-.1-.12-.25-.18-.36-.29-.08-.08-.17-.14-.26-.22-.2-.16-.26-.39-.32-.64-.06-.28-.06-.57.02-1.05ZM19.75 30.75c.16-.03.31-.06.48-.03.13.02.25.03.39.03.27 0 .54.02.8 0 .08 0 .16-.04.25-.04h.31c.28 0 .55.02.83.04.33.02.66-.02 1 0 .18.01.35.07.52.08.16.01.21 0 .39-.04-.09.07-.08.21-.19.25-.04.01-.08.03-.13.05-.14.07-.26.16-.4.22-.27.13-.54.2-.84.26-.27.06-.53-.02-.8-.02h-.48c-.18 0-.34 0-.51-.05-.24-.06-.48-.17-.69-.31-.15-.1-.29-.17-.46-.24-.07-.03-.13-.04-.2-.07-.07-.02-.23-.07-.28-.13h.01Z" clip-rule="evenodd"/><path fill="#4750A6" fill-rule="evenodd" d="M17.52 5.6c.24.15.68.43.58.85-.04.17-.16.38-.27.5-.05.06-.1.15-.16.2-.11.1-.25.12-.39.12h-.49c-.16 0-.29.04-.44.08-.14.04-.35.02-.49 0-.1-.01-.18-.06-.26-.1-.05-.02-.1-.04-.14-.06-.06-.03-.09-.06-.14-.1-.07-.05-.14-.06-.2-.12-.05-.04-.11-.08-.16-.12-.11-.1-.16-.2-.16-.36 0-.12.07-.19.12-.28.06-.1.17-.19.26-.27.09-.08.19-.2.3-.25.05-.02.12-.05.18-.06.03 0 .05.01.08 0 .04 0 .07-.04.11-.05.14-.03.29-.07.43-.13.06-.02.12-.03.18-.05.06-.02.11-.07.17-.08.32-.07.64.14.9.26l-.01.02ZM18.88 6.67c.07.06.2.13.27.22.03.04.04.09.07.12.05.06.1.11.15.17.03.04.06.09.1.12.05.04.1.05.14.09l.14.14c.08.07.17.17.2.29.03.15.02.43-.1.53-.16.13-.39.07-.56 0-.1-.04-.21-.11-.31-.14-.07-.02-.15-.03-.23-.06-.15-.06-.37-.22-.44-.4-.07-.17.02-.39.1-.53.05-.09.11-.21.18-.29.1-.11.29-.15.28-.26h.01Z" clip-rule="evenodd" opacity=".3" style="mix-blend-mode:multiply"/><path fill="#6BACFE" fill-rule="evenodd" d="M17.8 7.02c.02-.07.04-.14.07-.2.02-.04.04-.07.06-.11.03-.06.11-.11.11-.18 0-.09-.01-.16-.05-.23-.07-.15-.16-.27-.27-.38a.896.896 0 0 0-.19-.15c-.06-.04-.13-.06-.19-.09-.04-.03-.08-.06-.13-.07-.05-.02-.1-.02-.16-.02-.07 0-.15 0-.21.03-.03.01-.03.03-.04.06-.01.03-.03.04-.05.07-.05.05-.1.1-.16.11-.04 0-.09.02-.13.02-.07 0-.15-.05-.22-.06-.18-.04-.38-.09-.56-.01-.06.03-.11.05-.16.1-.02.02-.06.04-.08.07-.02.03-.03.05-.06.08a.47.47 0 0 1-.12.09c-.02 0-.04.02-.06.03-.03.02-.07.02-.1.04-.05.04-.11.07-.15.12-.03.03-.05.08-.07.12-.01.03-.02.04-.03.07-.01.03-.03.06-.04.09 0 .04.01.19-.02.2-.01-.05 0-.15 0-.2.02-.1.05-.19.09-.27.05-.09.09-.18.15-.25s.13-.11.19-.17c.05-.05.1-.11.15-.15.07-.06.14-.13.21-.2l.09-.06c.03-.02.07 0 .1-.02.03 0 .05-.02.09-.02.05 0 .09.02.13.02.07 0 .12-.02.18-.08a.66.66 0 0 1 .24-.17c.03-.02.06 0 .09-.02.04 0 .06-.02.1-.02.08 0 .17 0 .25.04.09.04.17.1.26.15.13.08.27.1.39.17.11.06.24.12.34.21.05.05.09.11.15.16.03.03.05.06.07.11.02.04.03.09.04.13.01.05.01.09.02.14 0 .02.01.02.02.03v.09c0 .04 0 .08-.02.12-.02.09-.09.17-.14.22 0 .01-.02.02-.03.03-.01.02-.04.03-.05.05-.03.04-.05.11-.08.15l-.02.01ZM19.87 8.31c-.02-.15-.04-.3-.08-.44-.05-.13-.16-.28-.25-.36-.08-.07-.18-.13-.27-.18a.317.317 0 0 0-.16-.04c-.06 0-.12-.03-.18-.03-.09 0-.19-.05-.29-.03-.08.01-.15.06-.22.12-.05.05-.07.08-.1.15-.01.04-.01.2-.03.21-.05.03-.04-.13-.03-.17 0-.06.03-.11.05-.16.03-.07.05-.14.08-.2.04-.08.1-.12.15-.2.05-.07.1-.11.15-.18.04-.05.12-.14.17-.15.06 0 .12.05.16.1.09.09.17.17.25.27.1.13.21.23.31.35.04.05.08.12.13.16.04.03.06.05.09.1.06.1.1.2.11.32.01.12-.03.22-.05.33l.01.03Z" clip-rule="evenodd" opacity=".3" style="mix-blend-mode:multiply"/><path fill="#C7E8F4" fill-rule="evenodd" d="M17.01 7.69c-.1 0-.18 0-.27.03-.07.03-.14.01-.21.04-.12.05-.3.05-.42-.01-.12-.05-.22-.13-.33-.19-.1-.06-.19-.15-.3-.2a.94.94 0 0 1-.22-.12c-.03-.02-.12-.07-.13-.1.05-.02.08.01.13.02.06.02.13.04.19.07.07.03.14.03.21.06.05.02.1.05.16.06.03 0 .07.02.1.03.1.03.2.07.3.11.08.04.15.04.23.06.07.02.15.04.22.07.04.01.07.03.11.05.05.02.09 0 .21.04l.02-.02ZM19.72 8.44c-.1.02-.19.04-.28.04-.05 0-.11-.01-.15 0-.11.03-.18.07-.3.04-.12-.03-.23-.1-.35-.18-.06-.04-.2-.16-.05-.17.04 0 .08.03.12.05.05.02.1.03.14.04.11.04.23.07.34.09h.13c.05.01.11.05.16.07.09.03.16.05.25.05v-.04l-.01.01Z" clip-rule="evenodd" opacity=".5" style="mix-blend-mode:soft-light"/><path fill="#607CDB" fill-rule="evenodd" d="M21.93 23.27c.33.7.62 1.4.91 2.12.26.66.46 1.29.56 1.99.13.84.54 2.02-.32 2.62-.79.55-1.65.31-2.52.14-.3-.06-.57-.17-.86-.26-.33-.11-.66-.18-.94-.39-.68-.5-1.25-1.03-1.68-1.77-.28-.48-.36-1.12-.49-1.66-.1-.43-.24-.8-.24-1.25 0-.34.13-.52.29-.81.16-.3.52-.56.84-.63.3-.07.64.04.94-.02.16-.03.28-.11.4-.22.14-.13.37-.24.48-.4.34-.45-.04-.97-.32-1.34-.21-.27-.42-.54-.64-.8-.22-.26-.5-.47-.72-.73-.13-.15-.44-.69-.04-.72.15-.01.32.13.44.2.3.17.59.32.87.52.36.26.75.5 1.06.82.24.24.46.5.67.77.5.64.87 1.34 1.29 1.84l.02-.02Z" clip-rule="evenodd" opacity=".2" style="mix-blend-mode:multiply"/><path fill="#6BACFE" fill-rule="evenodd" d="M25.79 2.45c.21.15.38.25.55.42.14.13.32.19.46.34.09.1.22.2.3.31.1.14.17.31.23.46.11.25.25.48.36.73.09.2.17.44.21.65.04.2.13.36.18.55.09.34.26.65.28 1.01.01.18.06.35.06.54 0 .26-.02.52 0 .78 0 .18.06.35.06.54v.73c0 .22.03.47-.01.69-.01.07-.04.14-.06.21-.01.04-.03.19-.05.23-.17.23-.66-.22-.76-.31-.36-.3-.8-.49-1.17-.77-.54-.4-1.08-.8-1.41-1.4-.17-.31-.37-.61-.49-.94-.14-.35-.26-.71-.39-1.06-.14-.36-.22-.69.16-.94.2-.13.51-.14.74-.19.24-.05.35-.17.44-.4.15-.38-.15-.78-.49-.91-.39-.15-.8.01-1.19-.08-.27-.06-.54-.31-.69-.53-.1-.14-.31-.48-.27-.68.02-.12.2-.27.29-.34.16-.13.39-.17.6-.18.8-.03 1.63 0 2.09.54h-.03Z" clip-rule="evenodd" opacity=".3" style="mix-blend-mode:multiply"/><path fill="#C7E8F4" fill-rule="evenodd" d="M20.24 4.42c.21.26.45.48.69.72.22.22.49.39.66.65.05.07.31.3.2.41-.09.09-.28-.03-.35-.07-.11-.05-.24-.05-.35-.1-.13-.05-.25-.13-.37-.2-.35-.2-.7-.41-1.06-.6-.73-.39-1.58-.33-2.38-.48-.23-.04-.53-.06-.7-.25-.08-.09-.14-.26-.07-.38.06-.11.26-.21.36-.27.16-.09.33-.18.51-.24.24-.09.44-.11.69-.1.21 0 .38.08.58.13.26.07.54.16.78.28.28.14.51.38.83.48l-.02.02Z" clip-rule="evenodd" opacity=".5" style="mix-blend-mode:soft-light"/><path fill="#1349A9" fill-rule="evenodd" d="M28.18 5.85c-.04-.23-.12-.45-.2-.68-.05-.15-.14-.29-.2-.44-.12-.3-.27-.6-.46-.86-.14-.19-.31-.39-.48-.56-.09-.09-.18-.14-.27-.24a7.36 7.36 0 0 0-.4-.39c-.4-.35-.94-.49-1.38-.76-.24-.15-.41-.38-.47-.67-.05-.22-.09-.44-.13-.65-.02-.12-.01-.28.09-.35.16-.11.31 0 .46.06.27.12.52.26.78.41.12.07.22.15.35.2.15.06.27.09.41.2.09.07.19.12.27.2.09.08.16.18.24.27.13.16.31.28.44.45.14.17.28.36.37.56.12.25.22.46.28.73.06.28.06.57.12.86.02.09.06.16.07.25 0 .08.03.13.05.21.03.11.03.21.03.32 0 .14-.01.28 0 .42.02.1.09.33.03.49v-.03ZM21.58 2.15c-.23.17-.46.32-.71.47l-.36.21c-.09.05-.19.08-.28.13-.1.05-.18.13-.29.18-.11.05-.21.11-.32.16-.09.04-.22.11-.32.09-.11-.02-.22-.08-.32-.11-.09-.03-.18-.06-.27-.1-.03-.01-.09-.02-.12-.04s-.06-.06-.08-.08c.03-.11.23-.23.33-.26.28-.09.58-.21.88-.24.29-.03.57-.13.86-.18l.44-.09c.07-.01.15-.03.22-.04.06 0 .16 0 .32-.09l.02-.01ZM6.14 10.19c.05-.06.19-.09.26-.13.07-.04.14-.08.22-.1.2-.07.39-.16.58-.25.08-.04.18-.07.26-.11.09-.04.16-.11.25-.15.22-.11.44-.21.63-.37.12-.1.24-.19.36-.28.14-.11.3-.18.44-.28.27-.19.59-.34.8-.6.08-.1.14-.2.23-.3.09-.1.19-.22.28-.33.21-.26.41-.52.65-.76-.17 0-.13-.11-.28-.06-.1.04-.19.08-.29.12-.17.08-.32.19-.49.27-.33.14-.66.29-.99.43-.19.08-.36.19-.55.27-.21.1-.4.2-.58.34-.15.11-.3.21-.44.34-.16.15-.32.31-.5.45-.27.22-.52.38-.7.68-.08.15-.19.32-.2.49 0 .14.08.16.08.3l-.02.03Z" clip-rule="evenodd"/><g fill="#fff" fill-rule="evenodd" clip-rule="evenodd" style="mix-blend-mode:soft-light"><path d="M13.23 14.3c.08.48.22.84.02 1.27-.19.43-.44.62-.86.82-.29.13-.92.42-1.16.06-.24-.37-.2-1.17.02-1.52.38-.61.98-.9 1.67-.71l.32.08h-.01ZM14.84 13.77c.3-.36.66-.59.45-1.03-.14-.29-.23-.37-.5-.19-.36.25-.54.78 0 .97l.06.24-.01.01ZM24.17 4.55c-.16.37-.24.9-.72.84-.16-.02-.31-.06-.33-.25-.04-.34.52-.54.78-.43l.27-.16ZM15.16 28.43c-.13-.5-.18-.94-.74-1.08-.28-.07-.58.08-.78.28-.2.19-.23.35-.09.59.18.3.57.3.89.38l.72-.17ZM26.8 16.09c-.13.35-.17.82-.55.91-.24.06-.49 0-.71-.1-.37-.16-.57-.38-.63-.81-.1-.77 1.35-.94 1.77-.48l.11.48h.01Z"/></g><defs><radialGradient id="a" cx="0" cy="0" r="1" gradientTransform="matrix(0 29.48 -26.532 0 -6.168 15.27)" gradientUnits="userSpaceOnUse"><stop stop-color="#0077BA"/><stop offset=".79" stop-color="#044DC3"/><stop offset="1" stop-color="#00308D"/></radialGradient><radialGradient id="b" cx="0" cy="0" r="1" gradientTransform="matrix(-28.76 0 0 -25.884 21.64 27.702)" gradientUnits="userSpaceOnUse"><stop stop-color="#15E4FF"/><stop offset="1" stop-color="#006AD6"/></radialGradient></defs></svg>