<svg width="23" height="23" viewBox="0 0 23 23" fill="none" xmlns="http://www.w3.org/2000/svg">
<path d="M11.4806 22.9612C17.8211 22.9612 22.9612 17.8212 22.9612 11.4806C22.9612 5.14009 17.8211 6.10352e-05 11.4806 6.10352e-05C5.14003 6.10352e-05 0 5.14009 0 11.4806C0 17.8212 5.14003 22.9612 11.4806 22.9612Z" fill="#0088CC"/>
<path d="M11.4657 6.98238C12.7373 6.98238 14.0088 6.98019 15.2804 6.9831C15.831 6.98456 16.3051 7.16002 16.635 7.62671C17.0683 8.24047 17.0822 8.89136 16.7173 9.52405C15.3052 11.9733 13.8756 14.4123 12.4525 16.8557C12.3032 17.1119 12.1554 17.3697 12.0039 17.6252C11.7235 18.0977 11.1984 18.0948 10.9239 17.6158C10.0587 16.1094 9.19713 14.6016 8.33339 13.0945C7.62697 11.8619 6.92345 10.6271 6.21193 9.39664C5.57687 8.29945 6.2935 7.00349 7.56434 6.98529C8.6116 6.97 9.65886 6.98165 10.7061 6.98092C10.9596 6.98092 11.213 6.98092 11.4664 6.98092L11.4657 6.98238ZM12.0498 15.1644L12.076 15.1753C12.2537 14.8702 12.4314 14.5652 12.6091 14.2601C13.6345 12.4989 14.6607 10.7385 15.6846 8.97655C15.9475 8.52296 15.737 8.15238 15.2214 8.15238C14.2135 8.15238 13.2048 8.15456 12.1969 8.14874C12.0753 8.14874 12.0461 8.17713 12.0461 8.29872C12.0505 10.1735 12.0491 12.0475 12.0491 13.9223C12.0491 14.3358 12.0491 14.7501 12.0491 15.1636L12.0498 15.1644ZM10.8547 15.1454L10.8802 15.1418C10.8802 15.1149 10.8802 15.0879 10.8802 15.061C10.8802 12.7974 10.8794 10.5331 10.8831 8.2696C10.8831 8.15383 10.8365 8.15019 10.7469 8.15092C9.7244 8.1531 8.7019 8.15238 7.67868 8.15238C7.59128 8.15238 7.50389 8.15238 7.41795 8.17932C7.2388 8.23538 7.10261 8.44433 7.14339 8.62416C7.16087 8.70279 7.2053 8.77706 7.24608 8.84841C8.19502 10.5069 9.14542 12.1647 10.0958 13.8233C10.3485 14.2645 10.6012 14.705 10.854 15.1462L10.8547 15.1454Z" fill="white"/>
</svg>
