<?xml version="1.0" encoding="UTF-8"?><svg id="_Слой_2" xmlns="http://www.w3.org/2000/svg" viewBox="0 0 562.03 484.66"><defs><style>.cls-1{fill:#691515;}.cls-2{fill:#e0ddd3;}.cls-3{fill:#8c8a84;}.cls-4{fill:#cabc98;}.cls-5{fill:#8a8068;}.cls-6{fill:#731717;}.cls-7{fill:#591212;}.cls-8{fill:#c7c7c7;}.cls-9{fill:#b0a485;}.cls-10{fill:#948a70;}.cls-11{fill:#8f8f8f;}.cls-12{fill:#821a1a;}.cls-13{fill:#f7f7f7;}.cls-14{fill:#d6d3c9;}.cls-15{fill:#baad8d;}</style></defs><g id="Objects"><path class="cls-9" d="m302.16,312.7c-6.87-26.34-5.41-44.33,4.6-56.64,12.52-15.39,36.95-20.7,84.33-18.33,62.35,3.12,135.38-7.29,149.66-30.1,2.13-3.41,4.32-9.11-1.25-19.26-6.36-11.59-16.35-19.13-30.52-23.05-36.52-10.12-97.93,6.18-160.26,42.54-34.54,20.15-61.95,25.96-81.45,17.27-14.44-6.44-20.64-19.49-22.03-26.19l18.61-3.85-.03-.12c.09.36,2.22,8.97,11.47,12.94,9.37,4.02,28.06,4.43,63.86-16.45,67.61-39.44,132.99-56.05,174.91-44.44,19.1,5.29,33.26,16.13,42.1,32.22,9.58,17.44,5.67,30.55.7,38.48-9.92,15.86-34.03,27.22-71.65,33.77-28.29,4.93-62.94,6.83-95.06,5.22-39.48-1.97-60.66,1.52-68.65,11.35-5.78,7.11-6.1,20.15-.96,39.86l-18.38,4.79Z"/><path class="cls-5" d="m390.15,256.7c32.12,1.61,66.77-.3,95.06-5.22,37.62-6.55,61.73-17.91,71.65-33.77,3.1-4.95,5.78-11.92,5.04-20.7-5.04,12.08-14.91,27.32-33.67,33.2-33.03,10.35-35.89,15.19-90.5,15.85-54.61.66-96.44-7.27-114.5,7.49-14.36,11.74-14.64,36.56-2.85,53.77-4.98-19.37-4.62-32.23,1.1-39.27,7.99-9.82,29.17-13.32,68.65-11.35Z"/><path class="cls-10" d="m527.03,162.39c-27.5-14.01-54-11.56-114.11,7.1-60.11,18.66-96.77,52.51-125.01,53.34-19.24.56-30.96-15.12-36.48-25.17l-6.18,1.28c1.39,6.7,7.59,19.76,22.03,26.19,19.5,8.69,46.91,2.88,81.45-17.27,62.33-36.36,123.74-52.66,160.26-42.54,14.17,3.93,24.15,11.47,30.52,23.05,5.57,10.15,3.38,15.85,1.25,19.26-2.09,3.34-5.45,6.41-9.84,9.22,24.33-9.33,20.89-41.83-3.89-54.45Z"/><path class="cls-4" d="m469.67,234.65h0s-.05,0-.07,0c.04,0,.07,0,.07,0Z"/><path class="cls-4" d="m429.57,237.97c-12.88.46-25.89.38-38.47-.25-47.38-2.37-71.82,2.94-84.33,18.33-10.01,12.31-11.47,30.3-4.6,56.64l16.88-4.4c-7.41-8.96-18.56-25.24-14.95-38.57,5.28-19.49,29.23-32.04,72.66-30.72,17.87.54,36.76-.1,52.82-1.05Z"/><path class="cls-4" d="m514.06,147.01c-41.92-11.61-107.3,5-174.91,44.44-28.71,16.75-46.41,19.8-57.13,18.27,7.38,3.61,26.04.24,51.46-11.66,31.05-14.53,73.28-38.81,132.77-51.19,58.13-12.1,87.08,27.89,88.37,29.71-8.9-14.63-22.53-24.58-40.56-29.57Z"/><path class="cls-9" d="m315.32,321.56c0,.13-1.54,12.02,13.21,22.26s26.86-13.65,50.09-16.62,40.51,15.96,43.71,18.94,16.62-2.09,6.06-14.09-28.29-21.63-50.2-17.94c-25.08,4.21-36.77,22.35-43.6,17.28s-12.08-16.07-12.08-16.07l-7.19,6.25Z"/><path class="cls-5" d="m422.33,346.14c2.69,2.51,12.68-.71,9.38-8.99-1.91,6.23-7.75,1.43-21.05-8.41-15.63-11.56-33.55-7.63-45.22-1.62-13.79,7.1-19.65,13.38-28.32,14.5-11.21,1.46-18.51-14.42-20.96-20.79l-.84.73c0,.13-1.54,12.02,13.21,22.26,14.75,10.24,26.86-13.65,50.09-16.62,23.23-2.97,40.51,15.96,43.71,18.94Z"/><path class="cls-4" d="m428.38,332.04c-10.57-12-28.29-21.63-50.2-17.94-10.18,1.71-18.16,5.72-24.5,9.53-1.76,1.75-2.66,3.29-2.78,4.64-.41,4.54,8.26-2.81,19.49-7.84,11.23-5.04,28.07-6.08,38.89,1.58,9.9,7.01,17.19,16.11,19.71,10.76-.2-.24-.39-.48-.61-.73Z"/><path class="cls-8" d="m350.6,432.7l14.76-3.24v24.18c0,15.99-15.39,17.32-17.5,17.42-12.2-.02-20.86-4.81-25.75-14.25-3.89-7.5-3.96-15.23-3.96-15.54v-119.26c5.11-2.55,8.49-7.85,8.49-13.69,0-8.43-6.86-15.3-15.29-15.3s-15.3,6.86-15.3,15.3c0,5.83,3.39,11.13,8.5,13.69v115.99c-.84,7.01-4.64,18.51-20.44,18.55-1.47-.07-11.77-.95-11.77-11.7v-16.36l12.18,2.67-24.01-30.25.04,43.95c0,18,15.24,23.23,23.3,23.49h.11c11.95,0,19.44-4.57,24.12-9.91,4.6,12.01,15.26,26.23,39.96,26.23h.11c10.66-.34,30.81-7.26,30.81-31.02v-21.93h.05s0-34.8,0-34.8l-28.41,35.8Zm-39.25-127.51c1.73,0,3.14,1.41,3.14,3.14s-1.41,3.14-3.14,3.14-3.14-1.41-3.14-3.14,1.41-3.14,3.14-3.14Z"/><path class="cls-15" d="m312.84,312.61s24.94,22.75,28.68-4.29-16.18-39.7-44.37-28.58c-23.64,9.33-31.6,36.99-12.44,42.94s27.85-8.75,27.19-12.28-1.89-6.13-4.64-6.9-9.34,3.43-12.32,1.56,1.87-8.42,11.12-10.4,16.73-3.8,21.03,1.27.47,10.68-5.72,6.72-12.19,3.56-8.53,9.96Z"/><path class="cls-11" d="m283.86,468.34h.11c11.95,0,19.44-4.57,24.12-9.91,4.6,12.01,15.26,26.23,39.96,26.23h.11c10.66-.34,30.81-7.26,30.81-31.02v-21.93h.05s0-34.8,0-34.8l-.03.04c-1.46,10.28-3.35,26.11-3.54,40.57-.33,23.94-6.44,44.75-33.42,41.12-26.98-3.63-31.32-32.2-31.32-32.2-9.25,17.83-33.84,23.16-41.78,8.5-5.86-10.82-8.4-54.03-8.4-54.03l.04,43.95c0,18,15.24,23.23,23.3,23.49Z"/><path class="cls-13" d="m378.67,397.33l-28.07,35.37s13.77-5.76,21.69-21.11c2.57-4.98,4.69-9.89,6.38-14.26Z"/><path class="cls-13" d="m358.37,467.71c-4.37,2.88-9.37,3.3-10.51,3.36-12.2-.02-20.86-4.81-25.75-14.25-3.89-7.5-3.96-15.23-3.96-15.54v-119.26s-3.33,105.8-3.82,120.12c-.5,14.32,9.58,30.39,24.28,32.2,8.81,1.09,16.01-1.56,19.77-6.63Z"/><path class="cls-13" d="m304.55,438c-.84,7.01-4.64,18.51-20.44,18.55-1.11-.05-7.21-.56-10.16-5.39.04,3.13,1.95,6.18,8.01,7.82,15.85,4.29,23.28-9.74,24.44-19.82,1.16-10.07-1.85-117.15-1.85-117.15v115.99Z"/><path class="cls-13" d="m284.53,431.16l-24.01-30.25c7.78,24.82,24.01,30.25,24.01,30.25Z"/><path class="cls-10" d="m329.85,278.87c12.09,9.25,11.13,30.93,4.21,34.78-8.59,4.79-21.22-1.05-21.22-1.05,0,0,24.94,22.75,28.68-4.29,1.98-14.31-2.67-24.59-11.67-29.45Z"/><path class="cls-10" d="m284.71,322.69c18.33,5.69,27.08-7.52,27.22-11.75,0,0-6.85,8.83-15.77,8.83-7.39,0-17.84-3.86-22-13.83-.97,7.49,2.23,14.17,10.55,16.75Z"/><ellipse class="cls-12" cx="203.3" cy="111.25" rx="109.25" ry="110.45" transform="translate(-28.45 110.04) rotate(-28.39)"/><path class="cls-7" d="m99.11,144.3c17.43,11.01,58.53,26.86,122.99-7.98,45.74-24.72,63.01-60.95,69.03-90.08-9.23-12.58-20.74-22.75-33.63-30.24-44.02,22.05-118.96,59.58-163.01,81.63-1.78,15.39-.34,31.3,4.62,46.66Z"/><path class="cls-14" d="m214.43,131.84c44.37-23.98,71.17-63.68,67.89-96.18C248.93.32,195.15-9.9,150.78,14.08c-44.37,23.98-65.28,74.57-54.01,121.87,25.39,20.54,73.28,19.87,117.66-4.11Z"/><path class="cls-10" d="m325.81,287.07c-7.93-5.28-25.1-4.21-30.39,3.39-4.24,6.1-4.54,11.08-1.33,13.19-.21-2.67,4.41-7.35,11.98-8.98,9.25-1.98,16.73-3.8,21.03,1.27,2.4,2.83,2.26,5.82.6,7.23,6.68,1.61,5.41-11.23-1.89-16.09Z"/><path class="cls-3" d="m159.87,30.61c-18.68,5.23-10.79,23.86.66,19.05,20.7-8.7,7.6-21.36-.66-19.05Z"/><path class="cls-9" d="m2.8,9.46C.73,11.25-.29,13.95.07,16.66c.81,6.17,4.39,17.41,18.98,27.53,21.36,14.83,38.9-19.77,72.54-24.07s58.67,23.12,63.29,27.42,24.07-3.03,8.77-20.41C148.34,9.76,122.67-4.18,90.95,1.15,54.62,7.25,37.7,33.51,27.82,26.18c-5.13-3.8-9.64-9.93-12.8-14.94-2.66-4.22-8.46-5.06-12.22-1.79h0Z"/><path class="cls-5" d="m154.88,47.55c.13.12.28.24.44.34.05.03.11.06.16.1.11.07.23.13.35.19.07.03.14.06.21.09.12.05.24.1.37.14.08.03.15.05.23.07.13.04.27.07.41.1.08.02.15.03.23.05.17.03.35.05.53.07.05,0,.1.01.16.02.23.02.47.03.72.03.07,0,.13,0,.2,0,.18,0,.36,0,.55-.02.09,0,.19-.02.28-.03.16-.02.33-.04.49-.06.1-.01.2-.03.3-.05.16-.03.33-.06.49-.1.1-.02.2-.04.3-.07.18-.04.36-.09.54-.15.08-.02.17-.05.25-.07.26-.08.52-.17.78-.27.04-.02.09-.04.13-.06.22-.09.43-.18.64-.28.09-.04.18-.09.27-.14.16-.08.32-.17.48-.25.1-.06.2-.11.29-.17.15-.09.3-.18.44-.28.1-.06.19-.13.29-.19.15-.1.29-.21.43-.32.08-.07.17-.13.25-.2.17-.14.34-.29.5-.45.05-.04.1-.09.14-.13.2-.2.39-.41.58-.62.06-.07.12-.15.18-.23.12-.15.24-.3.35-.46.07-.09.13-.19.19-.29.1-.15.19-.3.28-.46.06-.11.12-.21.17-.32.08-.16.16-.33.23-.49.05-.11.09-.22.14-.33.07-.19.13-.39.19-.58.03-.1.06-.19.09-.29.08-.29.14-.6.19-.91.01-.08.02-.17.03-.25.03-.24.05-.48.06-.73,0-.13,0-.26,0-.39,0-.21,0-.43-.02-.65,0-.14-.02-.29-.04-.44-.02-.22-.05-.44-.09-.66-.03-.15-.05-.3-.08-.45-.05-.24-.11-.49-.18-.74-.04-.14-.07-.28-.11-.42-.1-.34-.23-.69-.37-1.05-.02-.05-.04-.11-.06-.16-2.76,9.03-11.22,2.07-30.48-12.17-22.64-16.74-48.59-11.05-65.48-2.35-19.97,10.28-28.46,19.37-41.01,21C15.44,43.09,4.94,20.68,1.27,11.25.27,12.83-.18,14.73.07,16.64c.03.23.06.46.1.71,0,.06.02.11.03.17.04.22.08.45.12.68.01.07.02.13.04.2.05.28.11.57.18.87.01.05.03.11.04.16.06.26.12.52.19.78.02.08.04.16.06.23.08.32.17.64.27.97.01.04.03.09.04.13.09.29.19.59.29.89.03.09.06.18.09.27.12.35.24.7.38,1.05,0,.02.01.03.02.05.13.34.27.69.42,1.04.04.1.08.19.12.29.15.35.31.7.47,1.05.01.03.02.05.04.08.18.37.37.76.57,1.14.05.1.1.2.16.3.18.34.37.68.57,1.02.03.06.06.11.1.17.23.39.47.78.72,1.18.06.1.13.2.19.3.22.34.44.68.67,1.02.05.08.1.16.16.23.28.4.57.81.88,1.22.07.09.14.19.22.28.26.34.53.68.81,1.03.08.09.15.19.23.28.34.41.69.82,1.06,1.24.08.08.15.17.23.25.31.35.64.7.97,1.04.1.1.2.21.3.31.41.42.82.83,1.26,1.25.07.07.14.13.21.2.38.36.78.72,1.19,1.08.12.11.24.21.36.32.48.42.97.84,1.48,1.25.05.04.1.08.15.12.47.38.96.76,1.46,1.14.14.11.28.21.43.32.56.42,1.13.83,1.73,1.25,2.41,1.67,4.76,2.71,7.1,3.24.53.12,1.06.22,1.59.28.69.09,1.39.14,2.08.15,6.66.06,13.27-3.6,20.52-8.29.24-.16.49-.32.74-.48.82-.54,1.64-1.08,2.48-1.64,1.33-.88,2.67-1.78,4.05-2.69.49-.32.98-.65,1.48-.97.65-.42,1.3-.85,1.97-1.27.39-.25.79-.5,1.19-.75,1.02-.64,2.06-1.28,3.12-1.9,1.35-.8,2.73-1.58,4.14-2.33,6.59-3.51,13.85-6.38,22.08-7.43,5.14-.66,10.07-.57,14.76.06,3.29.44,6.45,1.15,9.48,2.05,2.04.61,4.01,1.3,5.92,2.07.7.28,1.38.57,2.06.87.87.38,1.73.78,2.58,1.19,1.16.56,2.31,1.14,3.41,1.74,5.22,2.83,9.77,6.04,13.55,9.04,1.08.86,2.09,1.7,3.04,2.51.47.41.93.8,1.37,1.19,3.52,3.11,5.95,5.63,7.11,6.71,0,0,0,0,0,0Z"/><path class="cls-4" d="m163.64,27.14C148.34,9.76,122.67-4.18,90.95,1.15c-14.75,2.48-26.29,8.28-35.47,13.8-2.54,2.53-3.85,4.76-4.02,6.72-.6,6.58,11.96-4.07,28.22-11.36,16.26-7.29,40.65-8.8,56.31,2.3,14.34,10.16,24.9,23.32,28.54,15.58-.29-.35-.56-.7-.88-1.05Z"/><path class="cls-2" d="m242,15.26c-21.36-9.96-58.79-12.06-50.86,2.47,7.93,14.53,26.64,29.72-19.52,54.61-38.82,20.92-63.78-.66-59.22-23.38-11.73,17.49-18.19,38.12-18.6,59.25,3.13,5.86,7.35,11.25,13.01,15.21,22.68,15.85,23.34-21.8,54.61-30.17,31.27-8.37,47.78,17.61,73.76-3.74s28.18-64.29,6.83-74.25Z"/><path class="cls-2" d="m188.18,24.37c3.66,6.45,9.56,14.5,4.83,23.3s-23.01,25.54-33.69,23.23-7.6-8.81,7.6-15.63,14.91-20.81,4.7-31.27-8.71-12.88,3.53-15.52,7.77,6.63,13.03,15.89Z"/><path class="cls-6" d="m307.26,77.49c-2.87,11.92-9.22,23.46-20.01,26.78-17.17,5.28-36.17,33.36-37.82,47.72-1.65,14.37-21.47,26.92-47.89,28.9-23.3,1.75-61.11,5.66-91.12-12.12,30.48,49.46,94.2,67.32,145.4,39.65,47.22-25.52,67.88-81.17,51.44-130.93Z"/><path class="cls-1" d="m255.82,208.42c37.46-20.25,58.2-59.46,56.97-99.65-6.93,31.37-24.49,76.1-62.7,93.75-43.6,20.15-83.93,4.09-116.15-6.61,33.5,27.85,81.57,34.29,121.87,12.51Z"/></g></svg>