<svg width="39" height="32" viewBox="0 0 39 32" fill="none" xmlns="http://www.w3.org/2000/svg">
    <path
        d="M36.259 12.0863V19.3381H33.8417V24.1726H31.4244V26.5899H26.5899V29.0072H12.0863V26.5899H7.25177V24.1726H4.8345V19.3381H2.41724V12.0863H4.8345V7.25177H7.25177V4.8345H12.0863V2.41724H26.5899V4.8345H31.4244V7.25177H33.8417V12.0863H36.259Z"
        fill="#F8FFAF" />
    <path d="M7.2515 21.7554H4.83423V24.1727H7.2515V21.7554Z" fill="#448700" />
    <path d="M33.8416 21.7554H31.4243V24.1727H33.8416V21.7554Z" fill="#448700" />
    <path d="M12.0862 24.1727H7.25171V26.5899H12.0862V24.1727Z" fill="#448700" />
    <path d="M31.4244 24.1727H26.5898V26.5899H31.4244V24.1727Z" fill="#448700" />
    <path d="M26.59 26.5899H12.0864V29.0072H26.59V26.5899Z" fill="#448700" />
    <path d="M12.0862 4.83453H7.25171V7.2518H12.0862V4.83453Z" fill="white" />
    <path d="M4.81142 9.66907H7.25171V7.25179H4.81142V9.66907Z" fill="white" />
    <path d="M12.0634 4.83453H14.5037V2.41727L12.0634 2.41727V4.83453Z" fill="white" />
    <path d="M16.9209 16.9209H14.5037V19.3382H16.9209V16.9209Z" fill="#304C0F" />
    <path d="M24.1724 16.9209H21.7551V19.3382H24.1724V16.9209Z" fill="#304C0F" />
    <path d="M21.7552 19.3381H16.9207V21.7554H21.7552V19.3381Z" fill="#304C0F" />
    <path d="M24.1905 12.0822L24.1763 14.4822L26.5935 14.4965L26.6077 12.0966L24.1905 12.0822Z"
        fill="#304C0F" />
    <path d="M29.0071 9.66907H26.5898V12.0863H29.0071V9.66907Z" fill="#304C0F" />
    <path d="M31.4244 14.5036H26.5898V16.9209H31.4244V14.5036Z" fill="#662014" />
    <path d="M14.487 12.085L12.0698 12.0993L12.0841 14.4993L14.5013 14.4849L14.487 12.085Z"
        fill="#304C0F" />
    <path d="M12.0921 9.66907H9.6748V12.0863H12.0921V9.66907Z" fill="#304C0F" />
    <path d="M12.0919 14.5036H7.25732V16.9209H12.0919V14.5036Z" fill="#662014" />
    <path d="M7.2515 4.83453H4.83423V7.2518H7.2515V4.83453Z" fill="#304C0F" />
    <path d="M7.2515 24.1727H4.83423V26.5899H7.2515V24.1727Z" fill="#304C0F" />
    <path d="M12.0862 26.5899H7.25171V29.0072H12.0862V26.5899Z" fill="#304C0F" />
    <path d="M31.4244 26.5899H26.5898V29.0072H31.4244V26.5899Z" fill="#304C0F" />
    <path d="M31.4244 2.41724H26.5898V4.8345H31.4244V2.41724Z" fill="#304C0F" />
    <path d="M12.0862 2.41724H7.25171V4.8345H12.0862V2.41724Z" fill="#304C0F" />
    <path d="M26.59 29.0072H12.0864V31.4245H26.59V29.0072Z" fill="#304C0F" />
    <path d="M26.59 0H12.0864V2.41726H26.59V0Z" fill="#304C0F" />
    <path d="M4.8345 7.25177H2.41724V12.0863H4.8345V7.25177Z" fill="#304C0F" />
    <path d="M4.8345 19.3381H2.41724V24.1727H4.8345V19.3381Z" fill="#304C0F" />
    <path d="M2.41727 12.0863H0V19.3381H2.41727V12.0863Z" fill="#304C0F" />
    <path d="M38.6763 12.0863H36.259V19.3381H38.6763V12.0863Z" fill="#304C0F" />
    <path d="M31.4243 7.25177H33.8416V4.83451H31.4243V7.25177Z" fill="#304C0F" />
    <path d="M31.4243 26.5899H33.8416V24.1726H31.4243V26.5899Z" fill="#304C0F" />
    <path d="M33.8418 12.0863H36.259V7.25177H33.8418V12.0863Z" fill="#304C0F" />
    <path d="M33.8418 24.1727H36.259V19.3381H33.8418V24.1727Z" fill="#304C0F" />
    <path
        d="M36.259 12.0863V19.3381H33.8417V24.1726H31.4244V26.5899H26.5899V29.0072H12.0863V26.5899H7.25177V24.1726H4.8345V19.3381H2.41724V12.0863H4.8345V7.25177H7.25177V4.8345H12.0863V2.41724H26.5899V4.8345H31.4244V7.25177H33.8417V12.0863H36.259Z"
        fill="#FFE617" />
    <path d="M7.2515 21.7554H4.83423V24.1727H7.2515V21.7554Z" fill="#AF7923" />
    <path d="M33.8416 21.7554H31.4243V24.1727H33.8416V21.7554Z" fill="#AF7923" />
    <path d="M12.0862 24.1727H7.25171V26.5899H12.0862V24.1727Z" fill="#AF7923" />
    <path d="M31.4244 24.1727H26.5898V26.5899H31.4244V24.1727Z" fill="#AF7923" />
    <path d="M26.59 26.5899H12.0864V29.0072H26.59V26.5899Z" fill="#AF7923" />
    <path d="M12.0862 4.83453H7.25171V7.2518H12.0862V4.83453Z" fill="#F8FFAF" />
    <path d="M4.81142 9.66907H7.25171V7.25179H4.81142V9.66907Z" fill="#F8FFAF" />
    <path d="M12.0634 4.83453H14.5037V2.41727L12.0634 2.41727V4.83453Z" fill="#F8FFAF" />
    <path d="M7.2515 4.83453H4.83423V7.2518H7.2515V4.83453Z" fill="#FF6417" />
    <path d="M7.2515 24.1727H4.83423V26.5899H7.2515V24.1727Z" fill="#991900" />
    <path d="M12.0862 26.5899H7.25171V29.0072H12.0862V26.5899Z" fill="#991900" />
    <path d="M31.4244 26.5899H26.5898V29.0072H31.4244V26.5899Z" fill="#662014" />
    <path d="M31.4244 2.41724H26.5898V4.8345H31.4244V2.41724Z" fill="#991900" />
    <path d="M12.0862 2.41724H7.25171V4.8345H12.0862V2.41724Z" fill="#FF6417" />
    <path d="M26.59 29.0072H12.0864V31.4245H26.59V29.0072Z" fill="#991900" />
    <path d="M26.59 0H12.0864V2.41726H26.59V0Z" fill="#991900" />
    <path d="M4.8345 7.25177H2.41724V12.0863H4.8345V7.25177Z" fill="#FF6417" />
    <path d="M4.8345 19.3381H2.41724V24.1727H4.8345V19.3381Z" fill="#991900" />
    <path d="M2.41727 12.0863H0V19.3381H2.41727V12.0863Z" fill="#FF6417" />
    <path d="M31.4243 7.25177H33.8416V4.83451H31.4243V7.25177Z" fill="#991900" />
    <path d="M31.4243 26.5899H33.8416V24.1726H31.4243V26.5899Z" fill="#662014" />
    <path d="M33.8418 12.0863H36.259V7.25177H33.8418V12.0863Z" fill="#991900" />
    <path d="M33.8418 24.1727H36.259V19.3381H33.8418V24.1727Z" fill="#662014" />
    <path d="M36.259 19.3381H38.6763V12.0863H36.259V19.3381Z" fill="#991900" />
    <path d="M24.1724 12.0863H21.7551V19.3381H24.1724V12.0863Z" fill="#662014" />
    <path d="M16.9209 12.0863H14.5037V19.3381H16.9209V12.0863Z" fill="#AF7923" />
    <path d="M21.7552 19.3381H16.9207V21.7554H21.7552V19.3381Z" fill="#AF7923" />
    <path d="M33.8416 14.5036H31.4243V16.9209H33.8416V14.5036Z" fill="#662014" />
    <path d="M29.0071 14.5036H26.5898V16.9209H29.0071V14.5036Z" fill="#AF7923" />
    <path d="M31.4243 12.0863H29.0071V14.5036H31.4243V12.0863Z" fill="#AF7923" />
    <path d="M12.086 14.5036H9.6687V16.9209H12.086V14.5036Z" fill="#662014" />
    <path d="M7.2515 14.5036H4.83423V16.9209H7.2515V14.5036Z" fill="#AF7923" />
    <path d="M9.66897 12.0863H7.25171V14.5036H9.66897V12.0863Z" fill="#AF7923" />
</svg>