<svg width="41" height="32" viewBox="0 0 41 32" fill="none" xmlns="http://www.w3.org/2000/svg">
    <path
        d="M37.7258 12.2377V19.5803H35.2108V24.4754H32.6958V26.923H27.6657V29.3705H12.5755V26.923H7.54545V24.4754H5.03041V19.5803H2.51538V12.2377H5.03041V7.34255H7.54545V4.895H12.5755V2.44745H27.6657V4.895H32.6958V7.34255H35.2108V12.2377H37.7258Z"
        fill="#F8FFAF" />
    <path d="M7.54506 22.028H5.03003V24.4756H7.54506V22.028Z" fill="#448700" />
    <path d="M35.2106 22.028H32.6956V24.4756H35.2106V22.028Z" fill="#448700" />
    <path d="M12.5752 24.4755H7.54517V26.923H12.5752V24.4755Z" fill="#448700" />
    <path d="M32.6956 24.4755H27.6655V26.923H32.6956V24.4755Z" fill="#448700" />
    <path d="M27.6654 26.9232H12.5752V29.3707H27.6654V26.9232Z" fill="#448700" />
    <path d="M12.5752 4.89508H7.54517V7.34263H12.5752V4.89508Z" fill="white" />
    <path d="M5.00618 9.79028H7.54517V7.34273H5.00618V9.79028Z" fill="white" />
    <path d="M12.5513 4.89508H15.0903V2.44753L12.5513 2.44753V4.89508Z" fill="white" />
    <path d="M30.1805 7.34253H25.1504V9.79008H30.1805V7.34253Z" fill="#304C0F" />
    <path d="M35.2105 9.79028H30.1804V12.2378H35.2105V9.79028Z" fill="#304C0F" />
    <path d="M10.0603 9.79028H15.0903V7.34273H10.0603V9.79028Z" fill="#304C0F" />
    <path d="M5.02999 12.2376H10.0601V9.79006H5.02999V12.2376Z" fill="#304C0F" />
    <path d="M7.54506 14.6853H5.03003V17.1329H7.54506V14.6853Z" fill="#304C0F" />
    <path d="M12.5751 14.6853H10.0601V17.1329H12.5751V14.6853Z" fill="#662014" />
    <path d="M10.0602 12.2376H7.54517V14.6852H10.0602V12.2376Z" fill="#304C0F" />
    <path d="M10.0602 14.6853H7.54517V17.1329H10.0602V14.6853Z" fill="white" />
    <path d="M10.0602 17.1329H7.54517V19.5804H10.0602V17.1329Z" fill="#662014" />
    <path d="M30.1806 14.6853H27.6655V17.1329H30.1806V14.6853Z" fill="#304C0F" />
    <path d="M35.2106 14.6853H32.6956V17.1329H35.2106V14.6853Z" fill="#662014" />
    <path d="M32.6955 12.2376H30.1804V14.6852H32.6955V12.2376Z" fill="#304C0F" />
    <path d="M32.6955 14.6853H30.1804V17.1329H32.6955V14.6853Z" fill="white" />
    <path d="M32.6955 17.1329H30.1804V19.5804H32.6955V17.1329Z" fill="#662014" />
    <path d="M7.54506 4.89508H5.03003V7.34263H7.54506V4.89508Z" fill="#304C0F" />
    <path d="M7.54506 24.4755H5.03003V26.923H7.54506V24.4755Z" fill="#304C0F" />
    <path d="M12.5752 26.9232H7.54517V29.3707H12.5752V26.9232Z" fill="#304C0F" />
    <path d="M32.6956 26.9232H27.6655V29.3707H32.6956V26.9232Z" fill="#304C0F" />
    <path d="M32.6956 2.44745H27.6655V4.895H32.6956V2.44745Z" fill="#304C0F" />
    <path d="M12.5752 2.44745H7.54517V4.895H12.5752V2.44745Z" fill="#304C0F" />
    <path d="M27.6654 29.3706H12.5752V31.8182H27.6654V29.3706Z" fill="#304C0F" />
    <path d="M27.6654 0H12.5752V2.44755H27.6654V0Z" fill="#304C0F" />
    <path d="M5.03041 7.34253H2.51538V12.2376H5.03041V7.34253Z" fill="#304C0F" />
    <path d="M5.03041 19.5804H2.51538V24.4755H5.03041V19.5804Z" fill="#304C0F" />
    <path d="M2.51503 12.2376H0V19.5803H2.51503V12.2376Z" fill="#304C0F" />
    <path d="M32.6952 7.34253H35.2102V4.89498H32.6952V7.34253Z" fill="#304C0F" />
    <path d="M32.6952 26.9232H35.2102V24.4756H32.6952V26.9232Z" fill="#304C0F" />
    <path d="M35.2106 12.2376H37.7256V7.34251H35.2106V12.2376Z" fill="#304C0F" />
    <path d="M35.2106 24.4755H37.7256V19.5804H35.2106V24.4755Z" fill="#304C0F" />
    <path d="M37.7257 19.5804H40.2407V12.2378H37.7257V19.5804Z" fill="#304C0F" />
    <path d="M17.6054 19.5804H15.0903V22.028H17.6054V19.5804Z" fill="#304C0F" />
    <path d="M25.1503 19.5804H22.6353V22.028H25.1503V19.5804Z" fill="#304C0F" />
    <path d="M22.6353 17.1329H17.6052V19.5804H22.6353V17.1329Z" fill="#304C0F" />
    <path d="M22.6353 22.028H17.6052V24.4756H22.6353V22.028Z" fill="#304C0F" />
    <path
        d="M37.7258 12.2377V19.5803H35.2108V24.4754H32.6958V26.923H27.6657V29.3705H12.5755V26.923H7.54545V24.4754H5.03041V19.5803H2.51538V12.2377H5.03041V7.34255H7.54545V4.895H12.5755V2.44745H27.6657V4.895H32.6958V7.34255H35.2108V12.2377H37.7258Z"
        fill="#FFE617" />
    <path d="M7.54506 22.028H5.03003V24.4756H7.54506V22.028Z" fill="#AF7923" />
    <path d="M35.2106 22.028H32.6956V24.4756H35.2106V22.028Z" fill="#AF7923" />
    <path d="M12.5752 24.4755H7.54517V26.923H12.5752V24.4755Z" fill="#AF7923" />
    <path d="M32.6956 24.4755H27.6655V26.923H32.6956V24.4755Z" fill="#AF7923" />
    <path d="M27.6654 26.9232H12.5752V29.3707H27.6654V26.9232Z" fill="#AF7923" />
    <path d="M12.5752 4.89508H7.54517V7.34263H12.5752V4.89508Z" fill="#F8FFAF" />
    <path d="M5.00618 9.79028H7.54517V7.34273H5.00618V9.79028Z" fill="#F8FFAF" />
    <path d="M12.5513 4.89508H15.0903V2.44753L12.5513 2.44753V4.89508Z" fill="#F8FFAF" />
    <path d="M7.54506 14.6853H5.03003V17.1329H7.54506V14.6853Z" fill="#AF7923" />
    <path d="M12.5751 14.6853H10.0601V17.1329H12.5751V14.6853Z" fill="#662014" />
    <path d="M10.0602 12.2376H7.54517V14.6852H10.0602V12.2376Z" fill="#AF7923" />
    <path d="M10.0602 14.6853H7.54517V17.1329H10.0602V14.6853Z" fill="white" />
    <path d="M10.0602 17.1329H7.54517V19.5804H10.0602V17.1329Z" fill="#662014" />
    <path d="M30.1806 14.6853H27.6655V17.1329H30.1806V14.6853Z" fill="#AF7923" />
    <path d="M35.2106 14.6853H32.6956V17.1329H35.2106V14.6853Z" fill="#662014" />
    <path d="M32.6955 12.2376H30.1804V14.6852H32.6955V12.2376Z" fill="#AF7923" />
    <path d="M32.6955 14.6853H30.1804V17.1329H32.6955V14.6853Z" fill="white" />
    <path d="M32.6955 17.1329H30.1804V19.5804H32.6955V17.1329Z" fill="#662014" />
    <path d="M7.54506 4.89508H5.03003V7.34263H7.54506V4.89508Z" fill="#FF6417" />
    <path d="M7.54506 24.4755H5.03003V26.923H7.54506V24.4755Z" fill="#991900" />
    <path d="M12.5752 26.9232H7.54517V29.3707H12.5752V26.9232Z" fill="#991900" />
    <path d="M32.6956 26.9232H27.6655V29.3707H32.6956V26.9232Z" fill="#662014" />
    <path d="M32.6956 2.44745H27.6655V4.895H32.6956V2.44745Z" fill="#991900" />
    <path d="M12.5752 2.44745H7.54517V4.895H12.5752V2.44745Z" fill="#FF6417" />
    <path d="M27.6654 29.3706H12.5752V31.8182H27.6654V29.3706Z" fill="#991900" />
    <path d="M27.6654 0H12.5752V2.44755H27.6654V0Z" fill="#991900" />
    <path d="M5.03041 7.34253H2.51538V12.2376H5.03041V7.34253Z" fill="#FF6417" />
    <path d="M5.03041 19.5804H2.51538V24.4755H5.03041V19.5804Z" fill="#991900" />
    <path d="M2.51503 12.2376H0V19.5803H2.51503V12.2376Z" fill="#FF6417" />
    <path d="M32.6952 7.34253H35.2102V4.89498H32.6952V7.34253Z" fill="#991900" />
    <path d="M32.6952 26.9232H35.2102V24.4756H32.6952V26.9232Z" fill="#662014" />
    <path d="M35.2106 12.2376H37.7256V7.34251H35.2106V12.2376Z" fill="#991900" />
    <path d="M35.2106 24.4755H37.7256V19.5804H35.2106V24.4755Z" fill="#662014" />
    <path d="M37.7257 19.5804H40.2407V12.2378H37.7257V19.5804Z" fill="#991900" />
    <path d="M17.6054 17.1329H15.0903V19.5804H17.6054V17.1329Z" fill="#AF7923" />
    <path d="M15.0902 19.5804H12.5752V22.028H15.0902V19.5804Z" fill="#AF7923" />
    <path d="M25.1503 17.1329H22.6353V19.5804H25.1503V17.1329Z" fill="#662014" />
    <path d="M27.6654 19.5804H25.1504V22.028H27.6654V19.5804Z" fill="#662014" />
    <path d="M30.1805 12.2376H25.1504V14.6852H30.1805V12.2376Z" fill="#662014" />
    <path d="M35.2105 9.79028H30.1804V12.2378H35.2105V9.79028Z" fill="#662014" />
    <path d="M10.0603 14.6853H15.0903V12.2378H10.0603V14.6853Z" fill="#AF7923" />
    <path d="M5.02999 12.2376H10.0601V9.79006H5.02999V12.2376Z" fill="#AF7923" />
    <path d="M22.6353 14.6853H17.6052V17.1329H22.6353V14.6853Z" fill="#AF7923" />
</svg>