<svg width="40" height="32" viewBox="0 0 40 32" fill="none" xmlns="http://www.w3.org/2000/svg">
<path d="M36.8458 12.282V19.6512H34.3894V24.5639H31.933V27.0203H27.0202V29.4767H12.2819V27.0203H7.36908V24.5639H4.91269V19.6512H2.4563V12.282H4.91269V7.36921H7.36908V4.91282H12.2819V2.45642H27.0202V4.91282H31.933V7.36921H34.3894V12.282H36.8458Z" fill="#F8FFAF"/>
<path d="M7.36899 22.1075H4.9126V24.5639H7.36899V22.1075Z" fill="#448700"/>
<path d="M34.3895 22.1075H31.9331V24.5639H34.3895V22.1075Z" fill="#448700"/>
<path d="M12.2822 24.564H7.36938V27.0203H12.2822V24.564Z" fill="#448700"/>
<path d="M31.933 24.564H27.0203V27.0203H31.933V24.564Z" fill="#448700"/>
<path d="M27.0203 27.0203H12.282V29.4767H27.0203V27.0203Z" fill="#448700"/>
<path d="M12.2822 4.91284H7.36938V7.36923H12.2822V4.91284Z" fill="white"/>
<path d="M4.8896 9.82556H7.36938V7.36917H4.8896V9.82556Z" fill="white"/>
<path d="M12.2587 4.91284H14.7385V2.45644L12.2587 2.45644V4.91284Z" fill="white"/>
<path d="M14.7384 17.1947H12.282V19.6511H14.7384V17.1947Z" fill="#304C0F"/>
<path d="M27.0204 17.1947H24.564V19.6511H27.0204V17.1947Z" fill="#304C0F"/>
<path d="M24.5638 19.6511H22.1074V24.5639H24.5638V19.6511Z" fill="#304C0F"/>
<path d="M17.1949 19.6511H14.7385V24.5639H17.1949V19.6511Z" fill="#304C0F"/>
<path d="M22.1076 24.564H17.1948V27.0203H22.1076V24.564Z" fill="#304C0F"/>
<path d="M24.5641 14.7383H14.7385V17.1947H24.5641V14.7383Z" fill="#304C0F"/>
<path d="M17.1949 17.1947H14.7385V19.6511H17.1949V17.1947Z" fill="#448700"/>
<path d="M24.5638 17.1947H22.1074V19.6511H24.5638V17.1947Z" fill="#448700"/>
<path d="M22.1076 17.1947H17.1948V24.5639H22.1076V17.1947Z" fill="white"/>
<path d="M27.0391 12.2742L27.0247 14.713L29.481 14.7276L29.4955 12.2888L27.0391 12.2742Z" fill="#304C0F"/>
<path d="M31.933 9.82556H29.4766V12.2819H31.933V9.82556Z" fill="#304C0F"/>
<path d="M31.933 14.7383H29.4766V17.1947H31.933V14.7383Z" fill="#662014"/>
<path d="M12.2618 12.2843L9.80542 12.2988L9.81989 14.7376L12.2762 14.7231L12.2618 12.2843Z" fill="#304C0F"/>
<path d="M9.83139 9.82556H7.375V12.2819H9.83139V9.82556Z" fill="#304C0F"/>
<path d="M9.83162 14.7383H7.36938V17.1947H9.83162V14.7383Z" fill="#662014"/>
<path d="M7.36899 4.91284H4.9126V7.36923H7.36899V4.91284Z" fill="#304C0F"/>
<path d="M7.36899 24.564H4.9126V27.0203H7.36899V24.564Z" fill="#304C0F"/>
<path d="M12.2822 27.0203H7.36938V29.4767H12.2822V27.0203Z" fill="#304C0F"/>
<path d="M31.933 27.0203H27.0203V29.4767H31.933V27.0203Z" fill="#304C0F"/>
<path d="M31.933 2.45642H27.0203V4.91282H31.933V2.45642Z" fill="#304C0F"/>
<path d="M12.2822 2.45642H7.36938V4.91282H12.2822V2.45642Z" fill="#304C0F"/>
<path d="M27.0203 29.4767H12.282V31.9331H27.0203V29.4767Z" fill="#304C0F"/>
<path d="M27.0203 0H12.282V2.45639H27.0203V0Z" fill="#304C0F"/>
<path d="M4.91269 7.36914H2.4563V12.2819H4.91269V7.36914Z" fill="#304C0F"/>
<path d="M4.91269 19.6511H2.4563V24.5639H4.91269V19.6511Z" fill="#304C0F"/>
<path d="M2.45639 12.282H0V19.6512H2.45639V12.282Z" fill="#304C0F"/>
<path d="M39.3023 12.282H36.8459V19.6512H39.3023V12.282Z" fill="#304C0F"/>
<path d="M31.9333 7.36914H34.3896V4.91275H31.9333V7.36914Z" fill="#304C0F"/>
<path d="M31.9333 27.0203H34.3896V24.5639H31.9333V27.0203Z" fill="#304C0F"/>
<path d="M34.3896 12.282H36.8459V7.36921H34.3896V12.282Z" fill="#304C0F"/>
<path d="M34.3896 24.564H36.8459V19.6512H34.3896V24.564Z" fill="#304C0F"/>
<path d="M36.8458 12.282V19.6512H34.3894V24.5639H31.933V27.0203H27.0202V29.4767H12.2819V27.0203H7.36908V24.5639H4.91269V19.6512H2.4563V12.282H4.91269V7.36921H7.36908V4.91282H12.2819V2.45642H27.0202V4.91282H31.933V7.36921H34.3894V12.282H36.8458Z" fill="#FFE617"/>
<path d="M7.36899 22.1075H4.9126V24.5639H7.36899V22.1075Z" fill="#AF7923"/>
<path d="M34.3895 22.1075H31.9331V24.5639H34.3895V22.1075Z" fill="#AF7923"/>
<path d="M12.2822 24.564H7.36938V27.0203H12.2822V24.564Z" fill="#AF7923"/>
<path d="M31.933 24.564H27.0203V27.0203H31.933V24.564Z" fill="#AF7923"/>
<path d="M27.0203 27.0203H12.282V29.4767H27.0203V27.0203Z" fill="#AF7923"/>
<path d="M12.2822 4.91284H7.36938V7.36923H12.2822V4.91284Z" fill="#F8FFAF"/>
<path d="M4.8896 9.82556H7.36938V7.36917H4.8896V9.82556Z" fill="#F8FFAF"/>
<path d="M12.2587 4.91284H14.7385V2.45644L12.2587 2.45644V4.91284Z" fill="#F8FFAF"/>
<path d="M17.1949 17.1947H14.7385V19.6511H17.1949V17.1947Z" fill="#AF7923"/>
<path d="M22.1076 19.6511H17.1948V22.1075H22.1076V19.6511Z" fill="#662014"/>
<path d="M24.5638 17.1947H22.1074V19.6511H24.5638V17.1947Z" fill="#662014"/>
<path d="M22.1076 14.7383H17.1948V17.1947H22.1076V14.7383Z" fill="#AF7923"/>
<path d="M22.1076 17.1947H17.1948V19.6511H22.1076V17.1947Z" fill="white"/>
<path d="M4.93634 12.2753L4.90723 17.1821L7.36357 17.1967L7.39269 12.2899L4.93634 12.2753Z" fill="#AF7923"/>
<path d="M14.7384 12.282H12.282V17.1948H14.7384V12.282Z" fill="#662014"/>
<path d="M12.2822 9.82556H7.36938V12.2819H12.2822V9.82556Z" fill="#AF7923"/>
<path d="M12.2822 17.1947H7.36938V19.6511H12.2822V17.1947Z" fill="#662014"/>
<path d="M12.2822 12.282H7.36938V17.1948H12.2822V12.282Z" fill="white"/>
<path d="M24.5872 12.2756L24.5581 17.1825L27.0145 17.1971L27.0436 12.2902L24.5872 12.2756Z" fill="#AF7923"/>
<path d="M34.3895 12.282H31.9331V17.1948H34.3895V12.282Z" fill="#662014"/>
<path d="M31.933 9.82556H27.0203V12.2819H31.933V9.82556Z" fill="#AF7923"/>
<path d="M31.933 17.1947H27.0203V19.6511H31.933V17.1947Z" fill="#662014"/>
<path d="M31.933 12.282H27.0203V17.1948H31.933V12.282Z" fill="white"/>
<path d="M7.36899 4.91284H4.9126V7.36923H7.36899V4.91284Z" fill="#FF6417"/>
<path d="M7.36899 24.564H4.9126V27.0203H7.36899V24.564Z" fill="#991900"/>
<path d="M12.2822 27.0203H7.36938V29.4767H12.2822V27.0203Z" fill="#991900"/>
<path d="M31.933 27.0203H27.0203V29.4767H31.933V27.0203Z" fill="#662014"/>
<path d="M31.933 2.45642H27.0203V4.91282H31.933V2.45642Z" fill="#991900"/>
<path d="M12.2822 2.45642H7.36938V4.91282H12.2822V2.45642Z" fill="#FF6417"/>
<path d="M27.0203 29.4767H12.282V31.9331H27.0203V29.4767Z" fill="#991900"/>
<path d="M27.0203 0H12.282V2.45639H27.0203V0Z" fill="#991900"/>
<path d="M4.91269 7.36914H2.4563V12.2819H4.91269V7.36914Z" fill="#FF6417"/>
<path d="M4.91269 19.6511H2.4563V24.5639H4.91269V19.6511Z" fill="#991900"/>
<path d="M2.45639 12.282H0V19.6512H2.45639V12.282Z" fill="#FF6417"/>
<path d="M39.3023 12.282H36.8459V19.6512H39.3023V12.282Z" fill="#991900"/>
<path d="M31.9333 7.36914H34.3896V4.91275H31.9333V7.36914Z" fill="#991900"/>
<path d="M31.9333 27.0203H34.3896V24.5639H31.9333V27.0203Z" fill="#662014"/>
<path d="M34.3896 12.282H36.8459V7.36921H34.3896V12.282Z" fill="#991900"/>
<path d="M34.3896 24.564H36.8459V19.6512H34.3896V24.564Z" fill="#662014"/>
</svg>
