<svg xmlns="http://www.w3.org/2000/svg" width="34" height="34" fill="none"><g fill="#fff" clip-path="url(#a)"><path d="M34 17c0 9.358-7.648 17-17.013 17C7.635 33.987 0 26.345 0 16.974 0 7.642 7.661 0 17 0c9.352 0 16.987 7.655 16.987 17H34ZM17 1.887c-8.335.014-15.138 6.811-15.124 15.14 0 8.301 6.829 15.099 15.137 15.099 8.295 0 15.098-6.824 15.098-15.113 0-8.315-6.816-15.139-15.111-15.126Z"/><path d="M14.741 19.798v-4.936c0-.977.555-1.782 1.453-2.138 1.123-.45 2.483.145 2.893 1.28.106.277.159.58.159.884v9.886c0 1.452-1.268 2.495-2.695 2.244-1.057-.185-1.836-1.135-1.836-2.244v-4.963l.026-.013ZM19.311 9.266c0 1.28-1.03 2.322-2.311 2.322-1.294 0-2.338-1.029-2.325-2.322a2.308 2.308 0 0 1 2.312-2.323 2.324 2.324 0 0 1 2.325 2.31v.013Z"/></g><defs><clipPath id="a"><path fill="#fff" d="M0 0h34v34H0z"/></clipPath></defs></svg>