<svg xmlns="http://www.w3.org/2000/svg" width="22" height="27" fill="none"><g fill="#fff" stroke="#fff" stroke-miterlimit="10" clip-path="url(#a)"><path d="M16.54 15.64v8.46c0 1-.57 1.72-1.29 2.01-.26.1-.53.14-.8.14H2.54c-.99 0-1.81-.68-2-1.66-.03-.14-.04-.29-.04-.43V7.07c0-1.01.67-1.85 1.63-2.03.15-.03.3-.04.45-.04h11.84c1.08 0 1.9.75 2.07 1.65.03.14.04.29.04.43v8.56h.01Zm-1.43-.02V7.09c0-.42-.25-.67-.68-.67H2.56c-.36 0-.61.24-.63.6v17.12c0 .43.25.68.67.68h11.83c.44 0 .69-.24.69-.68v-8.52h-.01Z"/><path d="M21.11 11.13v8.44c0 .71-.23 1.31-.79 1.75-.36.29-.78.43-1.24.43-.4 0-.71-.29-.72-.69a.69.69 0 0 1 .67-.73c.33-.02.55-.18.62-.46.02-.07.02-.14.02-.2V2.59c0-.34-.17-.58-.46-.65-.07-.02-.14-.02-.22-.02H7.16c-.41 0-.65.22-.67.63-.03.41-.34.71-.74.7-.4-.02-.69-.34-.68-.75.02-1.08.9-1.97 1.98-2h12.01c.74 0 1.32.33 1.72.94.22.34.32.71.32 1.11v8.57l.01.01Z"/></g><defs><clipPath id="a"><path fill="#fff" d="M0-.01h21.62v26.76H0z"/></clipPath></defs></svg>