<svg xmlns="http://www.w3.org/2000/svg" width="28" height="27" fill="none"><path fill="#fff" d="M27.31 2.562C27.31 1.118 26.192 0 24.768 0H2.852A2.533 2.533 0 0 0 .3 2.552v21.857C.3 25.882 1.408 27 2.881 27c7.3 0 14.588 0 21.887-.01.208 0 .425-.03.633-.079 1.137-.287 1.899-1.286 1.899-2.492V2.562h.01ZM2.92 24.547c-.118 0-.147-.02-.147-.02s-.02-.03-.02-.158V2.581c0-.108.02-.128.128-.128H24.65c.148 0 .178.02.187.02 0 0 .02.04.02.187V24.41c0 .128-.01.138-.138.138H2.92Z"/><path fill="#fff" d="M22.543 8.723c-.485-.494-.96-.979-1.454-1.454-.376-.376-.94-.376-1.335 0l-7.912 7.912-3.956-3.985c-.416-.416-.98-.416-1.395 0L5.106 12.58c-.415.416-.415.98 0 1.395l6.053 6.082c.07.07.149.129.228.178a.884.884 0 0 0 .455.129c.257 0 .504-.119.731-.337l9.95-9.94c.415-.414.425-.968.04-1.364h-.02Z"/></svg>