<svg xmlns="http://www.w3.org/2000/svg" viewBox="0 0 198.18 195.4"><defs><clipPath id="clippath"><path d="M189.35 103.76c-7.26-.55-13.53 17.52-18.96 28.37-2.78-1.76-6.29-3.54-10.74-5.13-14.24-5.11-25.16-4.18-28.92-3.62-19.95 1.6-41.52 23.23-55.62 25.25-14.93 2.14-32.15-4.77-21.33-33.02C64.61 87.35 86.26 68.27 76.46 34.7 66.68 1.11 16.67 24.5 34.33 57.37 36.84 62.04 40 72 31.62 86.25c-8.38 14.25-22.5 34.2-21.52 58.1.98 23.9 25.13 54.39 60.83 50.74 35.7-3.65 39.44-34.15 65.92-40.58 17.93-4.35 27.29 10.31 39.28 10.98 11 .61 17.7-17.13 20.14-27.7 5.18-22.47-1.23-33.61-6.92-34.04Z" style="fill:none"/></clipPath><style>.cls-1,.cls-2{fill:#fff}.cls-3{stroke:#b35357;stroke-miterlimit:10;stroke-width:1.51px;fill:none}.cls-4{fill:none;mix-blend-mode:multiply}.cls-2,.cls-9{opacity:.2}.cls-10{fill:#dedede}.cls-11{fill:#4f3226}.cls-12{fill:#e49da7}.cls-15{fill:#664131}</style></defs><g style="isolation:isolate;fill:none"><g id="_Слой_2"><g id="_Червяки"><g style="clip-path:url(#clippath);fill:none"><path class="cls-12" d="M189.35 103.76c-7.26-.55-13.53 17.52-18.96 28.37-2.78-1.76-6.29-3.54-10.74-5.13-14.24-5.11-25.16-4.18-28.92-3.62-19.95 1.6-41.52 23.23-55.62 25.25-14.93 2.14-32.15-4.77-21.33-33.02C64.61 87.35 86.26 68.27 76.46 34.7 66.68 1.11 16.67 24.5 34.33 57.37 36.84 62.04 40 72 31.62 86.25c-8.38 14.25-22.5 34.2-21.52 58.1.98 23.9 25.13 54.39 60.83 50.74 35.7-3.65 39.44-34.15 65.92-40.58 17.93-4.35 27.29 10.31 39.28 10.98 11 .61 17.7-17.13 20.14-27.7 5.18-22.47-1.23-33.61-6.92-34.04Z"/><path class="cls-3" d="M24.39 80.34s-3.21 19.17 15.47 21.84c18.68 2.67 31.62-10.96 31.62-10.96M5.48 132c4.69 13.52 35.57 23.41 51.56 1.43M54.46 142.04s1.55 4.19-.52 12.4c-2.06 8.21-12.89 21.01-37.89 19.08M60.65 146.19s5.41 3.66 9.02 11.39c3.61 7.73 6.84 30.43-21.84 36.95M70.19 147.5s8.51.9 14.95 6.21c6.44 5.31 18.04 28.74-5.16 45.65M81.99 144.74s9.33-4.58 19.64-1.43c10.31 3.15 22.17 19.48 5.16 35.95"/><path class="cls-3" d="M96.48 136.37c0-.29 12.12-6.88 21.4-4.67s21.91 17.08 6.19 33.8"/><path class="cls-3" d="M124.75 122.92s14.55-.52 19.94 7.12c6.44 9.13 4.73 19.62-6.79 31.24M146.23 122.92c.6-.12 12.2 2.54 16.58 7.45s6.89 19.4-5.32 27.13"/><path class="cls-3" d="M168.34 129.68s9.03 5.84 11.94 15.5-3.19 18.68-18.49 18.12"/><path class="cls-3" d="M170.08 131.25s7.99 1.95 14.39 8.37c6.7 6.72 6.96 18.92-1.72 24.88"/><path class="cls-3" d="M169.52 129.88c.69-.08 6.27-7.57 16.33-2.33 10.05 5.23 9.62 14.41 8.33 20.33"/><path class="cls-3" d="M173.04 123.92s2.84-5.07 11.08-5.07 14.35 6.28 14.52 14.01M177.42 115.55s3.44-6.12 10.14-5.39c6.7.72 9.54 4.19 11.08 11.84"/><path class="cls-3" d="M182.18 107.42c.31 0 3.62-2.51 7.53-1.85 2.86.48 6.19 2.9 8.16 8.86"/><path class="cls-9" d="M6 120.47s6.19 51.01 43.57 60.97 53.88-17.78 65.99-31.57c12.12-13.79 35.83-17.21 49.24-1.85 13.4 15.36 21.4 12.94 30.42 5.69 9.02-7.25 10.05 34.03 9.54 35.25-.52 1.22-58.52 19.86-58.52 19.86l-76.56 15.9s-84.04-21.25-83.26-26.09S6 120.47 6 120.47Z"/><path class="cls-9" d="M73.71 80.29c.17.48-27.5 31.4-28.7 53.46-1.2 22.06 12.2 25.13 24.58 21.98 12.37-3.15 10.83-26.26 10.83-26.26l-6.7-49.19ZM152.16 123.84c.95.08 16.33 4.75 22.6 12.88 6.27 8.13 12.03-2.42 9.02-12.56s-3.27-13.77 1.89-19.97c5.16-6.2-33.51 19.64-33.51 19.64Z"/><path class="cls-9" d="M7.67 137.89s4.51 46.37 41.5 52.29c36.99 5.92 48.85-6.76 63.93-21.98 15.08-15.22 29-21.88 49.11-8.22 20.11 13.66 18.43 13.53 18.43 13.53L62.58 215.82s-90.22-17.79-88.81-19.73c1.42-1.93 33.9-58.21 33.9-58.21Z"/><path class="cls-9" d="M60.3 107.66c-.26.48-11.08 9.66-12.55 25.04-1.46 15.38 14.61 25.76 21.14 18.12 6.53-7.65 7.91-14.73 7.91-14.73l-16.5-28.42ZM170.39 132.13c.26 0 1.28 1.03 3.86 3.13 2.58 2.09 9.02-5.49 6.27-12.58-2.75-7.08.17-13 .17-13l-10.3 22.45Z"/></g><path class="cls-2" d="M35.9 92.52c-8.53 10.92-21.14 33.15-15.12 50.79 6.01 17.64 19.25 29.72 29.22 28.91 9.97-.81.34-9.02-11-23.83-11.34-14.81-4.3-39.45.86-50.4 5.16-10.95-1.22-8.97-3.95-5.47ZM159.89 130.16c-13.79-4.12-26.94-8.81-46.53 2.78s-30.55 14.49-31.19 23.31c-.64 8.82 2.96 7.65 25.65-10.06 22.68-17.71 39.01-16.47 46.92-13.33 7.91 3.14 9.31-1.46 5.16-2.7ZM190 104.5c-4.03-.82-6.39 3.5-6.07 10.69.32 7.19 2.11 12.32 2.9 15.52.79 3.2 8.18-3.02 7.93-11.35-.26-8.33-2.37-14.37-4.76-14.85Z"/><path class="cls-2" d="M28.81 112.29c-3.76 0-10.44 21.74-3.74 34.96 6.7 13.22 11.47 17.45 15.34 14.19 3.87-3.26-12.5-16.41-12.5-25.65s4.64-23.5.9-23.5ZM111.69 138.37c-7.26.56-25 9.66-23.97 14.13 1.03 4.47 28.66-14.49 23.97-14.13ZM145.59 128.03c-5.81-1.32-14.05-.81-15.42.85-1.37 1.65 7.43.2 13.4.16s14.87 4.39 15.68 3.1c.82-1.29-10.65-3.42-13.66-4.11ZM189.33 106.57c-2.55.35-4.52 4.19-2.63 6.8 1.89 2.62 5.59 5.88 3.57 8.49s-4.28 4.83-1.86 6.48c2.42 1.65 5.04-4.87 5.21-8.33.17-3.46-1.1-13.89-4.29-13.45Z"/><path class="cls-12" d="M42.06 22.88c-9.58 7.25-14.8 26.25-30.52 26.37-15.72.12-10.05 13.41 3.48 22.46 13.53 9.06 39.96 10.51 49.75-3.26 9.8-13.77 8.85-36.32 8.85-36.32l-31.56-9.25Z"/><path class="cls-9" d="M58.5 61.04s-.6 7.33 6.27 7.41c0 0-5.33-1.37-6.27-7.41Z"/><path d="M18.89 68.45C8.26 66.07 3.92 61.48 2.33 57.18c1.17 4.46 5.96 10.02 12.7 14.53 5.36 3.59 12.73 5.97 20.3 6.7 18.72-3.72 23.91-11.92 23.91-11.92s-16.97 7.19-40.34 1.96Z" style="opacity:.04"/><path class="cls-9" d="M66.65 30.31c-4.89-2.52-13.22 3.04-13.22 3.04l-7.99 1.45s1.47-8.81-4.71-10.8C33.9 30.16 29.08 41.97 20.2 46.95c3 4.42 9.64 6.45 17.16 2.74 0 0 10.48 15.62 23.72 7 13.23-8.61 10.47-23.87 5.58-26.39Z"/><path class="cls-1" d="M42.08 33.97c-1.62 8.98-9.48 15.47-17.57 14.48-8.1-1.02-13.35-9.16-11.73-18.14 1.62-9.01 9.5-15.5 17.58-14.48 8.08 1.02 13.33 9.13 11.71 18.14Z"/><g class="cls-4"><path class="cls-10" d="M32.18 16.2c5.74 2.41 9.12 8.98 7.83 16.19-1.53 8.49-8.94 14.6-16.55 13.64-5.26-.64-9.24-4.47-10.7-9.57 1.08 6.28 5.58 11.2 11.76 11.98 8.08.99 15.95-5.5 17.57-14.48 1.5-8.32-2.86-15.84-9.9-17.77Z"/></g><path class="cls-1" d="M68.79 41.64c-2.46 8.26-10.54 13.73-18.05 12.18-7.53-1.54-11.62-9.48-9.16-17.74 2.46-8.26 10.54-13.7 18.07-12.15 7.51 1.51 11.62 9.45 9.15 17.71Z"/><g class="cls-4"><path class="cls-10" d="M61.32 24.4c5.16 2.67 7.65 9.04 5.7 15.64-2.33 7.79-9.95 12.91-17.02 11.48-4.88-.99-8.24-4.85-9.1-9.71.37 5.93 4.09 10.84 9.84 12.01 7.51 1.54 15.59-3.93 18.05-12.18 2.28-7.62-1.04-14.94-7.47-17.24Z"/></g><path d="M35.69 34.29c0 5.21-3.45 9.42-7.69 9.42s-7.68-4.21-7.68-9.42S23.75 24.9 28 24.9s7.69 4.22 7.69 9.39Z" style="fill:#422787"/><path d="M48.56 44.46c-.09 0-.15-.03-.23-.06-.28-.09-.42-.32-.35-.55.89-3.23 3.03-8.87 7.32-10.2 1.95-.64 4.09-.29 6.32 1.02.28.17.33.5.15.7-.21.23-.57.29-.84.15-1.9-1.14-3.66-1.43-5.22-.93-2.21.7-4.2 3.08-5.63 6.66 2.72-2.91 5.23-4.28 7.5-4.01 3.38.41 4.75 4.19 4.83 4.33.09.26-.09.55-.4.64-.32.06-.66-.09-.75-.35-.02-.03-1.22-3.31-3.85-3.63-2.27-.26-5.18 1.83-8.35 6.02-.12.15-.32.23-.51.23Z"/><path class="cls-1" d="M34.19 33.47c0 2.53-1.64 4.57-3.64 4.57s-3.64-2.04-3.64-4.57 1.62-4.59 3.64-4.59 3.64 2.06 3.64 4.59Z"/><path class="cls-15" d="M48.12 23.35c4.25-6.65 25.39-19.67 41.31-10.06 15.92 9.61-1.13 9.21-8.53 4.82 0 0 1.84 7.02-4.28 3.63-6.12-3.39-13.45-7.94-22.96-1.81-2.73 1.76-5.55 3.42-5.55 3.42Z"/><path class="cls-11" d="M76.63 21.74c6.12 3.39 4.28-3.63 4.28-3.63 7.06 4.18 22.88 4.74 10.48-3.57 1.45 1.73 2.77 3.89 1.09 4.34-2.9.78-8.83-1.87-14.37-4.77 0 0 2.64 4.71 0 5.62-2.64.91-3.93-3.62-9.86-4.41-5.93-.78-13.51 1.16-20.13 8.04 0 0 2.82-1.65 5.55-3.42 9.5-6.13 16.84-1.58 22.96 1.81Z"/><path class="cls-15" d="M42.51 20.74C40.96 13.12 28.77-3.31 10.3.59c-18.47 3.91-8.12 8.01.43 6.27 0 0-4.98 4.58 2.01 3.36 6.99-1.21 19.13-3.29 25.81 5.52 1.92 2.53 3.96 5 3.96 5Z"/><path class="cls-11" d="M33.67 9.6c-6.03-4.03-11.68-3.14-17.62-2.13-5.93 1.01 1.5-4.11 1.5-4.11S15.1 4.41 8.14 4.73c-4.77.22-4.13-1.54-1.5-3.26-13.27 3.61-3.83 7 4.08 5.39 0 0-4.98 4.58 2.01 3.36 6.99-1.21 19.13-3.29 25.81 5.52 1.92 2.53 3.96 5 3.96 5s-2.81-7.12-8.84-11.14Z"/><path d="M9.48 67.38c1.64 1.5 3.5 2.97 5.55 4.34 2.88 1.93 6.35 3.51 10.12 4.67 22.48 1.17 34.09-9.89 34.09-9.89-27.89 15.03-49.62.97-49.75.88Z" style="fill:#fef0ea"/></g></g></g></svg>