<svg id="_Слой_2" xmlns="http://www.w3.org/2000/svg" viewBox="0 0 196.13 177.07"><defs><pattern id="New_Pattern_Swatch_120" x="0" y="0" width="34.29" height="34.29" patternTransform="rotate(15.44 2334.658 -17570.574) scale(.71)" patternUnits="userSpaceOnUse"><path class="cls-4" d="M0 0h34.29v34.29H0z"/><path style="fill:#3d9ae2" d="M0 0h34.29v34.29H0z"/></pattern><pattern id="New_Pattern_Swatch_122" x="0" y="0" width="34.29" height="34.29" patternTransform="rotate(15.44 2334.658 -17570.574) scale(.71)" patternUnits="userSpaceOnUse"><path class="cls-4" d="M0 0h34.29v34.29H0z"/><path style="fill:#1a6fb0" d="M0 0h34.29v34.29H0z"/></pattern><clipPath id="clippath"><path class="cls-4" d="M187.3 85.43c-7.26-.55-13.53 17.52-18.96 28.37-2.78-1.76-6.29-3.54-10.74-5.13-14.24-5.11-25.16-4.18-28.92-3.62-19.95 1.6-41.52 23.23-55.62 25.25-14.93 2.14-32.15-4.77-21.33-33.02 10.83-28.26 32.48-47.34 22.68-80.91-9.8-33.57-59.8-10.18-42.15 22.69 2.51 4.67 5.67 14.63-2.71 28.88-8.38 14.25-22.5 34.2-21.52 58.1.98 23.9 25.13 54.39 60.83 50.74 35.7-3.65 39.44-34.15 65.92-40.58 17.93-4.35 27.29 10.31 39.28 10.98 11 .61 17.7-17.13 20.14-27.7 5.18-22.47-1.23-33.61-6.92-34.04Z"/></clipPath><style>.cls-1,.cls-2{fill:#fff}.cls-3{stroke:#b35357;stroke-miterlimit:10;stroke-width:1.51px}.cls-3,.cls-4{fill:none}.cls-2,.cls-7{opacity:.2}.cls-8{fill:#e49da7}.cls-9{fill:#008cc4}.cls-11{fill:#383838}.cls-15{fill:url(#New_Pattern_Swatch_122)}</style></defs><g id="_Червяки"><g style="clip-path:url(#clippath);fill:none"><path class="cls-8" d="M187.3 85.43c-7.26-.55-13.53 17.52-18.96 28.37-2.78-1.76-6.29-3.54-10.74-5.13-14.24-5.11-25.16-4.18-28.92-3.62-19.95 1.6-41.52 23.23-55.62 25.25-14.93 2.14-32.15-4.77-21.33-33.02 10.83-28.26 32.48-47.34 22.68-80.91-9.8-33.57-59.8-10.18-42.15 22.69 2.51 4.67 5.67 14.63-2.71 28.88-8.38 14.25-22.5 34.2-21.52 58.1.98 23.9 25.13 54.39 60.83 50.74 35.7-3.65 39.44-34.15 65.92-40.58 17.93-4.35 27.29 10.31 39.28 10.98 11 .61 17.7-17.13 20.14-27.7 5.18-22.47-1.23-33.61-6.92-34.04Z"/><path class="cls-3" d="M22.34 62.01s-3.21 19.17 15.47 21.84c18.68 2.67 31.62-10.96 31.62-10.96M3.44 113.67c4.69 13.52 35.57 23.41 51.56 1.43M52.41 123.71s1.55 4.19-.52 12.4C49.83 144.32 39 157.12 14 155.19M58.6 127.86s5.41 3.66 9.02 11.39c3.61 7.73 6.84 30.43-21.84 36.95M68.14 129.17s8.51.9 14.95 6.21c6.44 5.31 18.04 28.74-5.16 45.65M79.95 126.42s9.33-4.58 19.64-1.43c10.31 3.15 22.17 19.48 5.16 35.95"/><path class="cls-3" d="M94.43 118.04c0-.29 12.12-6.88 21.4-4.67s21.91 17.08 6.19 33.8"/><path class="cls-3" d="M122.7 104.6s14.55-.52 19.94 7.12c6.44 9.13 4.73 19.62-6.79 31.24M144.19 104.59c.6-.12 12.2 2.54 16.58 7.45s6.89 19.4-5.32 27.13"/><path class="cls-3" d="M166.29 111.35s9.03 5.84 11.94 15.5-3.19 18.68-18.49 18.12"/><path class="cls-3" d="M168.03 112.92s7.99 1.95 14.39 8.37c6.7 6.72 6.96 18.92-1.72 24.88"/><path class="cls-3" d="M167.47 111.55c.69-.08 6.27-7.57 16.33-2.33 10.05 5.23 9.62 14.41 8.33 20.33"/><path class="cls-3" d="M170.99 105.59s2.84-5.07 11.08-5.07 14.35 6.28 14.52 14.01M175.38 97.22s3.44-6.12 10.14-5.39c6.7.72 9.54 4.19 11.08 11.84"/><path class="cls-3" d="M180.14 89.09c.31 0 3.62-2.51 7.53-1.85 2.86.48 6.19 2.9 8.16 8.86"/><path class="cls-7" d="M3.95 102.14s6.19 51.01 43.57 60.97 53.88-17.78 65.99-31.57c12.12-13.79 35.83-17.21 49.24-1.85 13.4 15.36 21.4 12.94 30.42 5.69 9.02-7.25 10.05 34.03 9.54 35.25-.52 1.22-58.52 19.86-58.52 19.86l-76.56 15.9s-84.04-21.25-83.26-26.09 19.58-78.16 19.58-78.16Z"/><path class="cls-7" d="M71.66 61.96c.17.48-27.5 31.4-28.7 53.46-1.2 22.06 12.2 25.13 24.58 21.98 12.37-3.15 10.83-26.26 10.83-26.26l-6.7-49.19ZM150.11 105.51c.95.08 16.33 4.75 22.6 12.88 6.27 8.13 12.03-2.42 9.02-12.56s-3.27-13.77 1.89-19.97c5.16-6.2-33.51 19.64-33.51 19.64Z"/><path class="cls-7" d="M5.63 119.56s4.51 46.37 41.5 52.29c36.99 5.92 48.85-6.76 63.93-21.98 15.08-15.22 29-21.88 49.11-8.22 20.11 13.66 18.43 13.53 18.43 13.53L60.54 197.49s-90.22-17.79-88.81-19.73c1.42-1.93 33.9-58.21 33.9-58.21Z"/><path class="cls-7" d="M58.26 89.33c-.26.48-11.08 9.66-12.55 25.04-1.46 15.38 14.61 25.76 21.14 18.12 6.53-7.65 7.91-14.73 7.91-14.73l-16.5-28.42ZM168.34 113.8c.26 0 1.28 1.03 3.86 3.13 2.58 2.09 9.02-5.49 6.27-12.58-2.75-7.08.17-13 .17-13l-10.3 22.45Z"/></g><path class="cls-2" d="M33.85 74.2c-8.53 10.92-21.14 33.15-15.12 50.79 6.01 17.64 19.25 29.72 29.22 28.91 9.97-.81.34-9.02-11-23.83-11.34-14.81-4.3-39.45.86-50.4 5.16-10.95-1.22-8.97-3.95-5.47ZM157.85 111.83c-13.79-4.12-26.94-8.81-46.53 2.78s-30.55 14.49-31.19 23.31c-.64 8.82 2.96 7.65 25.65-10.06 22.68-17.71 39.01-16.47 46.92-13.33 7.91 3.14 9.31-1.46 5.16-2.7ZM187.95 86.17c-4.03-.82-6.39 3.5-6.07 10.69.32 7.19 2.11 12.32 2.9 15.52.79 3.2 8.18-3.02 7.93-11.35-.26-8.33-2.37-14.37-4.76-14.85Z"/><path class="cls-2" d="M26.77 93.96c-3.76 0-10.44 21.74-3.74 34.96 6.7 13.22 11.47 17.45 15.34 14.19 3.87-3.26-12.5-16.41-12.5-25.65s4.64-23.5.9-23.5ZM109.64 120.05c-7.26.56-25 9.66-23.97 14.13 1.03 4.47 28.66-14.49 23.97-14.13ZM143.54 109.7c-5.81-1.32-14.05-.81-15.42.85-1.37 1.65 7.43.2 13.4.16s14.87 4.39 15.68 3.1c.82-1.29-10.65-3.42-13.66-4.11ZM187.29 88.24c-2.55.35-4.52 4.19-2.63 6.8 1.89 2.62 5.59 5.88 3.57 8.49s-4.28 4.83-1.86 6.48c2.42 1.65 5.04-4.87 5.21-8.33.17-3.46-1.1-13.89-4.29-13.45Z"/><path class="cls-8" d="M40.02 4.55C30.44 11.8 25.22 30.8 9.5 30.92c-15.72.12-10.05 13.41 3.48 22.46 13.53 9.06 39.96 10.51 49.75-3.26 9.8-13.77 8.85-36.32 8.85-36.32L40.02 4.55Z"/><path class="cls-7" d="M56.45 42.72s-.6 7.33 6.27 7.41c0 0-5.33-1.37-6.27-7.41Z"/><path d="M16.84 50.12C6.22 47.74 1.87 43.15.28 38.85c1.17 4.46 5.96 10.02 12.7 14.53 5.36 3.59 12.73 5.97 20.3 6.7C52 56.36 57.19 48.16 57.19 48.16s-16.97 7.19-40.34 1.96Z" style="opacity:.04"/><path d="M7.43 49.05c1.64 1.5 3.5 2.97 5.55 4.34 2.88 1.93 6.35 3.51 10.12 4.67 22.48 1.17 34.09-9.89 34.09-9.89-27.89 15.03-49.62.97-49.75.88Z" style="fill:#fef0ea"/><path class="cls-7" d="M65.34 25.34c-4.89-2.52-19.09.18-19.09.18L42.83 22s-4.97-4.19-11.16-6.18c-5.8 5.23-2.51 4.51-6.81 7.21-.82.91-1.66 1.77-2.55 2.57 3.22 3.89 9.52 5.49 16.6 2 0 0 10.48 15.62 23.72 7 4.92-3.2 7.23-4.95 7.94-6.02l.15-1.01c-.52-.83-3.03-1.03-5.38-2.24Z"/><path class="cls-1" d="M20.75 6.25c-.7.75-2.89 17.08 7.71 19.01s12.7-2.82 14.28-5.7S23.03 3.79 20.75 6.25ZM69.67 25.5c.01 1.03-9.32 14.6-18.47 8.92s-7.52-10.61-6.76-13.81 25.19 1.54 25.23 4.89Z"/><path class="cls-9" d="M31.66 20.39c-1.27 2.68-4.07 4.01-6.25 2.98s-2.93-4.04-1.66-6.71c1.26-2.66 4.05-3.99 6.24-2.96s2.93 4.04 1.67 6.7ZM58.36 30.5c-1.27 2.68-4.07 4.01-6.25 2.98s-2.93-4.04-1.66-6.71c1.26-2.66 4.05-3.99 6.24-2.96s2.93 4.04 1.67 6.7Z"/><path d="M28.61 19.17c-.38.81-1.23 1.21-1.89.9s-.89-1.22-.5-2.03 1.23-1.21 1.89-.9.89 1.22.51 2.03ZM55.24 29.38c-.38.81-1.23 1.21-1.89.9s-.89-1.22-.5-2.03 1.23-1.21 1.89-.9.89 1.22.51 2.03Z"/><path class="cls-11" d="M46.28 16.97S43.61 20.34 44.2 22s7.95-2.08 15.63.02S72.77 28 75.92 27.47c0 0-3.85-5.98-7.9-8.61s-21.75-1.89-21.75-1.89ZM44.98 15.06s-.02 4.3-1.52 5.22-4.91-6.59-12.22-9.75C23.92 7.37 17.4 7.12 15.26 4.74c0 0 6.74-2.27 11.55-1.79s18.17 12.1 18.17 12.1Z"/><path d="M49.26 106.39c.79.35 1.57.69 2.35 1.01 1.02.19 2.05.28 3.09.33 1.6.08 3.2.15 4.8.08.79-.03 1.57-.1 2.35-.25 5.59-3.92 3.33-11.59 3.33-11.59C69.1 90.59 65 82.92 65 82.92c1.15-3.38-.47-6.03-.47-6.03-24.09.46-34.69-13.86-34.69-13.86-2.26.49-3.68 8.39-3.68 8.39-7.01-.13-9.21 8.61-9.21 8.61-3-2.27-2.93 7.39-2.93 7.39l-3.27 2.24c1.21 7.54 19.14 11.52 19.14 11.52l.64.56c2.47 2.15 5.76 3.19 8.99 2.65 1.08-.18 2.2-.22 3.36-.12 1.31.11 2.68.22 3.92.7.91.35 1.68.88 2.45 1.42Z" style="fill:url(#New_Pattern_Swatch_120)"/><path class="cls-15" d="M42.89 104.27c.32.03.63.05.95.08-1.47-.26-2.83-.21-4.02 0 .99-.14 2.01-.16 3.07-.08ZM65.01 82.91s-18.55 4.16-38.86-11.5c-7-.12-9.2 8.61-9.2 8.61a1.93 1.93 0 0 0-.47-.27c3.53 3.22 13.67 11.26 30.25 14.86 4.52.98 13.22 2.68 18.46 1.36 3.92-5.38-.18-13.05-.18-13.05Z"/></g></svg>