<svg xmlns="http://www.w3.org/2000/svg" viewBox="0 0 201.09 191.33"><defs><clipPath id="clippath"><path d="M192.26 99.7c-7.26-.55-13.53 17.52-18.96 28.37-2.78-1.76-6.29-3.54-10.74-5.13-14.24-5.11-25.16-4.18-28.92-3.62-19.95 1.6-41.52 23.23-55.62 25.25-14.93 2.14-32.15-4.77-21.33-33.02 10.83-28.26 32.48-47.34 22.68-80.91-9.8-33.57-59.8-10.18-42.15 22.69 2.51 4.67 5.67 14.63-2.71 28.88-8.38 14.25-22.5 34.2-21.52 58.1.98 23.9 25.13 54.39 60.83 50.74 35.7-3.65 39.44-34.15 65.92-40.58 17.93-4.35 27.29 10.31 39.28 10.98 11 .61 17.7-17.13 20.14-27.7 5.18-22.47-1.23-33.61-6.92-34.04Z" style="fill:none"/></clipPath><style>.cls-2,.cls-3{fill:#fff}.cls-4,.cls-5{fill:#78492a}.cls-6{fill:#b692db}.cls-7{stroke:#b35357;stroke-miterlimit:10;stroke-width:1.51px}.cls-7,.cls-8{fill:none}.cls-5,.cls-8{mix-blend-mode:multiply}.cls-15,.cls-3{opacity:.2}.cls-5{opacity:.5}.cls-16{fill:#dedede}.cls-17{fill:#e49da7}.cls-21{fill:#085400}</style></defs><g style="isolation:isolate;fill:none"><g id="_Слой_2"><g id="_Червяки"><g style="clip-path:url(#clippath);fill:none"><path class="cls-17" d="M192.26 99.7c-7.26-.55-13.53 17.52-18.96 28.37-2.78-1.76-6.29-3.54-10.74-5.13-14.24-5.11-25.16-4.18-28.92-3.62-19.95 1.6-41.52 23.23-55.62 25.25-14.93 2.14-32.15-4.77-21.33-33.02 10.83-28.26 32.48-47.34 22.68-80.91-9.8-33.57-59.8-10.18-42.15 22.69 2.51 4.67 5.67 14.63-2.71 28.88-8.38 14.25-22.5 34.2-21.52 58.1.98 23.9 25.13 54.39 60.83 50.74 35.7-3.65 39.44-34.15 65.92-40.58 17.93-4.35 27.29 10.31 39.28 10.98 11 .61 17.7-17.13 20.14-27.7 5.18-22.47-1.23-33.61-6.92-34.04Z"/><path class="cls-7" d="M27.3 76.28s-3.21 19.17 15.47 21.84c18.68 2.67 31.62-10.96 31.62-10.96M8.4 127.93c4.69 13.52 35.57 23.41 51.56 1.43M57.38 137.98s1.55 4.19-.52 12.4c-2.06 8.21-12.89 21.01-37.89 19.08M63.56 142.12s5.41 3.66 9.02 11.39c3.61 7.73 6.84 30.43-21.84 36.95M73.1 143.44s8.51.9 14.95 6.21c6.44 5.31 18.04 28.74-5.16 45.65M84.91 140.68s9.33-4.58 19.64-1.43c10.31 3.15 22.17 19.48 5.16 35.95"/><path class="cls-7" d="M99.39 132.31c0-.29 12.12-6.88 21.4-4.67s21.91 17.08 6.19 33.8"/><path class="cls-7" d="M127.66 118.86s14.55-.52 19.94 7.12c6.44 9.13 4.73 19.62-6.79 31.24M149.15 118.85c.6-.12 12.2 2.54 16.58 7.45s6.89 19.4-5.32 27.13"/><path class="cls-7" d="M171.25 125.62s9.03 5.84 11.94 15.5-3.19 18.68-18.49 18.12"/><path class="cls-7" d="M172.99 127.19s7.99 1.95 14.39 8.37c6.7 6.72 6.96 18.92-1.72 24.88"/><path class="cls-7" d="M172.43 125.82c.69-.08 6.27-7.57 16.33-2.33 10.05 5.23 9.62 14.41 8.33 20.33"/><path class="cls-7" d="M175.96 119.86s2.84-5.07 11.08-5.07 14.35 6.28 14.52 14.01M180.34 111.49s3.44-6.12 10.14-5.39c6.7.72 9.54 4.19 11.08 11.84"/><path class="cls-7" d="M185.1 103.36c.31 0 3.62-2.51 7.53-1.85 2.86.48 6.19 2.9 8.16 8.86"/><path class="cls-15" d="M8.91 116.4s6.19 51.01 43.57 60.97 53.88-17.78 65.99-31.57c12.12-13.79 35.83-17.21 49.24-1.85 13.4 15.36 21.4 12.94 30.42 5.69 9.02-7.25 10.05 34.03 9.54 35.25-.52 1.22-58.52 19.86-58.52 19.86l-76.56 15.9s-84.04-21.25-83.26-26.09S8.91 116.4 8.91 116.4Z"/><path class="cls-15" d="M76.62 76.22c.17.48-27.5 31.4-28.7 53.46-1.2 22.06 12.2 25.13 24.58 21.98 12.37-3.15 10.83-26.26 10.83-26.26l-6.7-49.19ZM155.07 119.78c.95.08 16.33 4.75 22.6 12.88 6.27 8.13 12.03-2.42 9.02-12.56s-3.27-13.77 1.89-19.97c5.16-6.2-33.51 19.64-33.51 19.64Z"/><path class="cls-15" d="M10.59 133.83s4.51 46.37 41.5 52.29c36.99 5.92 48.85-6.76 63.93-21.98 15.08-15.22 29-21.88 49.11-8.22 20.11 13.66 18.43 13.53 18.43 13.53L65.5 211.76s-90.22-17.79-88.81-19.73c1.42-1.93 33.9-58.21 33.9-58.21Z"/><path class="cls-15" d="M63.22 103.6c-.26.48-11.08 9.66-12.55 25.04-1.46 15.38 14.61 25.76 21.14 18.12 6.53-7.65 7.91-14.73 7.91-14.73l-16.5-28.42ZM173.3 128.06c.26 0 1.28 1.03 3.86 3.13 2.58 2.09 9.02-5.49 6.27-12.58-2.75-7.08.17-13 .17-13l-10.3 22.45Z"/></g><path class="cls-3" d="M38.81 88.46c-8.53 10.92-21.14 33.15-15.12 50.79 6.01 17.64 19.25 29.72 29.22 28.91 9.97-.81.34-9.02-11-23.83-11.34-14.81-4.3-39.45.86-50.4 5.16-10.95-1.22-8.97-3.95-5.47ZM162.81 126.1c-13.79-4.12-26.94-8.81-46.53 2.78s-30.55 14.49-31.19 23.31c-.64 8.82 2.96 7.65 25.65-10.06 22.68-17.71 39.01-16.47 46.92-13.33 7.91 3.14 9.31-1.46 5.16-2.7ZM192.92 100.44c-4.03-.82-6.39 3.5-6.07 10.69.32 7.19 2.11 12.32 2.9 15.52.79 3.2 8.18-3.02 7.93-11.35-.26-8.33-2.37-14.37-4.76-14.85Z"/><path class="cls-3" d="M31.73 108.23c-3.76 0-10.44 21.74-3.74 34.96 6.7 13.22 11.47 17.45 15.34 14.19 3.87-3.26-12.5-16.41-12.5-25.65s4.64-23.5.9-23.5ZM114.6 134.31c-7.26.56-25 9.66-23.97 14.13 1.03 4.47 28.66-14.49 23.97-14.13ZM148.5 123.97c-5.81-1.32-14.05-.81-15.42.85-1.37 1.65 7.43.2 13.4.16s14.87 4.39 15.68 3.1c.82-1.29-10.65-3.42-13.66-4.11ZM192.25 102.51c-2.55.35-4.52 4.19-2.63 6.8 1.89 2.62 5.59 5.88 3.57 8.49s-4.28 4.83-1.86 6.48c2.42 1.65 5.04-4.87 5.21-8.33.17-3.46-1.1-13.89-4.29-13.45Z"/><path class="cls-17" d="M44.98 18.82c-9.58 7.25-14.8 26.25-30.52 26.37-15.72.12-10.05 13.41 3.48 22.46 13.53 9.06 39.96 10.51 49.75-3.26 9.8-13.77 8.85-36.32 8.85-36.32l-31.56-9.25Z"/><path class="cls-4" d="M60.25 1.18c-5.21-3.17-12.93.66-16.91 4.17-3.68 3.24-5.98 8.18-6.16 13.12-.3 1.95.05 3.94.34 5.96.09.67.96.56 1.19.06 1.66-3.69 7.77-3.42 11.16-4.34 3.38-.92 6.5-2.5 9.16-4.78 4.24-3.63 6.97-10.7 1.23-14.2Z"/><path class="cls-5" d="M59.02 15.38c1.04-.89 1.99-1.99 2.75-3.19.49-1.86.76-3.81.83-5.82.02-.73-1.06-.96-1.28-.24-.07.22-.13.44-.19.66-3.91 4.74-7.24 9.5-13.68 10.85-3.49.73-9.7-.09-8.47-5.1.69-2.79 2.38-4.72 3.99-6.85-3.46 3.24-5.61 8-5.79 12.77-.3 1.95.05 3.94.34 5.96.09.67.96.56 1.19.06 1.66-3.69 7.77-3.42 11.16-4.34 3.38-.92 6.5-2.5 9.16-4.78Z"/><path class="cls-4" d="M93.35 23.84c-1.02-2.23-2.37-4.33-3.86-6.26-2.2-2.84-4.94-5.24-7.69-7.52-3.12-2.59-6.37-5.02-10.23-6.36-5.31-1.85-11.14.22-13.34 5.46-2.41 5.72-.92 13.66 1.1 19.25 4.28 11.83 19.33 21.86 31.51 14.84 7.98-4.6 6.62-12.45 2.52-19.4Z"/><path class="cls-5" d="M92.1 37.85c-2.11 2.25-10.06 4.82-7.49-1.05.85-1.94 1.31-3.91 1.32-5.93.65-3.82-.37-8.08-3.22-10.14-.05-.04-.11-.07-.16-.11-1.45-1.51-3.33-2.23-5.6-1.21-4.9 2.21-2.42 9.41 2.81 7.64.2-.07.37-.21.37-.44 0-1.36-.34-2.08-1.43-2.9 0 0-.02 0 0 .01.96 2.18.55 2.92-1.24 2.22-.56-.12-1.03-.36-1.39-.67-1.07-1.46-.89-3.62 1.08-4.95.15-.1.29-.18.45-.25 1.37-.29 3 .21 4.12.94 1.51.98 2.25 2.4 2.73 3.94.5 2.3.23 4.91-.23 6.95-.96 4.26-5.06 5.32-8.77 4.18-2.71-.83-5.15-2.94-7.11-4.9-3.61-3.58-5.81-8.37-6.76-13.32-.97-5.1-.51-11.96 4.24-14.68-3.29.57-6.18 2.61-7.58 5.96-2.41 5.72-.92 13.66 1.1 19.25 4.28 11.83 19.33 21.86 31.51 14.84 6.76-3.89 6.82-10.12 4.19-16.15.64 3.8-.25 7.91-2.93 10.75Z"/><path class="cls-15" d="M69.57 26.25c-4.89-2.52-13.22 3.04-13.22 3.04l-7.99 1.45s1.47-8.81-4.71-10.8C36.82 26.1 32 37.91 23.12 42.89c3 4.42 9.64 6.45 17.16 2.74 0 0 10.48 15.62 23.72 7 13.23-8.61 10.47-23.87 5.58-26.39Z"/><path class="cls-17" d="M36.33 89.45s-3.25-8.75-12-8.75c-9.85 0-28.03 8.82-22.42 26.69s31.58 3.92 31.58 3.92"/><path class="cls-17" d="M56.03 89.18s-21.72-12.61-29.61 5.43 5.26 25.23 17.52 24.35 12.09-29.78 12.09-29.78Z"/><path class="cls-3" d="M30.68 83.82c-2-1.77-6.31-2.56-12.42-.26s-6.77 4.53-5.78 5.91 6.96 2.69 11.89.46 8.01-4.6 6.31-6.11Z"/><path class="cls-3" d="M28.68 83.56c-.95-.84-2.99-1.22-5.89-.12s-3.21 2.15-2.74 2.81 3.31 1.28 5.64.22 3.8-2.18 2.99-2.9ZM43.67 88.88c-.95-.84-2.99-1.22-5.89-.12s-3.21 2.15-2.74 2.81 3.31 1.28 5.64.22 3.8-2.18 2.99-2.9Z"/><path class="cls-3" d="M46.46 89.11c-2-1.77-6.31-2.56-12.42-.26s-6.77 4.53-5.78 5.91 6.96 2.69 11.89.46 8.01-4.6 6.31-6.11Z"/><path d="M11.48 84.41c1.04-.16-6.3 6.96-1.37 10.05s14.27 1.12 14.27 1.12-5.01 6.24 4.91 7.29 22.34-4.2 23.12-9.92 12.72-1.84 20.26-13.14c0 0 4.2-1.75-2.19 10.42s-13.68 19.73-13.74 22.14c-.17 6.76-16.51 17.71-26.47 15.77s-12.25-9.95-12.46-9.83c-4.3 2.39-9.34 2.41-15.48-5.82s.79-26.8 9.14-28.07Z" style="fill:#d4aaff"/><path d="M73.98 81.66c.37-2.54-1.3-1.85-1.3-1.85-7.53 11.3-19.47 7.42-20.26 13.14-.79 5.72-13.2 10.97-23.12 9.92s-4.91-7.29-4.91-7.29-9.34 1.97-14.27-1.12 2.4-10.21 1.37-10.05c-3.27.5-6.32 3.65-8.45 7.79-.08 3.71 2 6.56 5.9 7.25 6.7 1.18 12.35-.33 12.35-.33s-3.94 8.34 7.62 8.08c11.56-.26 19.64-.99 23.39-5.52 3.74-4.53 1.05-7.83 3.02-9.34 1.97-1.5 8.28-1.3 12.94-4.27 3.28-2.09 4.97-4.42 5.72-6.42Z" style="fill:#dab8ff"/><path d="M17.82 118.3c.21-.12 2.62 7.92 12.46 9.83 9.97 1.94 26.3-9 26.47-15.77.06-2.41 7.34-9.96 13.74-22.14.27-.51.51-.98.74-1.44-4.49 2.72-14.63 4.06-15.52 5.35-1.05 1.51 1.91 4.25-2.04 13.36-3.94 9.11-12.18 12.26-24.35 10.69s-10.73-10.96-10.73-10.96c-2.23 3.73-5.91 4.57-12.31 2.38-3.5-1.2-5.22-5.19-6.05-8.55-.15 1.05-.22 2.1-.22 3.12v.13c0 .99.08 1.97.23 2.9.01.07.03.14.04.21.07.39.15.78.25 1.15l.06.22c.12.42.25.83.41 1.23.03.06.06.13.08.19.13.33.28.65.45.95.05.1.1.2.16.29.2.36.42.71.66 1.03 6.13 8.23 11.18 8.21 15.47 5.82Z" style="fill:#d4aaff;opacity:.5;mix-blend-mode:multiply"/><g style="opacity:.5;mix-blend-mode:multiply;fill:none"><path class="cls-6" d="M68.09 94.09c-2.85 2.1-10.34 1.23-10.51 4.52-.18 3.29-1.23 7.57-2.41 12.82-1.18 5.26-9.28 11.21-14.98 13.75-5.69 2.54-14.01 2.76-19.03-1.9 1.9 1.99 4.79 4.02 9.11 4.86 9.97 1.94 26.3-9 26.47-15.77.05-2.16 5.9-8.45 11.71-18.48-.12.06-.24.1-.36.19ZM17.82 118.3s.1.12.22.36c-1.2-3.19-.61-5.88-.61-5.88s-.96 4.86-6.79 4.69c-3.01-.09-5.52-1.91-7.24-3.65 5.66 6.88 10.38 6.73 14.42 4.48Z"/></g><path class="cls-2" d="M45.83 29.76c-1.62 8.98-9.48 15.47-17.57 14.48-8.1-1.02-13.35-9.16-11.73-18.14 1.62-9.01 6.03-9.55 14.12-8.53 8.08 1.02 16.79 3.18 15.18 12.2Z"/><g class="cls-8"><path class="cls-16" d="M32.97 18.44c5.74 2.41 12.07 2.54 10.78 9.75-1.53 8.49-8.94 14.6-16.55 13.64-5.26-.64-9.24-4.47-10.7-9.57 1.08 6.28 5.58 11.2 11.76 11.98 8.08.99 15.95-5.5 17.57-14.48 1.5-8.32-5.82-9.4-12.86-11.32Z"/></g><path class="cls-21" d="M39.43 30.08c0 5.21-3.45 9.42-7.69 9.42s-7.68-4.21-7.68-9.42 3.43-9.39 7.68-9.39 7.69 4.22 7.69 9.39Z"/><path class="cls-2" d="M37.94 29.27c0 2.53-1.64 4.57-3.64 4.57s-3.64-2.04-3.64-4.57 1.62-4.59 3.64-4.59 3.64 2.06 3.64 4.59ZM75.61 38.49c-1.62 8.98-9.48 15.47-17.57 14.48-8.1-1.02-13.35-9.16-11.73-18.14 1.62-9.01 6.03-9.55 14.12-8.53 8.08 1.02 16.79 3.18 15.18 12.2Z"/><g class="cls-8"><path class="cls-16" d="M62.75 27.17c5.74 2.41 12.07 2.54 10.78 9.75-1.53 8.49-8.94 14.6-16.55 13.64-5.26-.64-9.24-4.47-10.7-9.57 1.08 6.28 5.58 11.2 11.76 11.98 8.08.99 15.95-5.5 17.57-14.48 1.5-8.32-5.82-9.4-12.86-11.32Z"/></g><path class="cls-21" d="M69.22 38.81c0 5.21-3.45 9.42-7.69 9.42s-7.68-4.21-7.68-9.42 3.43-9.39 7.68-9.39 7.69 4.22 7.69 9.39Z"/><path class="cls-2" d="M67.72 38c0 2.53-1.64 4.57-3.64 4.57s-3.64-2.04-3.64-4.57 1.62-4.59 3.64-4.59 3.64 2.06 3.64 4.59Z"/><path d="M44.75 33.59s1.75-4.99-4.29-9.99-9.2-4.03-18.66-1.84S2.01 13.71 2.71 8.63c0 0 8.15 11.47 18.31 7.71 7.52-2.79 21.02-1.55 25.01 6.57 1.4 2.84.81 5.1-1.27 10.69Z"/><path d="M46.03 36.19s.05-5.29 7.43-7.93c7.38-2.64 10.02-.67 18.17 4.61 8.15 5.27 21.36-.86 22.42-5.87 0 0-11.56 8.03-19.84 1.03-6.13-5.18-19.25-8.6-25.76-2.32-2.28 2.2-2.49 4.53-2.43 10.48Z"/><path d="M29.77 65.12s-.1-7.57-6.59-4.44c-4.57 2.2-7.76 3.07-9.96 2.48 0 0 8.04 11.43 21.65 10.49s15.8-5.87 15.8-5.87-4.61 1.19-7.94-1.49-9.37-10.59-12.96-1.18Z" style="fill:#b85e8e"/><path d="M34.87 73.66c13.61-.94 15.8-5.87 15.8-5.87-1.87 1.05-5.05 2.01-11.53 1.18-6.48-.83-3.85-1.88-11.43-1.93-7.58-.04-14.49-3.88-14.49-3.88s8.04 11.43 21.65 10.49Z" style="fill:#c76599"/><path d="M29.59 69.13c-3.75-.53-7.92-.66-7.16.49s4.4 2.76 9.2 2.79 6.96-.49 6.83-1.28-5.85-1.58-8.87-2Z" style="fill:#c789aa"/></g></g></g></svg>