<svg xmlns="http://www.w3.org/2000/svg" viewBox="0 0 212.45 202.97"><defs><radialGradient id="radial-gradient" cx="43.96" cy="-139.97" fx="43.96" fy="-139.97" r="8.48" gradientTransform="rotate(13.86 -1126.035 -31.327)" gradientUnits="userSpaceOnUse"><stop offset=".19" stop-color="#fff"/><stop offset=".47" stop-color="#78a8b3"/><stop offset=".78" stop-color="#284c4c"/><stop offset=".94"/></radialGradient><clipPath id="clippath"><path d="M203.62 111.33c-7.26-.55-13.53 17.52-18.96 28.37-2.78-1.76-6.29-3.54-10.74-5.13-14.24-5.11-25.16-4.18-28.92-3.62-19.95 1.6-41.52 23.23-55.62 25.25-14.93 2.14-32.15-4.77-21.33-33.02 10.83-28.26 32.48-47.34 22.68-80.91-9.8-33.57-59.8-10.18-42.15 22.69 2.51 4.67 5.67 14.63-2.71 28.88-8.38 14.25-22.5 34.2-21.52 58.1.98 23.9 25.13 54.39 60.83 50.74 35.7-3.65 39.44-34.15 65.92-40.58 17.93-4.35 27.29 10.31 39.28 10.98 11 .61 17.7-17.13 20.14-27.7 5.18-22.47-1.23-33.61-6.92-34.04Z" style="fill:none"/></clipPath><style>.cls-2,.cls-3{fill:#fff}.cls-5,.cls-7,.cls-9{mix-blend-mode:multiply}.cls-14,.cls-15{mix-blend-mode:screen}.cls-16{stroke:#b35357;stroke-miterlimit:10;stroke-width:1.51px}.cls-16,.cls-5{fill:none}.cls-22,.cls-3{opacity:.2}.cls-7,.cls-9{opacity:.5}.cls-24,.cls-7{fill:#a0856c}.cls-25{fill:#dedede}.cls-26{fill:#e49da7}.cls-14{fill:#f0ac5a}.cls-15,.cls-28,.cls-9{fill:#525554}.cls-34{fill:#422787}</style></defs><g style="isolation:isolate;fill:none"><g id="_Слой_2"><g id="_Червяки"><g style="clip-path:url(#clippath);fill:none"><path class="cls-26" d="M203.62 111.33c-7.26-.55-13.53 17.52-18.96 28.37-2.78-1.76-6.29-3.54-10.74-5.13-14.24-5.11-25.16-4.18-28.92-3.62-19.95 1.6-41.52 23.23-55.62 25.25-14.93 2.14-32.15-4.77-21.33-33.02 10.83-28.26 32.48-47.34 22.68-80.91-9.8-33.57-59.8-10.18-42.15 22.69 2.51 4.67 5.67 14.63-2.71 28.88-8.38 14.25-22.5 34.2-21.52 58.1.98 23.9 25.13 54.39 60.83 50.74 35.7-3.65 39.44-34.15 65.92-40.58 17.93-4.35 27.29 10.31 39.28 10.98 11 .61 17.7-17.13 20.14-27.7 5.18-22.47-1.23-33.61-6.92-34.04Z"/><path class="cls-16" d="M38.66 87.92s-3.21 19.17 15.47 21.84c18.68 2.67 31.62-10.96 31.62-10.96M19.75 139.57c4.69 13.52 35.57 23.41 51.56 1.43M68.73 149.61s1.55 4.19-.52 12.4c-2.06 8.21-12.89 21.01-37.89 19.08M74.92 153.76s5.41 3.66 9.02 11.39c3.61 7.73 6.84 30.43-21.84 36.95M84.46 155.07s8.51.9 14.95 6.21c6.44 5.31 18.04 28.74-5.16 45.65M96.27 152.32s9.33-4.58 19.64-1.43c10.31 3.15 22.17 19.48 5.16 35.95"/><path class="cls-16" d="M110.75 143.94c0-.29 12.12-6.88 21.4-4.67s21.91 17.08 6.19 33.8"/><path class="cls-16" d="M139.02 130.5s14.55-.52 19.94 7.12c6.44 9.13 4.73 19.62-6.79 31.24M160.5 130.49c.6-.12 12.2 2.54 16.58 7.45s6.89 19.4-5.32 27.13"/><path class="cls-16" d="M182.61 137.25s9.03 5.84 11.94 15.5-3.19 18.68-18.49 18.12"/><path class="cls-16" d="M184.35 138.82s7.99 1.95 14.39 8.37c6.7 6.72 6.96 18.92-1.72 24.88"/><path class="cls-16" d="M183.79 137.46c.69-.08 6.27-7.57 16.33-2.33 10.05 5.23 9.62 14.41 8.33 20.33"/><path class="cls-16" d="M187.31 131.5s2.84-5.07 11.08-5.07 14.35 6.28 14.52 14.01M191.7 123.12s3.44-6.12 10.14-5.39c6.7.72 9.54 4.19 11.08 11.84"/><path class="cls-16" d="M196.46 114.99c.31 0 3.62-2.51 7.53-1.85 2.86.48 6.19 2.9 8.16 8.86"/><path class="cls-22" d="M20.27 128.04s6.19 51.01 43.57 60.97 53.88-17.78 65.99-31.57c12.12-13.79 35.83-17.21 49.24-1.85 13.4 15.36 21.4 12.94 30.42 5.69 9.02-7.25 10.05 34.03 9.54 35.25-.52 1.22-58.52 19.86-58.52 19.86l-76.56 15.9S-.09 211.04.68 206.21s19.59-78.17 19.59-78.17Z"/><path class="cls-22" d="M87.98 87.86c.17.48-27.5 31.4-28.7 53.46-1.2 22.06 12.2 25.13 24.58 21.98 12.37-3.15 10.83-26.26 10.83-26.26l-6.7-49.19ZM166.43 131.42c.95.08 16.33 4.75 22.6 12.88 6.27 8.13 12.03-2.42 9.02-12.56s-3.27-13.77 1.89-19.97c5.16-6.2-33.51 19.64-33.51 19.64Z"/><path class="cls-22" d="M21.95 145.47s4.51 46.37 41.5 52.29c36.99 5.92 48.85-6.76 63.93-21.98 15.08-15.22 29-21.88 49.11-8.22 20.11 13.66 18.43 13.53 18.43 13.53L76.86 223.4s-90.22-17.79-88.81-19.73c1.42-1.93 33.9-58.21 33.9-58.21Z"/><path class="cls-22" d="M74.58 115.23c-.26.48-11.08 9.66-12.55 25.04-1.46 15.38 14.61 25.76 21.14 18.12 6.53-7.65 7.91-14.73 7.91-14.73l-16.5-28.42ZM184.66 139.7c.26 0 1.28 1.03 3.86 3.13 2.58 2.09 9.02-5.49 6.27-12.58-2.75-7.08.17-13 .17-13l-10.3 22.45Z"/></g><path class="cls-3" d="M50.17 100.1c-8.53 10.92-21.14 33.15-15.12 50.79 6.01 17.64 19.25 29.72 29.22 28.91 9.97-.81.34-9.02-11-23.83-11.34-14.81-4.3-39.45.86-50.4 5.16-10.95-1.22-8.97-3.95-5.47ZM174.17 137.73c-13.79-4.12-26.94-8.81-46.53 2.78S97.09 155 96.45 163.82c-.64 8.82 2.96 7.65 25.65-10.06 22.68-17.71 39.01-16.47 46.92-13.33 7.91 3.14 9.31-1.46 5.16-2.7ZM204.27 112.07c-4.03-.82-6.39 3.5-6.07 10.69.32 7.19 2.11 12.32 2.9 15.52.79 3.2 8.18-3.02 7.93-11.35-.26-8.33-2.37-14.37-4.76-14.85Z"/><path class="cls-3" d="M43.08 119.86c-3.76 0-10.44 21.74-3.74 34.96 6.7 13.22 11.47 17.45 15.34 14.19 3.87-3.26-12.5-16.41-12.5-25.65s4.64-23.5.9-23.5ZM125.96 145.95c-7.26.56-25 9.66-23.97 14.13 1.03 4.47 28.66-14.49 23.97-14.13ZM159.86 135.6c-5.81-1.32-14.05-.81-15.42.85-1.37 1.65 7.43.2 13.4.16s14.87 4.39 15.68 3.1c.82-1.29-10.65-3.42-13.66-4.11ZM203.61 114.15c-2.55.35-4.52 4.19-2.63 6.8 1.89 2.62 5.59 5.88 3.57 8.49s-4.28 4.83-1.86 6.48c2.42 1.65 5.04-4.87 5.21-8.33.17-3.46-1.1-13.89-4.29-13.45Z"/><path class="cls-26" d="M56.34 30.46c-9.58 7.25-14.8 26.25-30.52 26.37-15.72.12-10.05 13.41 3.48 22.46 13.53 9.06 39.96 10.51 49.75-3.26 9.8-13.77 8.85-36.32 8.85-36.32l-31.56-9.25Z"/><path class="cls-22" d="M72.77 68.62s-.6 7.33 6.27 7.41c0 0-5.33-1.37-6.27-7.41Z"/><path d="M33.16 76.03c-10.63-2.38-14.97-6.97-16.56-11.27 1.17 4.46 5.96 10.02 12.7 14.53 5.36 3.59 12.73 5.97 20.3 6.7 18.72-3.72 23.91-11.92 23.91-11.92s-16.97 7.19-40.34 1.96Z" style="opacity:.04"/><path class="cls-22" d="M80.93 37.88c-4.89-2.52-13.22 3.04-13.22 3.04l-7.99 1.45s1.47-8.81-4.71-10.8c-6.83 6.16-11.65 17.97-20.53 22.95 3 4.42 9.64 6.45 17.16 2.74 0 0 10.48 15.62 23.72 7 13.23-8.61 10.47-23.87 5.58-26.39Z"/><path class="cls-2" d="M56.36 41.54c-1.62 8.98-9.48 15.47-17.57 14.48-8.1-1.02-13.35-9.16-11.73-18.14 1.62-9.01 9.5-15.5 17.58-14.48 8.08 1.02 13.33 9.13 11.71 18.14Z"/><g class="cls-5"><path class="cls-25" d="M46.46 23.78c5.74 2.41 9.12 8.98 7.83 16.19-1.53 8.49-8.94 14.6-16.55 13.64-5.26-.64-9.24-4.47-10.7-9.57 1.08 6.28 5.58 11.2 11.76 11.98 8.08.99 15.95-5.5 17.57-14.48 1.5-8.32-2.86-15.84-9.9-17.77Z"/></g><path class="cls-2" d="M83.06 49.22C80.6 57.48 72.52 62.95 65.01 61.4c-7.53-1.54-11.62-9.48-9.16-17.74 2.46-8.26 10.54-13.7 18.07-12.15 7.51 1.51 11.62 9.45 9.15 17.71Z"/><g class="cls-5"><path class="cls-25" d="M75.59 31.98c5.16 2.67 7.65 9.04 5.7 15.64-2.33 7.79-9.95 12.91-17.02 11.48-4.88-.99-8.24-4.85-9.1-9.71.37 5.93 4.09 10.84 9.84 12.01 7.51 1.54 15.59-3.93 18.05-12.18 2.28-7.62-1.04-14.94-7.47-17.24Z"/></g><path class="cls-34" d="M45.68 49.74c-.29 2.22-3.61 3.61-7.41 3.11s-6.64-2.7-6.34-4.92 3.6-3.6 7.4-3.1 6.64 2.7 6.35 4.91Z"/><path d="M44.38 49.22c-.14 1.08-1.73 1.75-3.52 1.52s-3.14-1.3-3-2.38 1.7-1.77 3.51-1.53 3.15 1.31 3 2.39Z"/><path class="cls-34" d="M72.74 55.82c-.29 2.22-3.61 3.61-7.41 3.11s-6.64-2.7-6.34-4.92 3.6-3.6 7.4-3.1 6.64 2.7 6.35 4.91Z"/><path d="M71.44 55.3c-.14 1.08-1.73 1.75-3.52 1.52s-3.14-1.3-3-2.38 1.7-1.77 3.51-1.53 3.15 1.31 3 2.39Z"/><path d="M23.75 74.95c1.64 1.5 3.5 2.97 5.55 4.34 2.88 1.93 6.35 3.51 10.12 4.67 22.48 1.17 34.09-9.89 34.09-9.89-27.89 15.03-49.62.97-49.75.88Z" style="fill:#fef0ea"/><path d="M43.65 97.48s-29.37 24.53-22.8 44.59 6.45-13.03 6.45-13.03 1.77-10.02 7.59-16.41c0 0 5.89-10.65 8.76-15.15Z" style="fill:#404242"/><path d="M71.25 74.36s2.03 7.73-.11 17.68c-2.13 9.94-6.69 27.88-7.19 28.55-.5.68 6.74-18.2 8.36-29.77 1.71-12.28-1.06-16.46-1.06-16.46Z" style="fill:#54566b;mix-blend-mode:screen"/><path class="cls-28" d="M47.03 129.05s12.2 1.41 15.74 2.08c3.55.69 4.31 1.67 4.47 6.33.16 4.66-.46 12.43-.74 15.18-.28 2.74-.93 3.78-3.93 5.34-2.99 1.57-6.92 2.42-6.92 2.42l-8.62-31.34Z"/><path class="cls-9" d="M67.04 134.98c-.34-2.17-1.14-3.04-3.05-3.58-5.32.53-10.67.88-16 1.15l1.47 5.35c5.88-.87 11.74-1.79 17.58-2.92Z"/><path class="cls-28" d="M19.92 147.91c-.12 6.41 1.51 8.2 6.08 9.17 5.03 1.02 13.26 2.38 22.44 3.35 9.17.99 10.07-.82 10.32-4.6.25-3.77.38-8.86.6-18.59.15-6.53-2.27-6.36-6.15-7.09-3.89-.74-21.07-3.4-21.07-3.4-6.24-.94-9.77-.67-11.15 7.94-.99 6.75-1.07 13.21-1.07 13.21Z"/><path class="cls-28" d="M58.76 155.83c.25-3.77.38-8.86.6-18.59.15-6.53-2.27-6.36-6.15-7.09-3.89-.74-21.07-3.4-21.07-3.4-3.12-.46-5.56-.63-7.39.39 1.83-.18 4.49-.15 8.33.38 12.38 1.7 16.26 3.03 16.14 4.13-.12 1.09-3.45.28-9.54-.7-13.88-2.59-16.44 5.95-17.38 11.59-1.28 7.69 4.18 12.34 8.97 13.65 2.61.72.03 1.08-4.5.25-3.81-.7-5.82-2.02-6.62-4.71.59 3.38 2.36 4.61 5.85 5.35 5.03 1.02 13.26 2.38 22.44 3.35 9.17.99 10.07-.82 10.32-4.6Zm-11.97 3.44c-7.77-.62-12.23-1.79-9.5-2.06 0 0 7.38.74 9.42-2.57 1.54-2.72 2.59-1.45 5.57-1.29 2.99.16 4.72.44 4.46 2.97-.27 2.52-2.18 3.57-9.95 2.94Z" style="opacity:.5;fill:none;mix-blend-mode:multiply"/><path d="M50.17 146.55c1.57-6.41-1.7-12.74-7.32-14.13-.14-.03-.29-.04-.44-.08s-.24-.04-.24-.04c-.26-.04-.51-.08-.77-.1l-5.73-.72-.41 2.3c-2.56 1.62-4.6 4.35-5.44 7.74-.99 4-.08 7.97 2.1 10.73l-.49 2.74 6.73.85c5.29.68 10.53-3.27 12.02-9.29Z" style="fill:#727473"/><path class="cls-9" d="M49.22 149.16c.4-.82.72-1.7.96-2.61.16-.68.27-1.36.33-2.05-7.01-.22-14.01-.73-21.01-1.06-.14 1.39-.04 2.74.23 4.04 6.51.47 13.01 1.04 19.5 1.68ZM34.22 134.53c4.36.14 8.71.29 13.08.45-1.21-1.22-2.71-2.13-4.45-2.56-.14-.03-.29-.04-.44-.08s-.24-.04-.24-.04c-.26-.04-.51-.08-.77-.1l-5.73-.72-.41 2.3c-.36.23-.7.47-1.04.75ZM47.79 135.5c-4.71-.17-9.42-.33-14.13-.49-.67.61-1.29 1.29-1.81 2.05 5.59.53 11.21.69 16.82.93.25 0 .5.02.75.04-.44-.93-.98-1.78-1.63-2.53ZM45.87 152.05c-4.66-.13-9.32.31-13.98.37l-.47 2.56 6.73.85c3.39.44 6.76-1.04 9.13-3.73-.47-.02-.93-.04-1.41-.05Z"/><path class="cls-2" d="M44.07 145.8c-1.59 6.41-7.42 10.48-13.04 9.1-5.62-1.38-8.89-7.71-7.31-14.12 1.59-6.41 7.42-10.48 13.04-9.1 5.62 1.39 8.88 7.71 7.31 14.12Z"/><path d="M44.07 145.8s-.08.27-.22.76c-.07.26-.16.56-.31.9-.13.35-.29.75-.52 1.19-.41.86-1.05 1.86-1.94 2.87-.9 1-2.09 1.98-3.58 2.72a9.547 9.547 0 0 1-5.22.97c-.96-.1-1.92-.31-2.84-.73-.47-.18-.9-.46-1.35-.71-.41-.31-.86-.58-1.23-.96-.79-.69-1.47-1.53-2.02-2.46-.57-.92-.98-1.94-1.27-3.01-.59-2.14-.56-4.42-.05-6.62.56-2.13 1.62-4.23 3.12-5.82.75-.8 1.58-1.52 2.52-2.08.92-.56 1.91-.99 2.93-1.23.51-.16 1.03-.2 1.53-.28.53 0 1.03-.06 1.53 0 1 .05 1.97.33 2.85.67 1.79.74 3.21 1.94 4.17 3.29.97 1.35 1.57 2.77 1.9 4.08.33 1.3.42 2.49.38 3.44 0 .49-.04.91-.09 1.29-.03.38-.08.69-.15.93-.1.51-.16.78-.16.78Zm0 0s.05-.27.15-.78c.06-.24.11-.56.14-.94.04-.37.08-.79.07-1.28.04-.97-.07-2.15-.41-3.44-.34-1.29-.94-2.71-1.94-4.02a9.545 9.545 0 0 0-4.15-3.17c-.88-.32-1.83-.56-2.8-.6-.5-.06-.99 0-1.49.03-.49.09-1 .13-1.47.29-.99.25-1.94.68-2.83 1.25-.89.54-1.7 1.25-2.42 2.03-1.46 1.59-2.44 3.56-2.99 5.68-.5 2.08-.55 4.34 0 6.4.27 1.03.66 2.03 1.2 2.93.52.9 1.16 1.74 1.92 2.41.36.37.78.64 1.17.94.44.25.85.54 1.3.71.43.22.91.36 1.37.5.45.12.93.22 1.39.28 1.87.2 3.68-.16 5.16-.87 1.5-.69 2.68-1.68 3.59-2.67.9-.99 1.54-1.98 1.96-2.84.23-.42.38-.83.52-1.18.14-.34.25-.65.32-.9.14-.49.22-.76.22-.76Z" style="fill:#a6a8a7"/><path d="M43.28 145.61c-1.46 5.9-6.85 9.67-12.02 8.39-5.19-1.28-8.2-7.11-6.75-13.02 1.46-5.91 6.84-9.67 12.03-8.39 5.17 1.28 8.2 7.1 6.74 13.02Z" style="fill:#a6a8a7;mix-blend-mode:multiply"/><path d="M42.42 145.4c-1.32 5.37-6.21 8.78-10.91 7.62-4.72-1.16-7.46-6.45-6.13-11.83 1.33-5.37 6.22-8.78 10.92-7.62 4.71 1.16 7.45 6.46 6.12 11.83Z" style="fill:#a5a7aa"/><path d="M31.44 153.3c-4.86-1.2-7.71-6.66-6.35-12.18 1.36-5.52 6.42-9.04 11.28-7.84 4.86 1.19 7.7 6.66 6.34 12.18-1.36 5.52-6.43 9.03-11.27 7.83Zm4.79-19.44c-4.55-1.13-9.29 2.2-10.57 7.4-1.29 5.21 1.36 10.36 5.91 11.48 4.54 1.12 9.29-2.2 10.57-7.41 1.29-5.22-1.37-10.36-5.91-11.47Z" style="fill:#445a5e"/><path d="M42.34 143.28c-.17 4.61-2.95 8.27-6.22 8.15-3.26-.11-5.77-3.96-5.6-8.58.16-4.62 2.95-8.27 6.21-8.15 3.27.12 5.77 3.95 5.61 8.59Z" style="mix-blend-mode:screen;fill:#b3b5b8"/><path d="M29.67 140.73c.86-3.5 3.24-6.14 6.08-7.26-4.54-.79-9.11 2.56-10.38 7.72-1.33 5.37 1.42 10.67 6.13 11.83 1.64.41 3.3.24 4.84-.36-.19-.03-.37-.06-.55-.11-4.71-1.17-7.45-6.46-6.12-11.83Z" style="mix-blend-mode:multiply;fill:#d9d9d9"/><path class="cls-9" d="M31.18 137.26c1.17-1.76 2.77-3.09 4.58-3.79-3.21-.56-6.42.96-8.49 3.72 1.3-.03 2.61 0 3.91.08ZM33.47 151.55c-1.56.07-3.11.15-4.66.22.8.57 1.7 1.01 2.7 1.25 1.64.41 3.3.24 4.84-.36-.19-.03-.37-.06-.55-.11-.85-.21-1.62-.55-2.33-1Z"/><path d="M35.76 133.47c.18.03.35.05.54.1-.19-.05-.36-.07-.54-.1Z" style="fill:url(#radial-gradient)"/><path class="cls-2" d="M35.31 138.97c-.58 1.24-1.61 1.98-2.3 1.66-.7-.33-.78-1.6-.2-2.84.58-1.24 1.61-1.99 2.3-1.66.7.32.78 1.59.2 2.84ZM32.76 142.57c-.19.55-.58.91-.89.81-.3-.1-.41-.64-.22-1.18.18-.55.58-.91.89-.81.31.09.4.62.22 1.18Z"/><path class="cls-15" d="M22.82 131.52s1.31-4.1 5.68-3.91c4.37.18 5.53 1.29 2.9 1.61-2.62.33-6.79 1.69-8.45 7.2-1.3 4.4-1.64-.33-.13-4.9ZM21.94 140.46c-.07.55-.3.98-.53.95-.22-.02-.34-.5-.27-1.05.07-.54.3-.97.53-.95.22.03.35.5.27 1.04Z"/><path class="cls-24" d="M16.1 39.03S34.34 6.14 53.27.91c13.37-3.69 14.99 5.02 27.68 4.85 12.7-.17 26.99 7.83 26.8 25.01-.2 17.17-.48 24.16-.48 24.16L16.09 39.04Z"/><path class="cls-7" d="M80.96 5.76c-12.7.17-14.31-8.53-27.68-4.85-4.44 1.23-8.84 3.97-12.97 7.45.49-.34.98-.67 1.49-.98 2.75-1.66 5.72-3.15 8.82-4.02 2.58-.72 5.63-1.35 8 .25 1.02.7 1.8 1.74 2.52 2.72.97 1.32 2.03 2.56 3.27 3.64 2.58 2.24 5.85 4.29 9.23 5.03 3.11.67 6.31.48 9.43 1.07 2.5.47 5.24 1.4 6.25 3.98.95 2.43.63 5.24.07 7.74-.41 1.82-1.28 4.77-3.51 5.08-1.26.17-2.43-.26-3.52-.86-1.42-.79-2.79-1.63-4.3-2.25-3.47-1.45-7.07-2.71-10.64-3.9-3.58-1.19-7.21-2.24-10.9-3.01-7.79-1.61-15.92-1.94-23.78-.56-2.25.4-4.5.94-6.68 1.65-6.06 8.07-9.95 15.09-9.95 15.09l91.18 15.89s.28-6.99.48-24.16c.2-17.17-14.1-25.17-26.8-25.01Z"/><path d="M62.91 28.62c-7.27-1.93-14.79-3.34-22.32-3.79-5.43-.33-12.13 0-17.31 1.8-4.99 6.96-7.18 12.4-7.18 12.4l91.18 15.89s.83-2.75.94-7.76c-7.47-6.37-29.95-14.48-45.3-18.55Z" style="fill:#da6548"/><path d="M84.88 35.63c-.87 4.98-1.86 9.93-2.9 14.88l25.29 4.41s.83-2.75.94-7.76c-4.26-3.63-13.41-7.84-23.34-11.53Z" style="fill:#da6548;mix-blend-mode:multiply"/><path class="cls-24" d="M118.92 68.98c-1.52-2.91-8.77-14.02-11.34-16.04-9.24-7.27-52.45-20.42-73.75-21.1C11.6 31.13 0 47.76 0 47.76c2.87-4.5 29.76-3.18 61.73 3.17 27.69 5.5 51.19 13.61 57.83 19.67l-.09-.66c-.2-.33-.38-.66-.55-.97Z"/><path class="cls-7" d="M118.92 68.98c-1.52-2.91-8.77-14.02-11.34-16.04-6.15-4.84-27.35-12.28-47.13-16.92 4.46 1.43 8.81 3.22 13.03 5.27 2.74 1.34 5.46 2.73 8.08 4.28 2.05 1.21 4.23 2.54 5.62 4.52.1.15-.03.39-.22.37-3.29-.31-6.51-1.08-9.72-1.84-3.29-.78-6.57-1.36-9.91-1.83-7.3-1.03-14.64-1.97-21.99-2.55-9.88-.78-19.85-.52-29.66.88 11.41.22 27.91 2.21 46.04 5.81 27.69 5.5 51.19 13.61 57.83 19.67l-.09-.66c-.2-.33-.38-.66-.55-.97Z"/><path class="cls-14" d="M10.59 40.74c.62-.34 1.25-.64 1.89-.94.59-.31 1.18-.62 1.79-.9 1.31-.6 2.68-1.09 4.06-1.51 2.78-1.05 5.61-1.95 8.53-2.57 4.65-.97 9.38-1.41 14.12-1.43-12.42-1.33-25.5 1.9-35.19 9.79 1.7-.59 3.22-1.58 4.8-2.45ZM47.62 4.9c-1.5.96-3.07 1.81-4.54 2.83-1.54 1.08-2.88 2.61-4.29 3.87-3.25 2.91-6.31 5.89-8.81 9.49-.05.07-.14.49.04.32 5.77-5.46 11.52-11.03 17.57-16.18.07-.06.17-.43.03-.33Z"/><path d="M76.65 104.93s-4.64 32.15-11.56 43.71-5.47-5.24-2.1-10.48 7.53-20.88 7.53-20.88l6.13-12.35Z" style="fill:#6f7371"/><path d="m74.46 109.34-2.72 5.47c-.9 5.13-2.45 12.83-4.34 17.54-3.02 7.55-4.47 8.21-5.26 12.94s1.12 3.61 2.5 1.97 4.53-10.05 6.9-21.15a223.03 223.03 0 0 0 2.92-16.77Z" style="fill:#828785"/></g></g></g></svg>