<svg xmlns="http://www.w3.org/2000/svg" viewBox="0 0 196.13 179.68"><defs><clipPath id="clippath"><path d="M187.3 88.04c-7.26-.55-13.53 17.52-18.96 28.37-2.78-1.76-6.29-3.54-10.74-5.13-14.24-5.11-25.16-4.18-28.92-3.62-19.95 1.6-41.52 23.23-55.62 25.25-14.93 2.14-32.15-4.77-21.33-33.02 10.83-28.26 32.48-47.34 22.68-80.91-9.8-33.57-59.8-10.18-42.15 22.69 2.51 4.67 5.67 14.63-2.71 28.88-8.38 14.25-22.5 34.2-21.52 58.1.98 23.9 25.13 54.39 60.83 50.74 35.7-3.65 39.44-34.15 65.92-40.58 17.93-4.35 27.29 10.31 39.28 10.98 11 .61 17.7-17.13 20.14-27.7 5.18-22.47-1.23-33.61-6.92-34.04Z" style="fill:none"/></clipPath><style>.cls-2,.cls-3{fill:#fff}.cls-4{mix-blend-mode:multiply}.cls-4,.cls-8{fill:none}.cls-9{fill:#d1e8bc}.cls-10,.cls-3{opacity:.2}.cls-11{fill:#dedede}.cls-13{fill:#afe49d}.cls-14{fill:#7ba16f}.cls-15{fill:#24154a}.cls-8{stroke:#7eb353;stroke-miterlimit:10;stroke-width:1.51px}</style></defs><g style="isolation:isolate;fill:none"><g id="_Слой_2"><g id="_Червяки"><g style="clip-path:url(#clippath);fill:none"><path class="cls-13" d="M72.43 55.76c-.62 3.56-3.77 11.25-9.2 15.85-6.86 5.81-5.45 6.9-5.45 6.9l-8.47-1.58 1.58-8.61L62.73 54s10.23-1.28 9.71 1.76ZM21.06 86.46l-9.72 3.87-7.62 23.39 5.19 4.86 10.05-4.07 2.1-28.05z"/><path class="cls-13" d="m52.11 87.77 1.6 4.14-13.67 33.31-24.7-12.62 6.18-19.77 22.53-7.36 8.06 2.3zM162.04 107.74l2.1 19.32 12.88.85-3.03-19.51-11.95-.66z"/><path class="cls-14" d="M65.86 59.79c1.18-1.97 4.95-3.68 3.64-1.01s-1.01 5.69-3.42 6.79-4.55 1.23-6 3.11-1.84 4.56-3.33 5.37-2.36-.59-2.54-2.74-5.96 4.86-5.87 5.21 3.07 6.96 4.16 6.96 21.77-7.36 21.77-7.36l.35-21.28-6.09-1.09-2.15 3.77-.53 2.28ZM42.12 91.14s6.88-.13 6.83.4-4.2 2.89-5.34 5.26-2.15 4.12-1.8 7.49.61 5.52-.74 6.79-3.24 4.55-3.81 1.84-.48-2.72-2.89-1.97-6.7 2.32-8.36 1.62-2.28-.48-1.62-4.25.22-4.73-1.4-5.52-1.71 15.9-1.71 15.9l31.97 4.29 10.07-27.77-4.47-12.09-13.4 1.93-3.33 6.09ZM18.07 91.58c-.56.1-2.3 5.81-3.02 6.64s-.89 3.61-1.58 4.73-1.87 2.36-1.84 3.51 2.43 2.3 2.63.43-1.22-3.91.99-7.88 3.12-5.19 3.15-6.34-1.26-1.15-1.24-2 2.03-2.69 2.03-2.69L21.03 89l-.62 7.06s-2.07 11.36-2.23 11.46-2.3 1.64-2.3 1.64l-3.94.26s-4.07-.36-4.07-.72-2.53-11.43-2.53-11.43 6.18-4.86 6.67-5.12 8.01-4.47 8.01-4.47l-1.94 3.91ZM163.48 114.82c1.79.59 3.42 1.1 3.22 1.83s-1.74 3.61-.53 5.02 3.02 1.3 3.22 2.3-1.51.31-1.51.31l2.33 2.36 2.76.28-2.25-5.16-1.45-7.16-7.34-2.55 1.54 2.76Z"/><path class="cls-9" d="M187.3 88.04c-7.26-.55-13.53 17.52-18.96 28.37-.22-.14-.46-.28-.69-.42 0 1.04-.21 2.34-.45 3.67-.44 2.45 1.49 1.4 3.15 4.64 1.66 3.24-1.31-.44-3.68-.79-2.36-.35-1.49-2.28-1.75-5.52-.12-1.44-.36-2.74-.95-4.02-1.88-.93-3.99-1.84-6.37-2.7-14.24-5.11-25.16-4.18-28.92-3.62-19.95 1.6-41.52 23.23-55.62 25.25-14.93 2.14-32.15-4.77-21.33-33.02 10.83-28.26 32.48-47.34 22.68-80.91-9.8-33.57-59.8-10.18-42.15 22.69 2.51 4.67 5.67 14.63-2.71 28.88-3.27 5.57-7.42 12.01-11.21 19.21.51.97 1.04 1.84.28 3.98-1.58 4.47-4.47 6.22-3.94 9.02.53 2.8 1.58 4.99-.44 5.34-2.01.35-1.05.96-2.8.35-.24-.08-.54 0-.88.15-1.8 6.31-2.83 13-2.54 20.04.98 23.9 25.13 54.39 60.83 50.74 35.7-3.65 39.44-34.15 65.92-40.58 17.93-4.35 27.29 10.31 39.28 10.98 11 .61 17.7-17.13 20.14-27.7 5.18-22.47-1.23-33.61-6.92-34.04ZM54.82 72.44c1.4-2.54 1.58-5.69 4.55-8.15 2.98-2.45 2.8-.44 6.74-4.55 0 0 1.93-3.68 3.94-3.5 2.01.18-.7 5.69-1.41 8.15-.71 2.45-1.92 3.42-5.07 4.82-3.15 1.4-2.98 1.14-3.5 3.5-.53 2.36-4.2 5.17-6.74 3.85-2.54-1.31.09-1.58 1.49-4.12Zm-11.21 34.07c.53 2.89-.96 7.53-5.34 8.78-4.38 1.25-2.54-4.31-3.63-3.44s-8.89 2.45-10.73 1.49 1.86-8.05-.35-11.47c-5.87-9.11 7.18-2.19 11.08-2.89 3.9-.7 1.01-8.67 7.49-7.84 0 0 3.59-.92 7.36-.66 3.77.26.09 2.63-2.1 6.08s-4.29 7.06-3.77 9.95Z"/><path class="cls-8" d="M22.34 64.62s-3.21 19.17 15.47 21.84C56.49 89.13 69.43 75.5 69.43 75.5M3.44 116.28c4.69 13.52 35.57 23.41 51.56 1.43M52.41 126.32s1.55 4.19-.52 12.4C49.83 146.93 39 159.73 14 157.8M58.6 130.47s5.41 3.66 9.02 11.39c3.61 7.73 6.84 30.43-21.84 36.95M68.14 131.78s8.51.9 14.95 6.21c6.44 5.31 18.04 28.74-5.16 45.65M79.95 129.03s9.33-4.58 19.64-1.43c10.31 3.15 22.17 19.48 5.16 35.95"/><path class="cls-8" d="M94.43 120.65c0-.29 12.12-6.88 21.4-4.67s21.91 17.08 6.19 33.8"/><path class="cls-8" d="M122.7 107.21s14.55-.52 19.94 7.12c6.44 9.13 4.73 19.62-6.79 31.24M144.19 107.2c.6-.12 12.2 2.54 16.58 7.45s6.89 19.4-5.32 27.13"/><path class="cls-8" d="M166.29 113.96s9.03 5.84 11.94 15.5-3.19 18.68-18.49 18.12"/><path class="cls-8" d="M168.03 115.53s7.99 1.95 14.39 8.37c6.7 6.72 6.96 18.92-1.72 24.88"/><path class="cls-8" d="M167.47 114.16c.69-.08 6.27-7.57 16.33-2.33 10.05 5.23 9.62 14.41 8.33 20.33"/><path class="cls-8" d="M170.99 108.2s2.84-5.07 11.08-5.07 14.35 6.28 14.52 14.01M175.38 99.83s3.44-6.12 10.14-5.39c6.7.72 9.54 4.19 11.08 11.84"/><path class="cls-8" d="M180.14 91.7c.31 0 3.62-2.51 7.53-1.85 2.86.48 6.19 2.9 8.16 8.86"/><path class="cls-10" d="M3.95 104.75s6.19 51.01 43.57 60.97 53.88-17.78 65.99-31.57c12.12-13.79 35.83-17.21 49.24-1.85 13.4 15.36 21.4 12.94 30.42 5.69 9.02-7.25 10.05 34.03 9.54 35.25-.52 1.22-58.52 19.86-58.52 19.86L67.63 209s-84.04-21.25-83.26-26.09 19.58-78.16 19.58-78.16Z"/><path class="cls-10" d="M71.66 64.57c.17.48-27.5 31.4-28.7 53.46-1.2 22.06 12.2 25.13 24.58 21.98 12.37-3.15 10.83-26.26 10.83-26.26l-6.7-49.19ZM150.11 108.12c.95.08 16.33 4.75 22.6 12.88 6.27 8.13 12.03-2.42 9.02-12.56s-3.27-13.77 1.89-19.97c5.16-6.2-33.51 19.64-33.51 19.64Z"/><path class="cls-10" d="M5.63 122.17s4.51 46.37 41.5 52.29c36.99 5.92 48.85-6.76 63.93-21.98 15.08-15.22 29-21.88 49.11-8.22 20.11 13.66 18.43 13.53 18.43 13.53L60.54 200.1s-90.22-17.79-88.81-19.73c1.42-1.93 33.9-58.21 33.9-58.21Z"/><path class="cls-10" d="M58.26 91.94c-.26.48-11.08 9.66-12.55 25.04-1.46 15.38 14.61 25.76 21.14 18.12 6.53-7.65 7.91-14.73 7.91-14.73l-16.5-28.42ZM168.34 116.41c.26 0 1.28 1.03 3.86 3.13 2.58 2.09 9.02-5.49 6.27-12.58-2.75-7.08.17-13 .17-13l-10.3 22.45Z"/></g><path class="cls-3" d="M33.85 76.81c-8.53 10.92-21.14 33.15-15.12 50.79 6.01 17.64 19.25 29.72 29.22 28.91 9.97-.81.34-9.02-11-23.83-11.34-14.81-4.3-39.45.86-50.4 5.16-10.95-1.22-8.97-3.95-5.47ZM157.85 114.44c-13.79-4.12-26.94-8.81-46.53 2.78s-30.55 14.49-31.19 23.31c-.64 8.82 2.96 7.65 25.65-10.06 22.68-17.71 39.01-16.47 46.92-13.33 7.91 3.14 9.31-1.46 5.16-2.7ZM187.95 88.78c-4.03-.82-6.39 3.5-6.07 10.69.32 7.19 2.11 12.32 2.9 15.52.79 3.2 8.18-3.02 7.93-11.35-.26-8.33-2.37-14.37-4.76-14.85Z"/><path class="cls-3" d="M26.77 96.57c-3.76 0-10.44 21.74-3.74 34.96 6.7 13.22 11.47 17.45 15.34 14.19 3.87-3.26-12.5-16.41-12.5-25.65s4.64-23.5.9-23.5ZM109.64 122.66c-7.26.56-25 9.66-23.97 14.13 1.03 4.47 28.66-14.49 23.97-14.13ZM143.54 112.31c-5.81-1.32-14.05-.81-15.42.85-1.37 1.65 7.43.2 13.4.16s14.87 4.39 15.68 3.1c.82-1.29-10.65-3.42-13.66-4.11ZM187.29 90.85c-2.55.35-4.52 4.19-2.63 6.8 1.89 2.62 5.59 5.88 3.57 8.49s-4.28 4.83-1.86 6.48c2.42 1.65 5.04-4.87 5.21-8.33.17-3.46-1.1-13.89-4.29-13.45Z"/><path class="cls-9" d="M40.02 7.16c-9.58 7.25-14.8 26.25-30.52 26.37-15.72.12-10.05 13.41 3.48 22.46 13.53 9.06 39.96 10.51 49.75-3.26 9.8-13.77 8.85-36.32 8.85-36.32L40.02 7.16Z"/><path class="cls-10" d="M64.61 14.59c-4.89-2.52-13.22 3.04-13.22 3.04l-7.99 1.45s1.47-8.81-4.71-10.8c-6.83 6.16-11.65 17.97-20.53 22.95 3 4.42 9.64 6.45 17.16 2.74 0 0 10.48 15.62 23.72 7 13.23-8.61 10.47-23.87 5.58-26.39Z"/><path class="cls-2" d="M40.04 18.25c-1.62 8.98-9.48 15.47-17.57 14.48-8.1-1.02-13.35-9.16-11.73-18.14C12.36 5.57 20.24-.91 28.32.1c8.08 1.02 13.33 9.13 11.71 18.14Z"/><g class="cls-4"><path class="cls-11" d="M30.14.48c5.74 2.41 9.12 8.98 7.83 16.19-1.53 8.49-8.94 14.6-16.55 13.64-5.26-.64-9.24-4.47-10.7-9.57 1.08 6.28 5.58 11.2 11.76 11.98 8.08.99 15.95-5.5 17.57-14.48 1.5-8.32-2.86-15.84-9.9-17.77Z"/></g><path class="cls-2" d="M66.75 25.92C64.29 34.18 56.21 39.65 48.7 38.1c-7.53-1.54-11.62-9.48-9.16-17.74C42 12.1 50.08 6.66 57.61 8.21c7.51 1.51 11.62 9.45 9.15 17.71Z"/><g class="cls-4"><path class="cls-11" d="M59.27 8.68c5.16 2.67 7.65 9.04 5.7 15.64-2.33 7.79-9.95 12.91-17.02 11.48-4.88-.99-8.24-4.85-9.1-9.71.37 5.93 4.09 10.84 9.84 12.01 7.51 1.54 15.59-3.93 18.05-12.18 2.28-7.62-1.04-14.94-7.47-17.24Z"/></g><path class="cls-15" d="M23.91 14.11c0 3.9-2.58 7.05-5.76 7.05s-5.75-3.15-5.75-7.05 2.57-7.03 5.75-7.03 5.76 3.16 5.76 7.03Z"/><path class="cls-2" d="M22.78 13.51c0 1.89-1.23 3.42-2.73 3.42s-2.73-1.53-2.73-3.42 1.21-3.44 2.73-3.44 2.73 1.54 2.73 3.44Z"/><path class="cls-15" d="M52.52 20.2c.91-3.79 4.16-6.25 7.25-5.51s4.85 4.41 3.94 8.2-4.15 6.23-7.24 5.49-4.86-4.42-3.95-8.18Z"/><path class="cls-2" d="M53.47 21.06c.44-1.84 2-3.04 3.45-2.68s2.29 2.12 1.85 3.96-1.98 3.06-3.45 2.7-2.29-2.14-1.85-3.98Z"/><path d="M29.6 50.37c-5.22-.87-1.75 2.54-7.97 1.23s-7.8-3.33-7.09-1.05 9.11 8.93 18.13 7.36 7.97 2.89 12 1.66 14.18-7.98 14.23-9.77-4.86 4.08-10.72 3.2-5.61-3.15-8.58-2.72-3.94 3.15-5.61 2.1-2.8-1.75-4.38-2.01Z" style="fill:#7eb353"/><path d="M50.69 52.98c1.18 0 2.48-.18 1.16.81-1.93 1.45-6.22 3.24-9.46 2.16-3.24-1.08-5.69-2.21-9.15-1.33-3.46.88-3.37 2.15-8.5.61-3.6-1.08-4.82-2.8-4.08-3.86-5.41-1.3-6.79-2.98-6.12-.83.7 2.28 9.11 8.93 18.13 7.36 9.02-1.58 7.97 2.89 12 1.66 4.03-1.23 14.18-7.98 14.23-9.77.04-1.52-3.52 2.5-8.2 3.18Z" style="fill:#638c41"/></g></g></g></svg>