<svg xmlns="http://www.w3.org/2000/svg" viewBox="0 0 196.13 218.35"><defs><clipPath id="clippath"><path d="M187.3 111.45c-7.26-.55-13.53 17.52-18.96 28.37-2.78-1.76-6.29-3.54-10.74-5.13-14.24-5.11-25.16-4.18-28.92-3.62-19.95 1.6-41.52 23.23-55.62 25.25-14.93 2.14-32.15-4.77-21.33-33.02 10.83-28.26 32.48-47.34 22.68-80.91-9.8-33.57-59.8-10.18-42.15 22.69 2.51 4.67 5.67 14.63-2.71 28.88-8.38 14.25-22.5 34.2-21.52 58.1.98 23.9 25.13 54.39 60.83 50.74 35.7-3.65 39.44-34.15 65.92-40.58 17.93-4.35 27.29 10.31 39.28 10.98 11 .61 17.7-17.13 20.14-27.7 5.18-22.47-1.23-33.61-6.92-34.04Z" style="fill:none"/></clipPath><style>.cls-1,.cls-2{fill:#fff}.cls-3{fill:#00703a}.cls-4{stroke:#b35357;stroke-miterlimit:10;stroke-width:1.51px;fill:none}.cls-5{fill:none;mix-blend-mode:multiply}.cls-10,.cls-2{opacity:.2}.cls-11{fill:#0a0a0a}.cls-13{fill:#dedede}.cls-14{fill:#e49da7}.cls-15{fill:#242424}.cls-16{fill:#525252;opacity:.46}</style></defs><g style="isolation:isolate;fill:none"><g id="_Слой_2"><g id="_Червяки"><g style="clip-path:url(#clippath);fill:none"><path class="cls-14" d="M187.3 111.45c-7.26-.55-13.53 17.52-18.96 28.37-2.78-1.76-6.29-3.54-10.74-5.13-14.24-5.11-25.16-4.18-28.92-3.62-19.95 1.6-41.52 23.23-55.62 25.25-14.93 2.14-32.15-4.77-21.33-33.02 10.83-28.26 32.48-47.34 22.68-80.91-9.8-33.57-59.8-10.18-42.15 22.69 2.51 4.67 5.67 14.63-2.71 28.88-8.38 14.25-22.5 34.2-21.52 58.1.98 23.9 25.13 54.39 60.83 50.74 35.7-3.65 39.44-34.15 65.92-40.58 17.93-4.35 27.29 10.31 39.28 10.98 11 .61 17.7-17.13 20.14-27.7 5.18-22.47-1.23-33.61-6.92-34.04Z"/><path class="cls-4" d="M22.34 88.03s-3.21 19.17 15.47 21.84c18.68 2.67 31.62-10.96 31.62-10.96M3.44 139.69c4.69 13.52 35.57 23.41 51.56 1.43M52.41 149.73s1.55 4.19-.52 12.4C49.83 170.34 39 183.14 14 181.21M58.6 153.88s5.41 3.66 9.02 11.39c3.61 7.73 6.84 30.43-21.84 36.95M68.14 155.19s8.51.9 14.95 6.21c6.44 5.31 18.04 28.74-5.16 45.65M79.95 152.43s9.33-4.58 19.64-1.43c10.31 3.15 22.17 19.48 5.16 35.95"/><path class="cls-4" d="M94.43 144.06c0-.29 12.12-6.88 21.4-4.67s21.91 17.08 6.19 33.8"/><path class="cls-4" d="M122.7 130.62s14.55-.52 19.94 7.12c6.44 9.13 4.73 19.62-6.79 31.24M144.19 130.61c.6-.12 12.2 2.54 16.58 7.45s6.89 19.4-5.32 27.13"/><path class="cls-4" d="M166.29 137.37s9.03 5.84 11.94 15.5-3.19 18.68-18.49 18.12"/><path class="cls-4" d="M168.03 138.94s7.99 1.95 14.39 8.37c6.7 6.72 6.96 18.92-1.72 24.88"/><path class="cls-4" d="M167.47 137.57c.69-.08 6.27-7.57 16.33-2.33 10.05 5.23 9.62 14.41 8.33 20.33"/><path class="cls-4" d="M170.99 131.61s2.84-5.07 11.08-5.07 14.35 6.28 14.52 14.01M175.38 123.24s3.44-6.12 10.14-5.39c6.7.72 9.54 4.19 11.08 11.84"/><path class="cls-4" d="M180.14 115.11c.31 0 3.62-2.51 7.53-1.85 2.86.48 6.19 2.9 8.16 8.86"/><path class="cls-10" d="M3.95 128.16s6.19 51.01 43.57 60.97 53.88-17.78 65.99-31.57c12.12-13.79 35.83-17.21 49.24-1.85 13.4 15.36 21.4 12.94 30.42 5.69 9.02-7.25 10.05 34.03 9.54 35.25-.52 1.22-58.52 19.86-58.52 19.86l-76.56 15.9s-84.04-21.25-83.26-26.09 19.58-78.16 19.58-78.16Z"/><path class="cls-10" d="M71.66 87.98c.17.48-27.5 31.4-28.7 53.46-1.2 22.06 12.2 25.13 24.58 21.98 12.37-3.15 10.83-26.26 10.83-26.26l-6.7-49.19ZM150.11 131.53c.95.08 16.33 4.75 22.6 12.88 6.27 8.13 12.03-2.42 9.02-12.56s-3.27-13.77 1.89-19.97c5.16-6.2-33.51 19.64-33.51 19.64Z"/><path class="cls-10" d="M5.63 145.58s4.51 46.37 41.5 52.29c36.99 5.92 48.85-6.76 63.93-21.98 15.08-15.22 29-21.88 49.11-8.22 20.11 13.66 18.43 13.53 18.43 13.53L60.54 223.51s-90.22-17.79-88.81-19.73c1.42-1.93 33.9-58.21 33.9-58.21Z"/><path class="cls-10" d="M58.26 115.35c-.26.48-11.08 9.66-12.55 25.04-1.46 15.38 14.61 25.76 21.14 18.12 6.53-7.65 7.91-14.73 7.91-14.73l-16.5-28.42ZM168.34 139.82c.26 0 1.28 1.03 3.86 3.13 2.58 2.09 9.02-5.49 6.27-12.58-2.75-7.08.17-13 .17-13l-10.3 22.45Z"/></g><path class="cls-2" d="M33.85 100.21c-8.53 10.92-21.14 33.15-15.12 50.79 6.01 17.64 19.25 29.72 29.22 28.91 9.97-.81.34-9.02-11-23.83-11.34-14.81-4.3-39.45.86-50.4 5.16-10.95-1.22-8.97-3.95-5.47ZM157.85 137.85c-13.79-4.12-26.94-8.81-46.53 2.78s-30.55 14.49-31.19 23.31c-.64 8.82 2.96 7.65 25.65-10.06 22.68-17.71 39.01-16.47 46.92-13.33 7.91 3.14 9.31-1.46 5.16-2.7ZM187.95 112.19c-4.03-.82-6.39 3.5-6.07 10.69.32 7.19 2.11 12.32 2.9 15.52.79 3.2 8.18-3.02 7.93-11.35-.26-8.33-2.37-14.37-4.76-14.85Z"/><path class="cls-2" d="M26.77 119.98c-3.76 0-10.44 21.74-3.74 34.96 6.7 13.22 11.47 17.45 15.34 14.19 3.87-3.26-12.5-16.41-12.5-25.65s4.64-23.5.9-23.5ZM109.64 146.07c-7.26.56-25 9.66-23.97 14.13 1.03 4.47 28.66-14.49 23.97-14.13ZM143.54 135.72c-5.81-1.32-14.05-.81-15.42.85-1.37 1.65 7.43.2 13.4.16s14.87 4.39 15.68 3.1c.82-1.29-10.65-3.42-13.66-4.11ZM187.29 114.26c-2.55.35-4.52 4.19-2.63 6.8 1.89 2.62 5.59 5.88 3.57 8.49s-4.28 4.83-1.86 6.48c2.42 1.65 5.04-4.87 5.21-8.33.17-3.46-1.1-13.89-4.29-13.45Z"/><path class="cls-14" d="M40.02 30.57c-9.58 7.25-14.8 26.25-30.52 26.37-15.72.12-10.05 13.41 3.48 22.46 13.53 9.06 39.96 10.51 49.75-3.26 9.8-13.77 8.85-36.32 8.85-36.32l-31.56-9.25Z"/><path class="cls-10" d="M56.45 68.73s-.6 7.33 6.27 7.41c0 0-5.33-1.37-6.27-7.41Z"/><path d="M16.84 76.14C6.21 73.76 1.87 69.17.28 64.87c1.17 4.46 5.96 10.02 12.7 14.53 5.36 3.59 12.73 5.97 20.3 6.7C52 82.38 57.19 74.18 57.19 74.18s-16.97 7.19-40.34 1.96Z" style="opacity:.04"/><path class="cls-10" d="M64.61 38c-4.89-2.52-13.22 3.04-13.22 3.04l-7.99 1.45s1.47-8.81-4.71-10.8c-6.83 6.16-11.65 17.97-20.53 22.95 3 4.42 9.64 6.45 17.16 2.74 0 0 10.48 15.62 23.72 7 13.23-8.61 10.47-23.87 5.58-26.39Z"/><path d="M7.43 75.07c1.64 1.5 3.5 2.97 5.55 4.34 2.88 1.93 6.35 3.51 10.12 4.67 22.48 1.17 34.09-9.89 34.09-9.89-27.89 15.03-49.62.97-49.75.88Z" style="fill:#fef0ea"/><path class="cls-15" d="M36.16 96.44c.24-.47-11.04-8.56-14.64-8.84S10 106.08 11.33 109.53c1.33 3.46 19.95-2.21 19.95-2.21l4.89-10.89Z"/><path class="cls-11" d="M24.15 88.45c2.46 1.83 6.12 4.68 7.35 6.31 1.88 2.5 2.56 3.27 1.75 4.03-.81.76-9.99-4.12-12.44-4.51-2.45-.39-2.93.9-1.01 1.67s9.24 3.32 9.02 4.28c-.22.96-6.53.39-9.68 0-3.15-.39-3.99 2.58-4.6 5.17-.61 2.58 5.08-1.62 9.02-2.63 3.94-1.01 5.69-.77 6.22-.1.53.67.22 3.16-1.53 3.87-1.75.7-13.44 3.33-15.24 2.28-1.45-.84 2.2-11.81 4.33-17.04-3.44 5.67-6.94 15.37-6.02 17.76 1.33 3.46 19.95-2.21 19.95-2.21l4.89-10.89c.19-.38-7.3-5.85-12.01-7.99Z"/><path class="cls-16" d="M18.37 90.21c.21.53.76 1.06 1.78 1.53 3.5 1.62 10.95 6.66 10.99 5.43.04-1.23-7.18-6.57-8.01-8.1-.3-.56-.61-.99-.89-1.33a3.64 3.64 0 0 0-.73-.13c-.86-.07-1.97.96-3.14 2.6Z"/><path class="cls-15" d="M48.97 96.91c4.9-2.63 24.16-18.37 26.06-13.17s-.77 41.34-6.6 38.78-21.76-12.26-21.76-12.26l2.3-13.36Z"/><path class="cls-11" d="M65.68 103.41c5.34 1.3 7.67 1.37 9.27-.25.7-6.95.88-13.93.45-17.53-.4 1.3-.42 4.08-.72 5.91-.46 2.76-6.5 5.65-12.28 6.57-5.78.92-11.43.33-10.51-1.12.37-.57 1.45-2.15 2.98-4-2.53 1.77-4.66 3.25-5.89 3.91l-2.3 13.36s15.93 9.7 21.76 12.26c2.2.96 3.94-3.57 5.17-9.87-2.35-1.97-8.33-3.3-11.99-5.35-4.93-2.76-10.38-6.11-9.82-6.44.56-.33 7.19.92 13.89 2.55Zm-9 4.02c5.12 3.42 14.06 10.77 13.53 12.54-.53 1.77-7.75-1.31-13.73-5.18-3.24-2.1-5.87-4.07-7.58-4.87-.61-1.01.64-1.48 2.32-.46 2.36 1.45 13.01 7.49 13.01 6.9s-13.93-9.46-13.4-10.71c.53-1.25.72-1.64 5.85 1.77Z"/><path class="cls-16" d="M73.76 82.74c-3-.51-10.23 4.24-16.3 8.44-1.63 2.39-2.57 4.37-2.22 4.77 1.12 1.3 9.39-1.52 13.8-5.53 3.9-3.55 6.65-5.24 4.73-7.68Z"/><path class="cls-15" d="M38.41 92.74c-3.91.61-10.13 13.41-7.42 16.05s13.9 10.91 17.2.14c3.3-10.77 2.23-15.92-1.12-16.27s-8.67.08-8.67.08Z"/><path d="M48.16 92.98c.15.73.32 1.78.44 3.29.33 3.94-3.15 13.93-6.04 13.99-2.89.07-9.26-2.3-9.92-4.14-.54-1.5 1.82-8.66 3.53-12.03-3.6 3.49-7.4 12.52-5.18 14.69 2.7 2.64 13.9 10.91 17.2.14 2.91-9.5 2.42-14.63-.03-15.94Z"/><path class="cls-16" d="M42.99 93.71c-2.4-.07-3.98-.26-4.7 1.31s.13 3.22 3.68 3.22 5.27-1.05 4.71-2.96S43 93.7 43 93.7Z"/><path class="cls-1" d="M39.81 40.88c-1.62 8.98-9.48 15.47-17.57 14.48-8.1-1.02-13.35-9.16-11.73-18.14 1.62-9.01 9.5-15.5 17.58-14.48 8.08 1.02 13.33 9.13 11.71 18.14Z"/><g class="cls-5"><path class="cls-13" d="M29.91 23.11c5.74 2.41 9.12 8.98 7.83 16.19-1.53 8.49-8.94 14.6-16.55 13.64-5.26-.64-9.24-4.47-10.7-9.57 1.08 6.28 5.58 11.2 11.76 11.98 8.08.99 15.95-5.5 17.57-14.48 1.5-8.32-2.86-15.84-9.9-17.77Z"/></g><path class="cls-3" d="M33.42 41.2c0 5.21-3.45 9.42-7.69 9.42s-7.68-4.21-7.68-9.42 3.43-9.39 7.68-9.39 7.69 4.22 7.69 9.39Z"/><path d="M29.31 43.88c0 2.53-1.64 4.57-3.64 4.57s-3.64-2.04-3.64-4.57 1.62-4.59 3.64-4.59 3.64 2.06 3.64 4.59Z"/><path class="cls-1" d="M69.42 49.01c-1.62 8.98-9.48 15.47-17.57 14.48-8.1-1.02-13.35-9.16-11.73-18.14 1.62-9.01 9.5-15.5 17.58-14.48 8.08 1.02 13.33 9.13 11.71 18.14Z"/><g class="cls-5"><path class="cls-13" d="M59.52 31.24c5.74 2.41 9.12 8.98 7.83 16.19-1.53 8.49-8.94 14.6-16.55 13.64-5.26-.64-9.24-4.47-10.7-9.57 1.08 6.28 5.58 11.2 11.76 11.98 8.08.99 15.95-5.5 17.57-14.48 1.5-8.32-2.86-15.84-9.9-17.77Z"/></g><path class="cls-3" d="M63.03 49.33c0 5.21-3.45 9.42-7.69 9.42s-7.68-4.21-7.68-9.42 3.43-9.39 7.68-9.39 7.69 4.22 7.69 9.39Z"/><path d="M58.92 52.01c0 2.53-1.64 4.57-3.64 4.57s-3.64-2.04-3.64-4.57 1.62-4.59 3.64-4.59 3.64 2.06 3.64 4.59Z"/><path class="cls-1" d="M31.24 44.48c-2.43.7-4.61.47-4.89-.49s1.46-2.31 3.89-3.01 4.64-.49 4.91.48-1.48 2.32-3.91 3.02ZM60.39 48.79c2.1-.6 4-.35 4.26.55s-1.22 2.12-3.32 2.73-4.02.37-4.28-.54 1.24-2.13 3.34-2.74Z"/><path class="cls-15" d="M38.82 20.79c-.26-.09-.51-.18-.77-.27-23.27-8.02-32.79-2.43-25.34 7.63s44.32 24 67.97 19.62 13.33-13.62-6.3-19.34-35.83-7.73-35.83-7.73"/><path class="cls-11" d="M31.15 25.34s7.89-10.51 3.49-22.95c0 0 49.55 8.06 56.73 11.47 0 0-15.88 5.69-15.74 23.74 0 0-30.25 4.38-44.48-12.26Z"/><path class="cls-15" d="M34.64 2.39c2.1 3.08 9.61 8.67 29.45 11.43s27.46.66 29.04-.79-8.81-4.99-24.47-9.33-36.54-4.99-34.02-1.31Z"/><path class="cls-11" d="M88.59 34.14c2.63 2.62 2.96 4.82 1.38 7.01-2.79 3.87-14.72 5.74-30.31 3.73-15.59-2.01-31.62-7.62-41.26-14.63-6.51-4.73-7.85-9.62-4.95-12.52-3.97 1.74-4.35 5.55-.75 10.41 7.53 10.16 44.32 24 67.97 19.62 16.73-3.1 16.45-8.63 7.91-13.63Z"/><path d="M98.15 105 73.99 216.86s-4.78 4.41-8.86-1.91l24.16-111.86s5.58-4.04 8.86 1.91Z"/><path d="m89.29 103.08-5.51 25.49s2.32 6.08 8.86 1.91l5.51-25.49c-3.28-5.95-8.86-1.91-8.86-1.91Z" style="fill:#d1a754"/><path d="M73.99 216.86s-5.91-.83-6.54-2.93 23.64-109.54 23.64-109.54l-1.55-1.47c-.16.1-.25.16-.25.16L65.13 214.94c4.08 6.32 8.86 1.91 8.86 1.91Z" style="opacity:.35"/><path d="M89.29 103.08c-.07.96 6.87 3.67 8.86 1.91-3.28-5.95-8.86-1.91-8.86-1.91Z" style="fill:#e6b75c"/><path class="cls-1" d="M40.67 75.49s3.51 3.4 0 5.54c0 0 3.48-1.91 6.64 1.91 0 0-3.1-3.68-.63-5.32 0 0-1.67 2.19-6-2.13Z"/></g></g></g></svg>