<svg id="_Слой_2" xmlns="http://www.w3.org/2000/svg" viewBox="0 0 196.13 195.29"><defs><clipPath id="clippath"><path d="M187.3 103.66c-7.26-.55-13.53 17.52-18.96 28.37-2.78-1.76-6.29-3.54-10.74-5.13-14.24-5.11-25.16-4.18-28.92-3.62-19.95 1.6-41.52 23.23-55.62 25.25-14.93 2.14-32.15-4.77-21.33-33.02C62.56 87.25 84.21 68.17 74.41 34.6 64.63 1.01 14.62 24.4 32.28 57.27c2.51 4.67 5.67 14.63-2.71 28.88-8.38 14.25-22.5 34.2-21.52 58.1.98 23.9 25.13 54.39 60.83 50.74 35.7-3.65 39.44-34.15 65.92-40.58 17.93-4.35 27.29 10.31 39.28 10.98 11 .61 17.7-17.13 20.14-27.7 5.18-22.47-1.23-33.61-6.92-34.04Z" style="fill:none"/></clipPath><style>.cls-1,.cls-2{fill:#fff}.cls-3{fill:#c40000}.cls-4{fill:#8a1e1c}.cls-5{stroke:#c67ca2;stroke-miterlimit:10;stroke-width:1.51px;fill:none}.cls-2,.cls-8{opacity:.2}.cls-10{fill:#333}.cls-14{fill:#ff9300}.cls-17{fill:#383838}.cls-21{fill:#f7d2e9}</style></defs><g id="_Червяки"><path class="cls-4" d="M64.44 94.45c-3.84 7.01 7.55 16.29 14.56 9.28s31.36-5.17 39.42-10.03 10.86-10.27 13.31-15.8 8.41.08 6.83 7.61-.53 9.64 3.15 15.42 6.66 6.03 5.78 11.25-2.1 5.04-.7 8.55.88 7.01.88 7.01l-41.95 13.49-24.87 11.86s-20.95 11.44-26.9 1.63-12.89-15.29-11.61-22.45 22.11-37.81 22.11-37.81Z"/><path d="M119.12 96.64c6.48-3.24 8.5-7.36 11.91-13.4 3.42-6.04 3.45-6.58 5.34-5.12 1.5 1.16 2.17 4.64 2.13 7.69l.06-.29c1.58-7.53-4.38-13.14-6.83-7.61s-5.26 10.94-13.31 15.8c-8.06 4.86-32.41 3.02-39.42 10.03s-18.39-2.28-14.56-9.28c0 0-.7 1.04-1.86 2.77-.12 6.8.27 9.13 7.31 12.04 7.62 3.15 10.24-5.87 17.78-7.1 7.53-1.23 24.96-2.28 31.45-5.52Z" style="fill:#5e1513"/><path d="M146.8 120.73c-1.08-2.69-.6-3.22.07-5.68-4.4-.38-12.7 1.85-15.27 7-3.42 6.83-24.31 14.72-32.98 13.66-8.67-1.05-4.07-13.4 7.23-13.27 11.3.13 21.02-3.68 26.93-10.25 4.72-5.25 7.35-6.47 11.49-7.81-.78-.91-1.65-2-2.56-3.44-3.44-5.4-4.58-7.6-3.43-14.01-3.08-2.26-9.82 7.63-13.65 15.45-4.07 8.31-20.63 6.53-33.11 11.66-12.48 5.12-5.52 19.45-16.82 22.07-11.3 2.63-20.23-3.28-20.15-13.8.06-7.61 3.5-16.69 5.4-21.11-6.2 9.45-16.73 26.05-17.62 31.07-1.28 7.16 5.66 12.64 11.61 22.45.33.54.71 1 1.12 1.42l24.99-5.18 6.3-.5 19.36-9.23 41.95-13.49s.53-3.5-.88-7.01Z" style="fill:#5e1513;opacity:.43"/><g style="clip-path:url(#clippath);fill:none"><path class="cls-21" d="M187.3 103.66c-7.26-.55-13.53 17.52-18.96 28.37-2.78-1.76-6.29-3.54-10.74-5.13-14.24-5.11-25.16-4.18-28.92-3.62-19.95 1.6-41.52 23.23-55.62 25.25-14.93 2.14-32.15-4.77-21.33-33.02C62.56 87.25 84.21 68.17 74.41 34.6 64.63 1.01 14.62 24.4 32.28 57.27c2.51 4.67 5.67 14.63-2.71 28.88-8.38 14.25-22.5 34.2-21.52 58.1.98 23.9 25.13 54.39 60.83 50.74 35.7-3.65 39.44-34.15 65.92-40.58 17.93-4.35 27.29 10.31 39.28 10.98 11 .61 17.7-17.13 20.14-27.7 5.18-22.47-1.23-33.61-6.92-34.04Z"/><path class="cls-5" d="M22.34 80.24s-3.21 19.17 15.47 21.84c18.68 2.67 31.62-10.96 31.62-10.96M3.44 131.89c4.69 13.52 35.57 23.41 51.56 1.43M52.41 141.94s1.55 4.19-.52 12.4C49.83 162.55 39 175.35 14 173.42M58.6 146.08s5.41 3.66 9.02 11.39c3.61 7.73 6.84 30.43-21.84 36.95M68.14 147.4s8.51.9 14.95 6.21c6.44 5.31 18.04 28.74-5.16 45.65M79.95 144.64s9.33-4.58 19.64-1.43c10.31 3.15 22.17 19.48 5.16 35.95"/><path class="cls-5" d="M94.43 136.27c0-.29 12.12-6.88 21.4-4.67s21.91 17.08 6.19 33.8"/><path class="cls-5" d="M122.7 122.82s14.55-.52 19.94 7.12c6.44 9.13 4.73 19.62-6.79 31.24M144.19 122.81c.6-.12 12.2 2.54 16.58 7.45s6.89 19.4-5.32 27.13"/><path class="cls-5" d="M166.29 129.58s9.03 5.84 11.94 15.5-3.19 18.68-18.49 18.12"/><path class="cls-5" d="M168.03 131.15s7.99 1.95 14.39 8.37c6.7 6.72 6.96 18.92-1.72 24.88"/><path class="cls-5" d="M167.47 129.78c.69-.08 6.27-7.57 16.33-2.33 10.05 5.23 9.62 14.41 8.33 20.33"/><path class="cls-5" d="M170.99 123.82s2.84-5.07 11.08-5.07 14.35 6.28 14.52 14.01M175.38 115.45s3.44-6.12 10.14-5.39c6.7.72 9.54 4.19 11.08 11.84"/><path class="cls-5" d="M180.14 107.31c.31 0 3.62-2.51 7.53-1.85 2.86.48 6.19 2.9 8.16 8.86"/><path class="cls-8" d="M3.95 120.36s6.19 51.01 43.57 60.97 53.88-17.78 65.99-31.57c12.12-13.79 35.83-17.21 49.24-1.85 13.4 15.36 21.4 12.94 30.42 5.69 9.02-7.25 10.05 34.03 9.54 35.25-.52 1.22-58.52 19.86-58.52 19.86l-76.56 15.9s-84.04-21.25-83.26-26.09 19.58-78.16 19.58-78.16Z"/><path class="cls-8" d="M71.66 80.18c.17.48-27.5 31.4-28.7 53.46-1.2 22.06 12.2 25.13 24.58 21.98 12.37-3.15 10.83-26.26 10.83-26.26l-6.7-49.19ZM150.11 123.74c.95.08 16.33 4.75 22.6 12.88 6.27 8.13 12.03-2.42 9.02-12.56s-3.27-13.77 1.89-19.97c5.16-6.2-33.51 19.64-33.51 19.64Z"/><path class="cls-8" d="M5.63 137.79s4.51 46.37 41.5 52.29c36.99 5.92 48.85-6.76 63.93-21.98 15.08-15.22 29-21.88 49.11-8.22 20.11 13.66 18.43 13.53 18.43 13.53L60.54 215.72s-90.22-17.79-88.81-19.73c1.42-1.93 33.9-58.21 33.9-58.21Z"/><path class="cls-8" d="M58.26 107.56c-.26.48-11.08 9.66-12.55 25.04-1.46 15.38 14.61 25.76 21.14 18.12 6.53-7.65 7.91-14.73 7.91-14.73l-16.5-28.42ZM168.34 132.02c.26 0 1.28 1.03 3.86 3.13 2.58 2.09 9.02-5.49 6.27-12.58-2.75-7.08.17-13 .17-13l-10.3 22.45Z"/></g><path class="cls-2" d="M33.85 92.42c-8.53 10.92-21.14 33.15-15.12 50.79 6.01 17.64 19.25 29.72 29.22 28.91 9.97-.81.34-9.02-11-23.83-11.34-14.81-4.3-39.45.86-50.4 5.16-10.95-1.22-8.97-3.95-5.47ZM157.85 130.06c-13.79-4.12-26.94-8.81-46.53 2.78s-30.55 14.49-31.19 23.31c-.64 8.82 2.96 7.65 25.65-10.06 22.68-17.71 39.01-16.47 46.92-13.33 7.91 3.14 9.31-1.46 5.16-2.7ZM187.95 104.4c-4.03-.82-6.39 3.5-6.07 10.69.32 7.19 2.11 12.32 2.9 15.52.79 3.2 8.18-3.02 7.93-11.35-.26-8.33-2.37-14.37-4.76-14.85Z"/><path class="cls-2" d="M26.77 112.19c-3.76 0-10.44 21.74-3.74 34.96 6.7 13.22 11.47 17.45 15.34 14.19 3.87-3.26-12.5-16.41-12.5-25.65s4.64-23.5.9-23.5ZM109.64 138.27c-7.26.56-25 9.66-23.97 14.13 1.03 4.47 28.66-14.49 23.97-14.13ZM143.54 127.93c-5.81-1.32-14.05-.81-15.42.85-1.37 1.65 7.43.2 13.4.16s14.87 4.39 15.68 3.1c.82-1.29-10.65-3.42-13.66-4.11ZM187.29 106.47c-2.55.35-4.52 4.19-2.63 6.8 1.89 2.62 5.59 5.88 3.57 8.49s-4.28 4.83-1.86 6.48c2.42 1.65 5.04-4.87 5.21-8.33.17-3.46-1.1-13.89-4.29-13.45Z"/><path class="cls-21" d="M40.02 22.78c-9.58 7.25-14.8 26.25-30.52 26.37-15.72.12-10.05 13.41 3.48 22.46 13.53 9.06 39.96 10.51 49.75-3.26 9.8-13.77 8.85-36.32 8.85-36.32l-31.56-9.25Z"/><path class="cls-8" d="M61.74 47.33c-4.89-2.52-19.09.18-19.09.18l-3.42-3.52s-4.97-4.19-11.16-6.18c-6.83 6.16-1.04 4.06-9.92 9.04 3 4.42 9.64 6.45 17.16 2.74 0 0 10.48 15.62 23.72 7 13.23-8.61 7.6-6.75 2.71-9.26Z"/><path class="cls-17" d="M80.75 7.91C58.33 10.19 57.18 0 57.18 0 45.35 1.2 48.5 11.33 48.5 11.33l.03.02c-1.5-.17-2.98-.28-4.4-.28-13.49 0-5.46 12.83-5.46 12.83s2.79-2.1 7.24-.32c4.46 1.78 6.19 8.46 6.19 8.46 3.92-1.31 9.98-2.87 16.55 2.51s5.26 16.29 2.94 24.64-2.24 21.78 0 18.1c1.45-2.38 11.24-15.85 15.21-28.38s16.36-43.27-6.06-40.99Z"/><path class="cls-10" d="M86.12 50.94c-1.36 1.49-3.95 3.01-3.88-.27.09-3.76-3.07-2.98-4.12-2.2-1.05.79-.96-2.8-1.23-6.39-.24-3.27-4.7-8.43-6.15-5.3 4.14 5.81 2.88 15.09.85 22.41-2.32 8.35-2.24 21.78 0 18.1 1.37-2.25 10.2-14.43 14.52-26.35Z"/><path d="M77.6 65.88c-1.12.53 1.77-4.93 1.91-7.23s-2.23 1.58-3.09 2.82c-.85 1.25-3.02.72-2.69-2.23.23-2.08.2-3.58-.97-5-.32 1.7-.71 3.37-1.15 4.94-2.32 8.35-2.24 21.78 0 18.1.81-1.33 4.2-6.09 7.74-12.22-.72.33-1.37.64-1.74.81Z" style="fill:#2e2e2e"/><path d="M52.02 4.85c-.44 2.45 2.95 4.86 5.16 3.88 0 0-.7 4.36 6.05 4.36s5.61-3.94 10.6-2.54c4.99 1.4 4.2 3.15 7.45 2.54 3.24-.61 6.39 3.42 6.74 1.66s2.19 5.61 3.85 2.98c.12-.19.23-.41.34-.65-.99-5.83-4.18-9.9-11.46-9.16C58.33 10.19 57.18 0 57.18 0s-4.72 2.39-5.16 4.85Z" style="fill:#474747"/><path class="cls-10" d="M91.07 34.12c-1.15 1.03-2.4 1.74-2.51.03-.2-3.22-1.84-7.09-4.34-4.14-2.5 2.96-3.74-11.04-6.23-12.68s-9.14.85-13.61.97c-4.47.11-8.87-5.63-8.87-5.63s-3.29 1.13-5.52-3.48 1.98-7.69 1.98-7.69c-5.55 3.15-3.47 9.82-3.47 9.83l.03.02h-.02c2.77 5.47 6.46 4.27 6.46 4.27s2.74 4.04 7.42 6.23c4.68 2.19 10.12.35 13.28-.7 3.15-1.05 2.89 6.66 3.84 10.6.95 3.94 4.31.18 5.71.29 1.4.12.35 4.18 2.36 5.91 1.11.96 1.05 3.75.89 6.05.82-2.64 1.8-6.11 2.6-9.87Z"/><path class="cls-8" d="M28.07 73.39s1.88.92 2.32 1.31 1.54 2.65 3.2 3.21.44-2.11 1.09-2.64 5.56.66 9.57-1.75c0 0 1.29 1.8 2.12 4.07s2.98-4.91 2.93-5.74 3.85-3.43 3.85-3.43-7.99 3.78-9.75 4-12.53 1.4-15.33.96Z"/><path class="cls-1" d="M47.51 70.8s1.36 1.71-.92 6c0 0-.05-4.85-1.91-5.4s2.83-.6 2.83-.6ZM33.41 73.52s-.48 2.54 0 3.85c0 0-2.5-2.17-2.12-3.77l2.12-.09Z"/><path d="M26.53 73.17c8.18.22 16.21-1.88 24.01-4.11 1.13-.33 2.25-.69 3.4-.97-8.15 4.51-18.16 7.46-27.42 5.08Z" style="fill:#c6787b"/><path class="cls-1" d="M17.16 28.23c-.7.75-2.89 17.08 7.71 19.01s12.7-2.82 14.28-5.7-19.71-15.76-21.98-13.31ZM66.08 47.49c.01 1.03-9.32 14.6-18.47 8.92S40.09 45.8 40.85 42.6s25.19 1.54 25.23 4.89Z"/><path class="cls-3" d="M31.82 41.92c-1.27 2.68-4.07 4.01-6.25 2.98s-2.93-4.04-1.66-6.71c1.26-2.66 4.05-3.99 6.24-2.96s2.93 4.04 1.67 6.7ZM58.52 52.03c-1.27 2.68-4.07 4.01-6.25 2.98s-2.93-4.04-1.66-6.71c1.26-2.66 4.05-3.99 6.24-2.96s2.93 4.04 1.67 6.7Z"/><path d="M29.62 42.1c-.38.81-1.23 1.21-1.89.9s-.89-1.22-.5-2.03 1.23-1.21 1.89-.9.89 1.22.51 2.03ZM56.25 52.3c-.38.81-1.23 1.21-1.89.9s-.89-1.22-.5-2.03 1.23-1.21 1.89-.9.89 1.22.51 2.03Z"/><path class="cls-17" d="M42.69 38.95s-2.67 3.37-2.08 5.03 7.95-2.08 15.63.02 12.94 5.98 16.09 5.45c0 0-3.85-5.98-7.9-8.61s-21.75-1.89-21.75-1.89ZM41.39 37.05s-.02 4.3-1.52 5.22-4.91-6.59-12.22-9.75c-7.32-3.16-13.84-3.41-15.98-5.79 0 0 6.74-2.27 11.55-1.79s18.17 12.1 18.17 12.1Z"/><path d="M28.07 88.21s2.55-4.6 3.18-5.85 7.02 1.27 9.37 2.58c0 0 .06 5.82-.5 10.55s-1.15 13.36-1.15 13.36l-5.72-1.09s-7.45-6.7-7.31-7.23 2.15-12.33 2.15-12.33Z" style="fill:#cbbed1"/><path d="m39.96 91.96 5.52-7.16s6.64.92 13.93-.59 11.3-5.65 11.3-5.65l-6.96 13.08-9.79 11.3-12.22 5.93-9.92-6.85 8.15-10.05Z" style="fill:#d5c8db"/><path d="M33.41 106.76S29.7 87.45 28.42 85.7s-13.01 18.92-13.54 22.25 14.42.7 17.54 1.58 14.51 20.46 16.62 18.99.88-13.74 11.56-27.05 7.28-15.98 5.48-15.87-5.95 8.43-11.03 13.33-21.64 7.84-21.64 7.84Z" style="fill:#1f1f1f"/><path class="cls-14" d="M24.16 121.93c1.53-4.14 4.1-7.83 5.59-11.91.24-.66-.62-.97-1.06-.62-3.53 2.76-6.03 7.95-7.72 11.99-1.89 4.49-3.25 9.26-3.69 14.12-.23 2.48 3.5 2.37 3.81 0 .61-4.65 1.44-9.15 3.07-13.57ZM32.4 124.2c.8-4.34.48-8.82 1.28-13.09.13-.69 1.02-.52 1.23 0 1.63 4.18 1.12 9.91.52 14.25-.67 4.83-1.93 9.62-4.04 14.02-1.07 2.24-4.22.25-3.28-1.95 1.85-4.31 3.44-8.6 4.29-13.23Z"/><path class="cls-14" d="M42.02 106.73c-1.3 4.75-6.21 7.54-10.96 6.24s-7.54-6.21-6.24-10.96 6.21-7.54 10.96-6.24 7.54 6.21 6.24 10.96Z"/><path class="cls-4" d="M39.07 105.92c-.86 3.13-4.09 4.96-7.21 4.11s-4.96-4.09-4.11-7.21 4.09-4.96 7.21-4.11 4.96 4.09 4.1 7.21Z"/><path d="M38.24 104.7c-.56.56-2.05-.04-3.33-1.32-1.27-1.29-1.85-2.78-1.28-3.34.56-.56 2.05.04 3.33 1.32 1.27 1.29 1.85 2.78 1.28 3.34Z" style="fill:#fff0e7"/></g></svg>