<svg xmlns="http://www.w3.org/2000/svg" viewBox="0 0 240.78 207.29"><defs><clipPath id="clippath"><path d="M231.95 113.31c-7.26-.55-13.53 17.52-18.96 28.37-2.78-1.76-6.29-3.54-10.74-5.13-14.24-5.11-25.16-4.18-28.92-3.62-19.95 1.6-41.52 23.23-55.62 25.25-14.93 2.14-32.15-4.77-21.33-33.02 10.83-28.26 32.48-47.34 22.68-80.91-9.8-33.57-59.8-10.18-42.15 22.69 2.51 4.67 5.67 14.63-2.71 28.88-8.38 14.25-22.5 34.2-21.52 58.1.98 23.9 25.13 54.39 60.83 50.74 35.7-3.65 39.44-34.15 65.92-40.58 17.93-4.35 27.29 10.31 39.28 10.98 11 .61 17.7-17.13 20.14-27.7 5.18-22.47-1.23-33.61-6.92-34.04Z" style="fill:none"/></clipPath><style>.cls-1,.cls-2{fill:#fff}.cls-5{fill:#ffe4f0}.cls-6{stroke:#b35357;stroke-miterlimit:10;stroke-width:1.51px}.cls-6,.cls-7{fill:none}.cls-12,.cls-5,.cls-7{mix-blend-mode:multiply}.cls-15,.cls-2{opacity:.2}.cls-12,.cls-17{fill:#f2d3b1}.cls-12,.cls-5{opacity:.5}.cls-19{fill:#dedede}.cls-20{fill:#e49da7}.cls-22{fill:#ffda31}.cls-25{fill:#085400}</style></defs><g style="isolation:isolate;fill:none"><g id="_Слой_2"><g id="_Червяки"><path d="M22.08 137.6c-1.97 1.41-.28 3.79 1.73 5.44.86.99 1.8 1.89 2.41 2.46 5.41 5.1 10.49 10.59 15.31 16.27 2.27 2.68 4.44 5.43 6.56 8.22 2.21 2.91 4.12 6.33 6.72 8.93 1.84 1.84 6.42 2.02 5.44-1.22-.68-2.27-2.75-4.07-4.35-5.88-2.73-3.1-5.47-6.2-8.2-9.3L32.25 145c-2.37-2.69-6.84-9.78-10.16-7.39Z" style="fill:#d99393"/><path d="M60.32 178.92c-.5.21-1.12.28-1.8.18-2.08-.29-3.93-2.46-5.18-4.2-3.46-4.8-5.58-10.4-8.7-15.39-.44-.69-.89-1.36-1.36-2.01-1.48-1.68-2.96-3.36-4.44-5.03a35.089 35.089 0 0 0-5.03-3.89c-3.4-2.17-12.02-6.04-11.94-10.81-1.62 1.43 0 3.69 1.93 5.27.86.99 1.8 1.89 2.41 2.46 5.41 5.1 10.49 10.59 15.31 16.27 2.27 2.68 4.44 5.43 6.56 8.22 2.21 2.91 4.12 6.33 6.72 8.93 1.57 1.56 5.09 1.92 5.52 0Z" style="fill:#d99393;opacity:.5;mix-blend-mode:multiply"/><path class="cls-22" d="M4.69 117.78c2.15-.34 6.69.74 11.58 2.51 4.37-2.61 8.39-4.58 10.29-4.69.86 2.47 1.51 6.73 1.4 11.82 3.57 3.31 6.17 6.28 7.43 8.31-2.99 1.24-6.13 2.96-10.63 4.58-2.13 4.28-4.21 7.2-5.78 10.03-1.87-1.48-4.52-4.41-7.4-8.33-5.07-.48-9.22-1.62-11.58-2.76.33-1.87 2.75-5.64 5.84-9.68-1.2-5.06-1.74-9.7-1.16-11.79Z"/><path d="M6.86 120.23c1.73-.27 5.39.6 9.34 2.02 3.53-2.11 6.77-3.7 8.3-3.78.69 1.99 1.22 5.42 1.13 9.53 2.88 2.67 4.98 5.07 5.99 6.7-2.41 1-4.95 2.39-8.58 3.7-1.72 3.45-3.39 5.81-4.66 8.09-1.51-1.19-3.64-3.56-5.97-6.72-4.09-.39-7.44-1.31-9.34-2.22.26-1.51 2.21-4.55 4.71-7.81-.97-4.08-1.4-7.82-.93-9.51Z" style="fill:#ffda31;mix-blend-mode:screen"/><path d="M7.81 117.94c-.33 8.38.94 17.36 4.19 24.64 2.71 3.64 5.2 6.37 6.98 7.77.8-1.44 1.73-2.91 2.74-4.56-1.52-5.82-3.09-11.56-3.52-17.78-.21-3.05.02-6.06.37-9.04-.75.42-1.52.86-2.3 1.33-3.15-1.14-6.14-1.99-8.45-2.36Z" style="mix-blend-mode:screen;opacity:.5;fill:#fff"/><g style="clip-path:url(#clippath);fill:none"><path class="cls-20" d="M231.95 113.31c-7.26-.55-13.53 17.52-18.96 28.37-2.78-1.76-6.29-3.54-10.74-5.13-14.24-5.11-25.16-4.18-28.92-3.62-19.95 1.6-41.52 23.23-55.62 25.25-14.93 2.14-32.15-4.77-21.33-33.02 10.83-28.26 32.48-47.34 22.68-80.91-9.8-33.57-59.8-10.18-42.15 22.69 2.51 4.67 5.67 14.63-2.71 28.88-8.38 14.25-22.5 34.2-21.52 58.1.98 23.9 25.13 54.39 60.83 50.74 35.7-3.65 39.44-34.15 65.92-40.58 17.93-4.35 27.29 10.31 39.28 10.98 11 .61 17.7-17.13 20.14-27.7 5.18-22.47-1.23-33.61-6.92-34.04Z"/><path class="cls-6" d="M66.99 89.89s-3.21 19.17 15.47 21.84c18.68 2.67 31.62-10.96 31.62-10.96M48.08 141.55c4.69 13.52 35.57 23.41 51.56 1.43M97.06 151.59s1.55 4.19-.52 12.4c-2.06 8.21-12.89 21.01-37.89 19.08M103.25 155.74s5.41 3.66 9.02 11.39c3.61 7.73 6.84 30.43-21.84 36.95M112.79 157.05s8.51.9 14.95 6.21c6.44 5.31 18.04 28.74-5.16 45.65M124.59 154.29s9.33-4.58 19.64-1.43c10.31 3.15 22.17 19.48 5.16 35.95"/><path class="cls-6" d="M139.08 145.92c0-.29 12.12-6.88 21.4-4.67s21.91 17.08 6.19 33.8"/><path class="cls-6" d="M167.35 132.47s14.55-.52 19.94 7.12c6.44 9.13 4.73 19.62-6.79 31.24M188.83 132.47c.6-.12 12.2 2.54 16.58 7.45s6.89 19.4-5.32 27.13"/><path class="cls-6" d="M210.94 139.23s9.03 5.84 11.94 15.5-3.19 18.68-18.49 18.12"/><path class="cls-6" d="M212.68 140.8s7.99 1.95 14.39 8.37c6.7 6.72 6.96 18.92-1.72 24.88"/><path class="cls-6" d="M212.12 139.43c.69-.08 6.27-7.57 16.33-2.33 10.05 5.23 9.62 14.41 8.33 20.33"/><path class="cls-6" d="M215.64 133.47s2.84-5.07 11.08-5.07 14.35 6.28 14.52 14.01M220.02 125.1s3.44-6.12 10.14-5.39c6.7.72 9.54 4.19 11.08 11.84"/><path class="cls-6" d="M224.78 116.97c.31 0 3.62-2.51 7.53-1.85 2.86.48 6.19 2.9 8.16 8.86"/><path class="cls-15" d="M48.6 130.02s6.19 51.01 43.57 60.97 53.88-17.78 65.99-31.57c12.12-13.79 35.83-17.21 49.24-1.85 13.4 15.36 21.4 12.94 30.42 5.69 9.02-7.25 10.05 34.03 9.54 35.25-.52 1.22-58.52 19.86-58.52 19.86l-76.56 15.9s-84.04-21.25-83.26-26.09 19.59-78.17 19.59-78.17Z"/><path class="cls-15" d="M116.31 89.84c.17.48-27.5 31.4-28.7 53.46-1.2 22.06 12.2 25.13 24.58 21.98 12.37-3.15 10.83-26.26 10.83-26.26l-6.7-49.19ZM194.76 133.39c.95.08 16.33 4.75 22.6 12.88 6.27 8.13 12.03-2.42 9.02-12.56s-3.27-13.77 1.89-19.97c5.16-6.2-33.51 19.64-33.51 19.64Z"/><path class="cls-15" d="M50.27 147.44s4.51 46.37 41.5 52.29c36.99 5.92 48.85-6.76 63.93-21.98 15.08-15.22 29-21.88 49.11-8.22 20.11 13.66 18.43 13.53 18.43 13.53l-118.06 42.31s-90.22-17.79-88.81-19.73c1.42-1.93 33.9-58.21 33.9-58.21Z"/><path class="cls-15" d="M102.9 117.21c-.26.48-11.08 9.66-12.55 25.04-1.46 15.38 14.61 25.76 21.14 18.12 6.53-7.65 7.91-14.73 7.91-14.73l-16.5-28.42ZM212.99 141.68c.26 0 1.28 1.03 3.86 3.13 2.58 2.09 9.02-5.49 6.27-12.58-2.75-7.08.17-13 .17-13l-10.3 22.45Z"/></g><path class="cls-2" d="M202.49 139.71c-13.79-4.12-26.94-8.81-46.53 2.78s-30.55 14.49-31.19 23.31c-.64 8.82 2.96 7.65 25.65-10.06 22.68-17.71 39.01-16.47 46.92-13.33 7.91 3.14 9.31-1.46 5.16-2.7ZM232.6 114.05c-4.03-.82-6.39 3.5-6.07 10.69.32 7.19 2.11 12.32 2.9 15.52.79 3.2 8.18-3.02 7.93-11.35-.26-8.33-2.37-14.37-4.76-14.85Z"/><path class="cls-2" d="M154.29 147.93c-7.26.56-25 9.66-23.97 14.13 1.03 4.47 28.66-14.49 23.97-14.13ZM188.19 137.58c-5.81-1.32-14.05-.81-15.42.85-1.37 1.65 7.43.2 13.4.16s14.87 4.39 15.68 3.1c.82-1.29-10.65-3.42-13.66-4.11ZM231.93 116.12c-2.55.35-4.52 4.19-2.63 6.8 1.89 2.62 5.59 5.88 3.57 8.49s-4.28 4.83-1.86 6.48c2.42 1.65 5.04-4.87 5.21-8.33.17-3.46-1.1-13.89-4.29-13.45Z"/><path class="cls-20" d="M84.66 32.43c-9.58 7.25-14.8 26.25-30.52 26.37-15.72.12-10.05 13.41 3.48 22.46 13.53 9.06 39.96 10.51 49.75-3.26 9.8-13.77 8.85-36.32 8.85-36.32l-31.56-9.25Z"/><path class="cls-17" d="M154.96 30.34c.75-11.49-11.11-19.25-21.6-18.13-5.3.57-10.39 2.63-13.59 7.05-1.57 2.18-2.33 5.33-1.73 8.06.15 2.48.99 4.97 2.17 7.05 2.68 4.73 7.58 8.15 12.66 9.85 10.13 3.4 21.39-2.92 22.1-13.88Z"/><path class="cls-12" d="M150.91 29.51c-.63-4.77-4.54-8.89-9.09-8.88-2.9-.39-6 .52-7.68 2.91-1.3 1.85-1.7 3.74-.94 5.89.68 1.91 3.13 3.31 5.11 2.98 1.67-.28 3.99-1.43 4.16-3.4.14-1.7-.62-3.07-2.44-2.91-.85.07-1.07.98-1.11 1.63 0 .06.03.09.07.1.35-.85 1.91-.9 2.07.42.27 2.33-1.49 3.41-3.64 3.11-2.34-.33-4.34-2.53-3.47-4.97.48-1.36 1.51-2.71 2.82-3.43.14-.1.28-.19.42-.27 4-2.38 8.84.26 10.58 4.06 1.91 4.17-.63 8.7-4.4 10.63-3.81 1.95-8.6.35-12.12-1.46-7.16-3.69-9-12.48-4.31-18.92 1.77-2.43 4.48-4.02 7.35-4.85-.31.02-.62.04-.93.07-5.3.57-10.39 2.63-13.59 7.05-1.57 2.18-2.33 5.33-1.73 8.06.15 2.48.99 4.97 2.17 7.05 2.68 4.73 7.58 8.15 12.66 9.85 3.2 1.07 6.52 1.18 9.58.47 1.59-.68 3.1-1.69 4.47-3.09.77-.78 1.39-1.63 1.9-2.51 1.76-2.81 2.53-6.33 2.1-9.58Z"/><path class="cls-22" d="M131.41 8.15c-3.98-.07-7.74.88-11.18 2.82.22-2.92.03-5.77-.57-8.66-.09-.43-.57-.53-.89-.29a60.77 60.77 0 0 0-8.46 7.64c-1.3-3.68-3.35-6.91-6.28-9.53-.32-.29-.76-.06-.72.36.5 5.12.07 10.24-.22 15.35-.24 1.74-.4 3.5-.58 5.23-.04.43.33.77.73.81 5.18.44 9.96 1.82 14.71 3.89.3.13.66-.04.83-.29 4.1-5.67 8.65-11.03 13.04-16.48.26-.33-.04-.84-.43-.85Z"/><g style="opacity:.5;mix-blend-mode:multiply;fill:none"><path class="cls-22" d="M124.01 17.11c-.76 1.03-1.55 1.95-2.67 2.6-1.4.82-3.8-.32-5.19-.76-2.51-.79-5.04-1.53-7.55-2.35-3.31-1.08-2.11-5.16-2.33-7.69-.27-3.05-1-6.21-2.51-8.9-.25-.02-.47.18-.44.49.5 5.12.07 10.24-.22 15.35-.24 1.74-.4 3.5-.58 5.23-.04.43.33.77.73.81.13.01.26.03.39.04.15-.14.27-.33.32-.57.12.03.24.06.35.09.13.07.28.11.43.11.62.23 1.22.48 1.83.75 3.93.66 7.68 1.85 11.4 3.46.3.13.66-.04.83-.29 4.1-5.67 8.65-11.03 13.04-16.48.1-.12.12-.27.08-.4-1.33 1.13-2.57 2.34-3.72 3.5-1.53 1.55-2.9 3.26-4.2 5.01Z"/><path class="cls-22" d="M109.8 10.94c.07.61.84.59 1.15.22.99-1.19 6.31-7.01 8.99-7.32-.08-.51-.17-1.02-.27-1.53-.09-.43-.57-.53-.89-.29a59.538 59.538 0 0 0-7.61 6.74l-.38.47c0-.02 0-.04-.01-.06-.15.16-.31.32-.46.49a24.3 24.3 0 0 0-1.73-3.85c.5 1.67 1 3.32 1.22 5.12Z"/></g><path class="cls-1" d="M126.11 9.5c-3.35.36-8.57 3.41-9.46 6.89-.12.47.38 1.09.88.76 1.42-.95 2.5-2.52 3.75-3.71 1.51-1.43 3.32-2.41 4.99-3.62.17-.12 0-.35-.17-.33ZM116.72 5.06c-1.87.88-3.29 2.31-4.55 3.92-1.16 1.49-2.61 3.47-2.57 5.43 0 .38.44.63.75.36 1.25-1.12 1.9-2.86 2.84-4.25 1.19-1.76 2.69-3.29 3.93-5.01.18-.26-.13-.57-.39-.44ZM106.22 8.65c-.11-1.66-.67-3.25-1.67-4.58-.06-.08-.19-.02-.19.07-.07 1.67.09 3.34.2 5 .09 1.38-.32 2.95.25 4.22.15.33.56.28.76.04 1-1.19.75-3.3.65-4.76Z"/><path class="cls-17" d="M100.69 16.2c-5.21-3.17-12.93.66-16.91 4.17-3.68 3.24-5.98 8.18-6.16 13.12-.3 1.95.05 3.94.34 5.96.09.67.96.56 1.19.06 1.66-3.69 7.77-3.42 11.16-4.34 3.38-.92 6.5-2.5 9.16-4.78 4.24-3.63 6.97-10.7 1.23-14.2Z"/><path class="cls-12" d="M99.46 30.39c1.04-.89 1.99-1.99 2.75-3.19.49-1.86.76-3.81.83-5.82.02-.73-1.06-.96-1.28-.24-.07.22-.13.44-.19.66-3.91 4.74-7.24 9.5-13.68 10.85-3.49.73-9.7-.09-8.47-5.1.69-2.79 2.38-4.72 3.99-6.85-3.46 3.24-5.61 8-5.79 12.77-.3 1.95.05 3.94.34 5.96.09.67.96.56 1.19.06 1.66-3.69 7.77-3.42 11.16-4.34 3.38-.92 6.5-2.5 9.16-4.78Z"/><path class="cls-17" d="M133.79 38.86c-1.02-2.23-2.37-4.33-3.86-6.26-2.2-2.84-4.94-5.24-7.69-7.52-3.12-2.59-6.37-5.02-10.23-6.36-5.31-1.85-11.14.22-13.34 5.46-2.41 5.72-.92 13.66 1.1 19.25 4.28 11.83 19.33 21.86 31.51 14.84 7.98-4.6 6.62-12.45 2.52-19.4Z"/><path class="cls-12" d="M132.53 52.86c-2.11 2.25-10.06 4.82-7.49-1.05.85-1.94 1.31-3.91 1.32-5.93.65-3.82-.37-8.08-3.22-10.14-.05-.04-.11-.07-.16-.11-1.45-1.51-3.33-2.23-5.6-1.21-4.9 2.21-2.42 9.41 2.81 7.64.2-.07.37-.21.37-.44 0-1.36-.34-2.08-1.43-2.9 0 0-.02 0 0 .01.96 2.18.55 2.92-1.24 2.22-.56-.12-1.03-.36-1.39-.67-1.07-1.46-.89-3.62 1.08-4.95.15-.1.29-.18.45-.25 1.37-.29 3 .21 4.12.94 1.51.98 2.25 2.4 2.73 3.94.5 2.3.23 4.91-.23 6.95-.96 4.26-5.06 5.32-8.77 4.18-2.71-.83-5.15-2.94-7.11-4.9-3.61-3.58-5.81-8.37-6.76-13.32-.97-5.1-.51-11.96 4.24-14.68-3.29.57-6.18 2.61-7.58 5.96-2.41 5.72-.92 13.66 1.1 19.25 4.28 11.83 19.33 21.86 31.51 14.84 6.76-3.89 6.82-10.12 4.19-16.15.64 3.8-.25 7.91-2.93 10.75Z"/><path class="cls-15" d="M88.05 78.1s1.08 5.45 6.09 4.09c0 0-4.16.1-6.09-4.09ZM109.25 39.86c-4.89-2.52-13.22 3.04-13.22 3.04l-7.99 1.45s1.47-8.81-4.71-10.8C76.5 39.71 71.68 51.52 62.8 56.5c3 4.42 9.64 6.45 17.16 2.74 0 0 10.48 15.62 23.72 7 13.23-8.61 10.47-23.87 5.58-26.39Z"/><path class="cls-1" d="M84.68 43.52C83.06 52.5 75.2 58.99 67.11 58c-8.1-1.02-13.35-9.16-11.73-18.14 1.62-9.01 6.03-9.55 14.12-8.53 8.08 1.02 16.79 3.18 15.18 12.2Z"/><g class="cls-7"><path class="cls-19" d="M71.82 32.2c5.74 2.41 12.07 2.54 10.78 9.75-1.53 8.49-8.94 14.6-16.55 13.64-5.26-.64-9.24-4.47-10.7-9.57 1.08 6.28 5.58 11.2 11.76 11.98 8.08.99 15.95-5.5 17.57-14.48 1.5-8.32-5.82-9.4-12.86-11.32Z"/></g><path class="cls-25" d="M78.29 43.84c0 5.21-3.45 9.42-7.69 9.42s-7.68-4.21-7.68-9.42 3.43-9.39 7.68-9.39 7.69 4.22 7.69 9.39Z"/><path class="cls-1" d="M76.79 43.02c0 2.53-1.64 4.57-3.64 4.57s-3.64-2.04-3.64-4.57 1.62-4.59 3.64-4.59 3.64 2.06 3.64 4.59ZM114.47 52.25c-1.62 8.98-9.48 15.47-17.57 14.48-8.1-1.02-13.35-9.16-11.73-18.14 1.62-9.01 6.03-9.55 14.12-8.53 8.08 1.02 16.79 3.18 15.18 12.2Z"/><g class="cls-7"><path class="cls-19" d="M101.61 40.93c5.74 2.41 12.07 2.54 10.78 9.75-1.53 8.49-8.94 14.6-16.55 13.64-5.26-.64-9.24-4.47-10.7-9.57 1.08 6.28 5.58 11.2 11.76 11.98 8.08.99 15.95-5.5 17.57-14.48 1.5-8.32-5.82-9.4-12.86-11.32Z"/></g><path class="cls-25" d="M108.07 52.57c0 5.21-3.45 9.42-7.69 9.42s-7.68-4.21-7.68-9.42 3.43-9.39 7.68-9.39 7.69 4.22 7.69 9.39Z"/><path class="cls-1" d="M106.58 51.76c0 2.53-1.64 4.57-3.64 4.57s-3.64-2.04-3.64-4.57 1.62-4.59 3.64-4.59 3.64 2.06 3.64 4.59Z"/><path class="cls-20" d="M74.85 105.08s-3.25-8.75-12-8.75c-9.85 0-28.03 8.82-22.42 26.69s31.58 3.92 31.58 3.92"/><path class="cls-20" d="M94.55 104.81s-21.72-12.61-29.61 5.43 5.26 25.23 17.52 24.35 12.09-29.78 12.09-29.78Z"/><path class="cls-2" d="M69.2 99.44c-2-1.77-6.31-2.56-12.42-.26s-6.77 4.53-5.78 5.91 6.96 2.69 11.89.46 8.01-4.6 6.31-6.11Z"/><path class="cls-2" d="M67.2 99.19c-.95-.84-2.99-1.22-5.89-.12s-3.21 2.15-2.74 2.81 3.31 1.28 5.64.22 3.8-2.18 2.99-2.9ZM82.19 104.51c-.95-.84-2.99-1.22-5.89-.12s-3.21 2.15-2.74 2.81 3.31 1.28 5.64.22 3.8-2.18 2.99-2.9Z"/><path class="cls-2" d="M84.98 104.73c-2-1.77-6.31-2.56-12.42-.26s-6.77 4.53-5.78 5.91 6.96 2.69 11.89.46 8.01-4.6 6.31-6.11Z"/><path d="M50 100.03c1.04-.16-6.3 6.96-1.37 10.05s14.27 1.12 14.27 1.12-5.01 6.24 4.91 7.29 22.34-4.2 23.12-9.92 12.72-1.84 20.26-13.14c0 0 4.2-1.75-2.19 10.42s-14.32 22.16-13.27 31.75 1.99 16.12 11.64 17.72 15.3-3.4 16.74-2.15 13.93 2.7 15.5 16.49 1.58 22.47-3.68 27.85-10.25 11.17-40.47 9.46-45.59-31.66-46.91-45.33 1.05-24.26 1.31-25.84-2.89.53-9.02-7.71.79-26.8 9.14-28.07Z" style="fill:#ffe4f0"/><path d="M83.6 47.35s1.75-4.99-4.29-9.99-9.2-4.03-18.66-1.84-19.8-8.06-19.09-13.14c0 0 8.15 11.47 18.31 7.71 7.52-2.79 21.02-1.55 25.01 6.57 1.4 2.84.81 5.1-1.27 10.69Z"/><path d="M84.89 49.95s.05-5.29 7.43-7.93c7.38-2.64 10.02-.67 18.17 4.61 8.15 5.27 21.36-.86 22.42-5.87 0 0-11.56 8.03-19.84 1.03-6.13-5.18-19.25-8.6-25.76-2.32-2.28 2.2-2.49 4.53-2.43 10.48Z"/><path d="M68.63 78.88s-.1-7.57-6.59-4.44c-4.57 2.2-7.76 3.07-9.96 2.48 0 0 8.04 11.43 21.65 10.49s15.8-5.87 15.8-5.87-4.61 1.19-7.94-1.49-9.37-10.59-12.96-1.18Z" style="fill:#f05dab"/><path d="M73.73 87.42c13.61-.94 15.8-5.87 15.8-5.87-1.87 1.05-5.05 2.01-11.53 1.18-6.48-.83-3.85-1.88-11.43-1.93-7.58-.04-14.49-3.88-14.49-3.88s8.04 11.43 21.65 10.49Z" style="fill:#ff63b6"/><path d="M68.44 82.89c-3.75-.53-7.92-.66-7.16.49s4.4 2.76 9.2 2.79 6.96-.49 6.83-1.28-5.85-1.58-8.87-2Z" style="fill:#ff91cc"/><path d="M112.5 97.29c.37-2.54-1.3-1.85-1.3-1.85-7.53 11.3-19.47 7.42-20.26 13.14-.79 5.72-13.2 10.97-23.12 9.92s-4.91-7.29-4.91-7.29-9.34 1.97-14.27-1.12 2.4-10.21 1.37-10.05c-3.27.5-6.32 3.65-8.45 7.79-.08 3.71 2 6.56 5.9 7.25 6.7 1.18 12.35-.33 12.35-.33s-3.94 8.34 7.62 8.08c11.56-.26 19.64-.99 23.39-5.52 3.74-4.53 1.05-7.83 3.02-9.34 1.97-1.5 8.28-1.3 12.94-4.27 3.28-2.09 4.97-4.42 5.72-6.42Z" style="fill:#fff2f8"/><path class="cls-5" d="M135.94 197.52c3.97-4.07 4.94-10.01 4.5-18.61-15.86 13.94-68.98 19.39-81.23 1.14-12.45-18.55-7.84-44.86-7.84-44.86 3.85-2.29 4.12-4.89 4.12-4.89 1.75 10.34 12 15.07 23.47 12.7 11.47-2.36 14.19-11.74 16.91-18.83 1.34-3.51 3.08-3.93 5.07-4.02 2.45-4.47 5.39-9.19 8.07-14.29.27-.51.51-.99.74-1.45-4.49 2.72-14.63 4.06-15.52 5.35-1.05 1.51 1.91 4.25-2.04 13.36-3.94 9.11-12.18 12.26-24.35 10.69s-10.73-10.96-10.73-10.96c-2.23 3.73-5.91 4.57-12.31 2.38-3.5-1.2-5.22-5.19-6.05-8.55-.59 4.29-.07 8.51 2.11 11.44 6.13 8.23 9.28 6.13 9.02 7.71-.26 1.58-2.63 12.18-1.31 25.84 1.31 13.66 16.69 43.62 46.91 45.33 30.22 1.71 35.21-4.07 40.47-9.46Z"/><path class="cls-5" d="M114.23 155.43c-2 .27-4.28.32-6.86-.11-9.65-1.6-10.58-8.13-11.64-17.72-.16-1.46-.09-2.93.13-4.42-1.43 3.27-3.7 9.73-2.71 16.02 1.4 8.93 6.74 12.35 13.49 11.12 3.21-.58 5.77-2.77 7.59-4.91Z"/><path d="M121.01 163.04c-3.44-2.33-5.24.32-5.36 3.31-3.87-2.72-9.28-2.87-10.35 3.08-.52 2.86 1.9 5.95 4.35 7.08 4.48 2.07 11.82.94 14.16 6.12.23.51 1.13.45 1.15-.17.03-1.1.02-2.22-.03-3.34.03-.03.05-.07.05-.12.27-2.97.1-5.76-.54-8.67-.49-2.23-1.42-5.92-3.43-7.28Z" style="fill:#d4514d;opacity:.5"/></g></g></g></svg>