<svg xmlns="http://www.w3.org/2000/svg" viewBox="0 0 196.13 219.95"><defs><clipPath id="clippath"><path d="M187.3 117.62c-7.26-.55-13.53 17.52-18.96 28.37-2.78-1.76-6.29-3.54-10.74-5.13-14.24-5.11-25.16-4.18-28.92-3.62-19.95 1.6-41.52 23.23-55.62 25.25-14.93 2.14-32.15-4.77-21.33-33.02 10.83-28.26 32.48-47.34 22.68-80.91-9.8-33.57-59.8-10.18-42.15 22.69 2.51 4.67 5.67 14.63-2.71 28.88-8.38 14.25-22.5 34.2-21.52 58.1.98 23.9 25.13 54.39 60.83 50.74 35.7-3.65 39.44-34.15 65.92-40.58 17.93-4.35 27.29 10.31 39.28 10.98 11 .61 17.7-17.13 20.14-27.7 5.18-22.47-1.23-33.61-6.92-34.04Z" style="fill:none"/></clipPath><style>.cls-1,.cls-2{fill:#fff}.cls-4,.cls-5,.cls-6{mix-blend-mode:multiply}.cls-5,.cls-6{opacity:.5}.cls-8{stroke:#b35357;stroke-miterlimit:10;stroke-width:1.51px}.cls-4,.cls-5,.cls-8{fill:none}.cls-17,.cls-2{opacity:.2}.cls-18{fill:#dedede}.cls-19,.cls-6{fill:#b57b54}.cls-20{fill:#e49da7}.cls-21{fill:#6ad5eb}.cls-22{fill:#c5d4ad}.cls-23{fill:#cae0eb}</style></defs><g style="isolation:isolate;fill:none"><g id="_Слой_2"><g id="_Червяки"><g style="clip-path:url(#clippath);fill:none"><path class="cls-20" d="M187.3 117.62c-7.26-.55-13.53 17.52-18.96 28.37-2.78-1.76-6.29-3.54-10.74-5.13-14.24-5.11-25.16-4.18-28.92-3.62-19.95 1.6-41.52 23.23-55.62 25.25-14.93 2.14-32.15-4.77-21.33-33.02 10.83-28.26 32.48-47.34 22.68-80.91-9.8-33.57-59.8-10.18-42.15 22.69 2.51 4.67 5.67 14.63-2.71 28.88-8.38 14.25-22.5 34.2-21.52 58.1.98 23.9 25.13 54.39 60.83 50.74 35.7-3.65 39.44-34.15 65.92-40.58 17.93-4.35 27.29 10.31 39.28 10.98 11 .61 17.7-17.13 20.14-27.7 5.18-22.47-1.23-33.61-6.92-34.04Z"/><path class="cls-8" d="M22.34 94.2s-3.21 19.17 15.47 21.84c18.68 2.67 31.62-10.96 31.62-10.96M3.44 145.85c4.69 13.52 35.57 23.41 51.56 1.43M52.41 155.9s1.55 4.19-.52 12.4C49.83 176.51 39 189.31 14 187.38M58.6 160.04s5.41 3.66 9.02 11.39c3.61 7.73 6.84 30.43-21.84 36.95M68.14 161.36s8.51.9 14.95 6.21c6.44 5.31 18.04 28.74-5.16 45.65M79.95 158.6s9.33-4.58 19.64-1.43c10.31 3.15 22.17 19.48 5.16 35.95"/><path class="cls-8" d="M94.43 150.23c0-.29 12.12-6.88 21.4-4.67s21.91 17.08 6.19 33.8"/><path class="cls-8" d="M122.7 136.78s14.55-.52 19.94 7.12c6.44 9.13 4.73 19.62-6.79 31.24M144.19 136.77c.6-.12 12.2 2.54 16.58 7.45s6.89 19.4-5.32 27.13"/><path class="cls-8" d="M166.29 143.54s9.03 5.84 11.94 15.5-3.19 18.68-18.49 18.12"/><path class="cls-8" d="M168.03 145.11s7.99 1.95 14.39 8.37c6.7 6.72 6.96 18.92-1.72 24.88"/><path class="cls-8" d="M167.47 143.74c.69-.08 6.27-7.57 16.33-2.33 10.05 5.23 9.62 14.41 8.33 20.33"/><path class="cls-8" d="M170.99 137.78s2.84-5.07 11.08-5.07 14.35 6.28 14.52 14.01M175.38 129.41s3.44-6.12 10.14-5.39c6.7.72 9.54 4.19 11.08 11.84"/><path class="cls-8" d="M180.14 121.28c.31 0 3.62-2.51 7.53-1.85 2.86.48 6.19 2.9 8.16 8.86"/><path class="cls-17" d="M3.95 134.33s6.19 51.01 43.57 60.97 53.88-17.78 65.99-31.57c12.12-13.79 35.83-17.21 49.24-1.85 13.4 15.36 21.4 12.94 30.42 5.69 9.02-7.25 10.05 34.03 9.54 35.25-.52 1.22-58.52 19.86-58.52 19.86l-76.56 15.9s-84.04-21.25-83.26-26.09 19.58-78.16 19.58-78.16Z"/><path class="cls-17" d="M71.66 94.14c.17.48-27.5 31.4-28.7 53.46-1.2 22.06 12.2 25.13 24.58 21.98 12.37-3.15 10.83-26.26 10.83-26.26l-6.7-49.19ZM150.11 137.7c.95.08 16.33 4.75 22.6 12.88 6.27 8.13 12.03-2.42 9.02-12.56s-3.27-13.77 1.89-19.97c5.16-6.2-33.51 19.64-33.51 19.64Z"/><path class="cls-17" d="M5.63 151.75s4.51 46.37 41.5 52.29c36.99 5.92 48.85-6.76 63.93-21.98 15.08-15.22 29-21.88 49.11-8.22 20.11 13.66 18.43 13.53 18.43 13.53L60.54 229.68s-90.22-17.79-88.81-19.73c1.42-1.93 33.9-58.21 33.9-58.21Z"/><path class="cls-17" d="M58.26 121.52c-.26.48-11.08 9.66-12.55 25.04-1.46 15.38 14.61 25.76 21.14 18.12 6.53-7.65 7.91-14.73 7.91-14.73l-16.5-28.42ZM168.34 145.98c.26 0 1.28 1.03 3.86 3.13 2.58 2.09 9.02-5.49 6.27-12.58-2.75-7.08.17-13 .17-13l-10.3 22.45Z"/></g><path class="cls-2" d="M33.85 106.38c-8.53 10.92-21.14 33.15-15.12 50.79 6.01 17.64 19.25 29.72 29.22 28.91 9.97-.81.34-9.02-11-23.83-11.34-14.81-4.3-39.45.86-50.4 5.16-10.95-1.22-8.97-3.95-5.47ZM157.85 144.02c-13.79-4.12-26.94-8.81-46.53 2.78s-30.55 14.49-31.19 23.31c-.64 8.82 2.96 7.65 25.65-10.06 22.68-17.71 39.01-16.47 46.92-13.33 7.91 3.14 9.31-1.46 5.16-2.7ZM187.95 118.36c-4.03-.82-6.39 3.5-6.07 10.69.32 7.19 2.11 12.32 2.9 15.52.79 3.2 8.18-3.02 7.93-11.35-.26-8.33-2.37-14.37-4.76-14.85Z"/><path class="cls-2" d="M26.77 126.15c-3.76 0-10.44 21.74-3.74 34.96 6.7 13.22 11.47 17.45 15.34 14.19 3.87-3.26-12.5-16.41-12.5-25.65s4.64-23.5.9-23.5ZM109.64 152.23c-7.26.56-25 9.66-23.97 14.13 1.03 4.47 28.66-14.49 23.97-14.13ZM143.54 141.89c-5.81-1.32-14.05-.81-15.42.85-1.37 1.65 7.43.2 13.4.16s14.87 4.39 15.68 3.1c.82-1.29-10.65-3.42-13.66-4.11ZM187.29 120.43c-2.55.35-4.52 4.19-2.63 6.8 1.89 2.62 5.59 5.88 3.57 8.49s-4.28 4.83-1.86 6.48c2.42 1.65 5.04-4.87 5.21-8.33.17-3.46-1.1-13.89-4.29-13.45Z"/><path class="cls-20" d="M40.02 36.74c-9.58 7.25-14.8 26.25-30.52 26.37-15.72.12-10.05 13.41 3.48 22.46 13.53 9.06 39.96 10.51 49.75-3.26 9.8-13.77 8.85-36.32 8.85-36.32l-31.56-9.25Z"/><path class="cls-17" d="M56.45 74.9s-.6 7.33 6.27 7.41c0 0-5.33-1.37-6.27-7.41Z"/><path d="M16.84 82.31C6.21 79.93 1.87 75.34.28 71.04c1.17 4.46 5.96 10.02 12.7 14.53 5.36 3.59 12.73 5.97 20.3 6.7C52 88.55 57.19 80.35 57.19 80.35s-16.97 7.19-40.34 1.96Z" style="opacity:.04"/><path class="cls-17" d="M64.61 44.17c-4.89-2.52-13.22 3.04-13.22 3.04l-7.99 1.45s1.47-8.81-4.71-10.8c-6.83 6.16-11.65 17.97-20.53 22.95 3 4.42 9.64 6.45 17.16 2.74 0 0 10.48 15.62 23.72 7 13.23-8.61 10.47-23.87 5.58-26.39Z"/><path class="cls-1" d="M40.04 47.83c-1.62 8.98-9.48 15.47-17.57 14.48-8.1-1.02-13.35-9.16-11.73-18.14 1.62-9.01 9.5-15.5 17.58-14.48 8.08 1.02 13.33 9.13 11.71 18.14Z"/><g class="cls-4"><path class="cls-18" d="M30.14 30.06c5.74 2.41 9.12 8.98 7.83 16.19-1.53 8.49-8.94 14.6-16.55 13.64-5.26-.64-9.24-4.47-10.7-9.57 1.08 6.28 5.58 11.2 11.76 11.98 8.08.99 15.95-5.5 17.57-14.48 1.5-8.32-2.86-15.84-9.9-17.77Z"/></g><path class="cls-1" d="M66.75 55.5c-2.46 8.26-10.54 13.73-18.05 12.18-7.53-1.54-11.62-9.48-9.16-17.74 2.46-8.26 10.54-13.7 18.07-12.15 7.51 1.51 11.62 9.45 9.15 17.71Z"/><g class="cls-4"><path class="cls-18" d="M59.27 38.26c5.16 2.67 7.65 9.04 5.7 15.64-2.33 7.79-9.95 12.91-17.02 11.48-4.88-.99-8.24-4.85-9.1-9.71.37 5.93 4.09 10.84 9.84 12.01 7.51 1.54 15.59-3.93 18.05-12.18 2.28-7.62-1.04-14.94-7.47-17.24Z"/></g><path d="M33.64 48.14c0 5.21-3.45 9.42-7.69 9.42s-7.68-4.21-7.68-9.42 3.43-9.39 7.68-9.39 7.69 4.22 7.69 9.39Z" style="fill:#422787"/><path d="M46.52 58.32c-.09 0-.15-.03-.23-.06-.28-.09-.42-.32-.35-.55.89-3.23 3.03-8.87 7.32-10.2 1.95-.64 4.09-.29 6.32 1.02.28.17.33.5.15.7-.21.23-.57.29-.84.15-1.9-1.14-3.66-1.43-5.22-.93-2.21.7-4.2 3.08-5.63 6.66 2.72-2.91 5.23-4.28 7.5-4.01 3.38.41 4.75 4.19 4.83 4.33.09.26-.09.55-.4.64-.32.06-.66-.09-.75-.35-.02-.03-1.22-3.31-3.85-3.63-2.27-.26-5.18 1.83-8.35 6.02-.12.15-.32.23-.51.23Z"/><path class="cls-1" d="M32.14 47.33c0 2.53-1.64 4.57-3.64 4.57s-3.64-2.04-3.64-4.57 1.62-4.59 3.64-4.59 3.64 2.06 3.64 4.59Z"/><path d="M7.43 81.23c1.64 1.5 3.5 2.97 5.55 4.34 2.88 1.93 6.35 3.51 10.12 4.67 22.48 1.17 34.09-9.89 34.09-9.89-27.89 15.03-49.62.97-49.75.88Z" style="fill:#fef0ea"/><path class="cls-21" d="M84.26 54.63c-.17-1.31-.93-2.29-1.68-3.13-3.8-6.4-9.87-10.83-14.89-14.53-5.35-3.95-10.97-7.25-16.89-9.55-6.21-2.41-12.64-4.1-19.31-4.57-5.9-.42-12.68-1.1-18.88 1.37-.18.03-.36.06-.55.09-.52.08-.85.87-.94 1.58-.6 4.98-1.12 9.94-1.67 14.91-.1.91.44 1.42.95 1.34.76-.13 1.52-.26 2.27-.4 4.94-.09 9.98-.71 14.83-.03 6.17.85 12.21 2.3 18.01 4.69 6.08 2.5 11.97 5.75 17.43 9.99 4.36 3.38 8.19 8.09 12.41 11.75.25.37.51.74.77 1.11.33.47.98.38 1.37-.32 1.9-3.37 3.94-6.68 5.74-10.18.67-1.29 1.2-2.63 1-4.13Z"/><g class="cls-4"><path class="cls-23" d="M84.26 54.63c.13.95-.04 1.84-.36 2.69-.34.28-.67.56-1.01.85-2.83 2.53-5.4 6-8.05 9.03-.21.24-.43 0-.42-.32.33-7.65.38-14.72 3.22-21.61-1.2 1.09-2.39 2.24-3.56 3.5-2.71 2.93-5.09 6.74-7.58 10.13-.2.27-.44.08-.45-.24-.18-7.32-.61-14.06 1.64-21.06-.87 1.1-1.72 2.23-2.55 3.43-2.44 3.54-4.44 7.8-6.61 11.72-.17.31-.44.2-.49-.1-1.12-7.38-2.44-14.03-.36-22.02a72.562 72.562 0 0 0-2.93 4.44c-2.29 3.77-4.11 8.2-6.1 12.3-.16.32-.44.25-.5-.03-1.5-7.01-3.17-13.3-1.54-21.28-.94 1.52-1.86 3.09-2.73 4.73-2.12 3.99-3.72 8.56-5.53 12.84-.07.15-.16.22-.25.24-.05-.02-.11-.03-.16-.04a.354.354 0 0 1-.09-.16c-1.9-6.61-3.92-12.5-2.75-20.43 5.38.73 10.61 2.21 15.7 4.18 5.92 2.3 11.54 5.6 16.89 9.55 5.02 3.7 11.09 8.13 14.89 14.53.75.83 1.51 1.82 1.68 3.13ZM35.09 23.24c-.93 1.61-1.84 3.25-2.69 4.97-2.03 4.1-3.52 8.73-5.22 13.08-.13.34-.43.33-.51.07-1.98-6.04-4.05-11.44-3.48-18.67a87.06 87.06 0 0 0-2.54 5.22c-1.89 4.24-3.2 8.94-4.74 13.4-.12.35-.42.37-.52.12-1.95-4.96-3.95-9.44-4.28-15.2.01-.11.02-.22.04-.33.09-.72.42-1.5.94-1.58.18-.03.36-.06.55-.09 6.2-2.47 12.98-1.78 18.88-1.37 1.2.08 2.39.22 3.58.38Z"/></g><g class="cls-5"><path class="cls-23" d="M67.7 36.97c5.02 3.7 11.09 8.13 14.89 14.53.75.83 1.51 1.82 1.68 3.13.2 1.48-.32 2.79-.97 4.07-1.55-13-18.98-22.24-24.32-24.88-6.6-3.27-13.71-4.98-20.95-5.65-6.31-.58-13.29-.53-19.89 3.52 4.98.44 9.95.95 14.93 1.42 1.05.1.67 2.68-.38 2.95-1.11.29-2.21.58-3.31.87-2.51.95-5.05 1.3-7.55 2.18-1.87.65-3.73 1.59-5.58 2.51-1.18.06-2.36.11-3.53.13-.76.14-1.52.28-2.27.4-.51.08-1.05-.42-.95-1.34.55-4.97 1.07-9.94 1.67-14.91.09-.72.42-1.5.94-1.58.18-.03.36-.06.55-.09 6.2-2.47 12.98-1.78 18.88-1.37 6.66.47 13.09 2.16 19.31 4.57 5.92 2.3 11.54 5.6 16.89 9.55Z"/><path class="cls-23" d="M36.12 41.93c6.19.86 12.16 3.14 17.73 6.24 7.89 4.39 15.28 11.09 21.32 19.78-4.13-3.64-7.92-8.24-12.2-11.56-5.47-4.24-11.36-7.5-17.43-9.99-5.8-2.38-11.84-3.83-18.01-4.69a34.52 34.52 0 0 0-3.05-.26c4-.72 8.12 0 11.64.48Z"/></g><path class="cls-22" d="M81.27 62.8c1.32-1.4 2.58-2.89 3.72-4.45 6.05-5.87 10.18-14.19 12.08-22.12 1.3-5.45 1.68-10.92 1.14-16.49-.61-6.35-1.7-12.82-.03-19.1.16-.59-.69-.85-1.03-.44-7.35 8.72-16.06 22.53-11.77 34.26-1-1.24-1.84-2.62-2.61-4.04-.37-.68-1.29-.44-1.28.33.07 10.16-.6 20.32-1.48 30.44 0 .05 0 .11.01.16.02.42-.04 1.25.26 1.6.29.17.7.15.98-.16Z"/><g class="cls-5"><path class="cls-22" d="M85.68 48.84c.72-1.6 1.52-3.18 2.3-4.73 2.73-5.45 5.38-10.49 6.34-16.61 1.34-8.61-.47-19.3 3.65-27.39.17.11.28.29.22.54-1.67 6.28-.58 12.75.03 19.1.54 5.58.16 11.04-1.14 16.49-1.9 7.93-6.03 16.24-12.08 22.12a45.42 45.42 0 0 1-3.72 4.45.78.78 0 0 1-.98.16c-.31-.35-.24-1.18-.26-1.6 0-.05 0-.11-.01-.16.88-10.12 1.55-20.28 1.48-30.44 0-.25.1-.44.24-.56 1.15 2.76 2.04 5.67 2.77 8.25.89 3.18 1.57 6.92 1.18 10.4Z"/><path class="cls-22" d="M86.24 19.76c-.34 3.21-.25 6.41.06 9.62.29 2.91 1.15 5.76 1.18 8.69 0 .14-.17.23-.27.11-.94-1.23-1.63-2.64-2.15-4.14.11.14.21.29.33.43-2.05-5.62-1.12-11.72 1.21-17.5-.14.93-.26 1.87-.36 2.8Z"/></g><path class="cls-1" d="M81.5 58.68c1.84-3.99 3.38-8.12 4.78-12.28 1.51-4.48 2.69-9.06 3.73-13.67 1.06-4.68 1.17-9.51 2.13-14.21.02-.08.14-.09.15 0 .82 8.89-1.58 18.71-3.98 27.22-1.22 4.31-2.81 8.5-4.59 12.61-2 4.62-4.63 8.3-7.39 12.46-.09.14-.32 0-.24-.15 2.07-3.86 3.58-7.99 5.42-11.98Z"/><path d="M32.31 94.14s-3.33 7.01 10.6 9.11 24.44-7.45 26.8-9.9-.26 5.78-2.8 10.25-12.31 24.92-13.09 34.51-2.5 17.34 5.52 19.58c0 0 4.86 1.97 2.89 12.61s-11.82 29.3-20.89 31.4-7.36 4.47-16.55-3.94-22.07-26.15-18.92-48.22 27.15-62.15 26.45-55.4Z" style="fill:#8f7860"/><path class="cls-17" d="M66.9 103.6c2.54-4.47 5.17-12.7 2.8-10.25-2.36 2.45-12.88 12-26.8 9.9-13.93-2.1-10.6-9.11-10.6-9.11.2-1.96-1.68.04-4.54 4.41.64 3.54 3.7 6.41 10.67 7.51 12.79 2.01 24.26-2.85 25.49-2.43s-7.53 11.1-11.21 19.34c-3.68 8.23-13.31 26.14-7.88 34.53 5.43 8.39 11.74 10.32 12.35 13.47.61 3.15-7.32 21.9-13.78 25.58-6.39 3.64-34.56-19.99-35.84-54.76-.78 2.75-1.37 5.37-1.71 7.77-3.15 22.07 9.72 39.81 18.92 48.22s7.49 6.04 16.55 3.94c9.07-2.1 18.92-20.76 20.89-31.4 1.97-10.64-2.89-12.61-2.89-12.61-8.01-2.23-6.31-9.99-5.52-19.58s10.55-30.04 13.09-34.51Z"/><g style="opacity:.2;fill:none"><path d="M40.61 201.87c-1.34-.36-2.9-.96-4.8-1.75-7.02-2.94-31.52-21.82-29.18-54.72-.33 1.43-.59 2.82-.78 4.14-3.15 22.07 9.72 39.81 18.92 48.22 8.94 8.18 7.58 6.17 15.83 4.12ZM61.72 114.24c-4.16 6.27-8.92 14.61-11.46 23.08-5.12 17.08 1.45 23.12 6.04 25.62 4.6 2.5 5.12 6.04 2.5 13.66-1.73 5.01-3.68 10.36-5.9 14.96 4.58-6.7 8.21-15.26 9.32-21.27 1.97-10.64-2.89-12.61-2.89-12.61-8.01-2.23-6.31-9.99-5.52-19.58.49-5.92 4.4-15.98 7.91-23.86Z"/></g><path class="cls-17" d="M69.71 93.35c-2.36 2.45-12.88 12-26.8 9.9-13.93-2.1-10.6-9.11-10.6-9.11.14-1.38-.74-.8-2.27 1.17-.23 3.22 1.56 5.96 6.36 7.79 7.42 2.82 18 1.77 25.09-1.25 3.92-1.67 6.99-4.74 8.96-7.16.35-1.57.21-2.34-.75-1.34Z"/><path d="M35.8 114.24c-3.57-3.92-14.97 9.32-18.65 22.55s-4.2 31.36 16.29 42.39 15.94-5.96 9.46-12.96-14.19-19.8-9.11-33.11 3.49-17.25 2.01-18.87Z" style="fill:#9c8368"/><path d="M24.86 129.44c-3.47-.79-10.07 17.87-3.77 29.78s18.48 20.76 22.07 18.74-8.5-12.26-13.23-18.39-5.69-15.77-4.12-21.55.96-8.15-.96-8.58Z" style="fill:#a68b6f"/><path d="M26.07 101.24s0 8.23 12.89 8.93 27.07-6.96 28.56-6.55-6.48 23.39-9.7 27.59 5.85-20.89 6.04-22.27-5.06 13.53-7.42 16.16 4.4-13.93 4.2-14.78-11.26 32.72-12.25 30.94 9.21-29.04 8.79-30.22-5.96 18.35-7.46 18.37 4.81-15.55 4.28-16.66-8.08 24.64-10.18 23.91 7.82-22.8 6.96-23.39-5.12 16.11-6.57 16.14 3.88-15.99 2.96-15.87-7.04 24.89-8.22 24.3 4.74-21.78 4.87-23.6-8.08 28.99-10.25 28.27 8.54-27.69 6.7-28.27-4.56 17.75-5.99 17.55 3.62-17.03 1.74-17.21-6.89 22.64-8.58 22.38c-4.03-.61 5.65-22.95 4.6-23.04S23.69 140.67 22.01 140c-3.15-1.25 8.46-26.27 7.55-27.62s-12.21 31.96-13.07 33.47-2.85.54-.08-6.13 10.98-28.29 9.67-30.06-8.68 29.23-11.09 28.97 8.64-28.96 7.99-29.96-10.21 27.5-12.58 26.1 8.85-25.38 11.74-30.03 3.55-5.38 3.92-3.51Z" style="fill:#5ebed1"/><path class="cls-21" d="M67.52 103.62c-1.49-.42-15.68 7.25-28.56 6.55s-12.89-8.93-12.89-8.93c-.31-1.57-.83-1.3-2.69 1.57.43 2.06 2.07 4.41 5.36 6.31 7.6 4.38 18.08 3.85 26.81 1.31 4.93-1.43 9.21-2.88 11.8-4.39.4-1.41.51-2.33.17-2.42Z"/><path d="m74.92 107.42.03-.03.02.02c.11-.13.23-.25.34-.38 11.92 17.49 23.59 35.16 35.32 52.79 13.1 19.71 26.57 39.29 39.15 59.33-.34.14-.7.3-.94.54-13.5-19.4-26.24-39.45-39.23-59.21-11.62-17.66-23.27-35.28-34.68-53.07Z" style="fill:#151515"/><path d="M128.02 150.54c2.14 3.67 4.77 6.77 7.27 10.16 2.72 3.71 2.89 8.59-1.73 7.78-4.2-.74-8.93-7.7-11.2-11.53-2.66-4.48-5.58-11.74-4.46-16.22.06-.22.2-.35.39-.41.48-.95 1.73-1.35 2.87-.47.26.2.48.4.69.62.22-.03.49.08.69.35 2.18 2.98 3.63 6.53 5.49 9.71Z" style="fill:#836249"/><path d="M119.45 150.93c-1.06-2.76-1.81-5.66-1.78-8.12.78-1.01 1.95-1.7 3.64-1.95.41-.06.83-.06 1.25-.01 2.16 2.98 3.61 6.51 5.47 9.68 2.14 3.67 4.77 6.77 7.27 10.16 2.72 3.71 2.89 8.59-1.73 7.78-2.12-.37-4.36-2.32-6.36-4.65 1.57.2 2.37-1.92 2.19-3.7-.21-2.05-1.74-4.75-2.74-6.64-.83-1.57-1.89-2.86-3.27-3.85-2.37-1.71-3.39-.37-3.92 1.3Z" style="opacity:.5;fill:#836249;mix-blend-mode:multiply"/><path class="cls-19" d="M136.13 156.72c-.42-.45-1.08-.49-1.36-.09-1.99 2.93-3.95 5.86-5.79 8.93-.08.13-.1.28-.09.43-.1.35.01.77.35 1.15 6.9 7.83 12.87 16.78 17.19 26.29 3.7 8.14 8.91 20.48 1.87 25.21-.5.33.07 1.52.66 1.27.05-.02.09-.04.13-.06s0 0 .02 0c9.06-3.89 10.36-14.15 6.73-25.76-4.07-13.03-9.97-27.09-19.73-37.37Z"/><path class="cls-6" d="M150.26 185.16c3.25 7.02 4.91 14.38 4.51 21.29-.3 5.19-2.26 11.2-6.55 13.03-.15-.31-.17-.68.08-.85 7.03-4.73 1.82-17.08-1.87-25.21-4.32-9.51-10.3-18.46-17.19-26.29-.09-.1-.16-.21-.22-.32 1.44-3.12 4.42-5.58 8.01-2.46 2.86 2.48 4.93 6.27 7 9.49a93.23 93.23 0 0 1 6.23 11.33Z"/><path class="cls-19" d="M100.96 110.27c-9.19-7.96-19.12-10.87-26.3-4.12h-.02s-.07.07-.11.1c-.46.44.4 1.44.9 1.12 7.15-4.56 16.38 5.15 22.36 11.79 6.99 7.76 12.81 16.82 17.23 26.26.21.46.56.73.92.78.13.07.27.11.42.09 3.55-.46 7.02-1.08 10.5-1.74.48-.09.7-.71.46-1.28-5.52-13.05-16.05-24.07-26.37-33.02Z"/><path class="cls-6" d="M106.9 118.95c-5.14-5.79-11.22-10.24-17.72-12.65-4.88-1.8-11.17-2.4-14.56.8.22.26.56.42.81.27 7.15-4.56 16.38 5.15 22.36 11.79 6.99 7.76 12.81 16.82 17.23 26.26.06.13.13.23.21.33 3.44-.07 6.88-1.82 5.46-6.36-1.13-3.61-3.78-7.03-5.9-10.21-2.4-3.61-5.04-7.02-7.9-10.23Z"/></g></g></g></svg>