<svg xmlns="http://www.w3.org/2000/svg" viewBox="0 0 200.15 200.52"><defs><clipPath id="clippath"><path d="M187.3 108.88c-7.26-.55-13.53 17.52-18.96 28.37-2.78-1.76-6.29-3.54-10.74-5.13-14.24-5.11-25.16-4.18-28.92-3.62-19.95 1.6-41.52 23.23-55.62 25.25-14.93 2.14-32.15-4.77-21.33-33.02 10.83-28.26 32.48-47.34 22.68-80.91-9.8-33.57-59.8-10.18-42.15 22.69 2.51 4.67 5.67 14.63-2.71 28.88-8.38 14.25-22.5 34.2-21.52 58.1.98 23.9 25.13 54.39 60.83 50.74 35.7-3.65 39.44-34.15 65.92-40.58 17.93-4.35 27.29 10.31 39.28 10.98 11 .61 17.7-17.13 20.14-27.7 5.18-22.47-1.23-33.61-6.92-34.04Z" style="fill:none"/></clipPath><style>.cls-1{fill:#d4514d}.cls-2,.cls-3,.cls-4{fill:#fff}.cls-10,.cls-7{mix-blend-mode:multiply}.cls-11{stroke:#b35357;stroke-miterlimit:10;stroke-width:1.51px}.cls-11,.cls-7{fill:none}.cls-10{fill:#900}.cls-3{opacity:.5}.cls-17,.cls-4{opacity:.2}.cls-18{fill:#dedede}.cls-19{fill:#4f3226}.cls-20{fill:#e49da7}.cls-21{fill:#e4e4e4}.cls-23{fill:#383838}.cls-26{fill:#664131}.cls-10{opacity:.3}</style></defs><g style="isolation:isolate;fill:none"><g id="_Слой_2"><g id="_Червяки"><g style="clip-path:url(#clippath);fill:none"><path class="cls-20" d="M187.3 108.88c-7.26-.55-13.53 17.52-18.96 28.37-2.78-1.76-6.29-3.54-10.74-5.13-14.24-5.11-25.16-4.18-28.92-3.62-19.95 1.6-41.52 23.23-55.62 25.25-14.93 2.14-32.15-4.77-21.33-33.02 10.83-28.26 32.48-47.34 22.68-80.91-9.8-33.57-59.8-10.18-42.15 22.69 2.51 4.67 5.67 14.63-2.71 28.88-8.38 14.25-22.5 34.2-21.52 58.1.98 23.9 25.13 54.39 60.83 50.74 35.7-3.65 39.44-34.15 65.92-40.58 17.93-4.35 27.29 10.31 39.28 10.98 11 .61 17.7-17.13 20.14-27.7 5.18-22.47-1.23-33.61-6.92-34.04Z"/><path class="cls-11" d="M22.34 85.46s-3.21 19.17 15.47 21.84c18.68 2.67 31.62-10.96 31.62-10.96M3.44 137.12c4.69 13.52 35.57 23.41 51.56 1.43M52.41 147.16s1.55 4.19-.52 12.4C49.83 167.77 39 180.57 14 178.64M58.6 151.31s5.41 3.66 9.02 11.39c3.61 7.73 6.84 30.43-21.84 36.95M68.14 152.62s8.51.9 14.95 6.21c6.44 5.31 18.04 28.74-5.16 45.65M79.95 149.86s9.33-4.58 19.64-1.43c10.31 3.15 22.17 19.48 5.16 35.95"/><path class="cls-11" d="M94.43 141.49c0-.29 12.12-6.88 21.4-4.67s21.91 17.08 6.19 33.8"/><path class="cls-11" d="M122.7 128.05s14.55-.52 19.94 7.12c6.44 9.13 4.73 19.62-6.79 31.24M144.19 128.04c.6-.12 12.2 2.54 16.58 7.45s6.89 19.4-5.32 27.13"/><path class="cls-11" d="M166.29 134.8s9.03 5.84 11.94 15.5-3.19 18.68-18.49 18.12"/><path class="cls-11" d="M168.03 136.37s7.99 1.95 14.39 8.37c6.7 6.72 6.96 18.92-1.72 24.88"/><path class="cls-11" d="M167.47 135c.69-.08 6.27-7.57 16.33-2.33 10.05 5.23 9.62 14.41 8.33 20.33"/><path class="cls-11" d="M170.99 129.04s2.84-5.07 11.08-5.07 14.35 6.28 14.52 14.01M175.38 120.67s3.44-6.12 10.14-5.39c6.7.72 9.54 4.19 11.08 11.84"/><path class="cls-11" d="M180.14 112.54c.31 0 3.62-2.51 7.53-1.85 2.86.48 6.19 2.9 8.16 8.86"/><path class="cls-17" d="M3.95 125.59s6.19 51.01 43.57 60.97 53.88-17.78 65.99-31.57c12.12-13.79 35.83-17.21 49.24-1.85 13.4 15.36 21.4 12.94 30.42 5.69 9.02-7.25 10.05 34.03 9.54 35.25-.52 1.22-58.52 19.86-58.52 19.86l-76.56 15.9s-84.04-21.25-83.26-26.09 19.58-78.16 19.58-78.16Z"/><path class="cls-17" d="M71.66 85.41c.17.48-27.5 31.4-28.7 53.46-1.2 22.06 12.2 25.13 24.58 21.98 12.37-3.15 10.83-26.26 10.83-26.26l-6.7-49.19ZM150.11 128.96c.95.08 16.33 4.75 22.6 12.88 6.27 8.13 12.03-2.42 9.02-12.56s-3.27-13.77 1.89-19.97c5.16-6.2-33.51 19.64-33.51 19.64Z"/><path class="cls-17" d="M5.63 143.01s4.51 46.37 41.5 52.29c36.99 5.92 48.85-6.76 63.93-21.98 15.08-15.22 29-21.88 49.11-8.22 20.11 13.66 18.43 13.53 18.43 13.53L60.54 220.94s-90.22-17.79-88.81-19.73c1.42-1.93 33.9-58.21 33.9-58.21Z"/><path class="cls-17" d="M58.26 112.78c-.26.48-11.08 9.66-12.55 25.04-1.46 15.38 14.61 25.76 21.14 18.12 6.53-7.65 7.91-14.73 7.91-14.73l-16.5-28.42ZM168.34 137.25c.26 0 1.28 1.03 3.86 3.13 2.58 2.09 9.02-5.49 6.27-12.58-2.75-7.08.17-13 .17-13l-10.3 22.45Z"/></g><path class="cls-1" d="M7.47 143.94c7.86 6.7 16.9 10.95 26.23 12.21 4.8.65 9.65.66 14.43-.24 4.79-.9 9.14-3.01 13.77-4.66.39-.14.59-.66.5-1.15-1.3-7.35-2.65-14.48-2.85-22.08-.2-7.53.33-14.92 1.46-22.31.09-.6-.13-1.02-.54-1.25l-2.67-1.47c-2.79-3.43-6.24-6.11-9.36-8.96-3.12-2.86-6.2-6.25-9.6-8.52-2.11-1.4-4.45-2.17-6.68-2.03.25-.24.51-.48.76-.72.52-.49.08-1.5-.5-1.13-1.43.92-2.83 2.01-4.19 3.21-.65.45-1.26 1.01-1.83 1.71-5.81 5.79-10.72 13.84-13.83 22.02-2.36 6.21-4.13 12.85-4.93 19.73-.38 3.28-.66 6.59-.66 9.91 0 1.3-.51 4.87.49 5.72Z"/><g style="opacity:.5;fill:none;mix-blend-mode:multiply"><path class="cls-1" d="M33.53 156.12c5.31-1.35 10.53-4.22 14.44-8.91 5.52-6.62 6.72-17.28 5.34-26.46-1.46-9.76-5.87-20.49-13.77-22.71-.41-.12-.29-.89.09-.92.55-.04 1.09-.01 1.61.07.81-2.24 2.55-4.28 4.12-6.11 1.03 1 2.06 2 3.09 2.94 3.12 2.86 6.57 5.53 9.36 8.96l2.67 1.47c.41.23.63.65.54 1.25-1.13 7.38-1.66 14.78-1.46 22.31.2 7.6 1.55 14.73 2.85 22.08.09.5-.11 1.01-.5 1.15-4.63 1.66-8.97 3.76-13.77 4.66-4.78.9-9.63.89-14.43.24-.06 0-.12-.02-.17-.03ZM32.39 91.85s.04.05.06.07c.24.33 0 .83-.33.74-3.52-.98-6.15-2.48-9.84-1.22-.08.03-.15.07-.23.1 1.38-1.79 2.84-3.46 4.36-4.98.57-.7 1.18-1.26 1.83-1.71 1.36-1.2 2.76-2.29 4.19-3.21.58-.38 1.03.64.5 1.13-.26.24-.51.48-.76.72.94-.06 1.91.05 2.86.3.04 3.01-.74 5.93-2.64 8.07ZM12.57 108.57c-2.36 6.21-4.13 12.85-4.93 19.73-.38 3.28-.66 6.59-.66 9.91 0 .15 0 .34-.02.55 4.59 6.25 10.54 10.45 17.43 9.46.61-.09.78-.96.3-1.44-4.18-4.2-7.84-9.18-10.97-14.71 5.21 2.48 10.61 3.38 16.21 2.6.62-.09.84-1.28.15-1.5-4.6-1.46-9.11-3.67-13.36-6.38-.14-.09-.28-.19-.43-.28-2.31-3.94-3.55-8.61-3.23-14.08.18-3.1.76-6 1.59-8.76-.76 1.62-1.47 3.26-2.09 4.9Zm7.4 22.77c-.36-.38-.71-.77-1.05-1.16 2.34 1.21 4.72 2.24 7.06 3.13-2.07-.05-4.13-.33-6.16-.82.32-.23.5-.77.14-1.15Z"/></g><path class="cls-2" d="M6.86 141.73c2.91 1.52 5.79 3.17 8.71 4.5 5.64 2.56 11.45 4.5 17.38 5.45 5.74.92 11.58.57 17.27-.71 4.01-.9 7.78-2.59 11.57-4.29l.6 3.42c.09.5-.11 1.01-.5 1.15-4.63 1.66-8.97 3.76-13.77 4.66-4.78.9-9.63.89-14.43.24-9.34-1.26-18.37-5.52-26.23-12.21-.43-.36-.58-1.23-.61-2.21ZM60.65 108.29c-.32 2.4-.57 4.8-.76 7.2-7.15-1.72-14.23-5.07-20.97-8.24-6.68-3.15-13.76-6.53-20.06-11.18a60.93 60.93 0 0 1 3.98-5.54c5.49 3.12 10.92 6.48 16.55 9.19 6.97 3.36 14.21 5.61 21.26 8.56ZM45.95 118.85c2.83.75 5.69 1.36 8.54 1.95 1.65.34 3.37.59 5.07.96-.05 2.08-.06 4.16 0 6.25.01.46.04.91.06 1.36-4.11-.32-8.4-1.61-12.25-2.52-5.99-1.42-11.9-3.37-17.62-6.14-6.06-2.94-11.88-6.84-17.62-10.93.15-.4.29-.81.44-1.21.66-1.75 1.41-3.48 2.23-5.2 4.77 3.32 9.52 6.73 14.52 9.33 5.36 2.79 10.97 4.65 16.62 6.14ZM8.31 123.83c1.49.9 3 1.76 4.54 2.55 5.11 2.63 10.39 4.7 15.74 6.35 5.57 1.72 11.26 2.79 16.96 3.36 2.74.27 5.49.4 8.23.42 2.07.02 4.32.16 6.38-.5.25 2.1.55 4.19.89 6.27-4.04 2.61-9.36 1.68-13.67 1.42-5.86-.35-11.71-1.48-17.44-3.05-5.98-1.64-11.82-4.01-17.51-6.93-1.68-.86-3.38-1.77-5.06-2.74.08-.89.18-1.77.28-2.66.17-1.5.4-3 .67-4.48Z"/><g class="cls-7"><path class="cls-21" d="M22.05 91.53c.26-.33.52-.67.78-.99.31.18.62.35.93.53-.48.08-.97.19-1.49.37-.08.03-.15.06-.22.09ZM51.45 112.79c-1.23-3.82-2.96-7.38-5.21-10.09 4.79 1.91 9.64 3.59 14.4 5.59-.32 2.4-.57 4.8-.76 7.2-2.83-.68-5.65-1.62-8.44-2.7ZM33.53 156.12c3.14-.8 6.24-2.13 9.06-4.04 2.56-.17 5.12-.54 7.64-1.11 4.01-.9 7.78-2.59 11.57-4.29l.6 3.42c.09.5-.11 1.01-.5 1.15-4.63 1.66-8.97 3.76-13.77 4.66-4.78.9-9.63.89-14.43.24-.06 0-.12-.02-.17-.03ZM59.61 129.38c-1.92-.15-3.87-.51-5.8-.94.04-2.59-.14-5.19-.51-7.67l-.03-.21c.41.09.81.17 1.22.26 1.65.34 3.37.59 5.07.96-.05 2.08-.06 4.16 0 6.25.01.46.04.91.06 1.36ZM28.59 132.72c.37.12.75.22 1.12.33.12.04.25.09.37.13.68.22.46 1.41-.15 1.5-5.59.78-10.99-.12-16.21-2.6.62 1.09 1.27 2.16 1.93 3.21-1.08-.51-2.15-1.03-3.22-1.58-1.68-.86-3.38-1.77-5.06-2.74.08-.89.18-1.77.28-2.66.17-1.5.4-3 .67-4.48 1.49.9 3 1.76 4.54 2.55 5.11 2.63 10.39 4.7 15.74 6.35ZM50.19 143.9c1.23-2.25 2.13-4.76 2.72-7.42.29 0 .58.01.87.02 2.07.02 4.32.16 6.38-.5.25 2.1.55 4.19.89 6.27-3.19 2.06-7.19 1.91-10.86 1.63ZM14.66 103.7c-.66 2.19-1.16 4.47-1.42 6.87-.37-.26-.74-.52-1.1-.78.15-.4.29-.81.44-1.21.62-1.64 1.32-3.27 2.08-4.88ZM15.57 146.23c1.58.72 3.17 1.38 4.78 1.99-2.68-.4-5.19-1.58-7.49-3.31.9.46 1.81.91 2.71 1.32Z"/></g><path class="cls-4" d="M157.85 135.28c-13.79-4.12-26.94-8.81-46.53 2.78s-30.55 14.49-31.19 23.31c-.64 8.82 2.96 7.65 25.65-10.06 22.68-17.71 39.01-16.47 46.92-13.33 7.91 3.14 9.31-1.46 5.16-2.7ZM187.95 109.62c-4.03-.82-6.39 3.5-6.07 10.69.32 7.19 2.11 12.32 2.9 15.52.79 3.2 8.18-3.02 7.93-11.35-.26-8.33-2.37-14.37-4.76-14.85Z"/><path class="cls-4" d="M109.64 143.5c-7.26.56-25 9.66-23.97 14.13 1.03 4.47 28.66-14.49 23.97-14.13ZM143.54 133.15c-5.81-1.32-14.05-.81-15.42.85-1.37 1.65 7.43.2 13.4.16s14.87 4.39 15.68 3.1c.82-1.29-10.65-3.42-13.66-4.11ZM187.29 111.69c-2.55.35-4.52 4.19-2.63 6.8 1.89 2.62 5.59 5.88 3.57 8.49s-4.28 4.83-1.86 6.48c2.42 1.65 5.04-4.87 5.21-8.33.17-3.46-1.1-13.89-4.29-13.45Z"/><path class="cls-20" d="M40.02 28c-9.58 7.25-14.8 26.25-30.52 26.37-15.72.12-10.05 13.41 3.48 22.46 13.53 9.06 39.96 10.51 49.75-3.26 9.8-13.77 8.85-36.32 8.85-36.32L40.02 28Z"/><path class="cls-17" d="M64.61 35.43c-4.89-2.52-13.22 3.04-13.22 3.04l-7.99 1.45s1.47-8.81-4.71-10.8c-6.83 6.16-11.65 17.97-20.53 22.95 3 4.42 9.64 6.45 17.16 2.74 0 0 10.48 15.62 23.72 7 13.23-8.61 10.47-23.87 5.58-26.39Z"/><path d="M78.33 45.95c1.93-11.78-.52-25.61-10.57-30.57-7.83-3.86-18.38.07-27.15 6.07.45-1.57.55-3.17.41-4.57-.49-5.17-3.35-10.69.95-16.43.24-.32-.15-.59-.45-.36C35.48 4.55 28.27 10.59 27 17.68c-.08.44-.12.86-.15 1.28-.44-.08-.89-.13-1.34-.17-6.19-.47-13.19 2.7-19.59 3.29-.68.06-1.02 1.11-.45 1.27 3.07.85 5.04 2.93 7.06 5.03 2.14 2.22 4.53 3.94 7.65 4.98 4 1.33 11.14 1.17 15.2-3.01 3.5 5.5 8.48 9.75 14.66 12.58 7.94 3.62 17.69 3.78 27.17 3.99.54.01 1.02-.43 1.11-.95Z" style="fill:#900"/><path class="cls-10" d="M78.33 45.95c.28-1.68.46-3.41.55-5.14-2.75-2.84-6.34-5.04-9.82-6.85-.32-.17-.77.37-.6.64 1.06 1.7 2.34 3.12 3.9 4.33-3.96-.39-7.83-1.29-10.98-3.08-.31-.17-.75.28-.49.53 2.57 2.52 5.64 4.49 9.08 5.98 2.15.93 4.89 1.78 7.69 1.47-1.21.49-2.46.84-3.87 1.05-3.11.45-6.21.04-9.06-.34-5.4-.72-10.34-2.37-14.44-5.18-2.18-1.49-3.94-3.38-5.32-5.56-.56-1.21-1.13-2.41-1.43-3.78-.76-3.47.56-7.36 3.99-10.35 3.73-3.26 8.61-5.13 13.21-5.8-6.5.02-13.76 3.27-20.1 7.61.17-.61.28-1.22.36-1.82-.48-2.16-1.34-3.98-2.31-5.87-.23-.44-1.16.09-.99.57.92 2.57.45 5.5-1.39 8.3-.62-2.67-1.18-5.37-1.69-8.08-.04-.21-.36-.24-.54-.03-1.45 1.69-2.4 3.63-2.47 5.42-.97-2.63-1.44-5.34-.54-8.7.36-1.36.95-2.52 1.67-3.6-2.83 3.02-5.06 6.38-5.71 10.03-.08.44-.12.86-.15 1.28-.44-.08-.89-.13-1.34-.17-1.11-.09-2.25-.05-3.41.07 2.58.92 4.74 2.49 6.67 4.57-2.46-.24-5 .11-7.74 1.07-.49.17-.66.93-.22 1.03 3.07.72 5.98 1.67 8.83 2.75-5.34 2.55-10.96-.2-14.89-1.93-2.22-.98-4.56-1.9-7.14-2.14 1.94 1.04 3.42 2.6 4.93 4.17 2.14 2.22 4.53 3.94 7.65 4.98 4 1.33 11.14 1.17 15.2-3.01 3.5 5.5 8.48 9.75 14.66 12.58 7.94 3.62 17.69 3.78 27.17 3.99.54.01 1.02-.43 1.11-.95Z"/><path class="cls-10" d="M78.33 45.95c.28-1.68.46-3.41.55-5.14-2.75-2.84-6.34-5.04-9.82-6.85-.32-.17-.77.37-.6.64 1.06 1.7 2.34 3.12 3.9 4.33-3.96-.39-7.83-1.29-10.98-3.08-.31-.17-.75.28-.49.53 2.57 2.52 5.64 4.49 9.08 5.98 2.15.93 4.89 1.78 7.69 1.47-1.21.49-2.46.84-3.87 1.05-3.11.45-6.21.04-9.06-.34-5.4-.72-10.34-2.37-14.44-5.18-2.18-1.49-3.94-3.38-5.32-5.56-.56-1.21-1.13-2.41-1.43-3.78-.76-3.47.56-7.36 3.99-10.35 3.73-3.26 8.61-5.13 13.21-5.8-6.5.02-13.76 3.27-20.1 7.61.17-.61.28-1.22.36-1.82-.48-2.16-1.34-3.98-2.31-5.87-.23-.44-1.16.09-.99.57.92 2.57.45 5.5-1.39 8.3-.62-2.67-1.18-5.37-1.69-8.08-.04-.21-.36-.24-.54-.03-1.45 1.69-2.4 3.63-2.47 5.42-.97-2.63-1.44-5.34-.54-8.7.36-1.36.95-2.52 1.67-3.6-2.83 3.02-5.06 6.38-5.71 10.03-.08.44-.12.86-.15 1.28-.44-.08-.89-.13-1.34-.17-1.11-.09-2.25-.05-3.41.07 2.58.92 4.74 2.49 6.67 4.57-2.46-.24-5 .11-7.74 1.07-.49.17-.66.93-.22 1.03 3.07.72 5.98 1.67 8.83 2.75-5.34 2.55-10.96-.2-14.89-1.93-2.22-.98-4.56-1.9-7.14-2.14 1.94 1.04 3.42 2.6 4.93 4.17 2.14 2.22 4.53 3.94 7.65 4.98 4 1.33 11.14 1.17 15.2-3.01 3.5 5.5 8.48 9.75 14.66 12.58 7.94 3.62 17.69 3.78 27.17 3.99.54.01 1.02-.43 1.11-.95Z"/><path class="cls-2" d="M40.04 39.09c-1.62 8.98-9.48 15.47-17.57 14.48-8.1-1.02-13.35-9.16-11.73-18.14 1.62-9.01 7.13-2.44 15.22-1.42 8.08 1.02 15.69-3.93 14.08 5.09Z"/><g class="cls-7"><path class="cls-18" d="M23.39 31.49c5.74 2.41 15.86-1.18 14.57 6.03-1.53 8.49-8.94 14.6-16.55 13.64-5.26-.64-9.24-4.47-10.7-9.57 1.08 6.28 5.58 11.2 11.76 11.98 8.08.99 15.95-5.5 17.57-14.48 1.5-8.32-9.61-5.68-16.65-7.6Z"/></g><path class="cls-2" d="M66.75 46.76c-2.46 8.26-10.54 13.73-18.05 12.18-7.53-1.54-11.62-9.48-9.16-17.74C42 32.94 50.08 27.5 57.61 29.05c7.51 1.51 11.62 9.45 9.15 17.71Z"/><g class="cls-7"><path class="cls-18" d="M59.27 29.52c5.16 2.67 7.65 9.04 5.7 15.64-2.33 7.79-9.95 12.91-17.02 11.48-4.88-.99-8.24-4.85-9.1-9.71.37 5.93 4.09 10.84 9.84 12.01 7.51 1.54 15.59-3.93 18.05-12.18 2.28-7.62-1.04-14.94-7.47-17.24Z"/></g><path d="M28.5 42.56c0 3.47-2.3 6.27-5.12 6.27s-5.11-2.8-5.11-6.27 2.28-6.25 5.11-6.25 5.12 2.81 5.12 6.25Z" style="fill:#422787"/><path d="M46.52 49.58c-.09 0-.15-.03-.23-.06-.28-.09-.42-.32-.35-.55.89-3.23 3.03-8.87 7.32-10.2 1.95-.64 4.09-.29 6.32 1.02.28.17.33.5.15.7-.21.23-.57.29-.84.15-1.9-1.14-3.66-1.43-5.22-.93-2.21.7-4.2 3.08-5.63 6.66 2.72-2.91 5.23-4.28 7.5-4.01 3.38.41 4.75 4.19 4.83 4.33.09.26-.09.55-.4.64-.32.06-.66-.09-.75-.35-.02-.03-1.22-3.31-3.85-3.63-2.27-.26-5.18 1.83-8.35 6.02-.12.15-.32.23-.51.23Z"/><path class="cls-2" d="M27.51 42.01c0 1.68-1.09 3.04-2.43 3.04s-2.42-1.36-2.42-3.04 1.08-3.06 2.42-3.06 2.43 1.37 2.43 3.06Z"/><path d="M177.92 97.43c.27.17.64-.19.44-.46-1.66-2.22-1.42-4.51-.15-6.37.95-1.25 2.37-2.11 4.02-2.26 3.46-.31 5.68 3.31 6.04 6.23.62 5-3.3 8.12-5.88 11.72-.21.3-.15.6.03.82-.1.17-.17.36-.17.59 0 .25.05.5.14.73-.06.26-.02.54.1.81 0 .01 0 .02.01.03 0 0 0 .04.03.1.16.51.68.83 1.21.68.12-.03.23-.07.34-.11.11.12.28.19.46.13 8.01-2.86 13.47-17.29 5.47-23.03-4.03-2.9-8.98-2.45-12.51 1-2.6 2.54-2.86 7.35.41 9.37Z" style="fill:#cacaca"/><path d="M177.03 94.54c.25 1.01.68 2 1.29 2.82.1-.1.14-.25.04-.39-1.66-2.22-1.42-4.51-.15-6.37.95-1.25 2.37-2.11 4.02-2.26 3.46-.31 5.68 3.31 6.04 6.23.43 3.44-1.29 5.98-3.24 8.41.11.4.23.8.39 1.21.28.72 1.1.77 1.66.41.6.94 1.35 1.8 2.26 2.14 1.49-1.63 2.71-3.66 3.51-5.81-1.54-1.12-1.83-3.24-2.11-5.17-.32-2.21-.85-4.23-2.1-6.1-1.54-2.3-5.04-3.37-7.59-2.23-2.58 1.15-4.76 4.11-4.03 7.1Z" style="mix-blend-mode:multiply;fill:#cacaca"/><path d="M175.99 120.74c2.83.34 5.66.75 8.49 1.15 3.08.86 6.34 1.26 9.45 1.82 2.89.52 3.96-.91 4.9-3.42 2.09-5.6 2.09-12.1-2.9-16.24-4.18-3.47-10.59-4.24-15.19-1.01-5.47 3.84-7.45 10.55-5.67 16.89.13.46.45.75.93.81Z" style="fill:#4d4d4d"/><path d="M175.99 120.74c2.83.34 5.66.75 8.49 1.15 3.08.86 6.34 1.26 9.45 1.82 2.89.52 3.96-.91 4.9-3.42.68-1.82 1.13-3.72 1.27-5.62-.72 1.71-1.98 3.16-3.97 4.27-4.27 2.39-9.77.34-12.36-3.47-2.67-3.91-1.57-8.92 1.69-12.03 1.48-1.41 3.26-2.02 5.1-2.06-3.32-.81-6.93-.36-9.82 1.67-5.47 3.84-7.45 10.55-5.67 16.89.13.46.45.75.93.81Z" style="opacity:.5;fill:#4d4d4d;mix-blend-mode:multiply"/><path class="cls-3" d="M193.8 104.12c-1.24-.52-3.3-.72-4.04.78-1.16 2.39-.1 5.16 1.56 7.26.86 1.57 2.15 2.82 3.65 2.84 4.11.05 3.56-4.84 2.32-7.41-.68-1.41-2.03-2.86-3.49-3.47ZM182.79 86.56c3.61-.08 5.97 1.39 7.48 4.73 1.37 3.05.54 5.99.88 9.13.06.53.78.72 1.03.21 1.8-3.6 1.15-8.6-1.16-11.83-1.75-2.46-5.46-3.92-8.29-2.61-.18.08-.15.36.07.36Z"/><path class="cls-26" d="M48.76 46.34c-1.55-7.62-13.74-24.05-32.21-20.15-18.47 3.91-8.12 8.01.43 6.27 0 0-4.98 4.58 2.01 3.36 6.99-1.21 19.13-3.29 25.81 5.52 1.92 2.53 3.96 5 3.96 5Z"/><path class="cls-19" d="M39.92 35.19c-6.03-4.03-11.68-3.14-17.62-2.13-5.93 1.01 1.5-4.11 1.5-4.11s-2.45 1.05-9.41 1.37c-4.77.22-4.13-1.54-1.5-3.26-13.27 3.61-3.83 7 4.08 5.39 0 0-4.98 4.58 2.01 3.36 6.99-1.21 19.13-3.29 25.81 5.52 1.92 2.53 3.96 5 3.96 5s-2.81-7.12-8.84-11.14Z"/><path class="cls-23" d="M68.66 40.12s10.19 4.73 10.22 7.27-1.96 4.38-5.49 1.84-7.45-2.46-7.45-2.46l2.71-6.65Z"/><path class="cls-17" d="M73.39 49.23c3.33 2.4 5.29.89 5.47-1.43-.75.86-2.41.62-5.6-1.46-2.1-1.37-4.43-2-6.21-2.3l-1.11 2.72s3.93-.08 7.45 2.46Z"/><path class="cls-23" d="M41.47 35.76c-3.22 5.74-4.8 9.99-1.25 18.85s20.1 8.97 25.69-.95 4.45-21.33-.93-24.55-17.47-4.13-23.51 6.64Z"/><path d="M60.55 34.17c-2.36-2.28-6.73-2.44-9.56-1.15-4.87 2.21-4.31 7.76-2.28 11.44-1.54 1.85-2.8 4.33-2.79 6.6.01 1.96 1.16 2.18 2.37 1.74.11 2.3 2.46 3.57 4.18 2.24.18.42.43.8.8 1.12.85.74 2.15.25 2.95-.83 1.09-1.47 1.62-4.09 1.4-6.21 2.89-.28 5.65-2.05 6.79-6.27 1.1-4.07-1.03-7.35-3.87-8.68Zm-5.83 5.91c-.23 2.04-1.94 3.7-3.46 3.33-1.38-.34-1.76-2.14-1.57-3.81.21-1.9 1.44-3.5 2.96-3.63 1.09-.09 1.77.95 1.97 2.17.14.61.17 1.3.1 1.94Zm6.41 4.52c-1.01 1.3-2.49 2.26-3.68 1.44-1.3-.9-1.36-3.36-.14-4.95.38-.5.87-.95 1.39-1.27.97-.69 2.14-.9 2.84 0 .96 1.25.73 3.3-.41 4.78Z" style="fill:#b5b5b5"/><path class="cls-17" d="M64.98 29.12c-.63-.38-1.35-.72-2.15-1.02 1.39 1.69 3.13 4.37 3.8 7.79 1.18 6.04-.85 20.04-10.58 22.07-9.72 2.04-17.01-7.62-16.09-14.19.78-5.6 3.34-10.15 6.76-13.9-1.98 1.37-3.79 3.28-5.25 5.88-3.22 5.74-4.8 9.99-1.25 18.85 3.55 8.87 20.1 8.97 25.69-.95 5.59-9.91 4.45-21.33-.93-24.55Z"/><path class="cls-4" d="M53.14 28.8c-3.5.7-6.99 3.79-9 8.43s4.69 4.51 7.14-.44 9.5-3.11 11.21.88 4.86-5.39-.53-7.64-8.82-1.22-8.82-1.22Z"/><path class="cls-26" d="M44.58 30.72c2.37-5.69 16.87-18.56 30.41-13.32 13.54 5.24.37 7.23-5.9 4.86 0 0 2.37 5.15-2.8 3.37-5.16-1.78-11.42-4.29-17.9 1.71-1.86 1.72-3.81 3.38-3.81 3.38Z"/><path class="cls-19" d="M66.28 25.63c5.16 1.78 2.8-3.37 2.8-3.37 5.99 2.26 18.24.55 7.58-4.17 1.35 1.14 2.66 2.61 1.43 3.19-2.12 1-7.04-.25-11.7-1.73 0 0 2.67 3.26.76 4.32-1.91 1.05-3.51-2.25-8.18-2.06-4.66.2-10.24 2.72-14.39 8.9 0 0 1.94-1.65 3.81-3.38 6.48-6 12.73-3.49 17.9-1.71Z"/><path d="M36.96 78.22c.35 0 9.59 3.07 17.8-2.72s9-11.09 9-11.09-3.1 13.25-10.62 15.56-16.19-1.75-16.19-1.75Z" style="fill:#b35357"/></g></g></g></svg>