<svg xmlns="http://www.w3.org/2000/svg" viewBox="0 0 196.13 207.96"><defs><clipPath id="clippath"><path d="M187.3 116.32c-7.26-.55-13.53 17.52-18.96 28.37-2.78-1.76-6.29-3.54-10.74-5.13-14.24-5.11-25.16-4.18-28.92-3.62-19.95 1.6-41.52 23.23-55.62 25.25-14.93 2.14-32.15-4.77-21.33-33.02 10.83-28.26 32.48-47.34 22.68-80.91-9.8-33.57-59.8-10.18-42.15 22.69 2.51 4.67 5.67 14.63-2.71 28.88-8.38 14.25-22.5 34.2-21.52 58.1.98 23.9 25.13 54.39 60.83 50.74 35.7-3.65 39.44-34.15 65.92-40.58 17.93-4.35 27.29 10.31 39.28 10.98 11 .61 17.7-17.13 20.14-27.7 5.18-22.47-1.23-33.61-6.92-34.04Z" style="fill:none"/></clipPath><style>.cls-1,.cls-2{fill:#fff}.cls-4{stroke:#b35357;stroke-miterlimit:10;stroke-width:1.51px}.cls-4,.cls-5{fill:none}.cls-5,.cls-9{mix-blend-mode:multiply}.cls-12,.cls-2{opacity:.2}.cls-13{fill:#dedede}.cls-14{fill:#e49da7}.cls-15{fill:#991814}.cls-9{opacity:.5}.cls-18,.cls-9{fill:#a1785a}</style></defs><g style="isolation:isolate;fill:none"><g id="_Слой_2"><g id="_Червяки"><g style="clip-path:url(#clippath);fill:none"><path class="cls-14" d="M187.3 116.32c-7.26-.55-13.53 17.52-18.96 28.37-2.78-1.76-6.29-3.54-10.74-5.13-14.24-5.11-25.16-4.18-28.92-3.62-19.95 1.6-41.52 23.23-55.62 25.25-14.93 2.14-32.15-4.77-21.33-33.02 10.83-28.26 32.48-47.34 22.68-80.91-9.8-33.57-59.8-10.18-42.15 22.69 2.51 4.67 5.67 14.63-2.71 28.88-8.38 14.25-22.5 34.2-21.52 58.1.98 23.9 25.13 54.39 60.83 50.74 35.7-3.65 39.44-34.15 65.92-40.58 17.93-4.35 27.29 10.31 39.28 10.98 11 .61 17.7-17.13 20.14-27.7 5.18-22.47-1.23-33.61-6.92-34.04Z"/><path class="cls-4" d="M22.34 92.91s-3.21 19.17 15.47 21.84c18.68 2.67 31.62-10.96 31.62-10.96M3.44 144.56c4.69 13.52 35.57 23.41 51.56 1.43M52.41 154.6s1.55 4.19-.52 12.4C49.83 175.21 39 188.01 14 186.08M58.6 158.75s5.41 3.66 9.02 11.39c3.61 7.73 6.84 30.43-21.84 36.95M68.14 160.06s8.51.9 14.95 6.21c6.44 5.31 18.04 28.74-5.16 45.65M79.95 157.31s9.33-4.58 19.64-1.43c10.31 3.15 22.17 19.48 5.16 35.95"/><path class="cls-4" d="M94.43 148.93c0-.29 12.12-6.88 21.4-4.67s21.91 17.08 6.19 33.8"/><path class="cls-4" d="M122.7 135.49s14.55-.52 19.94 7.12c6.44 9.13 4.73 19.62-6.79 31.24M144.19 135.48c.6-.12 12.2 2.54 16.58 7.45s6.89 19.4-5.32 27.13"/><path class="cls-4" d="M166.29 142.24s9.03 5.84 11.94 15.5-3.19 18.68-18.49 18.12"/><path class="cls-4" d="M168.03 143.81s7.99 1.95 14.39 8.37c6.7 6.72 6.96 18.92-1.72 24.88"/><path class="cls-4" d="M167.47 142.44c.69-.08 6.27-7.57 16.33-2.33 10.05 5.23 9.62 14.41 8.33 20.33"/><path class="cls-4" d="M170.99 136.49s2.84-5.07 11.08-5.07 14.35 6.28 14.52 14.01M175.38 128.11s3.44-6.12 10.14-5.39c6.7.72 9.54 4.19 11.08 11.84"/><path class="cls-4" d="M180.14 119.98c.31 0 3.62-2.51 7.53-1.85 2.86.48 6.19 2.9 8.16 8.86"/><path class="cls-12" d="M3.95 133.03s6.19 51.01 43.57 60.97 53.88-17.78 65.99-31.57c12.12-13.79 35.83-17.21 49.24-1.85 13.4 15.36 21.4 12.94 30.42 5.69 9.02-7.25 10.05 34.03 9.54 35.25-.52 1.22-58.52 19.86-58.52 19.86l-76.56 15.9s-84.04-21.25-83.26-26.09 19.58-78.16 19.58-78.16ZM150.11 136.41c.95.08 16.33 4.75 22.6 12.88 6.27 8.13 12.03-2.42 9.02-12.56s-3.27-13.77 1.89-19.97c5.16-6.2-33.51 19.64-33.51 19.64Z"/><path class="cls-12" d="M5.63 150.45s4.51 46.37 41.5 52.29c36.99 5.92 48.85-6.76 63.93-21.98 15.08-15.22 29-21.88 49.11-8.22 20.11 13.66 18.43 13.53 18.43 13.53L60.54 228.38s-90.22-17.79-88.81-19.73c1.42-1.93 33.9-58.21 33.9-58.21Z"/><path class="cls-12" d="M58.26 120.22c-.26.48-11.08 9.66-12.55 25.04-1.46 15.38 14.61 25.76 21.14 18.12 6.53-7.65 7.91-14.73 7.91-14.73l-16.5-28.42ZM168.34 144.69c.26 0 1.28 1.03 3.86 3.13 2.58 2.09 9.02-5.49 6.27-12.58-2.75-7.08.17-13 .17-13l-10.3 22.45Z"/><path class="cls-12" d="m78.36 142.04-6.7-49.19c.05.15-2.74 3.43-6.6 8.52l-28.04 12.49-25.23 10.42-1.75 8.26c1.84 13.99 7.71 24.15 11.12 25.2s3.16-7.64 4.47-6.22c1.31 1.42-.88 7.53 3.42 7.45s8.93-2.45 10.77.44c1.29 2.03 3.87 2.67 5.82 2.39 4.4 7.87 13.4 8.65 21.91 6.49 12.37-3.15 10.83-26.26 10.83-26.26Zm-42.23-9.17c-4.38-.79-7.09-.79-2.19-4.91 4.91-4.12 11.21-7.8 16.55-10.69 1.62-.88 3.56-1.93 5.53-3.05-4.81 7.52-9.43 16.09-11.68 24.17-2.11-2.08-5.43-5.03-8.22-5.53Z"/></g><path class="cls-2" d="M64.61 186.65c7.77-6.29-14.57-4.63-25.91-19.45-11.34-14.81-16.78-3.11-10.09 6.98s21.28 24.38 36 12.47ZM157.85 142.72c-13.79-4.12-26.94-8.81-46.53 2.78s-30.55 14.49-31.19 23.31c-.64 8.82 2.96 7.65 25.65-10.06 22.68-17.71 39.01-16.47 46.92-13.33 7.91 3.14 9.31-1.46 5.16-2.7Z"/><path class="cls-2" d="M34.82 177.1c11.69 9.11 17.81 10.91 19.92 6.31 2.11-4.6-18.3-9.53-22.23-17.89-3.94-8.37-9.38 2.47 2.31 11.58ZM109.64 150.94c-7.26.56-25 9.66-23.97 14.13 1.03 4.47 28.66-14.49 23.97-14.13ZM143.54 140.59c-5.81-1.32-14.05-.81-15.42.85-1.37 1.65 7.43.2 13.4.16s14.87 4.39 15.68 3.1c.82-1.29-10.65-3.42-13.66-4.11Z"/><path class="cls-14" d="M40.02 35.45C30.44 42.7 25.22 61.7 9.5 61.82c-15.72.12-10.05 13.41 3.48 22.46 13.53 9.06 39.96 10.51 49.75-3.26 9.8-13.77 8.85-36.32 8.85-36.32l-31.56-9.25Z"/><path class="cls-12" d="M56.45 73.61s-.6 7.33 6.27 7.41c0 0-5.33-1.37-6.27-7.41Z"/><path d="M16.84 81.01C6.21 78.63 1.87 74.04.28 69.74c1.17 4.46 5.96 10.02 12.7 14.53 5.36 3.59 12.73 5.97 20.3 6.7C52 87.25 57.19 79.05 57.19 79.05s-16.97 7.19-40.34 1.96Z" style="opacity:.04"/><path class="cls-12" d="M64.61 42.87c-4.89-2.52-13.22 3.04-13.22 3.04l-7.99 1.45s1.47-8.81-4.71-10.8c-6.83 6.16-11.65 17.97-20.53 22.95 3 4.42 9.64 6.45 17.16 2.74 0 0 10.48 15.62 23.72 7 13.23-8.61 10.47-23.87 5.58-26.39Z"/><path class="cls-1" d="M40.04 46.53C38.42 55.51 30.56 62 22.47 61.01c-8.1-1.02-13.35-9.16-11.73-18.14 1.62-9.01 9.5-15.5 17.58-14.48 8.08 1.02 13.33 9.13 11.71 18.14Z"/><g class="cls-5"><path class="cls-13" d="M30.14 28.77c5.74 2.41 9.12 8.98 7.83 16.19-1.53 8.49-8.94 14.6-16.55 13.64-5.26-.64-9.24-4.47-10.7-9.57 1.08 6.28 5.58 11.2 11.76 11.98 8.08.99 15.95-5.5 17.57-14.48 1.5-8.32-2.86-15.84-9.9-17.77Z"/></g><path class="cls-1" d="M66.75 54.21c-2.46 8.26-10.54 13.73-18.05 12.18-7.53-1.54-11.62-9.48-9.16-17.74C42 40.39 50.08 34.95 57.61 36.5c7.51 1.51 11.62 9.45 9.15 17.71Z"/><g class="cls-5"><path class="cls-13" d="M59.27 36.97c5.16 2.67 7.65 9.04 5.7 15.64-2.33 7.79-9.95 12.91-17.02 11.48-4.88-.99-8.24-4.85-9.1-9.71.37 5.93 4.09 10.84 9.84 12.01 7.51 1.54 15.59-3.93 18.05-12.18 2.28-7.62-1.04-14.94-7.47-17.24Z"/></g><path d="M33.64 46.85c0 5.21-3.45 9.42-7.69 9.42s-7.68-4.21-7.68-9.42 3.43-9.39 7.68-9.39 7.69 4.22 7.69 9.39Z" style="fill:#375bb8"/><path d="M46.52 57.03c-.09 0-.15-.03-.23-.06-.28-.09-.42-.32-.35-.55.89-3.23 3.03-8.87 7.32-10.2 1.95-.64 4.09-.29 6.32 1.02.28.17.33.5.15.7-.21.23-.57.29-.84.15-1.9-1.14-3.66-1.43-5.22-.93-2.21.7-4.2 3.08-5.63 6.66 2.72-2.91 5.23-4.28 7.5-4.01 3.38.41 4.75 4.19 4.83 4.33.09.26-.09.55-.4.64-.32.06-.66-.09-.75-.35-.02-.03-1.22-3.31-3.85-3.63-2.27-.26-5.18 1.83-8.35 6.02-.12.15-.32.23-.51.23Z"/><path class="cls-1" d="M32.14 46.04c0 2.53-1.64 4.57-3.64 4.57s-3.64-2.04-3.64-4.57 1.62-4.59 3.64-4.59 3.64 2.06 3.64 4.59Z"/><path d="M7.43 79.94c1.64 1.5 3.5 2.97 5.55 4.34 2.88 1.93 6.35 3.51 10.12 4.67 22.48 1.17 34.09-9.89 34.09-9.89-27.89 15.03-49.62.97-49.75.88Z" style="fill:#fef0ea"/><path class="cls-18" d="M89.2 56.89c-.61-.17-1.22-.32-1.83-.48 5.51-7.4 7.87-17.31 7.58-26.67-.14-4.49-.96-9.29-4.16-12.11-3.06-2.69-8.09-1.64-11.91-2.2-5.7-.83-4.6-8.28-8.61-11.45-3.87-3.06-8.75-2.29-13.33-.99-9.77 2.77-20.42 7.88-27.1 15.8-.07.09-.12.18-.15.27-.24.03-.41.33-.25.65 2.96 6.08 7.97 11.2 11.88 15.97 3.92 4.78 8.19 8.74 13.06 11.91 9.86 6.43 22.53 9.67 34.12 11.21 1.23.16 1.89-1.6.69-1.92Z"/><path d="M63.46 30.59c-5.86-3.27-11.28-7.24-16.37-11.6-2.93-2.5-5.55-5.25-8.11-8.07-3.44 2.23-6.57 4.84-9.13 7.87-.07.09-.12.18-.15.27-.24.03-.41.33-.25.65 2.96 6.08 7.97 11.2 11.88 15.97 1.58 1.92 3.21 3.7 4.91 5.36 1.11.61 2.22 1.2 3.33 1.76 5.67 2.87 11.6 5.23 17.44 7.71 5.51 2.34 11.06 5.25 16.95 6.5 1.91.4 3.81.41 5.63.09a.914.914 0 0 0-.39-.21c-.61-.17-1.22-.32-1.83-.48 3.18-4.28 5.31-9.39 6.49-14.75-10.66-1.99-20.87-5.74-30.4-11.06Z" style="fill:#705342"/><path class="cls-9" d="M89.2 56.89c-.61-.17-1.22-.32-1.83-.48 5.51-7.4 7.87-17.31 7.58-26.67-.14-4.49-.96-9.29-4.16-12.11-3.06-2.69-8.09-1.64-11.91-2.2-5.7-.83-4.6-8.28-8.61-11.45-3.87-3.06-8.75-2.29-13.33-.99-9.77 2.77-20.42 7.88-27.1 15.8-.07.09-.12.18-.15.27-.24.03-.41.33-.25.65 2.96 6.08 7.97 11.2 11.88 15.97 3.92 4.78 8.19 8.74 13.06 11.91 9.86 6.43 22.53 9.67 34.12 11.21 1.23.16 1.89-1.6.69-1.92Z"/><path class="cls-9" d="M88.51 58.81c1.23.16 1.89-1.6.69-1.92-.61-.17-1.22-.32-1.83-.48 5.51-7.4 7.87-17.31 7.58-26.67-.14-4.49-.96-9.29-4.16-12.11-1.77-1.56-4.21-1.86-6.69-1.95 2.26.58 4.32 1.47 5.84 3.89 2.17 3.46 1.14 9.41.46 13.12-.75 4.11-2.73 7.85-6.05 10.42-4.06 3.14-8.57 2.09-12.86.12-7.87-3.62-15.43-8.18-22.41-13.29-4.95-3.62-13.17-8.81-14.98-15.41-1.54 1.32-2.98 2.74-4.26 4.26-.07.09-.12.18-.15.27-.24.03-.41.33-.25.65 2.96 6.08 7.97 11.2 11.88 15.97 3.92 4.78 8.19 8.74 13.06 11.91 9.86 6.43 22.53 9.67 34.12 11.21Z"/><path class="cls-9" d="M66.41 3.9c2.89 2.48 3.47 5.97 4.45 9.43 1.44 5.12 5.98 8.16 11.19 8.11.72 0 1.07-1.16.33-1.45-2.75-1.07-4.35-2.99-5.49-5.25-3.5-2.11-3.16-8.03-6.62-10.76-2.08-1.65-4.46-2.18-6.92-2.12 1.08.54 2.11 1.22 3.06 2.03Z"/><path class="cls-18" d="M121.26 75.29c-1.47-3.97-4.05-6.97-7.23-9.22-2.9-2.24-6.37-3.89-9.56-5.34-5.25-2.38-10.77-4.14-16.21-6.05-10.99-3.85-21.4-8.81-31.17-15.15-9.63-6.24-18.33-13.85-26.15-22.3C24.59 10.39 17.28 1.1 7.32 0c-.34.06-.72.14-1.08.17-.86.18-1.74.6-2.62 1.36-.53.46.16 1.11.67.86 4.37-2.12 7.3 2.49 9.44 5.39 1.82 2.47 3.54 5.02 5.23 7.6 3.17 4.83 6.18 9.78 9.38 14.59 6.39 9.65 13.86 18.33 23.8 24.24 10.61 6.31 22.4 7.56 34.59 7.95 12.7.41 25.84 2.29 33.41 13.67.37.56 1.38.16 1.12-.54Z"/><path class="cls-9" d="M114.03 66.07c-2.9-2.24-6.37-3.89-9.56-5.34-5.25-2.38-10.77-4.14-16.21-6.05-10.99-3.85-21.4-8.81-31.17-15.15-9.63-6.24-18.33-13.85-26.15-22.3C24.87 10.68 17.91 1.91 8.6.19c5.74 3.43 10.26 7.49 14.23 13.01 3.88 5.4 6.93 11.36 10.63 16.89 7.02 10.47 17.36 19.37 28.86 24.53.75.34 1.83-.51 1.21-1.29a318.57 318.57 0 0 0-5.73-7.12c7.53 4.48 16.55 7.04 24.63 9.17 8.59 2.26 17.26 4.3 25.31 8.16 4.55 2.18 8.37 4.93 11.75 8.23-1.45-2.29-3.31-4.17-5.47-5.69Z"/><path d="M30.27 97.49s-2.8 13.96 17.34 8.3 22.95-15.83 22.95-15.83 2.45 3.85-4.03 10.86-29.96 21.2-36.61 29.61-8.32 15.57-9.75 20.51c0 0-10.04-20.34-6.71-35.58s16.41-22.71 16.82-17.87Z" style="fill:#c71f1a"/><path d="M25.96 103.97c-1.06-2.82-7.99 3.55-7.68 7.62s1.93.53 7.68-.66 9.83 1.58 10.49 3.55-11.17 7.62-12.74 15.77 2.12-7.36 16.63-14.72 15.95-9.5 13.85-9.67-11.14 7.44-15.23 5.08-12.06-4.47-13-6.96Z" style="fill:#c7514e"/><path class="cls-15" d="M66.53 100.81c4.45-4.81 4.69-8.13 4.4-9.74-1.55 6.43-12.14 15.13-18.07 18.94-7.16 4.6-11.82 5.98-20.63 13.66s-9.72 14.98-11.43 15.9c-1.71.92-3.55-3.28-5.26-11.56-.86-4.18-1.36-9.88-1.63-14.51-.17.6-.33 1.22-.47 1.85-3.33 15.24 6.71 35.58 6.71 35.58 1.43-4.95 3.1-12.1 9.75-20.51 6.66-8.41 30.13-22.6 36.61-29.61Z"/><path class="cls-15" d="M47.61 105.78c-17.86 5.03-17.68-5.37-17.41-7.8-1.63 1.44-2.18 3.28-1.47 5.66.93 3.13 9.28 5.63 15.73 4.01 5.56-1.4 13.82-4.68 18.06-8.5-3.4 2.35-8.18 4.74-14.91 6.63Z"/><path d="M46.04 127.37c1.29 1.5 2.65 5.53 3.64 10.17 4.13 2.12 7.59 4.28 8.59 5.7-1.5 1.86-4.47 4.41-8.47 6.79-.84 4.36-1.88 7.8-2.85 9.75-2.4-1.72-5.25-3.32-8.67-6.01-4.34.42-7.6.22-10.55.37.24-2.16 1.23-5.62 2.88-9.74-2.07-4.15-3.19-7.91-3.45-10.29 1.61-.65 5.69-.6 10.31-.15 3.34-3.37 6.66-6.02 8.56-6.58Z" style="fill:#ffda31"/><path d="M45.2 130.24c1.04 1.21 2.14 4.46 2.94 8.2 3.33 1.71 6.12 3.45 6.93 4.6-1.21 1.5-3.61 3.56-6.83 5.47-.68 3.51-1.52 6.3-2.29 7.87-1.94-1.39-4.24-2.67-7-4.85-3.5.34-6.13.18-8.51.3.2-1.74 1-4.54 2.32-7.86-1.67-3.35-2.58-6.38-2.78-8.3 1.3-.53 4.59-.48 8.32-.12 2.69-2.72 5.37-4.86 6.91-5.31Z" style="fill:#ffda31;mix-blend-mode:screen"/><path d="M47.43 129.87c-6.64 3.79-12.98 9.1-17.04 15.12-1.5 3.85-2.42 7.09-2.65 9.15 1.5-.07 3.08-.06 4.85-.08 3.77-3.99 7.45-7.96 12.06-11.3 2.26-1.63 4.69-2.91 7.17-4.07-.69-.38-1.4-.76-2.14-1.14-.64-2.99-1.43-5.71-2.25-7.68Z" style="mix-blend-mode:screen;opacity:.5;fill:#fff"/></g></g></g></svg>