<svg xmlns="http://www.w3.org/2000/svg" viewBox="0 0 215.73 224.03"><defs><linearGradient id="Silver" x1="-19.49" y1="86.6" x2="32.38" y2="107.69" gradientTransform="scale(1 -1) rotate(-78.47 -74.618 -99.47)" gradientUnits="userSpaceOnUse"><stop offset="0" stop-color="#eceae8"/><stop offset="0" stop-color="#e6e3df"/><stop offset=".06" stop-color="#d7d4d1"/><stop offset=".19" stop-color="#b1adaf"/><stop offset=".26" stop-color="#969297"/><stop offset=".52" stop-color="#f7f7f7"/><stop offset=".59" stop-color="#e8e8e8"/><stop offset=".71" stop-color="#c3c1c2"/><stop offset=".88" stop-color="#8b8689"/><stop offset="1" stop-color="#d9d9d9"/><stop offset="1" stop-color="#b1b1b1"/></linearGradient><linearGradient id="linear-gradient" x1="-16.21" y1="101.82" x2="6.23" y2="101.82" gradientTransform="scale(1 -1) rotate(-78.47 -74.618 -99.47)" gradientUnits="userSpaceOnUse"><stop offset="0" stop-color="#555356"/><stop offset=".47" stop-color="#969297"/><stop offset="1" stop-color="#f7f7f7"/></linearGradient><linearGradient id="linear-gradient-2" x1="4.66" y1="110.39" x2="35.96" y2="110.39" gradientTransform="scale(1 -1) rotate(-78.47 -74.618 -99.47)" gradientUnits="userSpaceOnUse"><stop offset="0"/><stop offset=".07" stop-color="#0e0e0e"/><stop offset=".2" stop-color="#353435"/><stop offset=".37" stop-color="#737074"/><stop offset=".47" stop-color="#969297"/><stop offset=".87" stop-color="#f7f7f7"/></linearGradient><clipPath id="clippath"><path d="M206.9 131.79c-7.26-.55-13.53 17.52-18.96 28.37-2.78-1.76-6.29-3.54-10.74-5.13-14.24-5.11-25.16-4.18-28.92-3.62-19.95 1.6-41.52 23.23-55.62 25.25-14.93 2.14-32.15-4.77-21.33-33.02 10.83-28.26 32.48-47.34 22.68-80.91-9.8-33.57-59.8-10.18-42.15 22.69 2.51 4.67 5.67 14.63-2.71 28.88-8.38 14.25-22.5 34.2-21.52 58.1.98 23.9 25.13 54.39 60.83 50.74 35.7-3.65 39.44-34.15 65.92-40.58 17.93-4.35 27.29 10.31 39.28 10.98 11 .61 17.7-17.13 20.14-27.7 5.18-22.47-1.23-33.61-6.92-34.04Z" style="fill:none"/></clipPath><style>.cls-1{fill:#f8efee}.cls-2{fill:#ffeabf}.cls-3,.cls-4{fill:#fff}.cls-5{fill:#00703a}.cls-10,.cls-16,.cls-6,.cls-7,.cls-8{fill:none}.cls-10,.cls-17,.cls-19,.cls-6,.cls-8{mix-blend-mode:multiply}.cls-6{opacity:.4}.cls-7{stroke:#b35357;stroke-miterlimit:10;stroke-width:1.51px}.cls-16,.cls-23{mix-blend-mode:screen}.cls-24{fill:#604d46}.cls-10{opacity:.6}.cls-17,.cls-19,.cls-25{fill:#96867e}.cls-27,.cls-4{opacity:.2}.cls-19{opacity:.3}.cls-28{fill:#9f8b7e}.cls-29{fill:#dedede}.cls-30{fill:#4f3226}.cls-32{fill:#e49da7}.cls-23{opacity:.5}.cls-23,.cls-33{fill:#9b4810}.cls-36{fill:#837f43}.cls-37{fill:#453a34}.cls-39{fill:#cecd94}.cls-40{fill:#abaa7b}.cls-16{opacity:.7}.cls-42{fill:#a6958e}.cls-47{fill:#664131}</style></defs><g style="isolation:isolate;fill:none"><g id="_Слой_2"><g id="_Червяки"><g style="clip-path:url(#clippath);fill:none"><path class="cls-32" d="M206.9 131.79c-7.26-.55-13.53 17.52-18.96 28.37-2.78-1.76-6.29-3.54-10.74-5.13-14.24-5.11-25.16-4.18-28.92-3.62-19.95 1.6-41.52 23.23-55.62 25.25-14.93 2.14-32.15-4.77-21.33-33.02 10.83-28.26 32.48-47.34 22.68-80.91-9.8-33.57-59.8-10.18-42.15 22.69 2.51 4.67 5.67 14.63-2.71 28.88-8.38 14.25-22.5 34.2-21.52 58.1.98 23.9 25.13 54.39 60.83 50.74 35.7-3.65 39.44-34.15 65.92-40.58 17.93-4.35 27.29 10.31 39.28 10.98 11 .61 17.7-17.13 20.14-27.7 5.18-22.47-1.23-33.61-6.92-34.04Z"/><path class="cls-7" d="M41.94 108.37s-3.21 19.17 15.47 21.84c18.68 2.67 31.62-10.96 31.62-10.96M23.04 160.03c4.69 13.52 35.57 23.41 51.56 1.43M72.02 170.07s1.55 4.19-.52 12.4c-2.06 8.21-12.89 21.01-37.89 19.08M78.2 174.22s5.41 3.66 9.02 11.39c3.61 7.73 6.84 30.43-21.84 36.95M87.74 175.53s8.51.9 14.95 6.21c6.44 5.31 18.04 28.74-5.16 45.65M99.55 172.77s9.33-4.58 19.64-1.43c10.31 3.15 22.17 19.48 5.16 35.95"/><path class="cls-7" d="M114.03 164.4c0-.29 12.12-6.88 21.4-4.67s21.91 17.08 6.19 33.8"/><path class="cls-7" d="M142.3 150.95s14.55-.52 19.94 7.12c6.44 9.13 4.73 19.62-6.79 31.24M163.79 150.95c.6-.12 12.2 2.54 16.58 7.45s6.89 19.4-5.32 27.13"/><path class="cls-7" d="M185.89 157.71s9.03 5.84 11.94 15.5-3.19 18.68-18.49 18.12"/><path class="cls-7" d="M187.63 159.28s7.99 1.95 14.39 8.37c6.7 6.72 6.96 18.92-1.72 24.88"/><path class="cls-7" d="M187.07 157.91c.69-.08 6.27-7.57 16.33-2.33 10.05 5.23 9.62 14.41 8.33 20.33"/><path class="cls-7" d="M190.6 151.95s2.84-5.07 11.08-5.07 14.35 6.28 14.52 14.01M194.98 143.58s3.44-6.12 10.14-5.39c6.7.72 9.54 4.19 11.08 11.84"/><path class="cls-7" d="M199.74 135.45c.31 0 3.62-2.51 7.53-1.85 2.86.48 6.19 2.9 8.16 8.86"/><path class="cls-27" d="M169.72 151.87c.95.08 16.33 4.75 22.6 12.88 6.27 8.13 12.03-2.42 9.02-12.56s-3.27-13.77 1.89-19.97c5.16-6.2-33.51 19.64-33.51 19.64ZM25.23 165.92s4.51 46.37 41.5 52.29c36.99 5.92 48.85-6.76 63.93-21.98 15.08-15.22 29-21.88 49.11-8.22 20.11 13.66 18.43 13.53 18.43 13.53L80.14 243.85s-90.22-17.79-88.81-19.73c1.42-1.93 33.9-58.21 33.9-58.21Z"/><path class="cls-27" d="M77.86 135.69c-.26.48-11.08 9.66-12.55 25.04-1.46 15.38 14.61 25.76 21.14 18.12 6.53-7.65 7.91-14.73 7.91-14.73l-16.5-28.42ZM187.94 160.16c.26 0 1.28 1.03 3.86 3.13 2.58 2.09 9.02-5.49 6.27-12.58-2.75-7.08.17-13 .17-13l-10.3 22.45Z"/><path class="cls-27" d="M212.77 181.74c-9.02 7.25-17.01 9.66-30.42-5.69-13.4-15.36-37.12-11.94-49.24 1.85-11.26 12.81-26.31 37.64-58.37 33.11 4.26-8.74 8.78-20.37 13.15-27.49 11.55-3.88 10.08-26.02 10.08-26.02l-6.7-49.19c.17.48-27.5 31.4-28.7 53.46-.02.32-.02.63-.03.94l-36.59-2.78c-1.82-6.78-2.39-11.44-2.39-11.44l-2.83 11.05-5.77-.44 4.06 7.16c-5.62 22.03-14.52 57.11-15.05 60.4-.77 4.83 83.26 26.09 83.26 26.09l76.56-15.9s58-18.64 58.52-19.86-.52-42.5-9.54-35.25Zm-179.73-2.86c1.28-.49 2.53-1.26 3.73-2.08 3.83-2.63 11.28-4.29 20.82-1.31 2.68.84 5.21 1.32 7.51 1.51 2.34 4.37 6.05 6.62 10.32 7.43-5.08 7.43-10.18 16.85-13.49 23.31-14.07-5.6-23.14-17.32-28.9-28.86Z"/></g><path class="cls-4" d="M177.45 158.19c-13.79-4.12-26.94-8.81-46.53 2.78s-30.55 14.49-31.19 23.31c-.64 8.82 2.96 7.65 25.65-10.06 22.68-17.71 39.01-16.47 46.92-13.33 7.91 3.14 9.31-1.46 5.16-2.7ZM207.56 132.53c-4.03-.82-6.39 3.5-6.07 10.69.32 7.19 2.11 12.32 2.9 15.52.79 3.2 8.18-3.02 7.93-11.35-.26-8.33-2.37-14.37-4.76-14.85Z"/><path class="cls-4" d="M129.24 166.4c-7.26.56-25 9.66-23.97 14.13 1.03 4.47 28.66-14.49 23.97-14.13ZM163.14 156.06c-5.81-1.32-14.05-.81-15.42.85-1.37 1.65 7.43.2 13.4.16s14.87 4.39 15.68 3.1c.82-1.29-10.65-3.42-13.66-4.11ZM206.89 134.6c-2.55.35-4.52 4.19-2.63 6.8 1.89 2.62 5.59 5.88 3.57 8.49s-4.28 4.83-1.86 6.48c2.42 1.65 5.04-4.87 5.21-8.33.17-3.46-1.1-13.89-4.29-13.45Z"/><path class="cls-32" d="M59.62 50.91c-9.58 7.25-14.8 26.25-30.52 26.37-15.72.12-10.05 13.41 3.48 22.46 13.53 9.06 39.96 10.51 49.75-3.26 9.8-13.77 8.85-36.32 8.85-36.32l-31.56-9.25Z"/><path class="cls-27" d="M76.05 89.07s-.6 7.33 6.27 7.41c0 0-5.33-1.37-6.27-7.41Z"/><path d="M36.44 96.48c-10.63-2.38-14.97-6.97-16.56-11.27 1.17 4.46 5.96 10.02 12.7 14.53 5.36 3.59 12.73 5.97 20.3 6.7 18.72-3.72 23.91-11.92 23.91-11.92s-16.97 7.19-40.34 1.96Z" style="opacity:.04"/><path class="cls-27" d="M84.21 58.34c-4.89-2.52-13.22 3.04-13.22 3.04L63 62.83s1.47-8.81-4.71-10.8C51.46 58.19 46.64 70 37.76 74.98c3 4.42 9.64 6.45 17.16 2.74 0 0 10.48 15.62 23.72 7 13.23-8.61 10.47-23.87 5.58-26.39Z"/><path d="M27.03 95.41c1.64 1.5 3.5 2.97 5.55 4.34 2.88 1.93 6.35 3.51 10.12 4.67 22.48 1.17 34.09-9.89 34.09-9.89-27.89 15.03-49.62.97-49.75.88Z" style="fill:#fef0ea"/><path class="cls-1" d="M73.93 34.25s-9.27-4.35-5.35-13.69c3.93-9.34-.96-15.22-8.87-19.52-4.56-2.12-4.61-.75-2.55 1.91 2.07 2.66 2.29 9.6-3.43 15.79-6.69 7.24-9.11 21.07 3.39 26.8 0 0 8.89-8.11 16.81-11.29Z"/><g class="cls-6"><path class="cls-28" d="M71.32 32.47c-2.11 1.14-5.52 2.56-8.81 4.48-4.85 2.83-4.89 2.32-6.84-.02-3.29-3.96-.91-10.67 3.42-16.68s4.81-10.64.6-17.14c-.52-.8-2.52-2.48-2.67-3.07-1.73-.32-1.36.94.16 2.9 2.07 2.66 2.29 9.6-3.43 15.79-6.69 7.24-9.11 21.07 3.39 26.8 0 0 8.89-8.11 16.81-11.29 0 0-1.24-.58-2.62-1.78Z"/></g><g class="cls-6"><path class="cls-28" d="M71.9 32.95c-3.71 1.04-9.47 4.49-11.63 6.61-2.38 2.32-6.2 3.96-8.95-4.88-2.07-8.34 2.99-13.65 6.41-18.39s1.85-8.98.32-11.6c1.08 3.3.42 8.93-4.31 14.05-6.69 7.24-9.11 21.07 3.39 26.8 0 0 8.89-8.11 16.81-11.29 0 0-.91-.43-2.03-1.3Z"/></g><path class="cls-3" d="M62.73 5.79s6.58 4.51 2.36 13.77c-4.03 9.16 11.62-6.37-2.36-13.77ZM65.83 27.14c-.39.21-.98-.14-1.33-.79s-.31-1.34.07-1.55c.39-.21.98.15 1.33.79.35.65.31 1.34-.07 1.55Z"/><path class="cls-37" d="M55.9 47.12s2.71-12.84 15.86-14.8c2.12-2 6.73-2.49 12.48-1 3.78 1.18 4.26 2.03 4.03 2.72 5.19 2.35 15.6 9.43 11.44 28.69 0 0-20.57-20.12-43.81-15.61Z"/><path class="cls-37" d="M98.19 43.26c-.33.14-.78.07-1.29-.26-1.53-.97-2.61-.5-4.14 1.31-1.53 1.81-1.46 5.53-6.05 4.01s-8.65-4.9-7.07-8.27c3.03-5.24 6.7-5.55 9.12-5.8-.17-.08-.33-.16-.48-.23.23-.69-.25-1.54-4.03-2.72-5.75-1.49-10.36-1-12.48 1l-.57.09c-.41.49-.86 1-1.38 1.53-3.66 3.79-5.71 6.63-8.08 5.66-.81-.33-.93-1.02-.73-1.78-4.04 4.25-5.11 9.3-5.11 9.3 23.24-4.51 43.81 15.61 43.81 15.61 1.9-8.79.76-15.04-1.53-19.47Z" style="opacity:.3;mix-blend-mode:multiply;fill:none"/><g class="cls-10"><path class="cls-37" d="M100.54 57.17c-.6 3.22-4.17 0-3.42-2.24s-3.6-7.58-3.6-7.58-1.36.48-1.88 3.45c-.52 2.97-4.92.59-10.54-2.01-5.35-2.48-3.65-6.86-3.65-6.86s-2.06-.5-10.23-2.93c-1.97 2.31-3.19 5.7-7.11 4.96-1.53-.29-1.97-1.25-1.95-2.31-1.72 2.96-2.25 5.46-2.25 5.46 23.24-4.51 43.81 15.61 43.81 15.61.44-2.02.71-3.9.85-5.66 0 .03-.02.06-.03.1Z"/></g><path d="M101.08 43.7c2.56 5.2 2.1 10.66-1.01 12.19-3.11 1.53-7.71-1.45-10.27-6.66-2.55-5.2-2.1-10.66 1.01-12.19 3.11-1.53 7.71 1.45 10.27 6.65Z" style="fill:#c2a27b"/><path d="M98.27 56.56c-3.1-.01-6.6-2.91-8.71-7.21-2.62-5.33-2.11-10.96 1.13-12.55.58-.29 1.23-.43 1.91-.43 3.1.01 6.6 2.91 8.71 7.2 2.62 5.33 2.11 10.96-1.13 12.55-.58.29-1.23.43-1.91.43ZM92.6 36.91c-.6 0-1.17.12-1.68.37-2.97 1.46-3.37 6.77-.89 11.83 1.99 4.05 5.38 6.89 8.23 6.9.6 0 1.17-.12 1.68-.37 2.98-1.46 3.37-6.77.89-11.83-1.99-4.06-5.37-6.89-8.23-6.9Z" style="fill:#936b3e"/><path d="M101.08 43.7c-1.89-3.85-4.91-6.48-7.61-6.97-.1.27-.37.5-.94.63-2.05.48-4.99 4.08-1.22 11.69 1.9 3.92.45 3.52-1.69-.23.06.14.12.27.19.41 2.56 5.2 7.15 8.18 10.27 6.66 3.11-1.53 3.57-6.99 1.01-12.19Z" style="fill:#c28251" class="cls-10"/><path class="cls-2" d="M90.93 37.32s-2.54 2.14-1.66 7.67c.38 2.15-2.52-5.02 1.66-7.67ZM89.53 46.27c.05.2.04.37-.03.39-.06.02-.15-.13-.21-.33-.05-.2-.04-.37.03-.39.06-.02.15.14.21.33Z"/><path class="cls-1" d="M90.65 43.63s1.06 7.21 6.21 10.57c5.14 3.36 30.58 1.29 33.13-18.23 1.35-12.36-1.36-18.49 5.03-21.59 2.87-1.68-5.32-3.4-13.02 1.77-7.7 5.18-3.54 18.43-17.79 21.54-8.33.88-14.31-2.01-13.56 5.94Z"/><g class="cls-6"><path class="cls-28" d="M133.04 12.71c-.5.65-1.42 1.57-2.83 2.84-6.59 5.92-1.41 18.94-10.51 27.58-7.46 7.09-21.92 8.08-26.64 2.38-1.93-2.33-2.03-4.48-1.85-5.91-.53.86-.74 2.14-.56 4.03 0 0 1.06 7.21 6.21 10.57 5.14 3.36 30.58 1.29 33.13-18.23 1.35-12.36-1.36-18.49 5.03-21.59 1.33-.78.28-1.56-1.98-1.67Z"/></g><path d="M128.04 29.66c-.42 12.39-6.39 21.53-21.27 23.33-5.85.71-9.84-.02-12.52-1.15.72.88 1.58 1.7 2.6 2.36 5.14 3.36 30.58 1.29 33.13-18.23 1.35-12.36-1.36-18.49 5.03-21.59.33-.2.52-.39.57-.58-5.56.8-6.95 6.63-7.54 15.86Z" style="fill:#9f8b7e;opacity:.4;mix-blend-mode:multiply"/><g class="cls-6"><path class="cls-28" d="M109.43 37.78c6.66-2.88 6.62-8.25 7.37-13.52-1.94 5.47-3.59 11.47-12.59 13.44-3.12.33-5.91.13-8.14.17 3.02 1.06 8.19 2.15 13.36-.09Z"/></g><path class="cls-3" d="M128.68 13.92s-9.9 2.95-10.94 11.77c-.77 6.81-2.45 10.8-6.53 12.53-4.08 1.73 6.27 2.58 8-5.07 1.6-7.07.3-14.77 9.47-19.23ZM101.28 40.88c0 .53-1.2.95-2.68.95s-2.68-.44-2.68-.97 1.21-.95 2.68-.95 2.68.44 2.68.97Z"/><path class="cls-42" d="M88.27 34.03c.23-.69-.25-1.54-4.03-2.72-5.75-1.49-10.36-1-12.48 1 0 0-5.4 4.74-6.94 14.2 3.77.2 7.39.93 10.78 1.98 2.95-16.42 12.68-14.47 12.68-14.47Z"/><g class="cls-10"><path class="cls-17" d="M88.27 34.03c.13-.38.03-.82-.72-1.33C77.21 33.48 75 45.16 74.6 48.2c.33.1.67.19 1 .3 2.95-16.42 12.68-14.47 12.68-14.47Z"/></g><g class="cls-10"><path class="cls-25" d="M74.31 44.96c-.5 1.5-6.78-.21-7.2-1.74.04-3.01 1.29-6.12 2.42-8.32-1.68 2.32-3.83 6.18-4.71 11.61 3.77.2 7.39.93 10.78 1.98 1.66-9.22 5.45-12.65 8.46-13.88-6.74.27-9.28 8.94-9.75 10.34Z"/></g><g style="mix-blend-mode:screen;opacity:.4;fill:none"><path class="cls-19" d="m77.23 42.53-12.35 3.66-.06.32c2 .1 3.97.36 5.88.74l5.53-1.64c.3-1.13.63-2.16 1-3.08ZM78.75 39.44l-13.23 3.92c-.15.53-.29 1.09-.41 1.66l12.67-3.75c.31-.66.64-1.27.97-1.82Z"/></g><path class="cls-3" d="M68.6 38.16s2.55-4.62 4.41-6.04c1.55-1.06 4.83-1.18 8-.96-4.03-.97-7.03-.01-8.42.82-1.39.84-3.99 6.18-3.99 6.18Z"/><path class="cls-42" d="M54.27 51.84S59.93 49 73.64 53.2c13.14 4.28 18.93 8.97 22.22 11.07 2.9 1.84 3.3 1.03 4.05-.41.74-1.44-3.13-6.43-16.09-12.47-12.96-6.05-22.51-5.5-26.58-5.23-4.07.27-3.38 1.04-3.6 2.92-.25 2.11-.08 3.08.63 2.77Z"/><path d="M53.87 52.06c-.52-.17-.65-1.08-.42-3.02.03-.28.04-.54.06-.77.07-1.48.24-2.1 3.72-2.33 3.05-.2 10.17-.68 19.86 2.53 2.26.75 4.55 1.66 6.81 2.72 10.72 5 15.41 9.39 16.18 11.63.15.45.15.82 0 1.11-.56 1.09-1 1.93-2.48 1.44-.49-.16-1.1-.47-1.85-.95-.47-.3-.97-.64-1.56-1.04-3.44-2.33-9.19-6.22-20.14-9.85l-.47-.15c-7.03-2.15-11.88-2.41-14.71-2.25-3.07.18-4.49.87-4.5.88-.19.08-.35.1-.49.05Zm23.09-3.21c-9.61-3.18-16.69-2.71-19.71-2.51-3.27.22-3.3.69-3.36 1.95-.01.24-.02.5-.06.8-.26 2.28.05 2.56.16 2.6.06.02.14 0 .2-.03.22-.11 5.88-2.83 19.5 1.35l.47.16c11 3.64 16.79 7.56 20.24 9.9.58.4 1.09.74 1.55 1.03.73.46 1.3.76 1.76.91 1.15.38 1.45-.19 1.99-1.23.11-.21.1-.48-.02-.82-.16-.48-2-4.88-15.97-11.4a62.341 62.341 0 0 0-6.77-2.7Z" style="fill:#47342e"/><path class="cls-19" d="M57.24 46.15c-3.97.26-3.41 1-3.58 2.78L61.78 46c-1.89-.03-3.42.07-4.53.14Z"/><g style="opacity:.8;mix-blend-mode:multiply;fill:none"><path class="cls-25" d="M58.45 48.13c.45-1.21 3.27-1.77 5.84-2.03-3.09-.21-5.48-.07-7.05.04-4.07.27-3.38 1.04-3.6 2.92-.25 2.11-.08 3.08.63 2.77 0 0 4.52-2.26 15.24.24-.02 0-.03-.02-.05-.02-6.43-2.41-11.82-1.78-11.01-3.93ZM84.47 51.69c.89.52 1.93 1.1 3.14 1.75 8.49 4.57 9.35 8.37-4.15 3.57 6.51 3 10.08 5.77 12.39 7.25 2.9 1.84 3.3 1.03 4.05-.41.73-1.41-3-6.26-15.43-12.16Z"/></g><path class="cls-17" d="M56.73 49.2c-.12.35-.5.54-.85.43s-.54-.5-.43-.85.5-.55.85-.43.55.5.43.85Z"/><path class="cls-42" d="M56.55 49.02c-.1.29-.41.45-.71.36s-.45-.41-.36-.71.41-.45.71-.36.45.41.36.71Z"/><path class="cls-24" d="M55.81 49.47c-.35-.11-.53-.49-.42-.83s.49-.53.83-.42.53.49.42.83-.49.53-.83.42Zm.35-1.06a.459.459 0 1 0-.29.87.459.459 0 0 0 .29-.87Z"/><path class="cls-3" d="M55.96 48.63c-.09.06-.18.06-.22.01-.03-.05.02-.13.1-.19.09-.06.18-.06.21-.01.03.05-.02.13-.1.19ZM55.7 48.74s-.03.03-.05.03-.03-.03-.03-.05.03-.03.05-.03.03.03.03.05Z"/><path class="cls-17" d="M64.64 48.89c-.12.35-.5.54-.85.43s-.54-.5-.43-.85.5-.55.85-.43.55.5.43.85Z"/><path class="cls-42" d="M64.46 48.71c-.1.29-.42.45-.71.36s-.45-.42-.36-.71.41-.45.71-.36.45.41.36.71Z"/><path class="cls-24" d="M63.72 49.16c-.34-.11-.53-.49-.42-.83s.49-.53.83-.42.53.49.42.83-.49.53-.83.42Zm.35-1.06a.459.459 0 1 0-.29.87.459.459 0 0 0 .29-.87Z"/><path class="cls-3" d="M63.87 48.32c-.09.06-.18.06-.21.01-.03-.05.02-.13.1-.19.09-.06.18-.06.21-.01.03.05-.02.13-.1.19ZM63.61 48.42s-.03.03-.05.03-.03-.03-.03-.05c0-.02.03-.03.05-.02s.03.03.03.05Z"/><path class="cls-17" d="M74.17 50.52c-.12.35-.5.54-.85.43s-.54-.5-.43-.85.5-.55.85-.43.55.5.43.85Z"/><path class="cls-42" d="M73.99 50.34c-.1.29-.42.45-.71.36s-.45-.42-.36-.71.41-.45.71-.36.45.41.36.71Z"/><path class="cls-24" d="M73.25 50.79c-.34-.11-.53-.49-.42-.83s.49-.53.83-.42.53.49.42.83-.49.53-.83.42Zm.35-1.06a.459.459 0 1 0-.29.87.459.459 0 0 0 .29-.87Z"/><path class="cls-3" d="M73.4 49.95c-.09.05-.18.06-.22.01-.03-.05.02-.13.1-.19.09-.06.18-.06.21-.01.03.05-.01.13-.1.19ZM73.14 50.05s-.03.03-.05.03-.03-.03-.03-.05.03-.03.05-.03.03.03.03.05Z"/><path class="cls-17" d="M83.26 53.91c-.12.35-.5.54-.85.43s-.54-.5-.43-.85.5-.55.85-.43.55.5.43.85Z"/><path class="cls-42" d="M83.08 53.73c-.1.29-.42.45-.71.36s-.45-.41-.35-.71.41-.45.71-.36.46.42.36.71Z"/><path class="cls-24" d="M82.34 54.18c-.34-.11-.53-.49-.42-.83s.49-.53.83-.42.53.49.42.83-.49.53-.83.42Zm.35-1.06a.459.459 0 1 0-.29.87.459.459 0 0 0 .29-.87Z"/><path class="cls-3" d="M82.49 53.34c-.09.06-.18.06-.21.01-.03-.05.01-.13.1-.19.09-.06.18-.06.22-.01.03.05-.02.13-.1.19ZM82.23 53.45s-.03.03-.05.03c-.02 0-.03-.03-.02-.05s.03-.03.05-.03c.02 0 .03.03.03.05Z"/><path class="cls-17" d="M93.58 59.1c-.12.35-.5.54-.85.43s-.54-.5-.43-.85.5-.54.85-.43.55.5.43.85Z"/><path class="cls-42" d="M93.4 58.92c-.1.29-.41.45-.71.36s-.45-.41-.36-.71.41-.45.71-.36.45.41.36.71Z"/><path class="cls-24" d="M92.66 59.37c-.34-.11-.53-.49-.42-.83s.49-.53.83-.42.53.49.42.83-.49.53-.83.42Zm.35-1.06a.459.459 0 1 0-.29.87.459.459 0 0 0 .29-.87Z"/><path class="cls-3" d="M92.81 58.53c-.09.06-.18.06-.21.01-.03-.05.01-.13.1-.19.09-.05.18-.06.22-.01.03.05-.02.13-.1.19ZM92.55 58.64s-.03.03-.05.03-.03-.03-.03-.05c0-.02.03-.03.05-.03s.03.03.03.05Z"/><path class="cls-17" d="M98.96 63.38c-.12.35-.5.54-.85.43s-.54-.5-.43-.85.5-.54.85-.43.55.5.43.85Z"/><path class="cls-42" d="M98.78 63.21c-.1.29-.41.45-.71.35s-.45-.41-.35-.71.41-.45.71-.36.45.41.36.71Z"/><path class="cls-24" d="M98.04 63.65c-.34-.11-.53-.49-.42-.83s.49-.53.83-.42.53.49.42.83-.49.53-.83.42Zm.35-1.07a.459.459 0 1 0-.29.87.459.459 0 0 0 .29-.87Z"/><path class="cls-3" d="M98.2 62.81c-.09.05-.18.06-.22.01-.03-.05.01-.13.1-.19.09-.06.18-.06.21-.01.03.05-.02.13-.1.19ZM97.94 62.92s-.03.03-.05.03c-.02 0-.03-.03-.03-.05s.03-.03.05-.03.03.03.02.05ZM64.95 46.59s9.55.32 24.36 8.21c-7.39-5.15-19.55-8.49-24.36-8.21ZM59.64 62c-1.62 8.98-9.48 15.47-17.57 14.48-8.1-1.02-13.35-9.16-11.73-18.14 1.62-9.01 9.5-15.5 17.58-14.48C56 44.88 61.25 52.99 59.63 62Z"/><g class="cls-8"><path class="cls-29" d="M49.74 44.23c5.74 2.41 9.12 8.98 7.83 16.19-1.53 8.49-8.94 14.6-16.55 13.64-5.26-.64-9.24-4.47-10.7-9.57 1.08 6.28 5.58 11.2 11.76 11.98 8.08.99 15.95-5.5 17.57-14.48 1.5-8.32-2.86-15.84-9.9-17.77Z"/></g><path class="cls-5" d="M53.24 62.32c0 5.21-3.45 9.42-7.69 9.42s-7.68-4.21-7.68-9.42 3.43-9.39 7.68-9.39 7.69 4.22 7.69 9.39Z"/><path d="M49.14 64.99c0 2.53-1.64 4.57-3.64 4.57s-3.64-2.04-3.64-4.57 1.62-4.59 3.64-4.59 3.64 2.06 3.64 4.59Z"/><path class="cls-3" d="M89.25 70.13c-1.62 8.98-9.48 15.47-17.57 14.48-8.1-1.02-13.35-9.16-11.73-18.14 1.62-9.01 9.5-15.5 17.58-14.48 8.08 1.02 13.33 9.13 11.71 18.14Z"/><g class="cls-8"><path class="cls-29" d="M79.35 52.36c5.74 2.41 9.12 8.98 7.83 16.19-1.53 8.49-8.94 14.6-16.55 13.64-5.26-.64-9.24-4.47-10.7-9.57 1.08 6.28 5.58 11.2 11.76 11.98 8.08.99 15.95-5.5 17.57-14.48 1.5-8.32-2.86-15.84-9.9-17.77Z"/></g><path class="cls-5" d="M82.85 70.45c0 5.21-3.45 9.42-7.69 9.42s-7.68-4.21-7.68-9.42 3.43-9.39 7.68-9.39 7.69 4.22 7.69 9.39Z"/><path d="M78.75 73.13c0 2.53-1.64 4.57-3.64 4.57s-3.64-2.04-3.64-4.57 1.62-4.59 3.64-4.59 3.64 2.06 3.64 4.59Z"/><path class="cls-3" d="M51.07 65.6c-2.43.7-4.61.47-4.89-.49s1.46-2.31 3.89-3.01 4.64-.49 4.91.48-1.48 2.32-3.91 3.02ZM80.22 69.91c2.1-.6 4-.35 4.26.55s-1.22 2.12-3.32 2.73-4.02.37-4.28-.54 1.24-2.13 3.34-2.74Z"/><path class="cls-47" d="M62.27 56.44c.81.14 1.61.36 2.39.63-4.2-8.11-15.18-18.85-30.5-15.61-18.47 3.91-8.12 8.01.43 6.27 0 0-4.98 4.58 2.01 3.36 6.94-1.2 18.96-3.26 25.67 5.35Z"/><path class="cls-30" d="M62.27 56.44c.48.08.96.19 1.43.33-1.44-2.11-3.48-4.51-6.16-6.3-6.03-4.03-11.68-3.14-17.62-2.13-5.93 1.01 1.5-4.11 1.5-4.11s-2.45 1.05-9.41 1.37c-4.77.22-4.13-1.54-1.5-3.26-13.27 3.61-3.83 7 4.08 5.39 0 0-4.98 4.58 2.01 3.36 6.94-1.2 18.96-3.26 25.67 5.35Z"/><path class="cls-47" d="M98.83 51.47c-12.4-7.49-27.96-1.24-36.25 5.03.74.15 1.48.36 2.21.62 8.68-4.57 15.5-.37 21.24 2.81 6.12 3.39 4.28-3.63 4.28-3.63 7.39 4.38 24.44 4.79 8.53-4.82Z"/><path class="cls-30" d="M100.79 52.72c1.45 1.73 2.77 3.89 1.09 4.34-2.9.78-8.83-1.87-14.37-4.77 0 0 2.64 4.71 0 5.62-2.64.91-3.93-3.62-9.86-4.41-4.19-.56-9.21.27-14.14 3.22.43.12.85.25 1.27.4 8.68-4.57 15.5-.37 21.24 2.81 6.12 3.39 4.28-3.63 4.28-3.63 7.06 4.18 22.88 4.74 10.48-3.57Z"/><path class="cls-47" d="M52.54 93.34c-11.38-6.88-25.68-1.14-33.29 4.62.68.13 1.36.33 2.03.57 7.97-4.2 14.23-.34 19.51 2.58 5.62 3.11 3.93-3.33 3.93-3.33 6.79 4.03 22.45 4.4 7.83-4.43Z"/><path class="cls-30" d="M54.33 94.49c1.33 1.59 2.55 3.57 1.01 3.99-2.66.72-8.11-1.72-13.2-4.38 0 0 2.43 4.33 0 5.16-2.43.83-3.61-3.33-9.06-4.05-3.85-.51-8.46.24-12.98 2.96.39.11.78.23 1.17.37 7.97-4.2 14.23-.34 19.51 2.58 5.62 3.11 3.93-3.33 3.93-3.33 6.48 3.84 21.02 4.35 9.63-3.28Z"/><path class="cls-47" d="M6.04 92.84c11.38-6.88 25.68-1.14 33.29 4.62-.68.13-1.36.33-2.03.57-7.97-4.2-14.23-.34-19.51 2.58-5.62 3.11-3.93-3.33-3.93-3.33-6.79 4.03-22.45 4.4-7.83-4.43Z"/><path class="cls-30" d="M4.24 93.98c-1.33 1.59-2.55 3.57-1.01 3.99 2.66.72 8.11-1.72 13.2-4.38 0 0-2.43 4.33 0 5.16 2.43.83 3.61-3.33 9.06-4.05 3.85-.51 8.46.24 12.98 2.96-.39.11-.78.23-1.17.37-7.97-4.2-14.23-.34-19.51 2.58-5.62 3.11-3.93-3.33-3.93-3.33-6.48 3.84-21.02 4.35-9.63-3.28Z"/><path class="cls-36" d="M27.32 116.46c.28.91.59 1.83.77 2.72.27 1.35-.19 2.24-.85 3.18-.95 1.37-.52 3.03 0 4.91.01.06.05.11.11.14.21 1.4.44 2.98 1.63 4.43 1.1 1.34 2.48.9 3.49.67.44-.1.93-.18 1.51 0 .53.16.65.6 1.04.81 1.09.61 1.49-.66 2.52.51.26.29.73.97 1.22.92.55-.05.11-.95 1.1-.5.05.02.09.03.12.03 1.24.54 2.8 1.23 3.63 2.18.33.38.7.7 1.21.69.21 0 .31-.07.45-.15.25-.14.35-.19.67-.27.93-.23 1.31 1.05 2.03 1.47.39.22.9.22 1.13.07.25-.17.44-.39.68-.56.59-.43.65.49.77.88.32 1.03 1.11 1.9 2.52 1.99.71.05 1.85-.08 2.36.74.22.36.28.7.56 1.06.99 1.28 2.99 1.17 4.21 2.02.67.46.14.52.23.89.09.35.94.65 1.26.76.56.2 1.91-.35 2.26.52.26.64.15 1.22.34 1.85.04.13.19.22.35.23 1.73.12 2.27 1.31 2.79 2.44.39.83.8 1.64 1.6 2.4.01.08.08.17.22.22 1.19.46 3.2 1.22 4.19.92.93-.28-.08-1.21-.85-1.81 1.29-.34 2.84-.47 3.18-1.63.03-.09-.11-.21-.23-.26-.42-.15-.81-.25-1.2-.31 1.5-.93 1.39-2.55 1.03-4.47-.19-1.05-.94-2.99.63-3 .82 0 1.31-.07 1.39-.73 0-.08-.1-.22-.23-.26-.55-.15-1.07-.23-1.61-.32-.02-.15-.05-.3-.07-.45h.4c.17 0 .29-.04.43-.08.82-.22 1.31-.84 1.5-1.51.03-.11-.2-.3-.35-.28-.19.03-.4.02-.61 0 .47-.92 2.3-1.68.25-3.01 1.05-.56 2.47-.85 3.28-1.62.64-.61-.44-.96-1.38-1.14.4-.17.69-.44.52-.91-.22-.58-1.13-1.02-1.88-1.31 1.47-.53 2.59-1.62 2.46-3.12-.17-1.87-2.17-2.26-4.01-3.06.61-.21.97-.56.33-1.33-.61-.73-1.76-.92-2.53-.99-.58-.06-2.88.1-3.01-.66-.11-.59-.79-1.19-1.52-1.52-.51-.24-3.4-.4-3.49-.96-.04-.27-.14-.51-.29-.79-.21-.4-.41-.87-.7-1.27-.74-.98-2.72.39-3.49.85-.44-1.27-.85-2.93-2.41-3.94-.42-.27-1.37-.65-1.51-.25a.69.69 0 0 0-.04.25c-.55-.67-1.22-1.32-2-1.74-1.08-.6-1.56-.14-1.56.48-.75-.93-1.49-1.91-2.62-2.6-.34-.21-1.03-.36-1.22-.17-.06.06-.09.13-.11.2-.87-.92-1.7-1.87-3.03-2.39-.13-.05-.25 0-.26.08 0 .21-.01.41.01.62-.91-.78-2.07-1.52-3.12-1.99-.9-.4-1.13-.15-1.07.28-.46-.38-.98-.71-1.53-.73-.87-.04-1.42.38-1.91.8-.19-.73-.61-1.89-1.41-1.46-.8.44-1.02 1.71-1.09 2.69-.56-.65-1.45-1.46-2.05-1.27-.82.27-.5 1.49-.46 2.31-1.02-.77-1.16.37-1.2 1.18-.27-.23-.57-.44-.93-.61-.16-.08-.29-.06-.32.05-.11.5-.16 1.01-.38 1.46-.24-.23-.51-.44-.76-.67-.16-.14-.35-.1-.38.01-.13.54.05 1.16.11 1.75-1.1-1.01-1.11.5-1.29 1.28-.41-.53-1.05-1.19-1.5-.83-.75.61-.35 1.97-.04 2.97Z"/><path class="cls-39" d="M28.75 114.78c.11.17.36.24.45.13.17-.25.16-.6.18-.91.04-.48.04-1.34.85-.37.13.16.42.19.43.04.03-.61-.2-1.28-.17-1.89.22.19.43.37.61.59.12.15.35.17.41.08.32-.46.38-1.01.49-1.57.31.18.56.39.79.63v.05c-.01.13.15.24.28.27.2.24.56.13.37-.11l-.17-.2c0-.6-.02-1.98.78-1.16.15.15.41.19.43.03.06-.54-.04-1.14-.01-1.69.02-.45.18-1.01 1.02-.38.4.31.78.73 1.02 1.1.12.18.45.27.46.09.03-.78.21-1.5.47-2.18.12-.29.25-.58.48-.8.29-.27.68 1.34.71 1.48.03.16.33.3.44.2.35-.28.69-.57 1.09-.81.83-.49 1.72.01 2.52.84.07.13.14.27.21.38.15.25.6.23.44-.01a.21.21 0 0 0-.04-.06c.04-.04.04-.11-.03-.2-.08-.09-.16-.18-.25-.27-.2-.36-.31-.73.18-.6.43.12.87.4 1.27.63.82.49 1.72 1.1 2.36 1.75.21.21.49.16.4-.06-.13-.31-.14-.56-.13-.81 1.41.66 2.28 1.98 3.34 2.95.22.2.5.05.32-.16.11-.2.21-.4.32-.6.22.13.42.27.61.44.4.33.73.72 1.05 1.08.49.56.91 1.14 1.42 1.69.18.2.55.16.4-.06-.44-.55-.26-.91.56-1.09.27.11.5.25.72.44.38.29.7.65.99.98.47.53.88 1.09 1.21 1.64.15.25.58.23.44-.01-.25-.4-.45-.79-.57-1.18-.24-.82.96-.05 1.24.17.33.26.53.61.72.91.58.93.82 1.87 1.17 2.79.05.14.25.27.4.23.59-.17 1.02-.52 1.48-.81.29-.18.6-.36.97-.47.62-.19.72.27.89.62.2.42.52.77.6 1.19.02.1.01.2.1.31.31.4 1.31.67 1.73.79 1.07.31 2.81.04 3.19 1.46.07.28.08.47.47.69.56.32 1.36.36 1.89.38.5.02.99.02 1.51.07.34.03.68.11 1.03.23 1.2.4.74 1.28.1 1.44-.13.03-.1.24.08.32.65.32 1.29.56 1.96.79 1.42.49 2.11 1.17 2.21 2.25.13 1.44-1.31 2.45-2.74 2.84-.16.05-.07.28.15.35.61.22 1.22.45 1.75.85.96.71-.51 1.01-.92 1.11-.19.04-.03.35.2.37.14.01 1.98.17 2 .41.03.34-.65.57-.91.71-.8.41-1.72.69-2.49 1.11-.09.05-.05.14.03.22-.05.07-.03.19.13.28 1.85 1.13-.39 2.02-.55 2.87-.02.14.19.27.35.28.2.01.39.04.58.05-.34.7-1.08 1.04-2.13 1.11-.52.03-.54.4-.49.79 0 .07.12.18.22.21.69.19 1.35.26 2.03.42-.27.58-1.35.11-1.9.46-.65.41-.4.97-.28 1.72.38 2.37 1.23 4.94-1.24 5.94-.19.08 0 .37.27.37.55 0 .97.07 1.52.24-.45.95-2.07 1-3.2 1.35-.12.03-.12.18.02.28.47.35.97.71 1.26 1.15.32.48-.87.3-1.08.27-.9-.12-1.88-.45-2.81-.81a.383.383 0 0 0-.08-.11c-1.74-1.64-1.6-4.62-4.6-5.01-.17-.91-.08-2.7-1.81-2.65-.16 0-2.16.09-2.01-.33.06-.16.29-.2.24-.42-.11-.44-.95-.92-1.45-1.12-1.15-.44-2.91-.68-3.53-1.81-.25-.46-.3-.85-.86-1.25-.72-.52-1.52-.48-2.2-.5-2.15-.08-1.88-1.74-2.63-2.83-.07-.1-.2-.19-.32-.18-.32.02-.54.07-.77.19-.17.09-.29.24-.42.35-.39.38-1.14-.06-1.49-.55-.34-.49-.93-.95-1.55-.9-.22.02-.57.02-.73.11-.13.08-.22.17-.32.27-.39.37-1.1-.56-1.28-.77-.37-.42-1.03-.68-1.54-.96-.73-.4-1.47-.75-2.22-1.08-.06-.02-.1-.03-.14-.02-.4-.15-.72-.15-.92.07-.09.1-.14.24-.2.36-.1.2-.83-.77-.96-.89-.52-.47-.88-.54-1.39-.42-.39.1-.83.24-1.22-.2-.17-.19-.53-.41-.78-.52-1.62-.66-2.43.35-3.87.13-1.96-.3-2.4-4.17-2.53-5.05-.01-.07-.07-.13-.13-.17-.39-1.44-.83-2.9-.27-4.04.54-1.1 1.35-1.84 1.26-3.23-.08-1.16-.59-2.44-.96-3.66-.18-.59-.27-1.12-.24-1.65.01-.19.06-.37.12-.54.24-.62 1.06.59 1.16.74Z"/><g class="cls-16"><path class="cls-39" d="M48.57 117.47c1.06 1.99 2.88 3.78 5.33 5.1.19.1.1.3-.09.21-2.31-1.03-4.06-2.28-5.42-4.09-1.38-1.84-2.19-4.02-2.5-5.79-.04-.25.39-.15.53.08.88 1.49 1.35 2.99 2.15 4.49Z"/><path class="cls-39" d="M51.1 121.65c-1.34-.77-2.69-1.75-3.36-2.89-.11-.18.21-.18.35-.02.92 1.06 1.81 1.93 3.12 2.76.17.11.06.25-.11.15ZM52.8 120.61c.22.2-.03.35-.26.16-2.83-2.29-4.55-4.97-5.24-7.54-.05-.2.3-.11.41.06 1.53 2.5 2.59 4.98 5.1 7.33ZM49.22 113.38c.21 1.16.67 2.32 1.34 3.53.04.07-.1.08-.15 0-.82-1.23-1.45-2.47-1.48-3.61 0-.13.26-.07.29.07ZM50.19 112.07c-.05 1.4.34 2.84 1.49 4.4.1.14-.11.18-.22.04-1.28-1.61-1.9-3.2-1.6-4.59.03-.15.34 0 .34.15Z"/></g><g class="cls-16"><path class="cls-39" d="M69.53 146.16c-.14.95-.78 1.6-1.94 1.8-.09.02.02.16.11.15 1.14-.06 1.89-.39 2.25-1.17.37-.78.3-1.91.03-2.92-.04-.14-.28-.19-.31-.08-.16.69-.05 1.49-.15 2.21Z"/><path class="cls-39" d="M69.06 148.09c.62-.14 1.19-.41 1.3-.94.02-.09-.17-.16-.22-.1-.29.42-.6.73-1.19.92-.08.02.03.14.11.12ZM67.76 147.04c-.08.07.11.22.2.16 1.14-.7 1.49-1.91 1.25-3.32-.02-.11-.21-.14-.23-.06-.29 1.15-.29 2.4-1.22 3.22ZM68.08 143.51c.17.65.19 1.25.09 1.83 0 .03.08.07.09.04.19-.55.25-1.15-.03-1.84-.03-.08-.18-.11-.16-.03ZM67.14 142.47c.39.87.53 1.65.23 2.32-.03.06.12.14.15.08.37-.66.34-1.49-.21-2.41-.06-.1-.21-.09-.17 0Z"/></g><g class="cls-16"><path class="cls-39" d="M71.51 129.99c-.88.88-2.27 1.29-4.06 1.05-.14-.02-.09.16.05.19 1.67.37 2.97.32 4.04-.3 1.09-.64 1.81-1.78 2.16-2.87.05-.16-.26-.29-.38-.2-.72.62-1.15 1.46-1.81 2.13Z"/><path class="cls-39" d="M69.45 131.72c.98.09 1.99.05 2.53-.44.09-.08-.13-.23-.24-.18-.72.3-1.39.5-2.36.46-.13 0-.06.14.06.16ZM68.35 130.18c-.16.04 0 .26.17.23 2.13-.27 3.51-1.33 4.18-2.8.05-.11-.2-.22-.29-.15-1.24 1.03-2.16 2.26-4.06 2.72ZM71.37 126.81c-.23.71-.64 1.31-1.19 1.84-.03.03.06.11.1.07.66-.47 1.19-1.04 1.29-1.82.01-.09-.18-.17-.2-.09ZM70.79 125.44c-.07 1-.44 1.83-1.35 2.38-.08.05.06.18.15.14 1.01-.52 1.55-1.34 1.45-2.46-.01-.12-.23-.17-.24-.06Z"/></g><g class="cls-16"><path class="cls-39" d="M62.86 121.95c-.25.7-.31 1.47-.23 2.3 0 .05-.1.03-.11-.03-.19-.88-.24-1.73.14-2.38.04-.07.23.02.2.11ZM64.08 121.44c-.54.78-.76 1.68-.43 2.83.03.1-.15.07-.18-.03-.42-1.21-.33-2.25.4-2.96.08-.08.27.08.21.16Z"/></g><g class="cls-16"><path class="cls-39" d="M55.22 135.5c-.43 1.21-.54 2.52-.39 3.97.01.09-.17.04-.2-.05-.34-1.53-.42-2.98.24-4.1.08-.13.39.04.34.19ZM57.32 134.61c-.93 1.34-1.3 2.9-.73 4.87.05.17-.26.13-.32-.04-.72-2.08-.56-3.87.69-5.1.13-.13.46.13.36.28Z"/></g><path class="cls-36" d="M26.56 116.98c.57 1.94 2 3.85 4.25 5.44.18.13.02.28-.16.17-2.18-1.32-3.71-2.73-4.64-4.56-.96-1.87-1.19-3.94-1.02-5.55.03-.23.47-.07.55.16.52 1.47.59 2.88 1.01 4.34Z"/><path class="cls-36" d="M28.07 121.12c-1.22-.92-2.39-2.02-2.77-3.14-.06-.18.27-.12.38.04.69 1.1 1.38 2.03 2.56 2.99.15.12 0 .23-.16.11ZM30.21 120.5c.17.21-.14.3-.33.09-2.38-2.52-3.45-5.19-3.45-7.59 0-.18.36-.04.42.13.92 2.48 1.35 4.85 3.36 7.37ZM28.44 113.48c-.11 1.06.05 2.17.42 3.35.02.07-.12.06-.16-.02-.53-1.23-.85-2.44-.56-3.45.03-.12.3-.02.29.11ZM29.86 112.49c-.46 1.23-.46 2.57.32 4.15.07.14-.17.14-.25 0-.92-1.65-1.12-3.16-.4-4.34.08-.13.37.05.32.19ZM36.27 107.43c-1.01 1.32-1.06 3.05.04 5.05.09.16-.21.16-.31 0-1.26-1.81-1.72-3.33-1.2-4.78.54-1.48 2.01-2.69 3.56-3.46.22-.11.56.2.46.37-.67 1.05-1.78 1.82-2.54 2.82Z"/><path class="cls-36" d="M34.43 110.4c-.55-1.11-.9-2.28-.37-3.08.08-.13.4.07.37.21-.17.93-.2 1.78.26 2.89.06.14-.2.12-.27-.02ZM37.25 111.15c0 .2-.39.09-.43-.12-.46-2.55.61-4.5 2.62-5.78.16-.1.42.16.35.28-1.08 1.78-2.61 3.26-2.54 5.61ZM41.24 106.53c-1 .51-1.77 1.17-2.36 1.99-.03.05-.18-.04-.16-.09.46-.92 1.12-1.72 2.29-2.11.13-.04.34.15.22.21ZM43.6 106.73c-1.52.42-2.65 1.13-3.13 2.36-.04.11-.31-.01-.27-.13.39-1.34 1.44-2.25 3.21-2.5.19-.03.36.22.19.26ZM78.8 141.31c-1.96.5-4.33.25-6.85-.87-.2-.09-.25.12-.06.22 2.25 1.2 4.24 1.79 6.3 1.65 2.1-.14 3.99-.99 5.29-1.97.18-.14-.18-.44-.42-.39-1.53.31-2.77.97-4.25 1.35Z"/><path class="cls-36" d="M74.47 142.13c1.41.57 2.95 1.02 4.12.77.19-.04-.03-.3-.22-.3-1.3-.03-2.45-.15-3.88-.67-.19-.07-.2.12-.02.2ZM73.91 139.99c-.27-.04-.19.27.09.33 3.39.75 6.22.31 8.28-.92.16-.09-.14-.33-.32-.3-2.6.47-4.86 1.33-8.05.88ZM80.85 137.91c-.86.63-1.89 1.07-3.1 1.35-.07.02.01.14.1.13 1.33-.18 2.52-.51 3.25-1.29.08-.09-.14-.27-.24-.19ZM80.97 136.18c-.83 1.02-1.98 1.71-3.73 1.84-.15.01-.03.22.13.21 1.88-.06 3.29-.66 3.93-1.88.07-.13-.24-.29-.32-.18Z"/><path class="cls-40" d="M74.67 144.63c-.12-.75-.37-1.31.28-1.72.56-.35 1.64.12 1.9-.46-.68-.16-1.34-.23-2.03-.42-.1-.03-.22-.14-.23-.21-.02-.17-.02-.32.02-.46-.98.15-1.78.29-1.78.29s1.01-1.1 2.45-2.54-3.99.39-5.34.54c-1.36.15 3.11-2.2.94-1.75-2.17.46-3.13.55-2.18-1.75.94-2.3-3.57 1.24-1.86-.42s-.92-.04-6.92.26c-6 .31.44-1.01 2.46-4.63 2.02-3.63-4.65 2.93-6.1 3.85-1.45.92 2.06-3.28 3.75-6.27 1.69-2.99-6.42 3.38-6.81 3.51-.39.13 2.41-5.17 2.41-5.17s-.61.31-2.73 2.58c-2.12 2.28-3.44-1.49-9.21-1.56-5.77-.07 1.13-.59 3.71-4.88s-2.01-.18-2.76.04c-.74.22-.53-1.45-2.41.13-1.88 1.58-.88.22-2.97 1.27-2.09 1.05-.71-.31-1.67.18-.96.48-.22-.13-.39-.92-.18-.79-.96-1.66-1.31-1.07-.35.59-.7 1.69-1.6 0s-2.38-.9-2.16 0c.17.71-1.25 1.86-3.83-1.44-.26.5-.6.96-.87 1.52-.56 1.14-.12 2.6.27 4.04.07.04.12.1.13.17.14.89.58 4.76 2.53 5.05 1.43.22 2.25-.79 3.87-.13.25.1.61.32.78.52.39.45.83.3 1.22.2.51-.12.87-.05 1.39.42.12.11.86 1.09.96.89.06-.12.11-.26.2-.36.21-.22.52-.22.92-.07.04 0 .08 0 .14.02.76.33 1.49.68 2.22 1.08.5.28 1.17.54 1.54.96.18.21.89 1.14 1.28.77.1-.1.19-.2.32-.27.16-.1.51-.1.73-.11.62-.04 1.2.41 1.55.9.35.49 1.1.93 1.49.55.13-.12.25-.27.42-.35.24-.12.45-.17.77-.19.12 0 .25.08.32.18.75 1.09.48 2.75 2.63 2.83.68.03 1.48-.02 2.2.5.56.41.6.79.86 1.25.63 1.14 2.38 1.37 3.53 1.81.5.19 1.33.68 1.45 1.12.06.22-.18.26-.24.42-.15.41 1.86.33 2.01.33 1.73-.05 1.64 1.74 1.81 2.65.83.11 1.41.42 1.87.84l5.42 1.18 3.07-1.78c.18-1.15-.19-2.57-.41-3.92Z"/><path class="cls-36" d="M21.07 135.59c.31.84.66 1.68.86 2.51.3 1.24-.21 2.06-.94 2.93-1.05 1.26-.58 2.79 0 4.52.02.05.06.1.12.13.24 1.29.49 2.74 1.81 4.08 1.22 1.24 2.76.83 3.87.62.49-.09 1.03-.16 1.68 0 .58.15.72.55 1.15.75 1.21.56 1.66-.61 2.8.47.29.27.81.89 1.36.85.62-.05.12-.88 1.22-.46.06.02.1.03.14.03 1.37.49 3.11 1.13 4.03 2.01.37.35.78.64 1.34.63.23 0 .35-.07.5-.14.27-.13.39-.18.74-.24 1.03-.21 1.46.97 2.25 1.35.43.21 1.01.2 1.26.06.28-.16.49-.36.76-.52.66-.39.72.45.85.81.36.95 1.24 1.75 2.8 1.83.79.04 2.05-.07 2.62.68.25.33.32.64.62.97 1.1 1.18 3.33 1.08 4.68 1.86.74.43.16.48.26.82.1.32 1.05.6 1.4.7.62.18 2.13-.32 2.52.48.28.59.16 1.12.38 1.7.05.12.22.21.38.21 1.92.11 2.52 1.21 3.1 2.25.43.76.89 1.51 1.78 2.21.01.07.09.16.24.2 1.32.43 3.56 1.12 4.66.85 1.03-.26-.09-1.11-.94-1.67 1.44-.32 3.15-.43 3.53-1.5.03-.08-.12-.2-.25-.24-.47-.14-.9-.23-1.33-.28 1.67-.86 1.54-2.35 1.14-4.12-.22-.97-1.04-2.76.7-2.76.91 0 1.46-.06 1.55-.67.01-.07-.11-.2-.25-.24-.61-.14-1.18-.21-1.78-.29-.03-.14-.05-.28-.08-.42h.44c.19 0 .32-.04.48-.07.91-.2 1.45-.78 1.66-1.39.03-.1-.23-.28-.39-.26-.21.03-.44.01-.67 0 .52-.85 2.56-1.55.28-2.77 1.17-.52 2.74-.78 3.64-1.5.72-.57-.49-.89-1.53-1.05.45-.16.77-.4.57-.84-.24-.53-1.25-.93-2.08-1.21 1.64-.48 2.88-1.49 2.73-2.88-.19-1.72-2.42-2.08-4.46-2.81.67-.2 1.08-.51.36-1.22-.67-.67-1.96-.85-2.81-.92-.64-.05-3.2.09-3.35-.6-.12-.55-.88-1.1-1.69-1.4-.57-.22-3.78-.36-3.88-.88-.05-.25-.15-.47-.32-.73-.24-.37-.45-.81-.78-1.17-.82-.91-3.02.36-3.88.79-.48-1.17-.94-2.7-2.68-3.62-.46-.25-1.52-.6-1.68-.23-.03.07-.04.15-.04.23-.61-.62-1.36-1.21-2.22-1.61-1.2-.55-1.73-.13-1.73.44-.83-.85-1.65-1.76-2.91-2.39-.38-.19-1.15-.33-1.36-.15a.38.38 0 0 0-.12.18c-.97-.85-1.89-1.72-3.36-2.2-.14-.05-.28 0-.29.07-.01.2-.02.38.01.57-1.01-.72-2.3-1.4-3.47-1.83-1-.37-1.26-.14-1.19.26-.51-.35-1.09-.65-1.71-.67-.97-.04-1.58.35-2.12.73-.21-.67-.68-1.74-1.56-1.34-.89.41-1.13 1.57-1.21 2.48-.62-.59-1.61-1.35-2.27-1.17-.91.25-.55 1.37-.51 2.12-1.13-.71-1.29.34-1.33 1.08-.3-.22-.63-.41-1.03-.57-.18-.07-.33-.06-.36.05-.13.46-.17.93-.42 1.34-.27-.21-.57-.41-.84-.62-.17-.13-.39-.09-.42.01-.15.5.05 1.06.12 1.61-1.22-.93-1.23.46-1.43 1.17-.46-.49-1.16-1.09-1.66-.76-.84.56-.39 1.82-.05 2.74Z"/><path class="cls-39" d="M22.66 134.05c.12.15.41.22.5.12.19-.23.17-.56.21-.84.05-.45.04-1.24.94-.34.15.15.47.17.48.03.03-.56-.22-1.18-.18-1.74.24.17.48.34.67.54.13.14.39.16.46.07.36-.42.43-.93.55-1.44.34.17.62.36.87.58v.04c-.01.12.16.22.31.25.22.22.62.12.41-.1a3.32 3.32 0 0 0-.19-.18c0-.55-.02-1.82.87-1.07.17.14.46.18.47.03.07-.5-.04-1.05-.01-1.56.02-.42.2-.93 1.13-.35.45.28.87.67 1.13 1.01.13.17.51.25.52.08.03-.72.23-1.38.53-2.01.13-.26.28-.53.54-.73.32-.25.75 1.23.79 1.36.04.15.36.27.49.19.39-.26.76-.53 1.22-.74.92-.45 1.91.01 2.8.77.07.12.16.25.24.35.17.23.66.22.49 0-.01-.02-.03-.03-.04-.05.05-.04.05-.1-.03-.18-.09-.08-.18-.16-.27-.25-.22-.33-.34-.67.2-.55.47.11.97.37 1.41.58.91.45 1.91 1.01 2.62 1.61.23.19.55.15.45-.06-.15-.29-.15-.51-.14-.75 1.57.6 2.53 1.82 3.71 2.71.24.18.55.04.36-.14.12-.19.24-.37.35-.55.24.12.47.25.67.41.44.3.81.66 1.16 1 .54.52 1.01 1.05 1.57 1.56.2.18.61.15.45-.06-.49-.51-.28-.84.63-1 .29.1.56.23.8.4.43.27.77.59 1.1.9.52.48.98 1 1.34 1.51.17.23.65.22.49-.01-.27-.37-.5-.72-.63-1.09-.26-.75 1.06-.04 1.38.16.36.24.59.56.8.84.65.86.91 1.72 1.3 2.57.06.13.27.25.44.21.65-.16 1.13-.48 1.64-.74.33-.17.67-.33 1.07-.44.69-.18.8.25.98.57.22.38.58.71.67 1.09.02.09.01.19.11.29.34.37 1.46.61 1.93.73 1.19.29 3.13.03 3.54 1.35.08.26.09.43.52.63.62.29 1.51.33 2.09.35.56.02 1.1.02 1.68.07.38.03.75.1 1.15.21 1.33.36.82 1.18.11 1.33-.15.03-.11.22.09.3.72.29 1.44.51 2.18.72 1.58.45 2.34 1.08 2.45 2.07.15 1.33-1.46 2.26-3.05 2.62-.18.04-.07.26.16.33.67.2 1.35.41 1.95.78 1.06.65-.57.93-1.03 1.02-.21.04-.03.32.23.34.15.01 2.2.15 2.22.37.03.31-.72.52-1.01.65-.89.37-1.91.63-2.77 1.02-.1.05-.06.13.03.21-.06.06-.03.18.14.26 2.06 1.04-.43 1.86-.61 2.64-.03.13.22.25.39.26.22.01.44.03.65.04-.37.64-1.2.96-2.37 1.02-.57.03-.6.37-.55.72.01.07.14.17.25.19.77.17 1.5.24 2.26.38-.3.54-1.5.1-2.11.42-.72.38-.44.89-.31 1.58.43 2.18 1.37 4.55-1.38 5.47-.21.07 0 .34.3.34.61 0 1.08.06 1.68.22-.5.87-2.29.92-3.56 1.24-.13.03-.13.17.02.26.52.32 1.08.66 1.4 1.06.35.44-.96.28-1.2.25-1.01-.11-2.09-.42-3.12-.74-.02-.03-.04-.07-.09-.1-1.93-1.51-1.78-4.26-5.11-4.62-.19-.84-.09-2.49-2.01-2.44-.18 0-2.4.08-2.24-.3.06-.14.32-.18.26-.39-.13-.4-1.05-.85-1.61-1.03-1.28-.41-3.23-.62-3.93-1.67-.28-.43-.33-.78-.95-1.15-.8-.48-1.69-.44-2.44-.46-2.38-.07-2.09-1.6-2.92-2.61-.08-.09-.22-.18-.36-.17-.36.02-.6.07-.86.17-.19.08-.32.22-.46.33-.43.35-1.27-.05-1.66-.51-.38-.45-1.03-.87-1.72-.83-.24.01-.64.02-.81.11-.15.07-.25.16-.36.25-.44.34-1.22-.51-1.42-.71-.41-.38-1.15-.63-1.71-.88a31.1 31.1 0 0 0-2.47-1c-.06-.02-.11-.03-.15-.02-.45-.14-.8-.14-1.03.07-.11.09-.16.22-.23.33-.11.18-.93-.71-1.06-.82-.58-.44-.98-.5-1.54-.39-.43.09-.93.22-1.36-.19-.19-.18-.59-.38-.87-.48-1.8-.61-2.7.32-4.3.12-2.17-.27-2.66-3.84-2.82-4.65-.01-.07-.07-.12-.15-.15-.44-1.32-.92-2.67-.3-3.72.6-1.01 1.5-1.69 1.4-2.98-.09-1.07-.65-2.24-1.06-3.37-.2-.54-.3-1.03-.27-1.52.01-.18.06-.34.14-.5.27-.57 1.18.55 1.29.69Z"/><g class="cls-16"><path class="cls-39" d="M44.69 136.52c1.18 1.83 3.19 3.48 5.92 4.7.21.1.11.27-.1.19-2.57-.95-4.51-2.1-6.03-3.76-1.54-1.69-2.43-3.7-2.78-5.33-.05-.23.44-.14.59.07.98 1.37 1.5 2.75 2.39 4.13Z"/><path class="cls-39" d="M47.5 140.37c-1.49-.71-2.99-1.61-3.73-2.66-.12-.17.23-.17.38-.02 1.03.97 2.01 1.78 3.47 2.54.19.1.07.23-.12.14ZM49.39 139.41c.24.19-.03.32-.29.15-3.15-2.11-5.06-4.57-5.82-6.94-.06-.18.34-.1.45.05 1.71 2.3 2.88 4.58 5.66 6.74ZM45.4 132.75c.23 1.06.74 2.14 1.49 3.25.05.07-.11.08-.16 0-.91-1.13-1.62-2.27-1.65-3.32 0-.12.29-.07.32.06ZM46.48 131.54c-.05 1.29.38 2.62 1.65 4.05.11.13-.12.17-.25.04-1.43-1.48-2.11-2.95-1.78-4.23.04-.13.38 0 .38.13Z"/></g><g class="cls-16"><path class="cls-39" d="M67.97 162.94c-.15.88-.87 1.47-2.15 1.66-.1.01.02.14.12.14 1.27-.06 2.1-.36 2.5-1.07.41-.72.33-1.76.04-2.69-.04-.13-.31-.18-.34-.07-.17.64-.05 1.37-.17 2.03Z"/><path class="cls-39" d="M67.46 164.71c.68-.13 1.32-.37 1.45-.87.02-.08-.19-.15-.24-.09-.33.38-.67.68-1.33.84-.08.02.03.13.12.11ZM66 163.74c-.08.07.12.2.23.15 1.26-.65 1.66-1.76 1.38-3.05-.02-.1-.23-.13-.26-.06-.32 1.06-.33 2.21-1.35 2.96ZM66.36 160.49c.19.6.21 1.15.1 1.68 0 .03.09.07.1.04.21-.5.28-1.05-.03-1.69-.03-.07-.2-.1-.17-.03ZM65.32 159.54c.43.8.58 1.52.26 2.14-.03.05.13.13.16.07.41-.61.37-1.37-.23-2.22-.07-.09-.23-.08-.19 0Z"/></g><g class="cls-16"><path class="cls-39" d="M70.18 148.04c-.98.81-2.52 1.18-4.51.97-.16-.02-.1.15.06.17 1.85.34 3.3.3 4.49-.28 1.21-.59 2.01-1.64 2.39-2.64.05-.14-.29-.27-.42-.18-.8.57-1.28 1.34-2.02 1.96Z"/><path class="cls-39" d="M67.89 149.64c1.09.08 2.21.04 2.81-.4.1-.07-.14-.21-.26-.17-.8.28-1.54.46-2.62.42-.14 0-.07.13.07.14ZM66.67 148.22c-.18.04 0 .24.19.22 2.36-.25 3.9-1.22 4.64-2.58.06-.1-.22-.2-.32-.14-1.38.94-2.4 2.08-4.51 2.5ZM70.02 145.12c-.26.65-.71 1.2-1.32 1.69-.04.03.07.1.11.07.73-.43 1.32-.95 1.44-1.68.01-.08-.2-.16-.23-.08ZM69.38 143.85c-.08.92-.49 1.68-1.5 2.19-.09.04.07.17.17.13 1.12-.48 1.72-1.24 1.61-2.26-.01-.11-.26-.15-.27-.05Z"/></g><g class="cls-16"><path class="cls-39" d="M60.56 140.64c-.28.64-.35 1.35-.25 2.12 0 .05-.11.02-.13-.03-.22-.81-.27-1.59.16-2.19.05-.07.25.02.22.1ZM61.92 140.17c-.6.72-.84 1.55-.48 2.6.03.09-.17.07-.21-.02-.46-1.11-.36-2.07.44-2.73.09-.07.3.07.24.15Z"/></g><g class="cls-16"><path class="cls-39" d="M52.07 153.12c-.48 1.11-.6 2.32-.43 3.65.01.08-.19.04-.22-.04-.38-1.4-.47-2.74.27-3.78.08-.12.44.03.38.17ZM54.4 152.3c-1.03 1.24-1.44 2.67-.81 4.49.06.16-.29.12-.35-.04-.8-1.91-.63-3.57.77-4.7.15-.12.51.12.4.26Z"/></g><path class="cls-36" d="M20.23 136.07c.63 1.79 2.22 3.54 4.73 5.01.2.12.03.26-.18.15-2.42-1.21-4.12-2.51-5.16-4.2-1.06-1.72-1.33-3.62-1.13-5.11.03-.21.52-.06.61.15.58 1.36.65 2.65 1.13 4Z"/><path class="cls-36" d="M21.91 139.88c-1.35-.85-2.65-1.86-3.08-2.89-.07-.17.3-.11.42.04.77 1.01 1.54 1.87 2.84 2.75.17.11 0 .21-.18.1ZM24.28 139.31c.19.2-.15.27-.37.08-2.64-2.32-3.84-4.78-3.84-6.98 0-.17.4-.04.47.12 1.03 2.28 1.5 4.47 3.74 6.79ZM22.32 132.84c-.12.97.05 2 .47 3.09.03.07-.14.05-.17-.01-.59-1.13-.95-2.24-.62-3.18.04-.11.34-.02.32.1ZM23.9 131.93c-.51 1.13-.51 2.37.36 3.82.08.13-.19.13-.27 0-1.02-1.52-1.25-2.91-.44-3.99.08-.12.41.05.36.17ZM31.01 127.28c-1.12 1.21-1.18 2.81.04 4.65.09.15-.23.15-.35 0-1.4-1.67-1.92-3.07-1.33-4.4.59-1.36 2.23-2.48 3.95-3.18.24-.1.63.19.51.34-.74.96-1.98 1.68-2.83 2.59Z"/><path class="cls-36" d="M28.98 130.01c-.61-1.02-.99-2.1-.41-2.83.09-.12.44.07.41.19-.19.86-.22 1.64.29 2.66.07.13-.22.11-.3-.02ZM32.11 130.7c0 .19-.44.08-.48-.11-.51-2.35.68-4.15 2.92-5.32.17-.09.47.15.39.26-1.2 1.64-2.9 3-2.83 5.17ZM36.54 126.45c-1.11.47-1.96 1.08-2.62 1.84-.04.04-.21-.03-.18-.08.51-.85 1.24-1.59 2.55-1.94.15-.04.38.13.24.19ZM39.17 126.63c-1.69.39-2.94 1.04-3.47 2.18-.04.1-.34-.01-.3-.12.43-1.23 1.6-2.07 3.56-2.3.21-.03.4.2.21.24ZM78.27 158.47c-2.18.46-4.81.23-7.62-.8-.22-.08-.28.11-.07.2 2.5 1.11 4.71 1.65 7 1.52 2.33-.13 4.44-.91 5.88-1.81.2-.13-.2-.4-.47-.36-1.7.28-3.08.89-4.72 1.24Z"/><path class="cls-36" d="M73.46 159.23c1.57.53 3.28.94 4.58.71.21-.04-.04-.28-.25-.28-1.44-.03-2.72-.14-4.31-.62-.21-.06-.22.11-.02.18ZM72.84 157.25c-.3-.03-.21.25.1.3 3.77.69 6.92.29 9.2-.84.18-.09-.16-.3-.36-.27-2.89.43-5.4 1.22-8.95.81ZM80.55 155.34c-.95.58-2.1.98-3.45 1.25-.08.02.02.13.11.12 1.47-.16 2.81-.47 3.61-1.19.09-.08-.16-.25-.27-.17ZM80.69 153.75c-.92.94-2.2 1.57-4.15 1.7-.17.01-.04.2.14.2 2.09-.05 3.66-.6 4.37-1.73.08-.12-.26-.27-.36-.17Z"/><path class="cls-40" d="M44.71 144.84c.16-.29.06-.17 0 0Z"/><path class="cls-40" d="m76.99 149.8-.66-.21c-.24-.07-.35-.28-.16-.33.2-.05.41-.1.61-.17-.28-.7-.73-1.44-1.06-1.88-.44-.6-1.27 1.25-3.95 1.85-2.69.59-5 1.31-5.18.08s-.55-1.19-.81-2.97c-.26-1.77-2.56.99-4.82 2.5-2.26 1.52.74-.58.74-.58s-.85.18-6.37 2.34c-5.52 2.17 0 0 2-6.98s-.36.15-4.11 2.71c-3.74 2.56-.59.53-.59-2.56s0 0-3.81 2.89-.46.13-.46-.39-.33-1.77-.59-1.84c-.26-.07-.79-.53-2.3.53-.85.59-.85.29-.76.05 0 .02-.01.03-.03.05-.46.82-1.77-.36-4.52-.47-2.75-.11-.67.17-.92-2.08-.26-2.25-.8-.11-1.93-2.45-1.13-2.34-.31 1.09-.55 1.38-.22.26 0 .52-1.22 3.26-1.5-.1-4.79-.95-5.05-1.97-.33-1.31-.46.72-.59.07s-.39-.99-2.36-.13 0 0 .06-3.1-2.12 3.4-2.12 3.4-.84 1.74-2.87-.16c-.61-.57-1.04-.93-1.36-1.05-.03.05-.07.1-.1.15-.62 1.05-.14 2.4.3 3.72.08.04.14.09.15.15.15.82.64 4.38 2.82 4.65 1.59.2 2.49-.73 4.3-.12.28.09.68.3.87.48.43.41.93.27 1.36.19.57-.11.97-.05 1.54.39.14.1.96 1 1.06.82.07-.11.12-.24.23-.33.23-.2.58-.2 1.03-.07.04 0 .09 0 .15.02.84.3 1.66.63 2.47 1 .56.25 1.3.5 1.71.88.2.19.99 1.05 1.42.71.11-.09.21-.18.36-.25.17-.09.57-.09.81-.11.69-.04 1.34.38 1.72.83.39.45 1.22.86 1.66.51.14-.11.27-.25.46-.33.27-.11.5-.16.86-.17.14 0 .28.08.36.17.83 1.01.53 2.54 2.92 2.61.76.02 1.65-.02 2.44.46.62.37.67.73.95 1.15.02.04.06.07.09.1l15.85 3.93 4.48-2.55c.02-.24.13-.45.47-.62.23-.12.55-.14.87-.13l.67-.38c-.56-.09-1.11-.16-1.68-.29-.11-.03-.24-.13-.25-.19-.06-.36-.03-.69.55-.72 1.16-.06 1.99-.38 2.37-1.02-.21-.01-.43-.03-.65-.04-.17 0-.42-.13-.39-.26.19-.79 2.67-1.6.62-2.64-.17-.09-.2-.2-.14-.26-.09-.07-.13-.16-.03-.21.86-.39 1.89-.65 2.77-1.02.3-.13 1.05-.34 1.01-.65-.02-.22-2.07-.36-2.22-.37-.26-.02-.44-.3-.23-.34.36-.07 1.42-.25 1.37-.64-.91-.36-1.59-.7-1.64-.95Zm-40.83-5.29c.08-.11.13-.15.12-.08 0 .04-.06.06-.12.08Z"/><path class="cls-36" d="M19.11 163.46c.69.61 1.42 1.2 2.01 1.84.88.96.8 1.87.55 2.89-.36 1.5.82 2.63 2.18 3.91.04.04.1.06.17.07.84 1.02 1.78 2.18 3.64 2.83 1.72.6 2.94-.34 3.87-.96.41-.27.87-.54 1.55-.64.61-.1.93.2 1.42.21 1.39.02 1.23-1.16 2.81-.67.4.12 1.17.46 1.66.21.54-.28-.31-.81.91-.87.06 0 .11-.01.14-.03 1.51-.1 3.42-.22 4.69.19.51.16 1.03.26 1.54.03.21-.09.29-.19.39-.31.19-.22.28-.3.56-.5.85-.58 1.81.28 2.73.3.5.01 1.02-.21 1.19-.43.18-.24.28-.49.45-.74.42-.59.88.12 1.18.37.79.68 1.98 1.03 3.46.51.75-.27 1.86-.85 2.75-.41.39.19.6.43 1.05.6 1.58.6 3.59-.35 5.21-.19.89.09.38.35.63.61.25.24 1.25.11 1.63.07.66-.08 1.8-1.1 2.55-.55.55.4.69.91 1.17 1.32.1.09.3.1.46.04 1.83-.64 2.91.08 3.94.75.76.49 1.55.96 2.71 1.23.05.06.16.1.32.08 1.42-.14 3.82-.4 4.7-1.06.82-.62-.62-.93-1.68-1.08 1.17-.83 2.7-1.58 2.53-2.65-.01-.08-.21-.12-.35-.11-.5.06-.94.15-1.36.27 1.12-1.39.28-2.63-.94-4-.67-.76-2.29-1.99-.69-2.66.84-.35 1.31-.61 1.1-1.18-.03-.07-.2-.14-.35-.11-.63.12-1.2.27-1.79.43-.09-.11-.18-.22-.28-.33.14-.06.27-.12.41-.18.17-.08.28-.15.41-.25.75-.52.96-1.23.86-1.84-.02-.1-.34-.15-.48-.08-.18.1-.4.18-.62.26.07-.93 1.61-2.32-1.08-2.5.83-.9 2.15-1.73 2.63-2.69.39-.76-.88-.58-1.92-.32.34-.31.52-.64.12-.94-.48-.37-1.61-.33-2.5-.24 1.28-1.05 1.94-2.4 1.13-3.54-1.01-1.42-3.23-.87-5.47-.72.53-.43.75-.86-.26-1.2-.95-.32-2.21.02-3.03.29-.62.2-2.9 1.31-3.38.77-.37-.43-1.34-.61-2.24-.56-.63.03-3.66 1.14-4 .73-.16-.19-.37-.35-.64-.51-.4-.23-.81-.52-1.28-.71-1.19-.47-2.61 1.47-3.19 2.17-1.01-.83-2.17-1.97-4.22-2.11-.55-.03-1.69.07-1.66.45 0 .07.03.15.07.22-.87-.3-1.84-.53-2.82-.53-1.37-.01-1.66.55-1.38 1.05-1.18-.42-2.37-.88-3.84-.95-.44-.02-1.22.16-1.33.39-.03.07-.04.14-.02.2-1.31-.36-2.58-.76-4.16-.61-.15.02-.26.1-.23.17.09.18.17.34.29.49-1.28-.23-2.79-.32-4.08-.25-1.1.07-1.22.36-.98.68-.64-.11-1.32-.14-1.9.07-.91.34-1.29.91-1.6 1.45-.52-.5-1.47-1.24-2.09-.56-.63.7-.29 1.8.08 2.61-.86-.28-2.14-.55-2.66-.14-.72.57.15 1.4.55 2.03-1.39-.18-1.02.79-.7 1.45-.38-.07-.78-.11-1.23-.09-.2 0-.33.08-.31.18.11.45.29.87.26 1.32-.35-.08-.72-.14-1.08-.21-.22-.05-.41.07-.39.17.11.49.56.9.89 1.35-1.57-.33-.92.87-.75 1.57-.66-.25-1.6-.5-1.9-.02-.5.81.52 1.72 1.28 2.39Z"/><path class="cls-39" d="M19.83 161.51c.19.09.48.04.52-.09.07-.27-.11-.55-.22-.81-.17-.4-.56-1.09.7-.66.21.07.52-.03.46-.15-.25-.5-.77-.94-1.01-1.43.31.05.61.11.88.21.19.07.43-.01.46-.12.13-.5-.06-.97-.19-1.46.39.01.75.08 1.09.17 0 .01.01.03.02.04.04.11.25.13.41.09.31.11.63-.14.33-.24-.09-.03-.17-.06-.26-.09-.27-.47-.9-1.57.29-1.26.22.06.51-.02.45-.16-.18-.46-.54-.89-.77-1.34-.18-.37-.26-.88.87-.74.55.07 1.13.25 1.53.44.2.09.58.02.51-.13-.32-.63-.46-1.29-.48-1.94-.01-.28 0-.57.14-.84.17-.34 1.29.78 1.38.88.1.11.47.1.54-.02.23-.38.45-.75.76-1.11.63-.74 1.76-.72 2.95-.41.13.08.26.15.39.21.27.13.71-.07.45-.2-.02 0-.04-.02-.07-.03.02-.05 0-.11-.12-.14-.12-.03-.24-.07-.37-.11-.36-.21-.64-.45-.08-.55.49-.09 1.07-.06 1.58-.04 1.05.04 2.25.14 3.19.38.3.08.58-.09.39-.22-.27-.19-.39-.38-.49-.59 1.74-.08 3.21.6 4.73.92.31.06.53-.17.26-.26l.06-.61c.28 0 .56.04.82.09.56.09 1.07.26 1.55.42.75.24 1.44.52 2.2.74.27.08.64-.1.39-.22-.7-.25-.67-.62.09-1.11.32-.03.63-.01.93.04.52.07 1 .22 1.45.36.71.22 1.39.49 1.97.79.26.13.7-.06.44-.2-.43-.21-.81-.43-1.11-.7-.61-.55.96-.45 1.35-.39.45.07.82.26 1.14.42 1.01.49 1.67 1.14 2.44 1.73.11.09.37.11.51.01.52-.39.81-.85 1.16-1.28.22-.27.45-.54.78-.79.55-.42.86-.09 1.18.11.39.25.88.39 1.15.69.07.07.1.16.24.21.49.18 1.64-.03 2.13-.11 1.24-.21 2.9-1.17 3.92-.2.2.19.29.34.79.35.71.01 1.55-.3 2.1-.5.53-.2 1.03-.41 1.58-.59.36-.12.74-.2 1.16-.26 1.4-.2 1.33.7.74 1.11-.12.08 0 .23.22.22.81-.02 1.57-.11 2.36-.21 1.67-.22 2.68.03 3.26.85.78 1.09-.25 2.52-1.54 3.44-.15.11.06.25.31.22.72-.09 1.45-.16 2.18-.07 1.29.15-.07 1.03-.46 1.28-.18.11.13.29.37.21.14-.05 2.1-.71 2.23-.53.18.26-.41.73-.62.95-.64.66-1.46 1.28-2.06 1.95-.07.08 0 .14.13.17-.02.08.06.16.26.17 2.4.11.5 1.77.71 2.52.04.12.32.13.48.07.21-.07.42-.14.62-.21-.03.7-.64 1.29-1.69 1.79-.52.25-.38.55-.16.84.04.05.21.09.32.07.79-.14 1.5-.37 2.27-.54-.01.58-1.33.66-1.74 1.18-.48.6.02.94.48 1.49 1.45 1.72 3.46 3.41 1.37 5.26-.16.14.17.29.44.18.57-.23 1.03-.36 1.66-.45-.03.95-1.67 1.68-2.68 2.44-.1.08-.04.19.15.22.63.08 1.31.15 1.8.38.54.25-.75.61-.99.68-.98.29-2.13.44-3.24.56a.535.535 0 0 0-.13-.06c-2.51-.56-3.7-3-6.94-2.03-.58-.65-1.28-2.12-3.03-1.34-.16.07-2.18.99-2.21.6-.01-.15.21-.28.05-.44-.31-.3-1.38-.33-1.98-.27-1.38.14-3.28.7-4.43.07-.47-.26-.68-.55-1.44-.63-.97-.11-1.77.27-2.47.54-2.23.86-2.7-.58-3.95-1.13-.12-.05-.29-.07-.41 0-.32.15-.52.29-.71.48-.14.14-.19.31-.27.46-.23.47-1.19.44-1.77.2-.57-.24-1.37-.36-1.99-.06-.22.11-.58.26-.69.4-.1.12-.15.23-.21.36-.24.46-1.37.02-1.65-.07-.56-.17-1.36-.1-2-.11-.92 0-1.84.02-2.76.09a.27.27 0 0 0-.15.04c-.48.05-.8.19-.91.45-.05.12-.04.25-.05.37-.01.2-1.2-.26-1.38-.3-.74-.16-1.14-.06-1.61.26-.36.24-.74.55-1.34.36-.26-.08-.73-.1-1.03-.08-1.95.17-2.34 1.32-3.9 1.76-2.14.6-4.31-2.29-4.84-2.94-.04-.05-.12-.07-.21-.08-1.04-.97-2.14-1.96-2.07-3.1.06-1.1.57-2.04-.15-3.12-.6-.89-1.68-1.69-2.6-2.5-.45-.39-.78-.78-.98-1.22-.07-.16-.11-.32-.11-.49-.03-.6 1.35.02 1.52.1Z"/><g class="cls-16"><path class="cls-39" d="M41.33 155.19c1.97 1.13 4.63 1.78 7.73 1.79.24 0 .24.19 0 .2-2.82.17-5.17-.08-7.37-.94-2.23-.88-4.03-2.27-5.14-3.54-.15-.18.33-.29.58-.17 1.57.81 2.71 1.81 4.2 2.65Z"/><path class="cls-39" d="M45.78 157.43c-1.71-.05-3.54-.24-4.73-.87-.19-.1.13-.23.34-.17 1.42.45 2.71.77 4.43.87.22.01.18.17-.05.17ZM47.06 155.88c.31.07.12.29-.2.24-3.92-.62-6.87-2.01-8.73-3.77-.14-.13.26-.22.44-.13 2.69 1.34 4.87 2.86 8.48 3.66ZM40.17 151.65c.73.83 1.72 1.56 2.95 2.24.07.04-.06.11-.14.07-1.39-.63-2.59-1.34-3.13-2.24-.06-.1.24-.17.33-.07ZM40.58 150.19c.58 1.14 1.61 2.12 3.48 2.87.16.07-.03.19-.21.13-2.03-.73-3.37-1.74-3.68-2.97-.03-.13.35-.15.41-.03Z"/></g><g class="cls-16"><path class="cls-39" d="M75.56 169.09c.28.82-.09 1.61-1.18 2.26-.08.05.09.12.18.07 1.14-.54 1.76-1.12 1.79-1.89.03-.78-.54-1.65-1.27-2.34-.1-.09-.37-.03-.35.07.15.62.61 1.21.83 1.82Z"/><path class="cls-39" d="M75.95 170.82c.57-.38 1.04-.83.92-1.31-.02-.08-.25-.05-.26.02-.12.46-.29.84-.81 1.24-.07.05.09.1.16.05ZM74.14 170.54c-.05.09.21.13.28.04.85-1.05.68-2.16-.2-3.17-.07-.08-.28-.02-.26.05.21 1.04.77 2.04.19 3.08ZM72.89 167.59c.46.45.75.92.91 1.41 0 .03.11.02.11 0-.05-.52-.25-1.02-.84-1.45-.07-.05-.23-.01-.17.04ZM71.48 167.16c.79.52 1.27 1.09 1.27 1.75 0 .06.18.06.18 0 .08-.69-.32-1.33-1.28-1.83-.1-.05-.25.02-.17.08Z"/></g><g class="cls-16"><path class="cls-39" d="M70.4 155.35c-.51 1.08-1.75 1.99-3.69 2.57-.15.05-.02.17.14.13 1.87-.42 3.18-1.01 4.01-1.97.83-.97 1.06-2.19.93-3.21-.02-.14-.4-.12-.47 0-.46.8-.53 1.65-.91 2.47Z"/><path class="cls-39" d="M69.06 157.61c1.05-.35 2.06-.81 2.4-1.43.05-.1-.23-.12-.32-.04-.6.55-1.2.99-2.21 1.37-.13.05 0 .14.13.1ZM67.25 156.86c-.15.1.11.2.28.11 2.06-1.12 3-2.55 3.03-4.02 0-.11-.3-.09-.36 0-.82 1.35-1.2 2.72-2.95 3.9ZM68.84 152.89c.08.66-.07 1.31-.4 1.97-.02.04.11.06.13.02.47-.66.75-1.33.51-2.01-.03-.08-.26-.06-.25.02ZM67.64 152.04c.37.83.36 1.65-.33 2.47-.06.07.15.12.21.05.8-.84.99-1.73.39-2.58-.06-.09-.31-.03-.27.06Z"/></g><g class="cls-16"><path class="cls-39" d="M57.96 152.65c.05.66.33 1.3.79 1.93.03.04-.09.06-.13.03-.59-.62-1.02-1.27-.91-1.96.01-.08.24-.08.25 0ZM58.98 151.72c-.21.85-.03 1.66.82 2.44.07.07-.12.12-.2.06-.97-.78-1.34-1.65-.91-2.53.05-.09.31-.05.29.04Z"/></g><g class="cls-16"><path class="cls-39" d="M56.16 166.7c.1 1.14.57 2.24 1.37 3.32.05.07-.16.11-.22.05-1.02-1.07-1.75-2.19-1.58-3.37.02-.13.42-.14.43 0ZM57.92 165.1c-.35 1.47-.04 2.86 1.42 4.19.13.12-.21.21-.35.1-1.66-1.35-2.3-2.84-1.57-4.36.08-.16.53-.09.49.07Z"/></g><path class="cls-36" d="M18.57 164.2c1.45 1.3 3.76 2.21 6.78 2.52.24.03.15.21-.09.2-2.82-.12-5.01-.59-6.78-1.65-1.81-1.08-2.97-2.63-3.51-3.99-.07-.19.45-.25.64-.1 1.19.95 1.88 2.04 2.97 3.02Z"/><path class="cls-36" d="M21.96 166.85c-1.65-.21-3.34-.59-4.24-1.32-.14-.12.22-.22.4-.13 1.2.58 2.32 1.02 3.95 1.29.21.03.1.19-.11.16ZM23.87 165.44c.27.1 0 .29-.3.21-3.56-.99-5.85-2.66-6.91-4.57-.08-.15.35-.19.49-.08 2.05 1.58 3.54 3.29 6.72 4.43ZM18.93 160.6c.36.89 1.01 1.71 1.92 2.49.06.05-.1.1-.17.05-1.09-.75-1.96-1.58-2.11-2.51-.02-.11.3-.14.35-.03ZM19.95 159.21c.08 1.17.67 2.24 2.18 3.17.13.08-.11.19-.25.11-1.67-.92-2.56-2.04-2.34-3.29.02-.13.4-.11.41.01ZM24.26 152.45c-.45 1.48.27 2.89 2.28 4 .16.09-.14.22-.32.14-2.09-.9-3.25-1.92-3.36-3.3-.11-1.4.86-3 2.11-4.27.18-.18.67-.08.63.1-.22 1.12-1.01 2.21-1.35 3.33Z"/><path class="cls-36" d="M23.7 155.59c-1.05-.65-1.93-1.44-1.74-2.29.03-.14.44-.11.48 0 .24.82.59 1.5 1.55 2.19.12.09-.15.18-.28.1ZM26.93 154.98c.1.16-.36.24-.49.09-1.61-1.83-1.37-3.85.12-5.72.12-.14.5-.05.48.07-.31 1.88-1.22 3.71-.11 5.56ZM28.95 149.6c-.8.83-1.29 1.69-1.53 2.59-.01.05-.2.05-.2 0 .06-.93.38-1.85 1.41-2.66.12-.09.42-.03.32.07ZM31.46 148.75c-1.37.99-2.21 2.03-2.15 3.22 0 .1-.32.12-.33.01-.2-1.23.47-2.4 2.17-3.36.18-.1.46.02.31.13ZM82.9 161.26c-1.78 1.24-4.32 2.05-7.41 2.24-.24.02-.2.2.03.2 2.84 0 5.14-.39 7.19-1.37 2.09-1.01 3.65-2.49 4.55-3.83.13-.19-.38-.27-.61-.13-1.43.9-2.41 1.96-3.76 2.89Z"/><path class="cls-36" d="M78.83 163.77c1.7-.15 3.48-.45 4.56-1.14.17-.11-.17-.22-.36-.15-1.34.53-2.57.92-4.27 1.12-.22.03-.15.18.07.16ZM77.31 162.3c-.29.09-.07.29.24.22 3.81-.85 6.51-2.41 8.08-4.27.12-.14-.29-.2-.46-.1-2.46 1.49-4.39 3.13-7.85 4.14ZM83.49 157.68c-.6.87-1.46 1.66-2.57 2.4-.06.04.08.1.15.06 1.28-.71 2.36-1.49 2.75-2.42.05-.11-.26-.15-.33-.05ZM82.84 156.25c-.39 1.16-1.27 2.2-3 3.06-.15.07.06.19.23.12 1.91-.85 3.08-1.93 3.19-3.18.01-.13-.37-.13-.41 0Z"/><path class="cls-40" d="M78.66 174.93c1.11-.11 2.26-.27 3.24-.56.24-.07 1.53-.43.99-.68-.49-.23-1.17-.3-1.8-.38-.19-.02-.25-.14-.15-.22 1.01-.76 2.65-1.49 2.68-2.44-.63.09-1.09.23-1.66.45-.27.11-.6-.04-.44-.18 2.09-1.85.08-3.54-1.37-5.26-.46-.55-.96-.89-.48-1.49.41-.52 1.73-.6 1.74-1.18-.77.17-1.47.39-2.27.54H79l-1.84 1.84s1.03.97 1.8 2.16c.77 1.19-.44 2.82-.85 3.54s-2.4 1.64-2.4 1.64-1.86-1.25-2.4-1.87-3.53-1.09-3.85-2.83-1.65.69-2.17-2.34c-.51-3.03-3.89-2.36-3.89-2.36s-1.77-.85-2.79-.85.95 3.48 1.31 4.14c.35.65-.16 3.81-.97 3.62-.81-.19-1.36-.79-2.21-.46-.85.33-2.11.99-3.53-.28s-.75-1.42-.42-6.16c.32-4.73-2.36 2.24-2.49 1.51-.13-.72-.33-2.69-1.17-3.82-.84-1.13-1.26 1.92-2.38 3.22-1.12 1.3-.79.8-3.35 2.97s-.53.07-2.53-4.74c-2.01-4.81-2 .73-3.64-1.6-1.63-2.34-2.24 1.02-2.96.48-.72-.54.66 6.32-2.42 1.98s-.8 1.91-1.46 4.6c-.66 2.69-2.56.59-4.93-2.43s-2.36-1.38-2.13 1.23c.12 1.38-1.01 1.44-2.96.14 0 .61-.19 1.21-.23 1.88-.06 1.14 1.03 2.13 2.07 3.1.09 0 .17.02.21.08.54.65 2.71 3.54 4.84 2.94 1.56-.44 1.95-1.59 3.9-1.76.31-.03.77 0 1.03.08.6.19.99-.12 1.34-.36.47-.32.87-.42 1.61-.26.18.04 1.37.5 1.38.3 0-.12 0-.25.05-.37.11-.26.44-.4.91-.45.03-.02.08-.03.15-.04.92-.06 1.83-.1 2.76-.09.64 0 1.44-.07 2 .11.28.09 1.42.53 1.65.07.06-.12.11-.24.21-.36.12-.14.48-.3.69-.4.61-.3 1.42-.18 1.99.06.58.24 1.54.27 1.77-.2.08-.15.13-.32.27-.46.19-.2.39-.33.71-.48.12-.06.3-.04.41 0 1.25.55 1.72 1.99 3.95 1.13.71-.27 1.51-.65 2.47-.54.76.08.97.37 1.44.63 1.15.64 3.05.07 4.43-.07.6-.06 1.67-.03 1.98.27.16.15-.06.29-.05.44.03.39 2.05-.53 2.21-.6 1.75-.78 2.45.69 3.03 1.34 3.24-.97 4.43 1.47 6.94 2.03.06.01.1.03.13.06Z"/><path d="M114.77 120.58s32.94 12.74 48.63 12.84c.54 17.2-16.42 31.06-23.98 35.24-16.16-15.34-29.18-22.57-35.3-24.29 3.14-7.24 10.65-23.78 10.65-23.78Z" style="fill:url(#Silver)"/><path d="M114.51 120.39s33.2 12.94 48.89 13.03c.54 17.2-16.42 31.06-23.98 35.24-16.16-15.34-32.15-23.55-38.28-25.27 3.14-7.24 13.37-23 13.37-23Z" style="fill:#a1a1a1"/><path d="M114.48 120.49s33.23 12.83 48.92 12.92c-23.67-.27-46.75-5.81-52.8-7.34 1.57-3.48 3.89-5.58 3.89-5.58Z" style="fill:url(#linear-gradient)" class="cls-8"/><path class="cls-3" d="m114.01 127.08.45.12c.29.07.72.19 1.26.31 1.09.26 2.64.64 4.51 1.04.94.21 1.95.43 3.03.64 1.08.21 2.21.44 3.39.67 1.18.23 2.4.42 3.64.64 1.24.21 2.5.44 3.76.63 1.27.17 2.53.35 3.78.52 1.25.16 2.47.36 3.67.47 1.19.12 2.35.23 3.44.34 1.09.09 2.12.23 3.08.27 1.92.09 3.51.16 4.63.21 1.12.04 1.75.07 1.75.07s-.64-.06-1.75-.16c-1.11-.09-2.7-.23-4.61-.39-.95-.07-1.98-.23-3.07-.35-1.09-.13-2.24-.27-3.43-.4-1.19-.12-2.41-.33-3.65-.5-1.24-.18-2.51-.37-3.77-.55-1.26-.18-2.52-.41-3.76-.6-1.24-.21-2.46-.39-3.64-.61-1.18-.21-2.32-.41-3.4-.6-1.08-.18-2.1-.38-3.04-.56-.94-.18-1.81-.34-2.57-.48-.76-.15-1.43-.28-1.98-.39-1.1-.22-1.73-.34-1.73-.34Z"/><path d="M136.14 165.62c17.12-10.1 20.84-27.23 21.6-32.65 2.04.28 3.95.44 5.65.45.54 17.2-16.42 31.06-23.98 35.24-1.11-1.05-2.2-2.06-3.28-3.04Z" style="mix-blend-mode:screen;fill:url(#linear-gradient-2)"/><path class="cls-33" d="M53.43 223.47c-2.84-1.21-4.31-4.15-3.91-5.1l55.59-103.36 10.28 4.36L59.8 222.73c-.4.95-3.54 1.94-6.37.73Z"/><path d="M108.22 132.71 59.8 222.74c-.4.95-3.54 1.94-6.37.73-2.35-1-3.76-3.19-3.95-4.45 4.69 2.24 10.18-2.7 14.25-10.27 4.56-8.46 34.1-61.64 31.97-62.89-1.47-.86-3.59-3.2-4.32-5.32l1.66-3.09c2.84-.87 9.01-2.77 15.18-4.74Z" style="opacity:.17"/><path class="cls-33" d="M109.52 118.91c2.84 1.21 5.47 1.41 5.87.46.4-.95-1.57-2.7-4.41-3.9-2.84-1.2-5.47-1.41-5.87-.46-.4.95 1.57 2.69 4.41 3.9Z"/><path class="cls-23" d="M109.51 119c2.83 1.2 5.46 1.39 5.87.42.41-.97-1.55-2.73-4.38-3.94-2.83-1.2-5.46-1.38-5.87-.41-.41.97 1.55 2.73 4.38 3.93Z"/><path d="M111.87 126.3s-6.45 14.77-7.28 16.52c-.83 1.76-4.64 2.27-9.12-.25-4.49-2.53-4.62-6.41-2.78-11.02 1.84-4.61 6.51-14.04 6.51-14.04 2.15-4.02 4.25-3.35 5.84-2.35-3.31 6.07-3.48 6.47-3.48 6.47-.5.6 3.53 4.7 10.32 4.67Z" style="fill:#707070"/><path class="cls-23" d="M87.55 149.64s-4.03 8.02-8.55 17.08c-4.52 9.06-6.77 13.65-4.4 11.99 2.37-1.66 7.35-9.64 11.42-18.61 4.07-8.97 5.56-16.7 1.52-10.46Z"/><path d="M105.13 126.72c-4.19-.99-7.16-3.24-6.04-7.73.37-1.5.78-2.52 1.28-3.25 1.73-2 3.36-1.4 4.66-.59-3.31 6.07-3.48 6.47-3.48 6.47-.5.6 3.53 4.7 10.32 4.67 0 0-2.55 1.41-6.74.42Z" style="fill:#525252"/></g></g></g></svg>